<?xml version="1.0" standalone="no"?>
<!DOCTYPE svg PUBLIC "-//W3C//DTD SVG 20010904//EN"
 "http://www.w3.org/TR/2001/REC-SVG-20010904/DTD/svg10.dtd">
<svg version="1.0" xmlns="http://www.w3.org/2000/svg"
 width="500.000000pt" height="500.000000pt" viewBox="0 0 500.000000 500.000000"
 preserveAspectRatio="xMidYMid meet">

<g transform="translate(0.000000,500.000000) scale(0.100000,-0.100000)"
fill="#000000" stroke="none">
<path d="M1060 3341 c19 -37 22 -40 45 -29 50 23 38 50 -28 62 l-38 7 21 -40z"/>
<path d="M2061 3351 l-34 -28 71 1 72 0 -27 28 c-33 35 -40 34 -82 -1z"/>
<path d="M2206 3358 c-3 -13 -6 -26 -6 -30 0 -5 28 -7 63 -6 41 1 50 3 25 5
-33 4 -38 8 -38 29 0 32 -35 33 -44 2z"/>
<path d="M2350 3350 c0 -23 4 -30 20 -30 11 0 20 5 20 10 0 6 15 10 33 10 17
0 39 4 47 10 20 12 -27 30 -81 30 -37 0 -39 -2 -39 -30z m73 3 c-7 -2 -19 -2
-25 0 -7 3 -2 5 12 5 14 0 19 -2 13 -5z"/>
<path d="M2510 3350 c0 -23 5 -30 19 -30 11 0 21 6 24 13 4 10 7 10 18 0 23
-22 54 -16 55 11 2 27 -17 36 -78 36 -36 0 -38 -2 -38 -30z m73 3 c-7 -2 -19
-2 -25 0 -7 3 -2 5 12 5 14 0 19 -2 13 -5z"/>
<path d="M2686 3351 l-27 -28 70 0 71 1 -27 28 c-34 35 -52 35 -87 -1z"/>
<path d="M2830 3370 c0 -5 12 -10 28 -10 l27 -1 -27 -15 c-16 -8 -28 -17 -28
-19 0 -3 26 -4 58 -4 45 1 51 3 27 8 l-30 8 28 13 c42 20 33 30 -28 30 -30 0
-55 -4 -55 -10z"/>
<path d="M2992 3373 c-17 -3 -22 -10 -20 -26 3 -19 10 -22 61 -25 45 -2 59 0
63 13 4 9 3 20 -2 25 -12 11 -73 19 -102 13z m63 -28 c0 -5 -10 -11 -22 -13
-16 -2 -23 2 -23 13 0 11 7 15 23 13 12 -2 22 -7 22 -13z"/>
<path d="M3137 3373 c-4 -3 -7 -17 -7 -30 0 -19 5 -23 33 -24 17 0 39 -2 48
-4 9 -1 23 1 30 6 10 6 2 9 -23 9 -32 0 -39 4 -44 25 -6 24 -23 32 -37 18z"/>
<path d="M3296 3351 l-28 -29 71 -4 c39 -1 71 0 71 4 0 10 -60 58 -74 58 -7 0
-25 -13 -40 -29z"/>
<path d="M3447 3373 c-12 -12 -7 -40 9 -54 14 -11 18 -11 28 1 15 20 86 22 86
3 0 -21 34 -12 38 10 2 10 -2 24 -8 32 -10 12 -17 12 -44 1 -27 -11 -37 -11
-57 0 -27 15 -43 17 -52 7z"/>
<path d="M875 3361 c-43 -11 -88 -34 -93 -48 -6 -22 20 -14 83 22 61 35 63 38
10 26z"/>
<path d="M1180 3350 c0 -5 4 -10 9 -10 6 0 13 5 16 10 3 6 -1 10 -9 10 -9 0
-16 -4 -16 -10z"/>
<path d="M1275 3350 c-3 -5 -1 -10 4 -10 6 0 11 5 11 10 0 6 -2 10 -4 10 -3 0
-8 -4 -11 -10z"/>
<path d="M1380 3350 c-12 -8 -11 -10 8 -10 12 0 22 5 22 10 0 13 -11 13 -30 0z"/>
<path d="M1420 3352 c0 -5 7 -9 15 -9 8 0 15 4 15 9 0 4 -7 8 -15 8 -8 0 -15
-4 -15 -8z"/>
<path d="M1500 3350 c-12 -8 -11 -10 8 -10 12 0 22 5 22 10 0 13 -11 13 -30 0z"/>
<path d="M1547 3349 c7 -7 15 -10 18 -7 3 3 -2 9 -12 12 -14 6 -15 5 -6 -5z"/>
<path d="M1600 3350 c0 -5 9 -10 20 -10 11 0 20 5 20 10 0 6 -9 10 -20 10 -11
0 -20 -4 -20 -10z"/>
<path d="M1650 3352 c0 -5 7 -9 15 -9 8 0 15 4 15 9 0 4 -7 8 -15 8 -8 0 -15
-4 -15 -8z"/>
<path d="M946 3335 c-19 -14 -18 -15 17 -15 28 0 35 3 31 15 -8 19 -23 19 -48
0z"/>
<path d="M4142 3325 c0 -16 2 -22 5 -12 2 9 2 23 0 30 -3 6 -5 -1 -5 -18z"/>
<path d="M4070 3331 c0 -6 4 -13 10 -16 6 -3 7 1 4 9 -7 18 -14 21 -14 7z"/>
<path d="M1143 3313 c-34 -17 -47 -41 -15 -28 9 4 24 8 32 8 8 0 18 5 22 11 5
7 8 4 8 -6 0 -11 8 -18 20 -18 15 0 20 7 20 25 0 21 -5 25 -27 24 -16 0 -43
-8 -60 -16z"/>
<path d="M1255 3310 c-9 -29 1 -37 23 -17 23 21 33 22 26 2 -4 -10 0 -15 10
-15 15 0 34 26 25 35 -2 2 -20 6 -41 10 -31 6 -37 4 -43 -15z"/>
<path d="M1364 3306 c-18 -14 -18 -15 6 -21 30 -7 84 11 75 25 -9 15 -58 12
-81 -4z m46 0 c0 -3 -4 -8 -10 -11 -5 -3 -10 -1 -10 4 0 6 5 11 10 11 6 0 10
-2 10 -4z"/>
<path d="M1460 3305 c-7 -9 -10 -18 -7 -21 6 -7 14 -4 57 21 l25 15 -31 0
c-17 0 -37 -7 -44 -15z"/>
<path d="M1536 3304 c-3 -9 -6 -18 -6 -20 0 -10 24 -2 47 16 l26 20 -31 0
c-18 0 -32 -6 -36 -16z"/>
<path d="M1620 3311 c-11 -8 -12 -13 -4 -21 14 -14 86 -2 81 14 -5 14 -58 19
-77 7z m45 -11 c-3 -5 -11 -10 -16 -10 -6 0 -7 5 -4 10 3 6 11 10 16 10 6 0 7
-4 4 -10z"/>
<path d="M863 3293 c-27 -10 -11 -23 30 -23 58 0 117 11 117 21 0 9 -126 11
-147 2z"/>
<path d="M2030 3245 c0 -10 10 -15 33 -14 30 1 30 1 7 8 l-25 8 25 5 c22 5 21
5 -7 7 -23 1 -33 -3 -33 -14z"/>
<path d="M2187 3241 c-3 -12 -1 -21 3 -21 15 0 23 21 12 32 -6 6 -11 2 -15
-11z"/>
<path d="M2599 3251 c11 -7 11 -9 0 -14 -8 -3 -2 -6 14 -6 18 -1 27 4 27 14 0
10 -10 15 -27 15 -20 0 -24 -3 -14 -9z"/>
<path d="M2660 3245 c0 -10 10 -15 30 -15 20 0 30 5 30 15 0 10 -10 15 -30 15
-20 0 -30 -5 -30 -15z"/>
<path d="M2772 3248 c6 -18 28 -21 28 -4 0 9 -7 16 -16 16 -9 0 -14 -5 -12
-12z"/>
<path d="M2900 3245 c0 -10 10 -15 30 -15 17 0 30 5 30 11 0 6 -9 9 -20 6 -11
-3 -20 -1 -20 4 0 5 -4 9 -10 9 -5 0 -10 -7 -10 -15z"/>
<path d="M2980 3245 c0 -8 5 -15 10 -15 6 0 10 7 10 15 0 8 -4 15 -10 15 -5 0
-10 -7 -10 -15z"/>
<path d="M3100 3246 c0 -9 7 -16 16 -16 9 0 14 5 12 12 -6 18 -28 21 -28 4z"/>
<path d="M3310 3245 c-20 -24 -6 -28 15 -5 10 11 13 20 8 20 -6 0 -16 -7 -23
-15z"/>
<path d="M3375 3251 l20 -8 -20 -6 c-16 -5 -15 -5 4 -4 36 3 39 27 4 26 -24 0
-25 -2 -8 -8z"/>
<path d="M3480 3245 c0 -18 16 -20 23 -2 4 9 8 8 16 -3 11 -16 27 -8 16 9 -10
17 -55 13 -55 -4z"/>
<path d="M2115 3240 c-4 -6 7 -10 24 -10 17 0 31 5 31 10 0 6 -11 10 -24 10
-14 0 -28 -4 -31 -10z"/>
<path d="M2225 3240 c-4 -6 7 -10 24 -10 17 0 31 5 31 10 0 6 -11 10 -24 10
-14 0 -28 -4 -31 -10z"/>
<path d="M2330 3240 c0 -5 9 -10 21 -10 11 0 17 5 14 10 -3 6 -13 10 -21 10
-8 0 -14 -4 -14 -10z"/>
<path d="M2400 3239 c0 -5 11 -9 25 -9 14 0 25 4 25 9 0 5 -11 9 -25 9 -14 0
-25 -4 -25 -9z"/>
<path d="M2470 3240 c0 -5 4 -10 9 -10 6 0 13 5 16 10 3 6 -1 10 -9 10 -9 0
-16 -4 -16 -10z"/>
<path d="M2510 3240 c0 -5 5 -10 10 -10 6 0 10 5 10 10 0 6 -4 10 -10 10 -5 0
-10 -4 -10 -10z"/>
<path d="M2825 3240 c-4 -6 7 -10 24 -10 17 0 31 5 31 10 0 6 -11 10 -24 10
-14 0 -28 -4 -31 -10z"/>
<path d="M3020 3240 c0 -5 14 -10 30 -10 17 0 30 5 30 10 0 6 -13 10 -30 10
-16 0 -30 -4 -30 -10z"/>
<path d="M3155 3240 c-4 -6 7 -10 24 -10 17 0 31 5 31 10 0 6 -11 10 -24 10
-14 0 -28 -4 -31 -10z"/>
<path d="M3230 3240 c0 -5 12 -10 26 -10 14 0 23 4 19 10 -3 6 -15 10 -26 10
-10 0 -19 -4 -19 -10z"/>
<path d="M3590 3242 c0 -4 23 -8 50 -8 28 0 50 4 50 8 0 4 -22 8 -50 8 -27 0
-50 -4 -50 -8z"/>
<path d="M3712 3238 c7 -20 58 -23 58 -4 0 11 -10 16 -31 16 -20 0 -29 -4 -27
-12z"/>
<path d="M703 3065 c0 -44 2 -61 4 -37 2 23 2 59 0 80 -2 20 -4 1 -4 -43z"/>
<path d="M910 3050 c-11 -20 -80 -198 -80 -206 0 -12 61 -2 66 11 4 10 20 15
44 15 24 0 40 -5 44 -15 4 -12 66 -23 66 -12 0 11 -82 202 -91 213 -16 20 -37
17 -49 -6z m43 -110 c4 -15 0 -20 -14 -20 -21 0 -22 1 -13 24 8 22 21 20 27
-4z"/>
<path d="M1086 3063 c-3 -3 -6 -55 -6 -115 l0 -108 80 0 c79 0 80 0 80 25 0
23 -3 25 -50 25 l-49 0 -3 87 c-3 79 -5 86 -24 89 -12 2 -24 1 -28 -3z"/>
<path d="M1280 2950 l0 -110 30 0 c24 0 30 4 31 23 1 12 2 29 3 37 0 9 16 17
38 21 49 8 78 34 78 71 0 49 -30 68 -110 68 l-70 0 0 -110z m118 43 c-2 -11
-14 -19 -31 -21 -22 -3 -27 1 -27 17 0 17 6 21 31 21 24 0 30 -4 27 -17z"/>
<path d="M1500 2950 l0 -110 30 0 c28 0 30 2 30 40 0 27 4 40 13 40 8 0 22
-18 32 -40 16 -35 22 -40 52 -40 18 0 33 3 33 6 0 4 -10 24 -22 45 -20 36 -20
40 -5 57 23 25 21 68 -3 92 -16 16 -33 20 -90 20 l-70 0 0 -110z m118 43 c-2
-11 -14 -19 -31 -21 -22 -3 -27 1 -27 17 0 17 6 21 31 21 24 0 30 -4 27 -17z"/>
<path d="M1757 2968 c-20 -51 -39 -101 -43 -110 -5 -15 0 -18 25 -18 19 0 34
6 37 15 4 10 20 15 45 15 28 0 39 -4 39 -15 0 -10 11 -15 35 -15 l35 0 -19 48
c-66 167 -66 167 -93 170 -24 3 -28 -3 -61 -90z m76 -28 c4 -15 0 -20 -14 -20
-21 0 -22 1 -13 24 8 22 21 20 27 -4z"/>
<path d="M1950 3036 c0 -22 5 -25 41 -28 l40 -3 -40 -57 c-67 -96 -63 -108 39
-108 79 0 80 0 80 25 0 23 -4 25 -46 25 l-45 0 45 64 c26 35 46 73 46 85 0 20
-5 21 -80 21 -78 0 -80 -1 -80 -24z"/>
<path d="M2170 3042 c-15 -12 -24 -33 -27 -64 -11 -92 19 -138 90 -138 48 1
72 15 87 54 22 59 3 145 -35 160 -32 12 -93 6 -115 -12z m94 -66 c8 -44 -8
-86 -33 -86 -21 0 -31 18 -31 60 0 43 10 60 35 60 18 0 24 -7 29 -34z"/>
<path d="M2370 2950 l0 -110 78 0 c43 0 81 3 84 6 3 3 4 14 1 25 -4 15 -14 19
-54 19 l-49 0 0 85 0 85 -30 0 -30 0 0 -110z"/>
<path d="M2636 3052 c-2 -4 -14 -30 -24 -58 -11 -27 -29 -73 -41 -101 l-21
-53 35 0 c24 0 35 5 35 15 0 11 11 15 39 15 25 0 41 -5 45 -15 3 -9 18 -15 37
-15 26 0 30 3 24 18 -4 9 -23 59 -42 110 -31 79 -39 92 -59 92 -12 0 -25 -4
-28 -8z m43 -124 c1 -5 -6 -8 -14 -8 -16 0 -19 9 -8 36 6 16 7 16 14 -2 4 -10
8 -22 8 -26z"/>
<path d="M2800 2950 l0 -110 30 0 c29 0 30 1 30 48 l1 47 18 -22 c11 -13 27
-23 36 -23 9 0 25 10 36 23 l18 22 1 -47 c0 -47 1 -48 30 -48 l30 0 0 110 0
110 -30 0 c-24 0 -35 -7 -48 -31 -38 -68 -38 -68 -63 -16 -21 42 -27 47 -56
47 l-33 0 0 -110z"/>
<path d="M3510 3052 c-1 -22 45 -192 52 -192 11 0 48 76 48 99 0 31 -20 68
-44 79 -34 16 -56 22 -56 14z"/>
<path d="M3354 3014 c-56 -36 -84 -81 -84 -134 0 -38 2 -42 14 -30 24 25 126
190 118 190 -4 0 -26 -12 -48 -26z"/>
<path d="M3650 2990 c0 -16 5 -30 10 -30 10 0 12 5 14 33 1 6 6 15 11 19 6 4
0 8 -12 8 -19 0 -23 -6 -23 -30z"/>
<path d="M3928 2995 c-3 -14 -1 -28 3 -31 5 -3 9 9 9 25 0 38 -6 40 -12 6z"/>
<path d="M4068 3009 c-18 -10 -24 -44 -10 -53 16 -10 34 12 30 37 -2 21 -6 24
-20 16z"/>
<path d="M4147 3014 c-5 -5 -16 -9 -25 -9 -22 0 -28 -41 -8 -48 9 -4 16 -2 16
2 0 5 -6 12 -12 14 -8 4 -7 6 4 6 9 1 18 -5 21 -11 7 -22 19 -1 15 27 -2 15
-7 23 -11 19z"/>
<path d="M3697 3003 c-6 -13 -3 -38 6 -40 19 -7 27 -1 27 22 0 23 -23 36 -33
18z"/>
<path d="M3741 2983 c0 -25 1 -26 9 -8 12 27 12 35 0 35 -5 0 -10 -12 -9 -27z"/>
<path d="M3771 2983 c0 -25 1 -26 9 -8 l9 20 0 -20 c1 -17 3 -17 11 -5 5 8 10
10 10 4 0 -15 34 -24 50 -14 7 4 10 16 8 26 -2 14 -14 19 -51 21 -46 3 -47 2
-46 -24z"/>
<path d="M3884 2995 c-8 -20 3 -48 16 -40 5 3 10 11 10 16 0 6 -4 7 -10 4 -5
-3 -10 1 -10 10 0 9 5 13 10 10 6 -3 10 -1 10 4 0 16 -20 13 -26 -4z"/>
<path d="M3950 2998 c0 -5 4 -7 8 -4 5 3 9 -1 9 -9 0 -8 -4 -12 -9 -9 -4 3 -8
1 -8 -4 0 -13 57 -21 69 -9 19 19 0 43 -35 44 -19 1 -34 -3 -34 -9z m57 -24
c-3 -3 -12 -4 -19 -1 -8 3 -5 6 6 6 11 1 17 -2 13 -5z"/>
<path d="M3420 2947 c-14 -23 -26 -45 -28 -49 -2 -5 17 -8 42 -8 25 0 46 3 46
6 0 17 -23 94 -29 94 -3 0 -17 -19 -31 -43z"/>
<path d="M3610 2880 c-36 -53 -38 -60 -21 -60 11 0 23 5 26 10 3 6 15 10 26
10 10 0 19 -4 19 -10 0 -5 9 -10 20 -10 18 0 20 7 20 60 0 57 -1 60 -25 60
-19 0 -34 -14 -65 -60z"/>
<path d="M3725 2894 c-3 -26 -9 -53 -12 -60 -3 -9 2 -14 16 -14 13 0 21 6 21
18 0 9 5 24 11 32 8 12 9 7 6 -17 -3 -26 0 -33 14 -33 16 0 29 27 29 63 0 12
-8 17 -26 17 -21 0 -24 4 -19 20 5 15 2 20 -13 20 -16 0 -21 -9 -27 -46z"/>
<path d="M3849 2897 c-17 -9 -25 -22 -27 -45 -3 -30 -1 -32 27 -32 16 0 37 7
45 16 37 37 3 84 -45 61z m17 -54 c-11 -11 -19 6 -11 24 8 17 8 17 12 0 3 -10
2 -21 -1 -24z"/>
<path d="M3920 2876 c0 -13 -3 -31 -6 -40 -4 -12 0 -16 15 -16 14 0 21 6 21
20 0 10 9 24 20 30 31 16 24 30 -15 30 -30 0 -35 -3 -35 -24z"/>
<path d="M3996 2884 c-11 -29 -7 -64 9 -64 8 0 15 7 15 15 0 8 9 23 20 32 28
24 25 33 -9 33 -17 0 -31 -6 -35 -16z"/>
<path d="M4069 2876 c-16 -35 -5 -56 29 -56 35 0 55 20 50 52 -2 18 -10 24
-35 26 -27 3 -35 -1 -44 -22z m51 -3 c0 -14 -19 -38 -25 -32 -8 8 5 39 16 39
5 0 9 -3 9 -7z"/>
<path d="M3340 2825 c-17 -33 -8 -40 48 -40 59 0 114 22 110 44 -3 13 -18 17
-74 19 -66 3 -71 1 -84 -23z"/>
<path d="M852 2707 c-27 -28 -28 -58 -4 -86 42 -51 132 -24 132 40 0 64 -83
94 -128 46z m78 -6 c0 -10 -62 -61 -73 -61 -12 0 -8 45 5 58 14 14 68 16 68 3z"/>
<path d="M1655 2708 c-2 -7 -13 -38 -25 -68 -24 -65 -23 -60 -6 -60 12 0 56
104 56 132 0 13 -20 9 -25 -4z"/>
<path d="M1029 2699 c-12 -8 -11 -11 1 -19 9 -5 17 -25 18 -46 3 -43 6 -49 21
-39 6 3 11 24 11 46 0 29 4 39 16 39 9 0 14 6 12 12 -5 15 -60 19 -79 7z"/>
<path d="M1217 2704 c-4 -4 -7 -31 -7 -61 0 -52 1 -53 29 -53 16 0 34 7 41 14
16 21 9 57 -15 70 -11 6 -24 17 -30 24 -6 7 -14 10 -18 6z m43 -69 c0 -8 -4
-15 -10 -15 -5 0 -10 7 -10 15 0 8 5 15 10 15 6 0 10 -7 10 -15z"/>
<path d="M1859 2689 c-16 -16 -20 -28 -15 -52 8 -41 19 -51 50 -43 23 6 26 11
26 51 0 34 -5 47 -20 55 -16 8 -24 6 -41 -11z m28 -56 c-4 -17 -4 -17 -12 0
-4 9 -4 25 0 35 8 16 8 16 12 0 3 -10 3 -26 0 -35z"/>
<path d="M1310 2648 c4 -41 9 -54 24 -56 15 -3 18 0 13 19 -4 13 -7 39 -7 57
0 24 -4 32 -18 32 -15 0 -17 -7 -12 -52z"/>
<path d="M1458 2683 c-7 -30 6 -75 24 -87 24 -14 32 -2 16 23 -11 18 -11 23 0
30 12 7 12 12 1 30 -17 26 -35 27 -41 4z"/>
<path d="M1700 2684 c0 -11 6 -15 20 -11 27 7 25 -7 -6 -38 -31 -31 -24 -45
22 -45 24 0 34 5 34 15 0 8 -7 15 -17 15 -15 0 -15 2 1 19 27 29 17 55 -22 59
-25 3 -32 -1 -32 -14z"/>
<path d="M1115 2670 c-3 -6 4 -14 17 -19 l23 -10 -23 0 c-18 -1 -23 -6 -20
-23 2 -19 9 -23 38 -23 31 0 35 3 38 28 2 16 -2 35 -9 43 -13 16 -55 19 -64 4z"/>
<path d="M1372 2668 c-17 -17 -15 -53 3 -68 9 -7 25 -10 41 -6 20 5 23 10 14
20 -8 11 -8 15 2 19 10 3 10 9 2 23 -13 23 -45 29 -62 12z"/>
<path d="M1535 2670 c-3 -6 4 -14 17 -19 l23 -10 -23 0 c-27 -1 -41 -29 -21
-42 8 -5 26 -9 42 -9 24 0 27 4 27 33 0 18 -5 38 -12 45 -15 15 -45 16 -53 2z"/>
<path d="M1984 2665 c-3 -7 -3 -25 -1 -41 4 -34 32 -40 32 -7 0 33 19 33 23 0
2 -17 8 -26 15 -24 7 3 11 10 9 17 -2 7 0 20 4 29 5 12 9 9 13 -13 3 -16 11
-31 17 -33 17 -6 24 21 15 54 -7 26 -11 28 -65 29 -37 1 -59 -3 -62 -11z"/>
<path d="M2140 2664 c-19 -22 -4 -64 23 -65 22 0 22 0 -2 -10 -18 -7 -22 -12
-13 -21 9 -9 18 -9 37 0 22 10 25 18 25 60 0 47 -1 49 -29 50 -16 0 -35 -6
-41 -14z m40 -30 c0 -8 -4 -12 -10 -9 -5 3 -10 10 -10 16 0 5 5 9 10 9 6 0 10
-7 10 -16z"/>
<path d="M1793 2608 c2 -7 10 -13 17 -13 7 0 15 6 18 13 2 7 -5 12 -18 12 -13
0 -20 -5 -17 -12z"/>
<path d="M845 2438 c9 -47 25 -82 34 -72 12 13 34 84 28 90 -3 3 -11 -12 -18
-33 l-12 -38 -19 40 c-13 29 -17 33 -13 13z"/>
<path d="M935 2450 c-3 -5 -1 -10 4 -10 6 0 11 5 11 10 0 6 -2 10 -4 10 -3 0
-8 -4 -11 -10z"/>
<path d="M1420 2440 c0 -13 -5 -17 -14 -14 -18 7 -38 -28 -30 -50 3 -9 17 -16
30 -16 22 0 24 4 24 50 0 28 -2 50 -5 50 -3 0 -5 -9 -5 -20z m-2 -48 c2 -15
-2 -22 -12 -22 -11 0 -16 9 -16 26 0 31 23 28 28 -4z"/>
<path d="M2170 2449 c0 -5 5 -7 10 -4 6 3 10 8 10 11 0 2 -4 4 -10 4 -5 0 -10
-5 -10 -11z"/>
<path d="M2416 2447 c-12 -9 -17 -23 -14 -47 3 -31 6 -35 33 -35 27 0 30 4 33
33 3 31 -11 62 -27 62 -4 0 -15 -6 -25 -13z m42 -41 c-2 -23 -8 -31 -23 -31
-15 0 -21 8 -23 29 -4 30 12 48 35 39 9 -4 13 -17 11 -37z"/>
<path d="M1130 2441 c0 -5 -9 -11 -21 -14 -16 -4 -20 -12 -17 -34 2 -22 9 -29
31 -31 26 -3 27 -2 27 42 0 25 -4 46 -10 46 -5 0 -10 -4 -10 -9z m0 -46 c0
-26 -14 -33 -25 -15 -9 14 1 40 15 40 5 0 10 -11 10 -25z"/>
<path d="M1838 2440 c-5 -17 3 -80 11 -80 7 0 6 79 -2 86 -3 3 -7 0 -9 -6z"/>
<path d="M2642 2408 c-2 -40 1 -48 16 -48 11 0 13 3 5 8 -6 4 -13 25 -16 47
-4 40 -4 40 -5 -7z"/>
<path d="M933 2395 c0 -22 2 -30 4 -17 2 12 2 30 0 40 -3 9 -5 -1 -4 -23z"/>
<path d="M976 2421 c-4 -5 3 -7 14 -4 11 3 20 1 20 -5 0 -5 -9 -12 -20 -15
-33 -8 -25 -37 10 -37 25 0 30 4 30 23 0 36 -39 63 -54 38z m34 -41 c0 -5 -7
-10 -15 -10 -8 0 -15 5 -15 10 0 6 7 10 15 10 8 0 15 -4 15 -10z"/>
<path d="M1181 2416 c-20 -24 -4 -56 27 -55 21 1 22 2 7 6 -34 8 -41 23 -11
23 21 0 27 4 24 17 -4 23 -31 28 -47 9z m34 -6 c3 -5 -1 -10 -9 -10 -9 0 -16
5 -16 10 0 6 4 10 9 10 6 0 13 -4 16 -10z"/>
<path d="M1300 2420 c0 -6 5 -8 10 -5 6 3 16 3 22 -1 9 -6 5 -10 -12 -14 -34
-8 -32 -34 3 -38 27 -3 28 -1 25 30 -2 25 -8 34 -25 36 -13 2 -23 -2 -23 -8z
m40 -40 c0 -5 -7 -10 -15 -10 -8 0 -15 5 -15 10 0 6 7 10 15 10 8 0 15 -4 15
-10z"/>
<path d="M1461 2391 c1 -36 1 -36 8 -6 3 17 13 30 21 30 8 0 18 -13 21 -30 7
-30 7 -30 8 -3 1 26 17 46 28 34 3 -3 6 -17 6 -31 0 -14 3 -25 8 -25 14 0 11
48 -3 57 -7 4 -32 8 -55 9 l-43 1 1 -36z"/>
<path d="M1645 2422 c-14 -9 -18 -62 -5 -62 6 0 10 14 10 31 0 39 22 34 32 -7
6 -27 6 -27 5 6 -2 35 -20 49 -42 32z"/>
<path d="M1723 2395 c0 -22 2 -30 4 -17 2 12 2 30 0 40 -3 9 -5 -1 -4 -23z"/>
<path d="M1767 2423 c-14 -13 -6 -33 13 -33 27 0 25 -18 -2 -23 -20 -4 -19 -4
5 -6 32 -1 38 28 7 36 -25 7 -26 20 -2 26 14 4 14 5 1 6 -9 0 -19 -2 -22 -6z"/>
<path d="M1897 2423 c-4 -3 -6 -20 -6 -37 2 -27 2 -28 6 -6 2 14 12 31 21 38
14 10 14 12 1 12 -9 0 -19 -3 -22 -7z"/>
<path d="M1956 2421 c-4 -5 3 -7 14 -4 11 3 20 1 20 -5 0 -5 -9 -12 -20 -15
-29 -7 -26 -37 4 -37 28 0 37 16 25 48 -8 22 -33 30 -43 13z m34 -41 c0 -5 -7
-10 -15 -10 -8 0 -15 5 -15 10 0 6 7 10 15 10 8 0 15 -4 15 -10z"/>
<path d="M2042 2421 c-21 -13 -11 -56 13 -57 16 -1 17 0 2 3 -24 6 -19 49 5
47 10 -1 15 2 12 7 -6 11 -15 11 -32 0z"/>
<path d="M2113 2395 c0 -22 2 -30 4 -17 2 12 2 30 0 40 -3 9 -5 -1 -4 -23z"/>
<path d="M2151 2416 c-20 -24 -9 -51 19 -51 21 0 25 5 25 30 0 34 -24 45 -44
21z m37 -24 c2 -14 -2 -22 -11 -22 -17 0 -26 19 -19 38 7 19 27 9 30 -16z"/>
<path d="M2231 2391 c1 -35 2 -35 8 -7 9 41 31 46 31 7 0 -17 5 -31 10 -31 14
0 12 46 -2 57 -7 6 -21 10 -30 10 -14 0 -18 -8 -17 -36z"/>
<path d="M2501 2390 c1 -27 3 -29 6 -10 2 14 11 30 20 37 13 10 13 12 -6 10
-17 -1 -21 -7 -20 -37z"/>
<path d="M2566 2421 c-3 -5 3 -7 14 -4 11 3 20 1 20 -5 0 -5 -9 -12 -20 -15
-28 -7 -26 -37 3 -37 32 0 36 6 28 38 -8 27 -34 41 -45 23z m34 -41 c0 -5 -7
-10 -15 -10 -8 0 -15 5 -15 10 0 6 7 10 15 10 8 0 15 -4 15 -10z"/>
<path d="M1590 2390 c0 -16 5 -30 10 -30 6 0 10 14 10 30 0 17 -4 30 -10 30
-5 0 -10 -13 -10 -30z"/>
<path d="M4180 2408 c0 -4 4 -8 9 -8 6 0 12 4 15 8 3 5 -1 9 -9 9 -8 0 -15 -4
-15 -9z"/>
<path d="M4153 2376 c-10 -11 -9 -15 1 -19 8 -3 16 3 19 14 6 22 -3 24 -20 5z"/>
<path d="M4143 2333 c-7 -2 -13 -9 -13 -14 0 -6 5 -7 10 -4 7 4 8 -3 4 -22 -4
-16 -3 -24 2 -20 6 6 16 71 10 66 -1 0 -7 -3 -13 -6z"/>
<path d="M4146 2248 c3 -5 10 -6 15 -3 13 9 11 12 -6 12 -8 0 -12 -4 -9 -9z"/>
<path d="M4192 2177 c14 -15 50 -19 42 -5 -3 5 -10 6 -15 3 -5 -4 -9 -1 -9 4
0 6 -7 11 -16 11 -13 0 -13 -2 -2 -13z"/>
<path d="M2250 1960 l0 -40 435 0 435 0 0 40 0 40 -435 0 -435 0 0 -40z"/>
<path d="M3410 1960 l0 -40 435 0 435 0 0 40 0 40 -435 0 -435 0 0 -40z"/>
<path d="M862 1738 c-6 -6 -12 -24 -12 -39 0 -47 49 -76 78 -47 20 20 14 29
-15 26 -24 -3 -28 1 -28 22 0 22 4 25 29 22 19 -2 27 1 24 10 -6 17 -60 22
-76 6z"/>
<path d="M1055 1740 c3 -5 10 -10 16 -10 5 0 9 5 9 10 0 6 -7 10 -16 10 -8 0
-12 -4 -9 -10z"/>
<path d="M1556 1734 c-5 -13 -2 -15 17 -10 21 5 24 2 24 -24 0 -26 -3 -29 -24
-24 -13 4 -23 2 -23 -5 0 -16 39 -33 61 -26 17 6 20 14 17 53 -3 45 -5 47 -34
50 -22 2 -33 -2 -38 -14z"/>
<path d="M1657 1743 c-13 -13 -7 -81 8 -93 26 -21 65 3 65 39 0 46 -10 61 -39
61 -15 0 -31 -3 -34 -7z m43 -43 c0 -16 -4 -30 -10 -30 -5 0 -10 14 -10 30 0
17 5 30 10 30 6 0 10 -13 10 -30z"/>
<path d="M1789 1733 c-4 -60 8 -92 33 -93 3 0 5 19 3 43 -2 23 -4 48 -4 55 -2
19 -31 14 -32 -5z"/>
<path d="M1948 1733 c-2 -10 -2 -34 0 -54 3 -32 7 -36 33 -37 34 -1 49 21 40
58 -4 16 -15 26 -29 28 -12 2 -22 8 -22 13 0 16 -18 10 -22 -8z m42 -49 c0 -8
-5 -12 -10 -9 -6 4 -8 11 -5 16 9 14 15 11 15 -7z"/>
<path d="M2040 1706 c0 -47 22 -78 41 -59 8 8 7 13 0 17 -6 4 -11 25 -11 47 0
28 -4 39 -15 39 -11 0 -15 -12 -15 -44z"/>
<path d="M2198 1733 c-3 -38 4 -78 15 -85 22 -14 25 -8 22 35 -2 23 -4 48 -4
55 -2 19 -31 14 -33 -5z"/>
<path d="M965 1720 c-3 -6 4 -14 17 -19 23 -10 23 -10 1 -10 -12 -1 -25 -6
-28 -11 -11 -18 15 -39 46 -38 27 1 29 4 29 38 0 25 -5 40 -16 44 -23 9 -42 7
-49 -4z"/>
<path d="M1117 1723 c-12 -11 -8 -21 11 -26 13 -4 11 -5 -5 -6 -16 -1 -23 -7
-23 -21 0 -11 3 -21 8 -21 71 -11 72 -10 72 24 0 18 -5 38 -12 45 -13 13 -41
16 -51 5z"/>
<path d="M1251 1721 c-32 -20 -9 -85 28 -78 24 4 23 24 -1 31 l-23 6 23 18
c32 25 8 45 -27 23z"/>
<path d="M1333 1723 c-21 -8 -16 -71 6 -78 25 -8 51 4 52 24 4 50 -18 71 -58
54z m32 -32 c3 -5 1 -12 -5 -16 -5 -3 -10 1 -10 9 0 18 6 21 15 7z"/>
<path d="M1416 1722 c-2 -4 -3 -18 -1 -32 1 -14 3 -31 4 -37 2 -27 21 -12 21
17 0 37 18 40 22 3 2 -14 9 -28 16 -31 10 -3 12 7 10 39 -3 42 -5 44 -35 46
-18 1 -35 -2 -37 -5z"/>
<path d="M1855 1721 c-3 -6 3 -14 12 -20 17 -10 17 -10 0 -11 -13 0 -17 -6
-15 -22 2 -18 10 -23 36 -25 31 -1 32 0 32 37 0 25 -5 40 -16 44 -23 9 -42 7
-49 -3z"/>
<path d="M2112 1718 c-30 -30 -2 -86 38 -73 27 8 26 23 -2 28 -20 4 -19 4 5 6
41 2 29 51 -13 51 -9 0 -21 -5 -28 -12z"/>
<path d="M2267 1724 c-4 -4 -2 -13 4 -21 9 -10 8 -13 0 -13 -7 0 -11 -10 -9
-22 2 -18 10 -23 36 -25 33 -1 33 -1 30 40 -3 37 -6 42 -28 45 -14 2 -29 0
-33 -4z"/>
<path d="M2363 1724 c-19 -8 -16 -42 5 -47 16 -4 16 -5 0 -6 -10 0 -18 -5 -18
-10 0 -16 20 -23 46 -17 22 6 24 11 21 44 -4 37 -22 49 -54 36z"/>
<path d="M1050 1686 c0 -19 -3 -41 -6 -50 -4 -12 0 -16 15 -16 19 0 21 6 21
50 0 38 -4 50 -15 50 -10 0 -15 -10 -15 -34z"/>
<path d="M733 1625 c0 -38 2 -53 4 -32 2 20 2 52 0 70 -2 17 -4 1 -4 -38z"/>
</g>
</svg>
