<?xml version="1.0" standalone="no"?>
<!DOCTYPE svg PUBLIC "-//W3C//DTD SVG 20010904//EN"
 "http://www.w3.org/TR/2001/REC-SVG-20010904/DTD/svg10.dtd">
<svg version="1.0" xmlns="http://www.w3.org/2000/svg"
 width="500.000000pt" height="500.000000pt" viewBox="0 0 500.000000 500.000000"
 preserveAspectRatio="xMidYMid meet">

<g transform="translate(0.000000,500.000000) scale(0.100000,-0.100000)"
fill="#000000" stroke="none">
<path d="M120 3404 c0 -92 37 -1873 43 -2096 l4 -126 84 -100 c46 -56 85 -99
87 -98 4 5 -37 2123 -46 2326 l-7 175 -82 3 -83 4 0 -88z m146 -5 c4 -6 15
-419 24 -918 10 -498 21 -1021 24 -1161 4 -149 3 -250 -2 -245 -5 6 -36 42
-68 80 l-59 70 -7 315 c-17 734 -38 1759 -38 1813 l0 57 59 0 c34 0 63 -5 67
-11z"/>
<path d="M4291 3262 c0 -9 6 -46 13 -82 11 -59 13 -63 24 -43 14 26 16 88 2
112 -14 26 -40 35 -39 13z"/>
<path d="M3455 3260 c-15 -24 -123 -360 -117 -363 4 -2 13 -2 20 -1 6 1 21 2
32 3 12 0 25 12 30 26 9 22 15 25 64 25 49 0 54 -2 60 -25 5 -21 12 -25 46
-25 22 0 40 1 40 3 0 1 -26 83 -58 182 -55 169 -60 180 -84 183 -14 2 -29 -2
-33 -8z m45 -181 c13 -46 4 -61 -30 -52 -17 5 -17 8 -3 49 8 24 17 44 19 44 2
0 8 -19 14 -41z"/>
<path d="M2241 3243 c-60 -31 -76 -63 -80 -160 -4 -107 9 -155 53 -188 65 -49
171 -23 202 50 8 19 14 37 14 40 0 3 -19 5 -43 5 -31 0 -45 -5 -55 -20 -14
-22 -51 -27 -70 -8 -19 19 -16 183 4 202 21 21 40 20 64 -4 13 -13 33 -20 60
-20 46 0 46 0 24 45 -30 64 -111 91 -173 58z"/>
<path d="M2477 3253 c-10 -10 -8 -371 2 -377 5 -3 23 -3 40 0 l31 7 0 188 0
189 -33 0 c-19 0 -37 -3 -40 -7z"/>
<path d="M2620 3070 l0 -190 115 0 115 0 0 40 0 40 -75 0 -75 0 0 150 0 150
-40 0 -40 0 0 -190z"/>
<path d="M2896 3078 c-3 -100 -3 -185 1 -189 5 -5 25 -6 46 -2 l37 6 0 183 0
184 -38 0 -39 0 -7 -182z"/>
<path d="M3040 3075 l0 -185 40 0 39 0 3 93 3 92 54 -92 c51 -88 55 -93 87
-93 l34 0 0 185 0 185 -40 0 -39 0 -3 -90 -3 -90 -50 90 c-49 88 -51 90 -87
90 l-38 0 0 -185z"/>
<path d="M4188 3243 c-27 -31 -48 -81 -48 -115 1 -30 4 -26 36 41 35 77 41
106 12 74z"/>
<path d="M1431 3232 c-58 -29 -74 -61 -79 -154 -5 -107 8 -158 53 -197 67 -58
175 -34 218 49 26 51 20 217 -9 257 -25 35 -79 63 -119 63 -16 0 -45 -8 -64
-18z m94 -76 c16 -12 20 -29 23 -95 5 -97 -11 -134 -56 -129 -40 5 -53 40 -50
131 3 64 7 81 23 93 10 8 24 14 30 14 6 0 20 -6 30 -14z"/>
<path d="M1670 3244 c0 -4 23 -46 50 -94 28 -48 50 -90 50 -92 0 -3 -25 -49
-55 -102 l-54 -96 49 0 50 0 31 62 32 63 31 -63 30 -62 48 0 c26 0 48 2 48 4
0 3 -25 48 -56 100 l-56 96 49 87 c26 49 50 91 51 96 2 4 -18 7 -45 7 l-49 0
-28 -57 -28 -58 -29 58 c-29 57 -30 57 -74 57 -25 0 -45 -3 -45 -6z"/>
<path d="M2020 3055 c0 -213 -2 -205 58 -189 22 6 22 8 22 195 l0 189 -40 0
-40 0 0 -195z"/>
<path d="M4370 3223 c0 -21 3 -24 9 -14 5 8 7 20 4 28 -8 21 -13 15 -13 -14z"/>
<path d="M4629 3248 c-5 -17 -4 -48 3 -48 4 0 8 11 8 25 0 20 -7 34 -11 23z"/>
<path d="M670 3237 c0 -2 -29 -89 -65 -192 -36 -104 -65 -195 -65 -202 0 -10
12 -13 41 -11 36 2 43 6 55 33 12 31 15 32 79 34 l65 2 6 -30 c6 -29 9 -31 55
-31 l48 0 -24 68 c-13 37 -46 126 -74 197 l-50 130 -35 3 c-20 2 -36 1 -36 -1z
m64 -204 c9 -26 16 -50 16 -55 0 -4 -18 -8 -41 -8 -31 0 -40 3 -36 14 3 8 11
32 18 55 7 23 16 41 20 41 4 0 14 -21 23 -47z"/>
<path d="M930 3040 l0 -200 45 0 44 0 3 98 3 97 28 -48 c26 -43 32 -48 60 -45
26 2 36 11 57 48 l25 45 3 -92 3 -93 44 0 45 0 0 195 0 195 -47 0 -48 -1 -39
-84 c-22 -47 -43 -85 -47 -85 -4 0 -27 38 -51 85 l-43 85 -42 0 -43 0 0 -200z"/>
<path d="M4403 3220 c-1 -11 2 -20 8 -20 5 0 9 9 9 20 0 11 -4 20 -8 20 -4 0
-8 -9 -9 -20z"/>
<path d="M4443 3233 c9 -2 23 -2 30 0 6 3 -1 5 -18 5 -16 0 -22 -2 -12 -5z"/>
<path d="M4514 3229 c-3 -6 -2 -15 3 -20 5 -5 9 -1 9 11 0 23 -2 24 -12 9z"/>
<path d="M4583 3222 c0 -12 5 -22 9 -22 11 0 10 12 -2 30 -7 12 -9 10 -7 -8z"/>
<path d="M4552 3223 c-6 -2 -10 -9 -6 -14 8 -14 21 -11 21 6 0 8 -1 15 -1 14
-1 0 -7 -3 -14 -6z"/>
<path d="M4477 3209 c7 -7 15 -10 18 -7 3 3 -2 9 -12 12 -14 6 -15 5 -6 -5z"/>
<path d="M4231 3184 c-16 -35 -14 -44 9 -44 15 0 20 7 20 29 0 39 -14 47 -29
15z"/>
<path d="M4352 3134 c-13 -26 -20 -49 -16 -53 4 -3 9 0 11 7 5 14 33 16 33 2
0 -5 5 -10 10 -10 6 0 10 23 10 50 0 64 -18 66 -48 4z"/>
<path d="M4420 3146 c0 -19 -3 -41 -6 -50 -3 -9 -1 -16 5 -16 6 0 11 9 11 19
0 11 5 23 11 27 9 5 10 -1 5 -20 -3 -14 -2 -26 3 -26 8 0 21 33 21 58 0 6 -7
12 -15 12 -8 0 -15 7 -15 15 0 8 -4 15 -10 15 -5 0 -10 -15 -10 -34z"/>
<path d="M4481 3128 c-10 -28 -4 -48 15 -48 17 0 37 37 30 56 -8 22 -36 17
-45 -8z m25 -25 c-11 -11 -19 6 -11 24 8 17 8 17 12 0 3 -10 2 -21 -1 -24z"/>
<path d="M4538 3115 c-2 -19 0 -35 4 -35 4 0 8 9 8 19 0 11 5 23 10 26 15 9
12 25 -4 25 -8 0 -15 -14 -18 -35z"/>
<path d="M4587 3143 c-4 -3 -7 -20 -6 -37 l1 -31 11 28 c6 15 14 27 19 27 4 0
8 5 8 10 0 11 -23 14 -33 3z"/>
<path d="M4628 3125 c-9 -19 -9 -28 0 -37 16 -16 42 8 42 38 0 32 -27 31 -42
-1z m32 1 c0 -8 -4 -18 -10 -21 -5 -3 -10 3 -10 14 0 12 5 21 10 21 6 0 10 -6
10 -14z"/>
<path d="M4182 3075 c-11 -24 -10 -25 26 -25 39 0 62 14 62 37 0 8 -14 13 -38
13 -32 0 -41 -5 -50 -25z"/>
<path d="M623 2603 c-69 -74 -79 -107 -43 -143 36 -36 69 -26 138 43 53 54 62
68 62 99 0 27 -6 41 -22 52 -42 30 -67 20 -135 -51z m135 21 c13 -28 6 -48
-25 -76 -18 -17 -21 -16 -53 17 l-34 35 24 25 c32 34 73 33 88 -1z"/>
<path d="M997 2643 c-4 -3 -7 -11 -7 -17 0 -6 5 -5 12 2 6 6 9 14 7 17 -3 3
-9 2 -12 -2z"/>
<path d="M1342 2586 c2 -39 8 -61 16 -64 11 -3 12 0 5 14 -5 11 -11 37 -12 59
-2 22 -5 42 -7 45 -3 2 -4 -22 -2 -54z"/>
<path d="M862 2618 c-7 -7 -12 -31 -12 -53 0 -34 5 -44 25 -55 22 -12 27 -11
45 5 23 21 19 35 -5 15 -26 -22 -45 -4 -45 41 0 41 1 41 30 36 31 -7 42 6 14
17 -24 9 -39 7 -52 -6z"/>
<path d="M1242 2568 c3 -41 5 -43 36 -46 32 -3 32 -3 32 42 0 25 -4 46 -10 46
-5 0 -10 -18 -10 -40 0 -29 -4 -40 -15 -40 -10 0 -15 10 -15 34 0 19 -5 38
-11 41 -7 5 -9 -8 -7 -37z"/>
<path d="M1400 2602 c0 -5 7 -9 16 -8 9 0 19 -5 21 -11 3 -8 -5 -13 -22 -13
-22 0 -26 -4 -23 -22 2 -18 10 -23 36 -25 33 -1 33 -1 30 40 -3 37 -6 42 -30
45 -16 2 -28 -1 -28 -6z m40 -52 c0 -5 -9 -10 -21 -10 -11 0 -17 5 -14 10 3 6
13 10 21 10 8 0 14 -4 14 -10z"/>
<path d="M964 2589 c-4 -7 2 -9 16 -7 13 2 25 -2 27 -9 2 -6 -6 -13 -19 -15
-15 -2 -24 -11 -26 -25 -3 -20 1 -23 32 -23 34 0 36 2 36 33 0 18 -5 38 -12
45 -15 15 -45 16 -54 1z m46 -54 c0 -8 -9 -15 -20 -15 -20 0 -26 11 -13 23 12
13 33 7 33 -8z"/>
<path d="M1056 2578 c1 -13 3 -41 4 -63 1 -22 4 -32 7 -22 3 10 14 17 28 17
27 0 40 28 31 66 -5 19 -13 24 -40 24 -28 0 -32 -3 -30 -22z m52 -12 c2 -9 1
-24 -3 -33 -10 -27 -39 8 -30 36 8 25 28 23 33 -3z"/>
<path d="M1154 2585 c-8 -20 4 -35 27 -35 29 0 23 -18 -8 -22 -25 -4 -26 -5
-9 -13 22 -10 51 5 51 26 0 8 -10 18 -22 24 -13 5 -23 13 -23 17 0 3 10 9 23
11 19 4 18 4 -6 6 -16 0 -30 -5 -33 -14z"/>
<path d="M863 2403 c-7 -2 -13 -18 -13 -34 0 -26 3 -29 28 -27 22 2 28 -1 30
-21 3 -22 1 -23 -28 -17 -28 5 -31 4 -20 -9 29 -35 71 -7 62 41 -3 17 -11 24
-28 24 -15 0 -24 6 -24 15 0 9 9 15 25 15 14 0 25 5 25 10 0 10 -35 12 -57 3z"/>
<path d="M957 2403 c-4 -3 -7 -28 -7 -53 0 -56 18 -77 49 -60 16 8 21 20 21
53 0 24 -5 48 -12 55 -13 13 -41 16 -51 5z m43 -59 c0 -32 -4 -44 -15 -44 -8
0 -16 3 -16 8 -7 46 -6 68 3 79 17 21 28 5 28 -43z"/>
<path d="M1046 2394 c-10 -26 -7 -79 6 -92 32 -32 70 0 63 54 -2 16 -4 35 -4
42 -1 18 -58 15 -65 -4z m49 -45 c0 -32 -4 -44 -15 -44 -16 0 -26 54 -16 82
12 30 31 6 31 -38z"/>
<path d="M1203 2382 c-20 -3 -23 -9 -23 -48 0 -24 5 -44 10 -44 6 0 10 18 10
40 0 29 4 40 15 40 10 0 15 -11 15 -35 0 -44 18 -46 22 -2 2 20 8 32 18 32 10
0 16 -12 18 -32 4 -37 22 -46 21 -10 -2 58 -24 71 -106 59z"/>
<path d="M1337 2383 c-11 -10 -8 -58 4 -70 6 -6 18 -9 25 -6 24 9 15 -17 -8
-27 -21 -9 -20 -9 7 -7 29 2 30 4 33 60 3 57 3 57 -26 57 -16 0 -32 -3 -35 -7z
m41 -39 c-5 -28 -28 -29 -28 -1 0 13 3 27 7 31 10 10 25 -10 21 -30z"/>
<path d="M2192 2248 c-13 -13 -17 -84 -4 -91 4 -3 7 16 7 41 0 40 3 47 20 47
17 0 20 -7 20 -47 0 -25 3 -44 8 -41 4 2 7 24 7 48 0 30 -5 45 -16 49 -22 8
-28 8 -42 -6z"/>
<path d="M2361 2224 c10 -3 16 -17 17 -35 0 -17 4 -34 7 -37 4 -4 5 11 3 33
-2 31 -7 40 -23 42 -13 1 -14 0 -4 -3z"/>
<path d="M2283 2185 c0 -22 2 -30 4 -17 2 12 2 30 0 40 -3 9 -5 -1 -4 -23z"/>
<path d="M1198 2188 c-2 -13 -1 -39 3 -58 5 -30 7 -26 8 23 1 58 -4 74 -11 35z"/>
<path d="M1633 2165 c0 -27 2 -38 4 -22 2 15 2 37 0 50 -2 12 -4 0 -4 -28z"/>
<path d="M1962 2204 c9 -3 19 -16 21 -30 4 -21 4 -21 3 3 -1 20 -7 28 -21 30
-14 1 -15 0 -3 -3z"/>
<path d="M1085 2190 c3 -5 8 -10 11 -10 2 0 4 5 4 10 0 6 -5 10 -11 10 -5 0
-7 -4 -4 -10z"/>
<path d="M1740 2196 c0 -2 11 -6 25 -8 14 -3 25 -1 25 3 0 5 -11 9 -25 9 -14
0 -25 -2 -25 -4z"/>
<path d="M1513 2150 c0 -25 2 -35 4 -22 2 12 2 32 0 45 -2 12 -4 2 -4 -23z"/>
<path d="M1557 2183 c-13 -13 -7 -33 11 -33 13 0 14 2 3 9 -7 5 -10 14 -7 20
8 12 3 15 -7 4z"/>
<path d="M1932 2170 c0 -14 2 -19 5 -12 2 6 2 18 0 25 -3 6 -5 1 -5 -13z"/>
<path d="M1284 2164 c8 -8 15 -9 23 -2 7 6 20 8 28 4 9 -3 14 -2 11 3 -3 5
-21 9 -40 8 -25 -1 -31 -4 -22 -13z"/>
<path d="M1420 2145 c0 -19 2 -35 4 -35 2 0 6 16 8 35 2 19 0 35 -4 35 -4 0
-8 -16 -8 -35z"/>
<path d="M1820 2161 c0 -11 4 -22 9 -25 4 -3 6 6 3 19 -5 30 -12 33 -12 6z"/>
<path d="M570 2165 c0 -5 5 -17 10 -25 5 -8 10 -10 10 -5 0 6 -5 17 -10 25 -5
8 -10 11 -10 5z"/>
<path d="M1154 2156 c-9 -24 0 -61 16 -62 11 -1 11 0 2 3 -9 3 -13 16 -10 39
4 36 1 44 -8 20z"/>
<path d="M1243 2135 c0 -22 2 -30 4 -17 2 12 2 30 0 40 -3 9 -5 -1 -4 -23z"/>
<path d="M847 2153 c-3 -5 5 -8 18 -8 13 0 21 3 18 8 -2 4 -10 7 -18 7 -8 0
-16 -3 -18 -7z"/>
<path d="M2348 2153 c7 -3 16 -2 19 1 4 3 -2 6 -13 5 -11 0 -14 -3 -6 -6z"/>
<path d="M673 2110 c0 -25 2 -35 4 -22 2 12 2 32 0 45 -2 12 -4 2 -4 -23z"/>
<path d="M1061 2143 c-1 -6 -4 -20 -7 -30 -5 -17 -5 -17 6 0 6 10 9 23 6 30
-3 9 -5 9 -5 0z"/>
<path d="M1594 2141 c4 -7 -2 -15 -16 -20 -15 -7 -17 -10 -7 -10 23 -1 44 25
28 35 -8 4 -9 3 -5 -5z"/>
<path d="M975 2130 c-3 -5 -1 -10 4 -10 6 0 11 5 11 10 0 6 -2 10 -4 10 -3 0
-8 -4 -11 -10z"/>
<path d="M1110 2135 c0 -5 5 -17 10 -25 5 -8 10 -10 10 -5 0 6 -5 17 -10 25
-5 8 -10 11 -10 5z"/>
<path d="M1948 2133 c7 -3 16 -2 19 1 4 3 -2 6 -13 5 -11 0 -14 -3 -6 -6z"/>
<path d="M755 2120 c-3 -5 -1 -10 4 -10 6 0 11 5 11 10 0 6 -2 10 -4 10 -3 0
-8 -4 -11 -10z"/>
<path d="M887 2110 c-3 -11 -1 -23 4 -26 5 -3 9 6 9 20 0 31 -6 34 -13 6z"/>
<path d="M1748 2123 c7 -3 16 -2 19 1 4 3 -2 6 -13 5 -11 0 -14 -3 -6 -6z"/>
<path d="M761 2084 c0 -11 3 -14 6 -6 3 7 2 16 -1 19 -3 4 -6 -2 -5 -13z"/>
<path d="M938 2088 c5 -5 16 -8 23 -6 8 3 3 7 -10 11 -17 4 -21 3 -13 -5z"/>
<path d="M600 2079 c0 -5 5 -7 10 -4 6 3 10 8 10 11 0 2 -4 4 -10 4 -5 0 -10
-5 -10 -11z"/>
<path d="M4270 1943 c-217 -13 -401 -26 -407 -28 -12 -4 -19 -105 -9 -116 3
-3 53 -1 113 3 59 4 245 16 413 28 168 11 329 22 358 26 l52 5 0 55 0 54 -62
-1 c-35 -1 -241 -12 -458 -26z"/>
<path d="M3330 1883 c-30 -2 -232 -15 -449 -28 -216 -14 -404 -25 -417 -25
-23 0 -24 -3 -24 -65 0 -36 4 -65 9 -65 14 0 876 59 974 66 l87 7 0 58 0 59
-62 -2 c-35 -1 -88 -3 -118 -5z"/>
<path d="M1972 1303 c-2 -52 1 -63 14 -63 12 0 14 3 6 13 -6 7 -12 35 -15 62
-3 48 -3 48 -5 -12z"/>
<path d="M1640 1329 c0 -5 5 -7 10 -4 6 3 10 8 10 11 0 2 -4 4 -10 4 -5 0 -10
-5 -10 -11z"/>
<path d="M2112 1328 c-18 -18 -14 -36 8 -40 25 -4 22 -24 -2 -21 -10 2 -18 -2
-18 -7 0 -15 46 -12 60 5 15 18 5 35 -21 35 -10 0 -19 5 -19 10 0 6 9 10 20
10 11 0 20 5 20 10 0 14 -33 13 -48 -2z"/>
<path d="M2025 1320 c-4 -7 0 -10 10 -8 10 2 20 -3 22 -9 3 -8 -4 -13 -15 -13
-21 0 -34 -20 -24 -38 4 -5 20 -9 35 -9 26 2 28 4 25 42 -2 32 -7 41 -25 43
-11 2 -24 -2 -28 -8z m35 -50 c0 -5 -7 -10 -15 -10 -8 0 -15 5 -15 10 0 6 7
10 15 10 8 0 15 -4 15 -10z"/>
<path d="M1515 1310 c-9 -14 -9 -86 -1 -99 10 -15 38 -14 62 3 25 19 12 31
-15 14 -18 -11 -23 -11 -31 2 -14 21 -12 43 4 65 12 17 16 17 30 6 18 -15 32
-9 21 8 -8 14 -62 14 -70 1z"/>
<path d="M1876 1308 c-4 -9 -6 -29 -4 -45 3 -24 7 -28 33 -28 28 0 30 3 33 43
2 25 -1 42 -7 42 -6 0 -11 -16 -11 -35 0 -50 -28 -48 -32 3 -3 27 -6 32 -12
20z"/>
<path d="M1305 1290 c-17 -18 -17 -20 -2 -14 15 5 17 -1 17 -46 0 -32 4 -49
10 -45 10 6 9 110 -2 120 -2 3 -13 -4 -23 -15z"/>
<path d="M1387 1303 c-14 -13 -6 -25 8 -13 12 10 19 10 27 2 8 -8 4 -21 -15
-50 -15 -21 -27 -41 -27 -45 0 -4 16 -7 35 -7 19 0 35 5 35 10 0 6 -12 10 -27
10 l-26 0 20 23 c29 32 34 43 27 61 -6 16 -45 22 -57 9z"/>
<path d="M1794 1295 c-8 -20 4 -35 27 -35 11 0 17 -4 14 -10 -3 -5 -16 -10
-28 -10 -15 0 -18 -3 -10 -11 6 -6 21 -8 33 -4 30 9 23 47 -10 56 -25 6 -23 8
20 22 8 3 2 6 -13 6 -16 1 -30 -5 -33 -14z"/>
<path d="M1615 1291 c-4 -7 4 -11 19 -11 32 0 34 -17 4 -22 -15 -2 -24 -11
-26 -25 -3 -20 1 -23 28 -23 36 0 46 17 33 57 -10 29 -45 43 -58 24z m45 -50
c0 -14 -18 -23 -30 -16 -6 4 -8 11 -5 16 8 12 35 12 35 0z"/>
<path d="M1700 1241 c0 -34 4 -61 10 -61 6 0 10 9 10 19 0 13 8 21 23 23 18 2
22 9 22 38 0 32 -3 35 -32 38 l-33 3 0 -60z m50 25 c0 -14 -5 -28 -10 -31 -13
-8 -24 20 -16 40 9 24 26 17 26 -9z"/>
<path d="M800 1260 c0 -5 5 -10 11 -10 5 0 7 5 4 10 -3 6 -8 10 -11 10 -2 0
-4 -4 -4 -10z"/>
<path d="M1150 1215 c0 -25 5 -45 10 -45 6 0 10 16 10 35 0 24 5 35 15 35 8 0
16 -9 16 -20 2 -33 4 -38 12 -46 4 -4 7 14 7 39 0 47 0 47 -35 47 -35 0 -35 0
-35 -45z"/>
<path d="M602 1238 c-7 -7 -12 -28 -12 -48 0 -20 5 -41 12 -48 17 -17 53 -15
69 5 12 15 12 16 -6 9 -43 -17 -50 -13 -50 29 0 39 1 40 32 39 23 -1 30 2 26
12 -6 17 -55 18 -71 2z"/>
<path d="M986 1234 c-32 -31 -16 -74 27 -74 17 0 27 3 23 7 -4 4 -15 8 -24 8
-28 0 -22 49 6 53 12 2 20 8 17 13 -9 14 -32 11 -49 -7z"/>
<path d="M1059 1229 c-13 -26 2 -69 25 -69 18 0 46 27 46 45 0 47 -49 63 -71
24z m46 -19 c0 -13 -6 -25 -12 -27 -16 -6 -27 21 -19 43 9 23 31 11 31 -16z"/>
<path d="M850 1230 c-12 -8 -9 -10 13 -10 34 0 36 -17 2 -26 -15 -4 -25 -13
-25 -24 0 -21 15 -28 47 -22 19 4 23 11 23 42 0 46 -25 62 -60 40z m40 -55 c0
-8 -7 -15 -15 -15 -16 0 -20 12 -8 23 11 12 23 8 23 -8z"/>
<path d="M723 1223 c-21 -8 -15 -22 7 -16 11 3 20 0 20 -6 0 -6 -11 -13 -25
-17 -15 -4 -25 -13 -25 -24 0 -25 14 -32 45 -24 21 5 25 12 25 44 0 25 -5 40
-16 44 -9 3 -16 6 -17 5 -1 0 -8 -3 -14 -6z m27 -58 c0 -8 -7 -15 -15 -15 -16
0 -20 12 -8 23 11 12 23 8 23 -8z"/>
<path d="M800 1176 c0 -34 -5 -56 -12 -59 -7 -2 -10 -8 -6 -12 4 -4 14 -2 23
5 17 14 22 120 5 120 -5 0 -10 -24 -10 -54z"/>
</g>
</svg>
