<?xml version="1.0" standalone="no"?>
<!DOCTYPE svg PUBLIC "-//W3C//DTD SVG 20010904//EN"
 "http://www.w3.org/TR/2001/REC-SVG-20010904/DTD/svg10.dtd">
<svg version="1.0" xmlns="http://www.w3.org/2000/svg"
 width="500.000000pt" height="500.000000pt" viewBox="0 0 500.000000 500.000000"
 preserveAspectRatio="xMidYMid meet">

<g transform="translate(0.000000,500.000000) scale(0.100000,-0.100000)"
fill="#000000" stroke="none">
<path d="M583 3948 c0 -8 14 -13 34 -14 34 -1 28 7 -13 20 -13 4 -21 2 -21 -6z"/>
<path d="M1090 3929 c-81 -22 -93 -27 -55 -24 28 3 86 8 130 12 67 6 74 8 45
14 l-35 6 43 2 c24 0 41 -3 38 -8 -9 -14 66 -22 269 -27 295 -9 396 14 149 33
l-109 8 115 6 115 5 -140 1 c-77 0 -153 -3 -170 -6 -33 -8 -46 -6 155 -29 74
-9 73 -9 -55 -11 -110 -1 -144 3 -223 24 -115 31 -140 30 -272 -6z"/>
<path d="M1870 3929 l0 -30 53 3 c45 3 52 6 55 26 3 21 7 22 100 21 69 -1 87
-4 62 -9 -27 -6 -18 -8 40 -8 41 0 84 3 95 7 36 14 -39 21 -226 21 l-179 0 0
-31z"/>
<path d="M2350 3930 c0 -30 1 -30 55 -30 57 0 59 1 49 38 -6 19 -13 22 -55 22
-48 0 -49 -1 -49 -30z"/>
<path d="M2550 3930 c0 -30 1 -30 55 -30 52 0 55 1 55 25 0 25 1 25 88 24 l87
-1 -60 -12 -60 -12 85 -12 c47 -7 108 -11 135 -11 46 1 44 2 -30 14 -50 8 -67
13 -45 14 19 1 46 4 59 8 53 14 -15 22 -191 22 l-178 1 0 -30z"/>
<path d="M3040 3931 c0 -31 0 -31 56 -31 54 0 55 0 52 28 -3 25 -7 27 -55 30
l-53 3 0 -30z"/>
<path d="M3242 3933 c3 -25 8 -28 42 -31 35 -3 38 -1 33 17 -6 25 -15 25 158
1 147 -21 215 -25 215 -12 -1 37 -14 52 -46 52 -27 0 -34 -4 -34 -20 0 -11 -1
-20 -3 -20 -2 0 -68 9 -147 20 -79 11 -161 20 -183 20 -36 0 -38 -2 -35 -27z"/>
<path d="M3850 3932 c-64 -18 -87 -28 -70 -30 28 -5 129 17 147 31 14 10 81
12 90 3 4 -3 -9 -7 -28 -8 -38 -1 63 -13 186 -22 l80 -5 -84 20 c-46 12 -79
24 -73 28 5 3 -27 7 -72 8 -62 1 -104 -5 -176 -25z"/>
<path d="M380 3946 c0 -2 7 -7 16 -10 8 -3 12 -2 9 4 -6 10 -25 14 -25 6z"/>
<path d="M350 3930 c0 -5 5 -10 10 -10 6 0 10 5 10 10 0 6 -4 10 -10 10 -5 0
-10 -4 -10 -10z"/>
<path d="M850 3930 c0 -5 5 -10 10 -10 6 0 10 5 10 10 0 6 -4 10 -10 10 -5 0
-10 -4 -10 -10z"/>
<path d="M606 3915 c4 -8 16 -15 28 -15 21 1 21 1 2 15 -25 19 -37 19 -30 0z"/>
<path d="M570 3910 c0 -5 5 -10 10 -10 6 0 10 5 10 10 0 6 -4 10 -10 10 -5 0
-10 -4 -10 -10z"/>
<path d="M1235 3860 c-3 -5 -1 -10 4 -10 6 0 11 5 11 10 0 6 -2 10 -4 10 -3 0
-8 -4 -11 -10z"/>
<path d="M1410 3860 c-9 -6 -10 -10 -3 -10 6 0 15 5 18 10 8 12 4 12 -15 0z"/>
<path d="M1440 3860 c0 -5 5 -10 11 -10 5 0 7 5 4 10 -3 6 -8 10 -11 10 -2 0
-4 -4 -4 -10z"/>
<path d="M1655 3860 c-3 -5 -1 -10 4 -10 6 0 11 5 11 10 0 6 -2 10 -4 10 -3 0
-8 -4 -11 -10z"/>
<path d="M1750 3854 c0 -8 5 -12 10 -9 6 3 10 10 10 16 0 5 -4 9 -10 9 -5 0
-10 -7 -10 -16z"/>
<path d="M1955 3861 c-3 -5 -1 -12 5 -16 5 -3 10 1 10 9 0 18 -6 21 -15 7z"/>
<path d="M2120 3854 c0 -8 5 -12 10 -9 6 3 10 10 10 16 0 5 -4 9 -10 9 -5 0
-10 -7 -10 -16z"/>
<path d="M2160 3860 c0 -5 5 -10 10 -10 6 0 10 5 10 10 0 6 -4 10 -10 10 -5 0
-10 -4 -10 -10z"/>
<path d="M2211 3854 c0 -11 3 -14 6 -6 3 7 2 16 -1 19 -3 4 -6 -2 -5 -13z"/>
<path d="M2332 3861 c-11 -7 -11 -9 0 -14 9 -3 15 1 15 9 0 8 -1 14 -1 14 -1
0 -7 -4 -14 -9z"/>
<path d="M1915 3850 c3 -5 8 -10 11 -10 2 0 4 5 4 10 0 6 -5 10 -11 10 -5 0
-7 -4 -4 -10z"/>
<path d="M2038 3853 c7 -3 16 -2 19 1 4 3 -2 6 -13 5 -11 0 -14 -3 -6 -6z"/>
<path d="M2295 3850 c-3 -5 -1 -10 4 -10 6 0 11 5 11 10 0 6 -2 10 -4 10 -3 0
-8 -4 -11 -10z"/>
<path d="M4735 3834 c-11 -2 -895 -5 -1964 -6 -1545 -2 -1945 -6 -1949 -15 -2
-7 -14 -13 -27 -13 -13 0 -26 6 -29 13 -5 10 -7 10 -12 0 -3 -7 -19 -13 -35
-13 -18 0 -28 4 -24 10 9 14 -8 13 -23 -2 -8 -8 -15 -8 -27 2 -10 8 -15 9 -15
1 0 -6 -13 -11 -30 -11 -22 0 -30 5 -30 18 -1 16 -2 15 -15 -2 -8 -10 -12 -23
-8 -29 3 -5 0 -7 -8 -5 -8 3 -13 12 -11 22 2 9 -2 16 -8 16 -6 0 -9 -4 -5 -9
3 -6 -3 -15 -14 -20 -31 -17 -35 -13 -17 17 l17 27 -25 -27 c-30 -33 -40 -35
-31 -8 9 28 -9 25 -25 -5 -7 -13 -17 -22 -22 -19 -4 3 -6 10 -3 15 4 5 -1 9
-10 9 -9 0 -13 5 -10 10 7 11 -8 14 -18 3 -4 -3 1 -11 10 -18 15 -11 15 -12
-1 -18 -9 -4 -16 -1 -16 5 0 7 -5 6 -15 -2 -8 -6 -20 -8 -26 -4 -9 5 -7 10 5
20 24 17 13 21 -89 29 l-91 7 -19 -59 c-11 -32 -21 -64 -23 -70 -3 -10 484
-13 2407 -13 1326 0 2411 2 2411 3 0 2 -13 35 -28 73 l-28 69 -50 1 c-27 1
-58 0 -69 -2z m-4109 -53 c-10 -15 19 -20 111 -17 118 3 332 -10 363 -22 24
-10 24 -10 5 -18 -24 -11 -711 -11 -777 0 -27 4 -48 11 -48 15 0 15 41 21 185
27 77 4 142 11 143 15 2 5 8 9 13 9 6 0 8 -4 5 -9z m164 -1 c0 -5 -16 -10 -36
-10 -21 0 -33 4 -29 10 3 6 19 10 36 10 16 0 29 -4 29 -10z m495 -20 c-4 -7 3
-8 21 -4 19 5 25 4 20 -5 -4 -6 -2 -11 3 -11 6 0 11 5 11 10 0 6 14 10 31 10
17 0 28 -4 24 -10 -3 -5 -1 -10 4 -10 6 0 11 5 11 10 0 6 7 10 16 10 8 0 12
-4 9 -10 -3 -5 -1 -10 4 -10 6 0 11 5 11 10 0 6 14 10 31 10 17 0 28 -4 24
-10 -3 -5 -13 -7 -23 -4 -13 5 -14 4 -3 -4 24 -17 1 -32 -48 -32 -41 0 -50 3
-54 21 -3 12 -10 18 -16 14 -6 -3 -9 -10 -6 -15 9 -15 -28 -20 -75 -11 -28 5
-36 9 -20 10 24 2 24 2 5 13 -19 11 -19 11 0 19 27 10 27 10 20 -1z m1515 -1
c0 -5 -25 -9 -55 -9 -30 0 -55 4 -55 9 0 5 25 9 55 9 30 0 55 -5 55 -9z m140
0 c0 -5 -24 -9 -54 -9 -30 0 -57 4 -60 9 -3 5 21 9 54 9 33 0 60 -4 60 -9z
m85 1 c27 -7 25 -8 -17 -9 -27 0 -48 4 -48 9 0 11 21 11 65 0z m145 -1 c0 -5
-25 -9 -55 -9 -30 0 -55 4 -55 9 0 4 25 8 55 8 30 0 55 -4 55 -8z m70 1 c0 -5
-9 -10 -19 -10 -11 0 -23 5 -26 10 -4 6 5 10 19 10 14 0 26 -4 26 -10z m60 0
c0 -5 -11 -10 -25 -10 -14 0 -25 5 -25 10 0 6 11 10 25 10 14 0 25 -4 25 -10z
m110 0 c0 -5 -20 -10 -45 -10 -25 0 -45 5 -45 10 0 6 20 10 45 10 25 0 45 -4
45 -10z m125 0 c4 -6 -13 -10 -44 -10 -28 0 -51 5 -51 10 0 6 20 10 44 10 25
0 48 -4 51 -10z m195 -1 c0 -5 -25 -9 -55 -9 -30 0 -55 4 -55 9 0 4 25 8 55 8
30 0 55 -4 55 -8z m115 1 c4 -6 -11 -10 -39 -10 -25 0 -48 5 -51 10 -4 6 11
10 39 10 25 0 48 -4 51 -10z m135 0 c11 -7 7 -10 -17 -10 -18 0 -33 5 -33 10
0 13 30 13 50 0z m60 0 c0 -5 -9 -10 -20 -10 -11 0 -20 5 -20 10 0 6 9 10 20
10 11 0 20 -4 20 -10z m109 1 c10 -7 -5 -10 -44 -10 -39 0 -54 3 -44 10 8 5
28 9 44 9 17 0 36 -4 44 -9z m146 -1 c3 -5 -3 -10 -15 -10 -12 0 -18 -4 -15
-10 3 -5 -3 -10 -15 -10 -12 0 -18 5 -15 10 4 6 -7 10 -24 10 -17 0 -31 5 -31
10 0 6 24 10 54 10 30 0 58 -4 61 -10z m110 0 c3 -5 -2 -10 -12 -11 -15 0 -14
-2 3 -9 25 -10 41 -30 25 -30 -6 0 -11 5 -11 10 0 14 -27 12 -33 -2 -4 -8 -8
-4 -12 10 -4 12 -14 22 -22 22 -8 0 -11 -4 -8 -10 3 -5 -1 -10 -9 -10 -18 0
-19 2 -10 24 7 18 79 23 89 6z m122 -1 c8 -8 17 -8 31 0 25 14 72 14 92 1 13
-9 13 -10 0 -11 -10 0 -8 -3 5 -9 17 -7 14 -9 -13 -9 -18 -1 -31 3 -27 8 3 5
1 12 -5 16 -6 3 -13 -1 -16 -9 -7 -18 -64 -23 -64 -6 0 6 -10 10 -22 10 -19 0
-20 -2 -8 -10 13 -8 13 -10 -2 -10 -9 0 -19 6 -22 13 -5 10 -7 10 -12 0 -3 -7
-12 -13 -20 -13 -18 0 -14 23 6 32 24 11 65 9 77 -3z m-2923 -11 c-7 -12 -44
-10 -44 2 0 5 11 9 24 8 14 -1 22 -6 20 -10z m81 1 c-8 -11 -42 -12 -49 -1 -3
5 8 9 25 10 16 0 27 -4 24 -9z m45 1 c0 -5 -7 -10 -15 -10 -8 0 -15 5 -15 10
0 6 7 10 15 10 8 0 15 -4 15 -10z m40 0 c0 -5 -7 -10 -15 -10 -8 0 -15 5 -15
10 0 6 7 10 15 10 8 0 15 -4 15 -10z m2950 6 c0 -11 -19 -15 -25 -6 -3 5 1 10
9 10 9 0 16 -2 16 -4z m-3140 -36 c0 -5 -9 -10 -20 -10 -11 0 -20 5 -20 10 0
6 9 10 20 10 11 0 20 -4 20 -10z m70 0 c0 -5 -14 -10 -31 -10 -17 0 -28 4 -24
10 3 6 17 10 31 10 13 0 24 -4 24 -10z m80 0 c0 -5 -13 -10 -30 -10 -16 0 -30
5 -30 10 0 6 14 10 30 10 17 0 30 -4 30 -10z m40 0 c0 -5 -7 -10 -15 -10 -8 0
-15 5 -15 10 0 6 7 10 15 10 8 0 15 -4 15 -10z m70 0 c0 -5 -14 -10 -31 -10
-17 0 -28 4 -24 10 3 6 17 10 31 10 13 0 24 -4 24 -10z m50 0 c0 -5 -6 -10
-14 -10 -8 0 -18 5 -21 10 -3 6 3 10 14 10 12 0 21 -4 21 -10z m75 0 c4 -6 -7
-10 -25 -10 -18 0 -29 4 -25 10 3 6 15 10 25 10 10 0 22 -4 25 -10z m65 0 c11
-7 7 -10 -17 -10 -18 0 -33 5 -33 10 0 13 30 13 50 0z m1883 -7 c-7 -2 -19 -2
-25 0 -7 3 -2 5 12 5 14 0 19 -2 13 -5z m160 0 c-7 -2 -21 -2 -30 0 -10 3 -4
5 12 5 17 0 24 -2 18 -5z"/>
<path d="M593 3739 c14 -8 22 -8 30 0 8 8 3 11 -18 11 -26 -1 -28 -2 -12 -11z"/>
<path d="M1428 3723 c7 -3 16 -2 19 1 4 3 -2 6 -13 5 -11 0 -14 -3 -6 -6z"/>
<path d="M4210 3407 c-80 -41 -27 -166 58 -136 65 22 64 116 0 138 -17 6 -31
11 -32 11 -1 0 -12 -6 -26 -13z m72 -24 c39 -35 11 -103 -42 -103 -34 0 -53
22 -53 60 0 16 5 36 13 44 16 21 59 20 82 -1z"/>
<path d="M4210 3340 c0 -22 5 -40 10 -40 6 0 10 7 10 15 0 20 10 19 27 -2 14
-17 14 -17 9 1 -4 10 -1 25 5 32 16 19 2 34 -32 34 -27 0 -29 -2 -29 -40z m48
18 c-6 -18 -28 -21 -28 -4 0 9 7 16 16 16 9 0 14 -5 12 -12z"/>
<path d="M456 3364 c-68 -22 -147 -102 -171 -173 -43 -130 18 -276 141 -337
29 -14 60 -19 124 -19 75 0 91 3 131 27 93 55 138 134 139 244 0 114 -49 192
-154 246 -53 27 -146 33 -210 12z m188 -28 c85 -35 145 -120 153 -218 5 -51 2
-66 -26 -122 -33 -67 -77 -106 -148 -132 -50 -17 -88 -17 -149 1 -105 31 -174
124 -174 235 0 148 101 250 247 250 35 0 78 -6 97 -14z"/>
<path d="M517 3323 c-4 -3 -7 -22 -7 -40 0 -33 1 -34 38 -31 32 3 37 6 38 28
0 14 -4 31 -9 38 -10 13 -49 17 -60 5z m46 -20 c-7 -2 -19 -2 -25 0 -7 3 -2 5
12 5 14 0 19 -2 13 -5z m0 -30 c-7 -2 -19 -2 -25 0 -7 3 -2 5 12 5 14 0 19 -2
13 -5z"/>
<path d="M521 3203 l-19 -38 44 0 c24 0 44 2 44 5 0 8 -39 70 -45 70 -2 0 -13
-17 -24 -37z m34 -3 c3 -5 1 -10 -4 -10 -6 0 -11 5 -11 10 0 6 2 10 4 10 3 0
8 -4 11 -10z"/>
<path d="M320 3105 c0 -40 15 -51 56 -41 21 6 25 11 22 39 -3 29 -6 32 -40 35
-37 3 -38 3 -38 -33z m55 15 c3 -6 -4 -10 -17 -10 -18 0 -20 2 -8 10 19 12 18
12 25 0z m5 -30 c0 -5 -10 -10 -22 -10 -19 0 -20 2 -8 10 19 13 30 13 30 0z"/>
<path d="M435 3110 c-21 -41 -19 -53 5 -38 16 10 24 10 40 0 13 -8 20 -8 20
-2 0 18 -30 70 -40 70 -5 0 -16 -13 -25 -30z m35 -10 c0 -5 -4 -10 -10 -10 -5
0 -10 5 -10 10 0 6 5 10 10 10 6 0 10 -4 10 -10z"/>
<path d="M513 3122 c9 -9 20 -28 25 -41 8 -23 9 -22 29 18 20 41 17 55 -7 26
-12 -14 -15 -14 -30 0 -23 21 -37 19 -17 -3z"/>
<path d="M610 3100 c0 -38 2 -40 29 -40 17 0 33 5 36 10 4 6 -7 10 -25 10 -20
0 -29 4 -25 11 4 6 13 8 21 5 7 -3 16 -1 19 4 4 6 -4 11 -17 11 -20 1 -21 2
-3 6 38 9 40 23 2 23 -36 0 -37 -1 -37 -40z"/>
<path d="M700 3106 c0 -19 5 -38 10 -41 6 -3 10 1 10 9 0 20 9 20 30 1 14 -13
16 -10 17 25 2 39 1 40 -33 40 -32 0 -34 -2 -34 -34z m47 8 c-3 -3 -12 -4 -19
-1 -8 3 -5 6 6 6 11 1 17 -2 13 -5z"/>
<path d="M517 3043 c-4 -3 -7 -21 -7 -40 0 -31 2 -33 35 -33 41 0 47 17 8 23
l-28 4 28 2 c15 0 27 5 27 10 0 5 -12 12 -27 14 l-28 4 28 2 c15 0 27 6 27 11
0 11 -53 14 -63 3z"/>
<path d="M510 2916 c0 -19 5 -38 10 -41 6 -3 10 1 10 9 0 20 19 20 40 1 15
-14 17 -12 16 22 -2 36 -3 38 -39 41 -36 3 -37 2 -37 -32z m55 14 c3 -5 -3
-10 -15 -10 -12 0 -18 5 -15 10 3 6 10 10 15 10 5 0 12 -4 15 -10z"/>
<path d="M1166 3371 c-3 -4 -57 -128 -120 -275 l-115 -267 41 3 c40 3 40 3 72
81 l31 78 103 -3 104 -3 24 -60 c38 -94 41 -95 217 -95 132 0 156 3 193 21 55
26 84 72 84 132 0 60 -29 94 -140 165 -135 87 -148 104 -110 142 17 17 33 20
120 20 l100 0 0 35 0 35 -88 0 c-115 0 -181 -20 -221 -65 -23 -26 -31 -46 -31
-73 0 -61 38 -104 156 -176 34 -20 74 -51 90 -67 24 -25 26 -33 18 -56 -15
-43 -47 -53 -159 -51 l-100 3 -104 243 c-100 234 -105 242 -132 242 -15 0 -30
-4 -33 -9z m53 -226 c17 -44 31 -83 31 -87 0 -5 -34 -8 -76 -8 -42 0 -74 3
-72 8 2 4 19 46 38 94 19 48 38 84 41 80 3 -4 20 -43 38 -87z"/>
<path d="M1860 3106 l0 -276 35 0 c62 0 75 24 75 139 l0 99 98 4 c80 3 105 8
141 28 106 60 109 205 5 255 -32 16 -68 20 -196 23 l-158 4 0 -276z m245 204
c47 -11 65 -32 65 -78 0 -70 -46 -102 -145 -102 l-55 0 0 95 0 95 48 0 c26 0
65 -5 87 -10z"/>
<path d="M2350 3105 l0 -275 55 0 55 0 0 275 0 275 -55 0 -55 0 0 -275z"/>
<path d="M2560 3105 l0 -275 55 0 55 0 0 120 0 120 29 0 c25 0 38 -13 102
-102 93 -127 109 -140 177 -136 l51 3 -99 125 c-54 69 -99 128 -100 131 0 4
13 9 29 12 44 9 99 63 111 108 8 30 7 46 -5 74 -31 76 -87 95 -280 95 l-125 0
0 -275z m235 205 c22 -5 45 -17 52 -26 16 -22 17 -78 2 -106 -15 -28 -69 -48
-129 -48 l-50 0 0 88 c0 49 3 92 7 95 9 10 71 8 118 -3z"/>
<path d="M3070 3105 l0 -275 55 0 55 0 0 275 0 275 -55 0 -55 0 0 -275z"/>
<path d="M3280 3105 l0 -275 40 0 40 0 2 184 3 185 153 -185 c144 -174 155
-184 187 -184 l35 0 0 275 0 275 -35 0 -35 0 -2 -191 -3 -190 -155 190 c-150
184 -156 190 -192 190 l-38 1 0 -275z"/>
<path d="M3919 3114 c-63 -147 -115 -271 -117 -275 -2 -5 14 -9 35 -9 l39 0
33 80 c19 44 38 80 45 81 6 0 52 1 103 3 l91 2 28 -69 c15 -38 37 -75 48 -83
21 -15 106 -20 106 -6 0 4 -51 127 -114 272 l-113 265 -35 3 -35 3 -114 -267z
m170 34 c17 -42 31 -81 31 -87 0 -7 -28 -11 -75 -11 -41 0 -75 2 -75 5 0 19
74 185 80 178 4 -4 21 -43 39 -85z"/>
<path d="M979 2563 c-13 -15 -12 -15 9 -4 23 12 28 21 13 21 -5 0 -15 -7 -22
-17z"/>
<path d="M2130 2525 c-7 -9 -11 -18 -8 -20 3 -3 11 1 18 10 7 9 11 18 8 20 -3
3 -11 -1 -18 -10z"/>
<path d="M951 2463 c-6 -38 -14 -78 -17 -90 -4 -14 -2 -23 5 -23 6 0 11 11 11
25 0 36 35 34 48 -2 l10 -28 1 25 c0 22 -5 52 -24 138 -9 40 -22 23 -34 -45z
m32 -5 c4 -29 2 -38 -9 -38 -15 0 -18 20 -8 58 8 28 10 26 17 -20z"/>
<path d="M1110 2520 c0 -5 5 -10 10 -10 6 0 10 5 10 10 0 6 -4 10 -10 10 -5 0
-10 -4 -10 -10z"/>
<path d="M1210 2505 c0 -18 -5 -25 -20 -25 -28 0 -44 -45 -33 -90 7 -29 13
-35 36 -36 l27 -1 0 88 c0 49 -2 89 -5 89 -3 0 -5 -11 -5 -25z m-5 -91 c0 -37
-4 -49 -15 -49 -16 0 -27 63 -16 92 12 31 31 6 31 -43z"/>
<path d="M1386 2448 c-19 -97 -19 -101 -6 -93 6 3 10 15 10 26 0 29 34 24 48
-8 11 -26 11 -25 7 15 -8 68 -26 142 -34 142 -5 0 -16 -37 -25 -82z m34 7 c0
-19 -4 -35 -10 -35 -11 0 -14 53 -3 63 11 12 13 8 13 -28z"/>
<path d="M1744 2440 c0 -52 1 -74 3 -47 2 26 2 68 0 95 -2 26 -3 4 -3 -48z"/>
<path d="M1950 2442 c0 -51 3 -92 8 -92 9 0 8 167 -1 176 -4 4 -7 -34 -7 -84z"/>
<path d="M1990 2520 c0 -5 5 -10 10 -10 6 0 10 5 10 10 0 6 -4 10 -10 10 -5 0
-10 -4 -10 -10z"/>
<path d="M2160 2440 c0 -53 4 -90 10 -90 6 0 10 37 10 90 0 53 -4 90 -10 90
-6 0 -10 -37 -10 -90z"/>
<path d="M1639 2498 c-2 -13 -2 -50 1 -83 4 -47 9 -61 23 -63 9 -2 17 1 17 7
0 6 -4 11 -10 11 -15 0 -13 97 3 103 10 4 10 6 0 6 -7 1 -13 10 -13 21 0 27
-17 25 -21 -2z"/>
<path d="M1041 2476 c-7 -8 -11 -37 -9 -68 3 -49 5 -53 28 -53 17 0 26 6 28
20 l4 20 -15 -20 c-23 -29 -39 -7 -35 46 2 32 8 45 21 47 11 2 17 -3 18 -15 0
-11 3 -13 6 -5 5 13 -13 42 -27 42 -4 0 -13 -6 -19 -14z"/>
<path d="M1260 2471 c-11 -22 -13 -80 -4 -105 7 -19 35 -21 52 -4 18 18 15 94
-4 112 -20 21 -31 20 -44 -3z m44 -31 c6 -33 -8 -80 -23 -80 -13 0 -25 63 -16
89 9 31 32 26 39 -9z"/>
<path d="M1482 2477 c-17 -20 -23 -60 -14 -92 6 -23 14 -30 33 -30 16 0 25 6
27 20 4 20 3 20 -11 1 -21 -28 -37 -11 -37 39 0 49 16 67 37 40 10 -15 13 -15
13 -4 0 15 -19 39 -31 39 -4 0 -11 -6 -17 -13z"/>
<path d="M1566 2474 c-16 -15 -22 -78 -10 -108 8 -21 50 -21 58 0 4 9 4 19 1
22 -2 3 -7 -3 -11 -12 -8 -22 -21 -20 -35 5 -13 25 2 40 33 34 13 -3 18 2 18
20 0 20 -22 55 -35 55 -2 0 -11 -7 -19 -16z m34 -24 c0 -13 -7 -20 -19 -20
-14 0 -18 5 -14 20 3 11 12 20 19 20 8 0 14 -9 14 -20z"/>
<path d="M1793 2483 c-22 -8 -14 -53 12 -76 18 -16 22 -26 15 -37 -7 -12 -12
-12 -22 -2 -17 17 -29 15 -21 -4 3 -9 15 -14 32 -12 37 4 42 49 7 72 -15 9
-26 23 -26 31 0 18 27 20 33 3 2 -7 8 -10 12 -6 4 4 2 14 -5 23 -13 16 -17 17
-37 8z"/>
<path d="M1873 2483 c-7 -2 -13 -12 -13 -21 0 -14 2 -14 9 -3 10 15 41 8 41
-9 0 -6 -11 -15 -24 -19 -49 -19 -45 -83 5 -79 29 2 29 3 29 64 0 47 -4 63
-16 68 -9 3 -16 6 -17 5 -1 0 -8 -3 -14 -6z m37 -76 c0 -7 -6 -22 -14 -33 -14
-18 -15 -18 -21 -1 -4 9 -5 24 -1 32 7 18 36 20 36 2z"/>
<path d="M2040 2471 c-26 -49 -3 -127 36 -119 20 3 33 38 15 38 -6 0 -11 -7
-11 -16 0 -9 -6 -14 -12 -11 -8 2 -13 22 -13 52 0 30 5 50 13 53 6 2 12 -3 12
-12 0 -9 5 -16 10 -16 14 0 13 23 -2 38 -18 18 -36 15 -48 -7z"/>
<path d="M2261 2477 c-34 -41 -18 -131 21 -125 13 2 24 11 26 23 l4 20 -16
-20 c-13 -17 -17 -18 -26 -5 -5 8 -10 29 -10 45 0 17 5 37 10 45 9 13 12 12
25 -4 11 -15 15 -16 15 -5 0 15 -19 39 -31 39 -4 0 -12 -6 -18 -13z"/>
<path d="M2342 2478 c-13 -13 -16 -85 -6 -112 3 -9 16 -16 29 -16 27 0 35 17
35 74 0 41 -13 66 -35 66 -6 0 -16 -5 -23 -12z m36 -58 c-4 -67 -22 -69 -26
-2 -2 42 0 52 13 52 13 0 15 -10 13 -50z"/>
<path d="M1119 2473 c-5 -73 -4 -123 2 -123 5 0 9 29 9 65 0 36 -2 65 -5 65
-3 0 -5 -3 -6 -7z"/>
<path d="M1703 2415 c0 -38 2 -53 4 -32 2 20 2 52 0 70 -2 17 -4 1 -4 -38z"/>
<path d="M1990 2415 c0 -37 4 -65 10 -65 6 0 10 28 10 65 0 37 -4 65 -10 65
-6 0 -10 -28 -10 -65z"/>
<path d="M2120 2414 c0 -36 4 -63 9 -60 5 3 9 33 9 66 0 33 -4 60 -9 60 -5 0
-9 -30 -9 -66z"/>
<path d="M2213 2415 c0 -38 2 -53 4 -32 2 20 2 52 0 70 -2 17 -4 1 -4 -38z"/>
<path d="M4840 2265 c-66 -35 -171 -63 -315 -87 -62 -10 -333 -13 -1185 -14
-608 -1 -1588 -2 -2177 -3 l-1073 -1 0 -575 0 -575 2410 0 2410 0 0 645 c0
355 -1 645 -2 644 -2 0 -32 -16 -68 -34z m-4503 -167 c-2 -7 -10 -12 -16 -10
-7 1 -11 -21 -11 -68 0 -40 -4 -70 -10 -70 -6 0 -10 30 -10 71 0 59 -3 70 -15
65 -9 -3 -15 0 -15 9 0 11 12 15 41 15 28 0 39 -4 36 -12z m103 -14 c0 -8 7
-14 15 -14 24 0 40 -44 29 -82 -8 -28 -14 -33 -41 -33 -31 -1 -32 0 -31 47 0
26 -2 50 -5 55 -3 4 -1 18 4 31 9 24 29 22 29 -4z m80 -54 c0 -47 -4 -80 -10
-80 -6 0 -10 33 -10 80 0 47 4 80 10 80 6 0 10 -33 10 -80z m123 -4 c-3 -26
-1 -46 6 -50 7 -5 11 2 11 18 0 16 7 27 20 31 21 7 28 25 10 25 -5 0 -10 -5
-10 -12 0 -9 -3 -9 -12 0 -17 17 3 35 33 30 19 -2 25 -10 27 -37 3 -31 24 -60
45 -61 15 0 6 26 -14 38 -29 18 -22 57 10 57 13 0 26 -6 29 -14 3 -9 -1 -11
-17 -6 -27 8 -28 -11 0 -25 14 -8 19 -19 17 -38 -4 -33 -36 -42 -55 -16 -11
15 -13 15 -13 2 0 -12 -11 -15 -51 -14 -42 1 -53 5 -59 21 -4 11 -6 23 -3 28
2 4 -11 7 -30 7 -30 0 -34 -3 -30 -20 6 -23 19 -26 26 -7 2 6 8 9 12 5 15 -14
-5 -39 -27 -36 -51 7 -49 113 2 113 14 0 31 9 39 19 13 17 15 18 26 2 8 -10
11 -34 8 -60z m-245 -18 c3 -56 3 -57 -24 -55 -49 4 -60 62 -14 74 11 3 20 9
20 14 0 13 -14 11 -28 -3 -15 -15 -24 -6 -16 16 4 11 15 16 33 14 24 -3 26 -7
29 -60z m-48 -123 c0 -3 -11 -10 -25 -15 -14 -5 -25 -15 -25 -21 0 -7 3 -9 6
-6 13 12 43 -14 47 -40 3 -18 5 -12 6 18 1 48 14 69 43 69 52 0 49 -159 -4
-160 -4 0 -16 10 -28 22 -11 12 -20 17 -20 10 0 -19 -38 -34 -59 -23 -26 14
-33 47 -10 47 10 0 17 -4 16 -9 -1 -5 4 -12 10 -14 16 -6 27 21 19 43 -5 13
-9 14 -21 4 -22 -18 -31 -5 -27 39 4 39 6 41 38 41 19 0 34 -2 34 -5z m168
-20 c17 -38 15 -90 -6 -115 -16 -19 -22 -21 -40 -11 -18 10 -22 20 -22 66 0
29 3 60 6 69 10 26 49 19 62 -9z m248 -35 c-2 -43 -2 -42 -31 -58 -20 -11 -20
-11 1 -12 24 0 41 -17 40 -40 -1 -10 -14 -16 -39 -18 l-37 -3 2 73 c3 67 5 73
26 76 12 2 22 8 22 13 0 5 4 9 9 9 5 0 8 -18 7 -40z m-78 -37 c2 -32 -1 -53
-7 -53 -6 0 -11 20 -11 45 0 25 -4 45 -10 45 -5 0 -10 -20 -10 -45 0 -34 -4
-45 -16 -45 -11 0 -15 8 -14 28 3 47 0 63 -10 57 -5 -3 -10 -26 -10 -50 0 -31
-4 -43 -12 -40 -15 6 -12 106 3 116 5 3 28 3 52 0 l42 -6 3 -52z m2107 -123
c25 -28 26 -107 2 -143 -14 -22 -25 -27 -57 -27 l-40 0 0 95 0 95 38 0 c26 0
45 -7 57 -20z m139 -2 c21 -30 21 -117 0 -146 -22 -32 -73 -27 -92 8 -16 30
-11 122 7 144 20 24 67 20 85 -6z m76 -53 c0 -73 1 -75 25 -75 18 0 25 -5 25
-20 0 -17 -7 -20 -45 -20 l-45 0 0 95 c0 88 1 95 20 95 18 0 20 -7 20 -75z
m159 61 c20 -24 24 -99 8 -139 -13 -30 -21 -37 -44 -37 -47 0 -57 13 -61 83
-5 82 7 107 52 107 19 0 39 -6 45 -14z m142 -13 c7 -20 7 -38 -1 -63 -8 -25
-9 -43 -1 -63 15 -38 14 -39 -11 -35 -14 2 -26 15 -34 38 l-12 35 -1 -37 c-1
-31 -5 -38 -21 -38 -19 0 -20 7 -20 95 l0 95 45 0 c40 0 47 -3 56 -27z m127
10 c-2 -11 -14 -19 -31 -21 -20 -3 -27 -8 -25 -20 2 -10 11 -16 21 -14 11 2
17 -4 17 -18 0 -13 -7 -20 -20 -20 -13 0 -20 -7 -20 -20 0 -23 37 -28 73 -9
16 9 22 9 25 0 4 -13 42 -15 42 -2 0 5 -16 21 -35 35 -37 29 -45 59 -22 90 16
22 65 18 81 -6 14 -23 0 -35 -23 -21 -18 12 -31 8 -31 -8 0 -5 13 -15 30 -24
37 -19 48 -56 26 -90 -21 -33 -69 -34 -90 -3 l-16 22 0 -22 c0 -20 -5 -22 -50
-22 l-50 0 0 95 0 95 51 0 c43 0 50 -3 47 -17z m292 -3 c15 -15 20 -33 20 -75
0 -70 -23 -98 -77 -93 l-36 3 1 90 c1 50 1 91 2 93 0 1 16 2 35 2 22 0 43 -8
55 -20z m140 0 c0 -15 -7 -20 -26 -20 -19 0 -25 -4 -22 -17 2 -10 11 -17 21
-17 10 1 17 -5 17 -17 0 -12 -7 -19 -20 -19 -13 0 -20 -7 -20 -20 0 -15 7 -20
25 -20 18 0 25 -5 25 -20 0 -17 -7 -20 -50 -20 l-50 0 0 95 0 95 50 0 c43 0
50 -3 50 -20z m178 8 c17 -17 15 -58 -2 -58 -8 0 -16 7 -20 15 -3 8 -12 15
-21 15 -12 0 -15 -12 -15 -55 0 -40 4 -55 14 -55 8 0 16 7 20 15 7 20 36 19
36 -1 0 -49 -59 -73 -94 -38 -23 22 -22 131 1 156 18 20 63 24 81 6z m124 -73
c9 -44 18 -86 18 -92 0 -21 -37 -15 -43 7 -3 11 -12 20 -20 20 -8 0 -17 -9
-20 -20 -6 -22 -37 -28 -37 -7 1 13 15 81 31 140 8 31 14 38 31 35 18 -3 25
-16 40 -83z m127 76 c18 -12 25 -149 9 -168 -6 -7 -30 -13 -54 -13 l-43 0 -3
95 -3 95 40 0 c22 0 46 -4 54 -9z m141 -11 c0 -16 -7 -20 -31 -20 -24 0 -30
-4 -27 -17 2 -10 12 -18 23 -18 11 0 21 -8 23 -18 3 -13 -3 -17 -22 -17 -19 0
-26 -5 -26 -20 0 -16 7 -20 30 -20 23 0 30 -4 30 -20 0 -17 -7 -20 -50 -20
l-50 0 0 95 0 95 50 0 c43 0 50 -3 50 -20z m120 5 c0 -9 -14 -42 -30 -75 l-30
-60 30 0 c23 0 30 -4 30 -20 0 -18 -7 -20 -55 -20 -66 0 -68 6 -25 90 17 33
30 62 30 66 0 3 -11 4 -25 2 -19 -4 -25 -1 -25 13 0 16 8 19 50 19 38 0 50 -4
50 -15z m113 -67 c21 -104 21 -108 -3 -108 -13 0 -20 7 -20 20 0 13 -7 20 -20
20 -13 0 -20 -7 -20 -20 0 -13 -7 -20 -20 -20 -24 0 -24 -6 1 101 18 79 23 89
43 89 19 0 24 -9 39 -82z m-4030 -6 c43 -19 50 -20 82 -6 151 63 367 -76 382
-246 6 -66 -6 -96 -66 -157 -81 -84 -200 -77 -321 17 -32 25 -38 27 -60 15
-45 -23 -131 -34 -191 -23 -113 20 -183 84 -199 184 -12 72 -6 109 27 152 63
85 229 115 346 64z m673 -27 c8 -33 -4 -45 -20 -23 -7 10 -16 15 -19 11 -11
-10 -8 -61 3 -68 6 -3 10 -1 10 4 0 15 27 14 33 -1 3 -8 6 -6 6 5 1 9 7 17 14
17 8 0 7 3 -3 10 -13 8 -13 11 1 25 28 28 49 9 49 -46 0 -47 -1 -49 -29 -49
-16 0 -31 6 -34 13 -4 10 -7 10 -18 0 -19 -19 -47 -16 -59 6 -14 27 -13 94 2
109 22 22 57 14 64 -13z m114 -59 c0 -77 -2 -84 -21 -89 -18 -5 -20 -2 -15 16
3 12 6 52 6 90 0 53 3 67 15 67 12 0 15 -16 15 -84z m54 48 c12 -4 16 -20 16
-54 0 -44 -2 -47 -26 -47 -30 0 -42 22 -26 48 9 13 8 19 -1 22 -9 3 -9 8 2 20
15 19 14 19 35 11z m120 -10 c15 -14 17 -14 32 0 20 21 31 20 44 -3 14 -26 13
-64 -2 -79 -17 -17 -45 -15 -52 5 -6 15 -8 15 -19 -2 -8 -9 -22 -16 -33 -14
-34 7 -29 109 7 109 4 0 15 -7 23 -16z m164 -53 c-3 -36 -27 -56 -29 -24 -1
16 -2 16 -6 1 -2 -10 -11 -18 -19 -18 -10 0 -14 13 -14 49 0 44 3 50 23 53 30
5 49 -20 45 -61z m2982 23 c0 -27 -16 -64 -28 -64 -4 0 -8 20 -10 45 -2 39 0
45 18 45 15 0 20 -7 20 -26z m-400 -140 c0 -48 -3 -65 -12 -62 -8 3 -14 27
-16 60 -3 50 -5 55 -22 51 -25 -7 -26 -29 -2 -38 16 -6 16 -7 1 -18 -9 -7 -18
-21 -20 -31 -2 -11 -10 -21 -16 -24 -10 -3 -13 14 -13 62 l0 66 50 0 50 0 0
-66z m90 56 c0 -5 -9 -10 -20 -10 -11 0 -20 -7 -20 -15 0 -8 7 -15 15 -15 8 0
15 -4 15 -10 0 -5 -7 -10 -15 -10 -8 0 -15 -7 -15 -15 0 -8 9 -15 20 -15 11 0
20 -7 20 -15 0 -10 -11 -15 -35 -15 l-35 0 0 65 0 65 35 0 c19 0 35 -4 35 -10z
m81 3 c1 -5 3 -29 5 -55 3 -51 -11 -68 -55 -68 -19 0 -21 6 -21 65 l0 65 35 0
c19 0 36 -3 36 -7z m93 -15 c8 -13 8 -23 -1 -36 -7 -12 -8 -24 -1 -35 9 -18 3
-37 -12 -37 -4 0 -13 12 -18 28 l-10 27 -1 -28 c-1 -18 -6 -27 -13 -25 -8 3
-14 28 -16 67 l-3 62 32 -3 c18 -2 37 -11 43 -20z m86 12 c0 -5 -9 -10 -20
-10 -11 0 -20 -7 -20 -15 0 -8 7 -15 15 -15 8 0 15 -4 15 -10 0 -5 -7 -10 -15
-10 -8 0 -15 -7 -15 -15 0 -8 9 -15 20 -15 11 0 20 -7 20 -16 0 -11 -8 -14
-32 -12 -33 3 -33 3 -36 66 l-3 62 36 0 c19 0 35 -4 35 -10z m-3360 -105 c0
-37 4 -65 10 -65 6 0 10 -9 10 -20 0 -11 -4 -20 -10 -20 -5 0 -10 -11 -10 -25
0 -18 -5 -25 -20 -25 -15 0 -20 7 -20 25 0 21 -5 25 -30 25 -25 0 -30 4 -30
24 0 48 54 146 80 146 18 0 20 -7 20 -65z m137 35 c16 -32 16 -128 0 -160 -10
-19 -20 -25 -47 -25 -27 0 -37 6 -48 25 -16 32 -12 151 7 174 21 25 73 17 88
-14z m93 -63 c0 -23 22 -38 37 -26 26 22 43 2 43 -49 l0 -49 -52 1 -53 1 -6
45 c-7 47 3 90 21 90 5 0 10 -6 10 -13z m120 -9 c0 -12 3 -18 7 -15 12 13 33
-16 33 -47 0 -42 -12 -57 -41 -53 -22 4 -24 9 -27 70 -2 55 0 67 13 67 9 0 15
-9 15 -22z m81 -25 c1 -27 4 -38 6 -26 10 49 56 56 65 9 4 -22 2 -26 -19 -26
-13 0 -22 -4 -18 -10 3 -5 13 -6 21 -3 12 4 15 1 12 -13 -5 -29 -46 -31 -57
-2 l-10 23 0 -22 c-1 -14 -7 -23 -16 -23 -12 0 -15 14 -15 70 0 56 3 70 15 70
11 0 15 -13 16 -47z m121 -12 c-4 -3 -7 -12 -6 -18 1 -7 2 -18 3 -25 0 -7 7
-4 15 7 7 10 11 27 8 37 -6 25 25 35 45 15 15 -15 17 -15 28 0 14 19 45 11 45
-11 0 -10 -6 -13 -17 -9 -12 4 -11 0 5 -11 42 -32 15 -85 -29 -57 -12 7 -19 7
-19 1 0 -15 -60 -12 -61 3 0 10 -2 10 -6 0 -6 -15 -29 -17 -38 -4 -11 18 -13
95 -3 114 9 18 11 17 24 -9 8 -15 11 -30 6 -33z m2548 29 c0 -5 -4 -10 -10
-10 -5 0 -10 5 -10 10 0 6 5 10 10 10 6 0 10 -4 10 -10z m-36 -32 c8 -5 7 -8
-1 -8 -8 0 -13 -13 -13 -30 0 -16 5 -30 10 -30 6 0 10 -4 10 -10 0 -11 -29
-14 -31 -2 -1 4 -2 19 -3 35 -2 15 -6 30 -9 33 -4 4 -1 16 5 28 9 16 12 18 16
6 3 -8 10 -18 16 -22z m-504 -14 c0 -8 5 -14 10 -14 6 0 10 7 10 15 0 8 5 15
11 15 6 0 8 -7 5 -16 -4 -9 -11 -36 -17 -60 -7 -28 -17 -44 -26 -44 -13 0 -13
3 -3 15 10 12 10 25 1 59 -14 55 -14 59 -1 51 6 -3 10 -13 10 -21z m121 7 c-6
-4 -15 -25 -20 -46 l-9 -40 -1 52 c-1 47 1 51 20 46 12 -3 16 -9 10 -12z m68
-3 c11 -28 6 -38 -20 -38 -19 0 -25 -11 -12 -23 3 -4 12 -2 20 4 10 9 13 8 13
-5 0 -10 -9 -16 -25 -16 -18 0 -26 7 -31 26 -14 54 36 101 55 52z m41 -29 c0
-24 4 -38 10 -34 6 3 10 24 10 46 0 22 4 38 9 35 5 -3 8 -25 7 -48 -1 -39 -4
-43 -28 -46 -27 -3 -28 -2 -28 48 0 32 4 49 10 45 6 -3 10 -24 10 -46z m142
36 c11 -15 9 -85 -2 -85 -5 0 -10 18 -10 40 0 22 -4 40 -10 40 -5 0 -10 -18
-10 -40 0 -22 -4 -40 -10 -40 -5 0 -10 18 -10 40 0 22 -4 40 -10 40 -5 0 -10
-18 -10 -40 0 -22 -4 -40 -10 -40 -18 0 -12 78 7 88 21 12 66 10 75 -3z m76
-38 c3 -48 3 -48 -25 -45 -35 4 -38 37 -5 54 15 7 20 14 13 18 -6 4 -15 4 -21
1 -5 -3 -10 -2 -10 3 0 14 13 23 30 20 10 -2 16 -17 18 -51z m153 37 c12 -15
11 -16 -9 -10 -28 9 -28 -1 0 -23 25 -21 19 -51 -11 -51 -22 0 -37 17 -26 28
4 4 10 1 12 -5 3 -7 9 -13 14 -13 16 0 9 21 -13 40 -19 15 -20 20 -9 34 17 20
25 20 42 0z m107 3 c14 -10 17 -87 2 -87 -5 0 -10 18 -10 40 0 22 -4 40 -10
40 -5 0 -10 -18 -10 -40 0 -22 -4 -40 -10 -40 -5 0 -10 18 -10 40 0 22 -4 40
-10 40 -5 0 -10 -18 -10 -40 0 -22 -4 -40 -10 -40 -10 0 -14 82 -5 92 8 7 69
4 83 -5z m83 -14 c13 -35 -3 -73 -31 -73 -25 0 -37 42 -21 76 14 32 39 31 52
-3z m-251 -28 c0 -25 -4 -45 -10 -45 -5 0 -10 20 -10 45 0 25 5 45 10 45 6 0
10 -20 10 -45z"/>
<path d="M442 2015 c-1 -19 3 -35 8 -35 6 0 10 16 10 35 0 19 -4 35 -8 35 -5
0 -9 -16 -10 -35z"/>
<path d="M560 2040 c0 -5 5 -10 10 -10 6 0 10 5 10 10 0 6 -4 10 -10 10 -5 0
-10 -4 -10 -10z"/>
<path d="M600 2041 c0 -6 5 -13 10 -16 6 -3 10 1 10 9 0 9 -4 16 -10 16 -5 0
-10 -4 -10 -9z"/>
<path d="M683 1995 c-8 -22 6 -33 17 -15 13 20 12 30 0 30 -6 0 -13 -7 -17
-15z"/>
<path d="M355 2000 c-3 -5 -3 -15 1 -21 6 -11 23 6 24 24 0 10 -18 9 -25 -3z"/>
<path d="M384 1856 c-3 -8 -4 -31 -2 -52 4 -47 31 -55 36 -10 7 55 -19 102
-34 62z"/>
<path d="M472 1819 c2 -32 8 -54 16 -57 10 -3 12 9 10 49 -2 32 -8 54 -16 57
-10 3 -12 -9 -10 -49z"/>
<path d="M725 1813 c2 -10 4 -20 4 -23 1 -3 5 2 10 10 10 15 6 30 -9 30 -4 0
-7 -8 -5 -17z"/>
<path d="M720 1730 c0 -5 7 -10 15 -10 8 0 15 5 15 10 0 6 -7 10 -15 10 -8 0
-15 -4 -15 -10z"/>
<path d="M2740 1595 c0 -41 3 -56 13 -52 7 2 12 22 12 52 0 30 -5 50 -12 53
-10 3 -13 -12 -13 -53z"/>
<path d="M2880 1595 c0 -58 13 -73 24 -29 8 31 -1 84 -15 84 -5 0 -9 -25 -9
-55z"/>
<path d="M3114 1636 c-9 -24 0 -89 14 -94 8 -3 12 12 12 52 0 53 -14 74 -26
42z"/>
<path d="M3250 1636 c0 -14 5 -26 10 -26 6 0 10 9 10 19 0 11 -4 23 -10 26 -6
4 -10 -5 -10 -19z"/>
<path d="M3680 1595 c0 -41 3 -56 13 -52 7 2 12 22 12 52 0 30 -5 50 -12 53
-10 3 -13 -12 -13 -53z"/>
<path d="M4120 1600 c0 -11 4 -20 9 -20 5 0 7 9 4 20 -3 11 -7 20 -9 20 -2 0
-4 -9 -4 -20z"/>
<path d="M4250 1640 c0 -19 11 -26 23 -14 8 8 -3 34 -14 34 -5 0 -9 -9 -9 -20z"/>
<path d="M4250 1560 c0 -11 7 -20 15 -20 8 0 15 9 15 20 0 11 -7 20 -15 20 -8
0 -15 -9 -15 -20z"/>
<path d="M4620 1590 c0 -11 5 -20 10 -20 6 0 10 9 10 20 0 11 -4 20 -10 20 -5
0 -10 -9 -10 -20z"/>
<path d="M610 1501 c0 -7 -4 -10 -9 -6 -12 7 -31 -27 -31 -56 0 -38 23 -99 37
-99 10 0 12 9 8 33 -4 17 -2 52 4 77 6 28 6 49 0 55 -6 5 -9 4 -9 -4z"/>
<path d="M1581 1510 c0 -19 3 -29 6 -22 2 6 11 12 19 12 8 0 14 7 14 16 0 8
-5 12 -11 8 -6 -3 -15 0 -20 7 -6 10 -8 3 -8 -21z"/>
<path d="M1652 1510 c0 -19 2 -27 5 -17 2 9 2 25 0 35 -3 9 -5 1 -5 -18z"/>
<path d="M1732 1520 c0 -14 2 -19 5 -12 2 6 2 18 0 25 -3 6 -5 1 -5 -13z"/>
<path d="M4480 1416 c0 -9 5 -16 10 -16 6 0 10 4 10 9 0 6 -4 13 -10 16 -5 3
-10 -1 -10 -9z"/>
<path d="M4480 1365 c0 -8 5 -15 10 -15 6 0 10 7 10 15 0 8 -4 15 -10 15 -5 0
-10 -7 -10 -15z"/>
<path d="M4570 1415 c0 -8 5 -15 10 -15 6 0 10 7 10 15 0 8 -4 15 -10 15 -5 0
-10 -7 -10 -15z"/>
<path d="M1287 1306 c-4 -15 -6 -31 -2 -34 10 -10 16 6 13 35 l-3 28 -8 -29z"/>
<path d="M1420 1290 c0 -40 4 -70 10 -70 6 0 10 30 10 70 0 40 -4 70 -10 70
-6 0 -10 -30 -10 -70z"/>
<path d="M1570 1237 c0 -14 5 -29 10 -32 6 -3 10 1 10 9 0 8 8 20 18 25 9 6
12 11 5 11 -6 0 -18 3 -27 6 -12 5 -16 0 -16 -19z"/>
<path d="M1692 1235 c0 -16 2 -22 5 -12 2 9 2 23 0 30 -3 6 -5 -1 -5 -18z"/>
<path d="M1970 1228 c0 -12 3 -18 7 -15 3 4 12 2 20 -4 20 -18 15 -1 -7 21
l-20 20 0 -22z"/>
<path d="M1931 1214 c0 -11 3 -14 6 -6 3 7 2 16 -1 19 -3 4 -6 -2 -5 -13z"/>
<path d="M4050 1240 c0 -5 7 -10 16 -10 8 0 12 5 9 10 -3 6 -10 10 -16 10 -5
0 -9 -4 -9 -10z"/>
<path d="M4316 1213 c-9 -9 -7 -33 3 -33 12 0 22 28 12 34 -5 3 -11 3 -15 -1z"/>
<path d="M4652 1219 c2 -19 8 -33 13 -31 15 3 12 55 -3 60 -10 3 -13 -5 -10
-29z"/>
</g>
</svg>
