<?xml version="1.0" standalone="no"?>
<!DOCTYPE svg PUBLIC "-//W3C//DTD SVG 20010904//EN"
 "http://www.w3.org/TR/2001/REC-SVG-20010904/DTD/svg10.dtd">
<svg version="1.0" xmlns="http://www.w3.org/2000/svg"
 width="700.000000pt" height="700.000000pt" viewBox="0 0 700.000000 700.000000"
 preserveAspectRatio="xMidYMid meet">

<g transform="translate(0.000000,700.000000) scale(0.100000,-0.100000)"
fill="#000000" stroke="none">
<path d="M5782 5580 c-40 -4 -78 -12 -84 -18 -9 -9 -8 -12 6 -12 9 0 14 -5 11
-10 -4 -6 -12 -7 -18 -3 -7 4 -31 8 -54 8 -23 0 -45 4 -49 8 -4 4 -21 7 -37 7
-46 0 -28 -9 53 -26 59 -12 90 -13 169 -4 53 5 115 11 138 12 37 1 40 3 25 15
-15 11 -13 13 21 11 20 -1 37 -6 37 -10 0 -4 15 -8 33 -8 23 1 28 3 17 9 -23
14 -120 29 -125 21 -3 -4 -20 -5 -37 -1 -18 3 -66 4 -106 1z m68 -20 c-20 -13
-43 -13 -35 0 3 6 16 10 28 10 18 0 19 -2 7 -10z m45 0 c-3 -5 -11 -10 -16
-10 -6 0 -7 5 -4 10 3 6 11 10 16 10 6 0 7 -4 4 -10z"/>
<path d="M5630 5566 c0 -9 30 -14 35 -6 4 6 -3 10 -14 10 -12 0 -21 -2 -21 -4z"/>
<path d="M4908 5493 c6 -2 18 -2 25 0 6 3 1 5 -13 5 -14 0 -19 -2 -12 -5z"/>
<path d="M4978 5493 c-21 -5 -24 -33 -4 -33 8 0 24 9 37 20 22 18 23 19 4 19
-11 -1 -28 -3 -37 -6z"/>
<path d="M5835 5490 c-3 -5 -2 -10 4 -10 5 0 13 5 16 10 3 6 2 10 -4 10 -5 0
-13 -4 -16 -10z"/>
<path d="M5880 5490 c0 -5 5 -10 11 -10 5 0 7 5 4 10 -3 6 -8 10 -11 10 -2 0
-4 -4 -4 -10z"/>
<path d="M4579 5482 c22 -7 22 -8 -13 -22 -31 -12 -34 -16 -19 -21 29 -12 104
-9 148 6 25 8 32 13 20 14 -12 1 -25 5 -30 10 -6 5 -37 11 -70 14 -33 3 -49 2
-36 -1z m96 -21 c15 -7 6 -10 -38 -16 -32 -4 -61 -5 -64 -1 -4 3 11 6 33 7 31
0 35 2 19 9 -18 8 -18 9 5 9 14 0 34 -4 45 -8z"/>
<path d="M4725 5479 c-15 -7 -11 -7 14 -3 21 4 31 2 27 -4 -3 -5 4 -12 17 -16
40 -11 53 -5 22 9 -22 11 -24 13 -6 9 16 -4 21 -3 17 5 -8 13 -63 13 -91 0z"/>
<path d="M4858 5483 c6 -2 18 -2 25 0 6 3 1 5 -13 5 -14 0 -19 -2 -12 -5z"/>
<path d="M5055 5480 c3 -5 15 -10 26 -10 11 0 17 5 14 10 -3 6 -15 10 -26 10
-11 0 -17 -4 -14 -10z"/>
<path d="M4908 5473 c6 -2 18 -2 25 0 6 3 1 5 -13 5 -14 0 -19 -2 -12 -5z"/>
<path d="M4345 5462 c6 -5 32 -12 58 -15 63 -6 47 9 -18 18 -32 4 -46 3 -40
-3z"/>
<path d="M4475 5460 c3 -5 13 -10 21 -10 8 0 14 5 14 10 0 6 -9 10 -21 10 -11
0 -17 -4 -14 -10z"/>
<path d="M4855 5460 c11 -5 27 -9 35 -9 9 0 8 4 -5 9 -11 5 -27 9 -35 9 -9 0
-8 -4 5 -9z"/>
<path d="M4250 5440 c8 -6 27 -10 43 -10 15 0 27 -4 27 -8 0 -5 -13 -7 -29 -4
-16 2 -31 0 -35 -6 -3 -5 12 -9 38 -8 24 0 42 4 40 7 -6 10 24 19 54 18 23 -1
22 -3 -8 -9 l-35 -7 40 -2 c57 -1 78 15 29 23 -72 12 -179 15 -164 6z"/>
<path d="M4101 5436 c2 -2 38 -6 79 -9 46 -4 67 -3 55 3 -19 8 -143 14 -134 6z"/>
<path d="M4468 5433 c6 -2 18 -2 25 0 6 3 1 5 -13 5 -14 0 -19 -2 -12 -5z"/>
<path d="M3910 5420 c-14 -4 -36 -5 -50 -3 -18 3 -21 2 -11 -5 11 -8 11 -10 0
-15 -10 -4 -9 -6 4 -6 9 -1 17 -5 17 -11 0 -5 10 -10 23 -10 22 1 22 1 2 17
-19 15 -19 15 5 9 14 -3 36 -8 50 -11 21 -4 21 -4 -4 6 -21 8 -25 14 -15 20
20 12 8 17 -21 9z"/>
<path d="M4046 5420 c12 -5 25 -13 29 -19 3 -6 21 -11 38 -11 l32 0 -44 20
c-24 11 -51 20 -60 19 -11 0 -10 -3 5 -9z"/>
<path d="M3968 5413 c6 -2 18 -2 25 0 6 3 1 5 -13 5 -14 0 -19 -2 -12 -5z"/>
<path d="M4160 5410 c8 -5 24 -10 35 -10 17 0 17 2 5 10 -8 5 -24 10 -35 10
-17 0 -17 -2 -5 -10z"/>
<path d="M3575 5403 c15 -16 82 -25 90 -13 4 6 -7 10 -29 10 -19 0 -43 3 -53
6 -12 5 -15 4 -8 -3z"/>
<path d="M3710 5400 c-8 -5 -10 -10 -5 -10 6 0 21 -3 34 -7 16 -4 22 -3 17 5
-4 7 6 12 26 15 27 3 25 4 -12 5 -25 1 -52 -3 -60 -8z"/>
<path d="M4018 5403 c6 -2 18 -2 25 0 6 3 1 5 -13 5 -14 0 -19 -2 -12 -5z"/>
<path d="M3436 5391 c33 -32 124 -66 109 -41 -4 6 16 10 52 11 53 1 55 2 23 9
-19 5 -55 7 -80 4 -30 -3 -39 -2 -25 4 16 8 15 10 -14 15 -48 10 -77 9 -65 -2z"/>
<path d="M3700 5367 c0 -8 150 1 160 10 2 2 -32 3 -78 1 -45 -2 -82 -7 -82
-11z"/>
<path d="M4038 5343 c7 -3 16 -2 19 1 4 3 -2 6 -13 5 -11 0 -14 -3 -6 -6z"/>
<path d="M3968 5333 c7 -3 16 -2 19 1 4 3 -2 6 -13 5 -11 0 -14 -3 -6 -6z"/>
<path d="M3648 5323 c6 -2 18 -2 25 0 6 3 1 5 -13 5 -14 0 -19 -2 -12 -5z"/>
<path d="M4048 5323 c7 -3 16 -2 19 1 4 3 -2 6 -13 5 -11 0 -14 -3 -6 -6z"/>
<path d="M3968 5313 c6 -2 18 -2 25 0 6 3 1 5 -13 5 -14 0 -19 -2 -12 -5z"/>
<path d="M1792 5296 c2 -1 12 -8 22 -16 13 -10 17 -10 12 -2 -12 19 4 14 36
-13 16 -14 34 -22 39 -19 6 3 16 0 24 -6 11 -10 15 -10 15 -1 0 7 5 9 10 6 6
-4 7 -12 4 -18 -4 -7 -4 -9 1 -5 4 4 17 2 29 -4 11 -7 25 -11 30 -10 5 2 17
-5 27 -14 10 -9 23 -13 28 -9 6 3 11 1 11 -5 0 -6 5 -8 12 -4 8 5 6 11 -7 20
-10 7 -22 11 -27 8 -4 -3 -21 4 -37 15 -15 11 -31 18 -35 14 -3 -3 -14 1 -25
11 -10 9 -22 16 -27 14 -5 -1 -20 4 -33 11 -14 8 -21 9 -17 2 12 -18 -10 -12
-28 8 -9 10 -28 19 -42 19 -14 0 -24 -1 -22 -2z"/>
<path d="M1673 5284 c3 -6 -15 -9 -46 -7 l-52 2 38 -17 c22 -10 39 -22 39 -27
0 -6 2 -12 5 -15 4 -3 3 1 -1 8 -10 17 4 15 62 -9 29 -12 49 -26 45 -32 -4 -6
-1 -7 6 -2 7 4 32 0 55 -9 44 -17 70 -17 95 -2 10 7 12 5 6 -4 -6 -9 -2 -10
16 -4 13 5 42 8 64 7 33 -2 14 9 -105 57 -143 58 -234 82 -135 35 28 -13 43
-24 34 -24 -9 -1 -19 2 -23 6 -3 4 -21 12 -39 19 -17 6 -41 15 -51 19 -12 5
-17 5 -13 -1z m22 -24 c-3 -5 -1 -10 6 -10 7 0 10 -3 6 -6 -9 -9 -28 6 -22 17
4 5 8 9 11 9 3 0 2 -4 -1 -10z m222 -55 c55 -23 56 -23 22 -22 -21 1 -35 5
-33 9 2 3 -13 12 -33 18 -21 7 -42 17 -48 22 -13 13 16 5 92 -27z m-107 11
c-1 -5 4 -13 12 -18 11 -8 11 -9 0 -6 -8 2 -13 7 -12 12 1 5 -4 13 -12 18 -11
8 -11 9 0 6 8 -2 13 -7 12 -12z"/>
<path d="M1264 5249 c-3 -6 -3 -13 0 -16 3 -4 6 -1 6 6 0 7 5 9 11 5 8 -4 7
-9 -2 -16 -11 -8 -11 -9 1 -5 10 3 16 -2 16 -14 0 -17 -2 -17 -22 2 -13 12
-27 18 -32 15 -6 -3 -16 0 -24 7 -14 14 -58 20 -58 9 0 -4 31 -20 68 -36 37
-16 95 -42 129 -57 48 -22 73 -27 115 -24 29 2 56 -1 59 -7 3 -5 18 -11 32
-12 15 -2 24 1 21 6 -3 5 -12 7 -19 4 -14 -5 -39 17 -30 26 3 3 -3 8 -14 11
-12 3 -18 0 -15 -7 3 -7 -4 -12 -16 -12 -21 0 -25 6 -12 22 4 5 3 6 -3 2 -16
-14 -28 -8 -15 7 7 8 8 15 4 15 -5 0 -15 -9 -22 -21 -8 -12 -9 -18 -3 -14 6 3
11 1 11 -5 0 -7 -7 -9 -16 -6 -9 3 -18 6 -20 6 -2 0 3 12 12 28 14 24 14 25 0
8 -15 -18 -21 -15 -17 8 4 20 -24 24 -41 6 -17 -18 -48 -18 -48 1 0 14 20 11
20 -3 0 -7 6 -4 12 6 9 15 7 22 -7 32 -9 7 -23 10 -31 7 -8 -3 -14 -1 -14 5 0
14 -28 23 -36 11z m86 -38 c0 -4 -10 -7 -22 -5 -34 4 -34 4 -19 13 15 10 41 4
41 -8z m45 -40 c1 -12 -3 -17 -12 -14 -15 6 -15 6 -7 28 8 19 17 12 19 -14z"/>
<path d="M1326 5251 c18 -16 284 -124 291 -118 3 4 -17 16 -45 28 -29 12 -52
26 -52 31 0 5 -4 7 -10 3 -5 -3 -30 4 -55 16 -44 21 -66 39 -46 39 5 0 13 -5
16 -10 4 -6 11 -7 17 -4 7 5 8 2 3 -6 -6 -10 -4 -12 8 -7 8 3 21 -1 27 -8 7
-8 17 -12 22 -9 5 3 18 -2 28 -11 10 -9 23 -14 29 -11 5 3 16 -1 25 -9 8 -8
19 -15 23 -14 18 3 34 -1 30 -8 -3 -5 11 -9 31 -11 50 -3 35 7 -71 50 -51 20
-91 40 -90 45 2 9 -15 12 -116 18 -41 3 -70 1 -65 -4z"/>
<path d="M1225 5240 c3 -5 8 -10 11 -10 2 0 4 5 4 10 0 6 -5 10 -11 10 -5 0
-7 -4 -4 -10z"/>
<path d="M1026 5228 c4 -5 12 -7 19 -4 8 3 19 -2 25 -9 7 -8 16 -13 20 -10 5
3 14 -1 22 -8 7 -8 19 -12 27 -9 9 3 11 0 6 -8 -6 -9 -4 -11 5 -5 7 4 15 3 19
-3 3 -6 13 -12 21 -14 8 -2 20 -8 28 -15 7 -7 20 -9 29 -6 12 5 14 3 8 -7 -5
-9 -4 -11 3 -6 7 4 12 3 12 -2 0 -5 23 -9 50 -9 28 0 49 4 48 9 -2 5 -35 23
-73 39 -39 17 -93 41 -120 55 -54 26 -91 32 -79 12 5 -7 3 -8 -6 -3 -19 12
-70 14 -64 3z m182 -47 c11 -7 10 -9 -3 -14 -9 -4 -14 -3 -10 2 3 5 -1 12 -7
14 -7 3 -8 6 -3 6 6 0 16 -3 23 -8z"/>
<path d="M950 5221 c0 -10 27 -21 44 -20 5 0 12 -5 17 -12 4 -8 11 -10 16 -6
9 9 -17 28 -29 21 -4 -3 -8 0 -8 6 0 6 -4 8 -10 5 -5 -3 -10 -1 -10 4 0 6 -4
11 -10 11 -5 0 -10 -4 -10 -9z"/>
<path d="M820 5215 c0 -9 255 -125 270 -122 8 1 -12 15 -45 31 -33 16 -91 44
-128 62 -62 31 -97 42 -97 29z"/>
<path d="M1009 5159 c69 -33 129 -58 134 -56 9 3 -20 17 -185 91 -109 50 -72
24 51 -35z"/>
<path d="M671 5196 c-15 -18 16 -31 35 -15 12 9 13 9 9 -4 -9 -21 13 -31 32
-15 10 7 14 8 10 1 -10 -16 20 -43 40 -36 10 4 14 2 10 -4 -10 -16 14 -22 38
-10 18 9 19 9 5 -8 -14 -17 -14 -18 10 -5 23 12 24 12 11 -4 -12 -14 -12 -16
4 -10 14 6 16 4 10 -6 -5 -9 -4 -11 4 -6 6 4 9 12 6 17 -3 5 1 6 10 3 12 -5
13 -9 4 -20 -13 -16 -14 -15 26 -20 20 -2 25 0 16 5 -8 5 -21 7 -29 3 -10 -3
-13 -1 -8 6 4 7 15 12 24 13 18 0 -224 128 -244 128 -6 1 -17 -5 -23 -13z m29
0 c0 -3 -4 -8 -10 -11 -5 -3 -10 -1 -10 4 0 6 5 11 10 11 6 0 10 -2 10 -4z
m123 -62 c10 -6 14 -15 9 -18 -6 -3 -13 1 -16 10 -3 8 -13 14 -22 12 -9 -2
-19 3 -21 10 -5 13 20 7 50 -14z"/>
<path d="M766 5199 c3 -6 11 -8 17 -6 7 2 18 -2 25 -10 8 -7 18 -10 24 -7 6 4
3 11 -8 17 -24 14 -66 18 -58 6z"/>
<path d="M2110 5180 c0 -5 3 -9 8 -8 4 1 17 -3 29 -10 17 -10 23 -9 29 0 4 7
4 10 -1 6 -4 -4 -17 -1 -29 7 -24 17 -36 19 -36 5z"/>
<path d="M846 5171 c-7 -10 73 -47 92 -43 8 2 11 -1 8 -6 -3 -5 11 -16 30 -25
40 -20 44 -20 44 -7 0 13 -78 52 -90 45 -6 -3 -10 -2 -10 2 0 8 -52 43 -63 43
-3 0 -8 -4 -11 -9z"/>
<path d="M1060 5169 c0 -5 5 -7 10 -4 6 3 10 8 10 11 0 2 -4 4 -10 4 -5 0 -10
-5 -10 -11z"/>
<path d="M2058 5153 c7 -3 16 -2 19 1 4 3 -2 6 -13 5 -11 0 -14 -3 -6 -6z"/>
<path d="M1125 5140 c-3 -5 -1 -10 4 -10 21 0 26 -2 39 -12 8 -7 12 -7 12 0 0
6 -9 16 -19 22 -24 12 -28 13 -36 0z"/>
<path d="M1810 5131 c0 -5 9 -7 20 -4 11 3 20 7 20 9 0 2 -9 4 -20 4 -11 0
-20 -4 -20 -9z"/>
<path d="M2015 5130 c-3 -5 -1 -10 4 -10 6 0 11 5 11 10 0 6 -2 10 -4 10 -3 0
-8 -4 -11 -10z"/>
<path d="M1196 5112 c-3 -5 1 -9 9 -9 8 0 12 4 9 9 -3 4 -7 8 -9 8 -2 0 -6 -4
-9 -8z"/>
<path d="M1380 5080 c-9 -6 -10 -10 -3 -10 6 0 15 5 18 10 8 12 4 12 -15 0z"/>
<path d="M1030 5066 c0 -3 9 -10 19 -16 15 -7 22 -7 27 2 4 7 4 10 -1 6 -4 -4
-16 -3 -26 3 -11 5 -19 7 -19 5z"/>
<path d="M3480 4955 c0 -26 7 -29 34 -19 27 10 20 44 -9 44 -20 0 -25 -5 -25
-25z"/>
<path d="M3330 4915 c0 -28 -4 -35 -20 -35 -13 0 -20 -7 -20 -20 0 -13 7 -20
20 -20 18 0 20 -7 20 -73 0 -83 8 -97 60 -97 44 0 65 13 57 34 -5 12 -14 15
-32 10 -25 -6 -25 -6 -25 65 0 69 1 71 25 71 19 0 25 5 25 21 0 15 -5 20 -22
17 -19 -2 -24 2 -26 30 -3 28 -7 32 -33 32 -27 0 -29 -3 -29 -35z"/>
<path d="M3913 4935 c-27 -11 -53 -41 -53 -59 0 -14 39 -4 55 14 23 25 100 28
109 5 5 -15 -27 -35 -58 -35 -7 0 -33 -7 -58 -16 -75 -25 -89 -101 -23 -118
28 -7 89 1 118 16 10 5 24 5 35 -1 26 -14 62 -2 62 20 0 11 -7 19 -15 19 -12
0 -15 15 -15 75 0 63 -3 76 -19 85 -27 14 -100 12 -138 -5z m112 -117 c-16
-52 -89 -85 -115 -53 -20 25 -1 47 51 61 66 18 71 17 64 -8z"/>
<path d="M3680 4913 c-8 -3 -23 -12 -32 -21 -16 -14 -18 -13 -18 1 0 20 -36
23 -42 5 -7 -18 -7 -168 -1 -184 3 -8 13 -14 23 -14 15 0 18 11 22 69 4 83 23
111 74 111 43 0 54 -21 54 -105 0 -57 2 -66 16 -61 9 3 20 6 25 6 5 0 9 35 9
78 0 99 -14 122 -73 121 -23 0 -49 -3 -57 -6z"/>
<path d="M2877 4903 c-4 -3 -7 -19 -7 -34 0 -19 -6 -30 -20 -34 -11 -3 -20
-13 -20 -21 0 -8 9 -14 20 -14 18 0 20 -7 20 -62 0 -108 15 -127 86 -113 25 4
34 11 34 25 0 16 -7 20 -30 20 l-30 0 0 64 c0 63 0 65 30 71 21 5 30 12 30 27
0 17 -4 19 -30 13 -29 -6 -30 -5 -30 29 0 31 -3 36 -23 36 -13 0 -27 -3 -30
-7z"/>
<path d="M3487 4893 c-4 -3 -7 -53 -7 -111 0 -91 2 -103 16 -98 9 3 20 6 25 6
5 0 9 47 9 105 0 95 -2 105 -18 105 -10 0 -22 -3 -25 -7z"/>
<path d="M3095 4863 c-26 -6 -65 -42 -65 -60 0 -20 44 -16 57 6 22 36 113 36
113 0 0 -18 -50 -39 -95 -39 -11 0 -35 -9 -52 -20 -27 -16 -33 -26 -33 -53 0
-18 5 -38 12 -45 17 -17 103 -15 139 3 20 11 35 13 47 6 27 -14 72 -2 72 20 0
11 -7 19 -15 19 -8 0 -15 6 -16 13 -1 6 -3 39 -5 72 -2 42 -8 63 -20 72 -17
13 -98 16 -139 6z m80 -171 c-32 -27 -82 -27 -99 0 -15 24 -2 34 64 51 53 14
55 14 58 -6 3 -14 -6 -30 -23 -45z"/>
<path d="M2645 4818 c-45 -16 -65 -38 -65 -70 0 -24 6 -32 35 -44 19 -7 54
-14 77 -14 24 0 50 -5 58 -10 13 -9 12 -13 -9 -30 -28 -24 -74 -26 -95 -5 -15
15 -76 21 -76 7 0 -22 35 -52 66 -58 54 -10 140 12 164 43 43 55 14 87 -89 97
-73 7 -79 10 -65 34 15 23 77 28 97 8 29 -29 74 -16 61 17 -13 34 -96 47 -159
25z"/>
<path d="M2356 4790 c-34 -11 -66 -38 -66 -57 0 -20 43 -15 63 8 14 16 27 19
65 17 33 -2 48 -8 50 -19 2 -12 -10 -19 -45 -28 -26 -7 -65 -17 -86 -22 -71
-19 -88 -94 -27 -119 34 -14 107 -6 136 15 13 9 23 10 31 3 19 -16 77 -6 81
15 2 10 -3 17 -11 17 -11 0 -16 19 -19 76 -3 41 -10 80 -16 86 -15 15 -118 20
-156 8z m114 -126 c0 -8 -11 -26 -25 -39 -30 -30 -99 -35 -109 -8 -9 23 6 35
67 54 56 17 67 16 67 -7z"/>
<path d="M2218 4772 c-23 -3 -31 -14 -60 -82 -18 -44 -36 -80 -39 -80 -3 0
-19 33 -36 73 -28 68 -31 72 -59 69 -16 -2 -30 -5 -32 -7 -2 -1 20 -48 47
-104 54 -107 69 -119 108 -83 20 17 111 209 102 215 -2 1 -16 1 -31 -1z"/>
<path d="M1320 4726 c0 -28 -4 -35 -25 -40 -16 -4 -25 -13 -25 -26 0 -15 7
-20 25 -20 24 0 25 -2 25 -75 0 -67 2 -76 23 -88 33 -21 107 -11 107 14 0 15
-7 19 -35 19 l-35 0 0 75 0 75 30 0 c23 0 30 4 30 20 0 16 -7 20 -30 20 -27 0
-30 3 -30 30 0 27 -3 30 -30 30 -27 0 -30 -3 -30 -34z"/>
<path d="M417 4730 c-3 -11 -1 -20 4 -20 5 0 9 9 9 20 0 11 -2 20 -4 20 -2 0
-6 -9 -9 -20z"/>
<path d="M1071 4740 c-19 -4 -37 -33 -92 -154 -38 -82 -69 -152 -69 -156 0 -3
15 -4 34 -2 29 3 37 10 50 42 13 34 19 38 62 44 97 13 112 9 128 -29 12 -29
20 -35 45 -35 16 0 32 3 35 8 2 4 -27 71 -64 149 -72 148 -71 147 -129 133z
m44 -107 c29 -65 25 -73 -42 -73 l-41 0 26 65 c14 36 27 65 29 65 2 0 15 -26
28 -57z"/>
<path d="M1897 4730 c-30 -24 -37 -25 -37 -4 0 10 -7 14 -22 12 -22 -3 -23 -7
-26 -114 l-3 -111 25 4 c22 5 24 10 28 74 4 80 18 99 75 108 29 5 39 11 41 29
3 18 -1 22 -26 22 -16 0 -41 -9 -55 -20z"/>
<path d="M475 4720 c-3 -5 -1 -10 4 -10 6 0 11 5 11 10 0 6 -2 10 -4 10 -3 0
-8 -4 -11 -10z"/>
<path d="M1542 4705 c-48 -21 -79 -93 -63 -147 16 -52 51 -73 120 -72 101 1
161 52 161 134 0 42 -4 52 -31 74 -26 22 -40 26 -92 26 -34 -1 -77 -7 -95 -15z
m140 -42 c27 -24 24 -78 -7 -108 -24 -25 -86 -34 -111 -17 -21 13 -34 52 -28
77 14 56 104 86 146 48z"/>
<path d="M475 4670 c3 -5 8 -10 11 -10 2 0 4 5 4 10 0 6 -5 10 -11 10 -5 0 -7
-4 -4 -10z"/>
<path d="M532 4650 c-1 -17 1 -30 6 -30 8 0 9 46 1 54 -3 3 -6 -8 -7 -24z"/>
<path d="M475 4571 c-3 -5 -2 -12 3 -15 5 -3 9 1 9 9 0 17 -3 19 -12 6z"/>
<path d="M415 4520 c-3 -5 -1 -10 4 -10 6 0 11 5 11 10 0 6 -2 10 -4 10 -3 0
-8 -4 -11 -10z"/>
<path d="M477 4503 c-4 -3 -7 -11 -7 -17 0 -6 5 -5 12 2 6 6 9 14 7 17 -3 3
-9 2 -12 -2z"/>
<path d="M1540 4337 c0 -9 -8 -21 -17 -26 -17 -10 -17 -10 0 -11 13 0 17 -9
17 -44 0 -49 11 -63 37 -46 17 10 16 10 -2 8 -18 -3 -20 3 -22 60 -1 35 -4 66
-7 70 -3 3 -6 -2 -6 -11z"/>
<path d="M1343 4255 c0 -44 2 -61 4 -37 2 23 2 59 0 80 -2 20 -4 1 -4 -43z"/>
<path d="M1641 4321 c-14 -4 -26 -12 -28 -18 -3 -8 5 -7 25 3 31 15 66 10 59
-9 -2 -6 -23 -15 -48 -21 -34 -9 -45 -16 -47 -33 -4 -27 35 -41 65 -24 11 5
31 7 44 4 20 -5 22 -3 12 8 -7 7 -13 30 -13 50 0 46 -15 55 -69 40z m59 -60
c0 -14 -41 -41 -62 -41 -21 0 -25 35 -5 43 21 9 67 7 67 -2z"/>
<path d="M1191 4247 c0 -48 3 -76 9 -72 5 3 7 19 3 35 -3 18 0 36 7 45 8 9 8
15 2 15 -6 0 -13 12 -15 28 -2 15 -5 -8 -6 -51z"/>
<path d="M955 4293 c-22 -3 -44 -8 -49 -13 -6 -6 6 -7 27 -3 l37 6 2 -74 2
-74 3 65 c5 72 13 87 51 93 25 4 25 4 -3 4 -16 0 -48 -2 -70 -4z"/>
<path d="M1391 4274 c-25 -32 -25 -33 -5 -62 20 -28 64 -29 95 -1 l24 21 -25
-16 c-29 -19 -61 -21 -78 -4 -19 19 -14 28 18 28 17 0 30 4 30 8 0 5 -13 7
-30 4 -34 -5 -40 12 -11 28 27 14 56 13 70 -4 10 -11 8 -15 -6 -19 -14 -4 -13
-5 5 -6 12 0 22 5 22 12 0 44 -77 51 -109 11z"/>
<path d="M1250 4273 c69 -13 68 -77 -1 -93 l-34 -8 31 -1 c37 -1 67 27 67 65
0 31 -18 44 -58 42 -27 -1 -28 -1 -5 -5z"/>
<path d="M1068 4259 c-10 -5 -18 -15 -18 -20 0 -6 7 -3 16 6 9 9 28 15 43 13
21 -3 26 -9 28 -38 4 -39 -15 -60 -54 -60 -16 0 -23 6 -23 19 0 11 6 22 13 24
7 3 6 6 -5 6 -18 1 -33 -32 -22 -50 4 -7 20 -8 43 -5 20 4 46 7 59 7 16 1 20
4 13 13 -5 6 -11 29 -13 51 -3 36 -6 40 -33 42 -16 2 -38 -2 -47 -8z"/>
<path d="M5715 4229 c-248 -10 -473 -46 -775 -125 -138 -36 -363 -108 -390
-126 -18 -11 -21 -12 140 42 179 60 409 115 605 144 140 21 170 24 276 30 l94
5 -105 -14 c-634 -88 -1034 -225 -1545 -533 -33 -19 -122 -80 -198 -134 -76
-54 -142 -98 -146 -98 -5 0 -11 -7 -15 -15 -7 -19 -17 -19 -42 0 -16 13 -16
14 -1 9 12 -5 16 -2 12 9 -10 25 210 188 430 317 86 51 280 146 383 187 35 14
61 27 58 30 -6 6 -247 -97 -374 -161 -303 -152 -573 -344 -802 -568 -191 -187
-281 -299 -422 -529 -24 -38 -49 -101 -38 -94 6 3 10 1 10 -4 0 -6 6 -11 13
-11 9 0 140 -91 212 -147 6 -5 24 -17 40 -27 17 -10 42 -30 58 -44 18 -18 27
-21 27 -11 0 11 2 11 8 1 6 -9 24 13 56 70 224 388 514 693 931 980 333 229
820 457 1200 563 409 115 698 163 998 167 67 1 111 5 103 10 -28 16 -231 56
-336 67 -138 14 -282 17 -465 10z"/>
<path d="M1098 4213 c7 -3 16 -2 19 1 4 3 -2 6 -13 5 -11 0 -14 -3 -6 -6z"/>
<path d="M1780 4074 c-13 -3 -160 -20 -635 -74 -49 -5 -107 -13 -128 -16 -104
-16 -152 -146 -80 -218 36 -36 13 -38 503 24 91 12 212 26 270 31 141 14 163
28 194 123 9 25 -10 90 -32 109 -19 18 -66 28 -92 21z m10 -130 c0 -73 -22
-96 -87 -92 -29 2 -48 8 -51 17 -3 10 3 12 29 9 35 -6 69 5 69 23 0 6 -7 6
-19 -1 -31 -16 -59 -12 -75 11 -31 45 10 85 89 87 l45 0 0 -54z m-472 9 c17
-24 15 -67 -6 -93 -23 -29 -92 -38 -115 -15 -35 35 -12 119 36 128 33 7 70 -2
85 -20z m310 -25 c3 -43 1 -48 -17 -48 -17 0 -21 6 -21 29 0 58 -41 50 -42 -8
-1 -26 -5 -31 -25 -31 -20 0 -23 5 -23 35 0 23 -5 35 -14 35 -16 0 -26 -21
-26 -56 0 -17 -6 -24 -20 -24 -17 0 -20 7 -20 49 l0 50 58 6 c31 3 64 8 72 10
8 2 29 2 45 2 28 -2 30 -4 33 -49z m-487 22 c10 -6 19 -19 19 -30 0 -18 -48
-60 -68 -60 -6 0 -14 -4 -17 -10 -4 -6 11 -7 39 -4 37 5 46 4 46 -8 0 -10 -14
-18 -37 -22 -53 -8 -113 -8 -113 2 0 19 35 55 66 68 38 16 47 46 12 41 -12 -2
-24 -9 -26 -15 -4 -14 -52 -16 -52 -4 0 11 30 38 50 45 25 9 60 8 81 -3z"/>
<path d="M1690 3955 c-16 -19 -5 -35 25 -35 23 0 40 24 29 41 -8 14 -40 11
-54 -6z"/>
<path d="M1236 3937 c-26 -19 -18 -71 11 -75 42 -6 57 72 17 85 -5 2 -18 -3
-28 -10z"/>
<path d="M2538 3749 c-6 -17 4 -89 11 -89 4 0 5 14 3 31 -3 17 0 34 6 38 6 4
5 10 -3 18 -9 8 -15 9 -17 2z"/>
<path d="M2703 3745 c-3 -9 -3 -19 1 -22 3 -4 6 2 6 11 0 14 6 17 29 14 17 -2
28 -1 25 4 -9 14 -54 9 -61 -7z"/>
<path d="M2647 3742 c6 -4 10 -21 9 -38 -1 -17 3 -31 9 -31 6 0 9 16 7 39 -3
27 -9 38 -21 38 -11 0 -12 -3 -4 -8z"/>
<path d="M2393 3690 c0 -30 2 -43 4 -27 2 15 2 39 0 55 -2 15 -4 2 -4 -28z"/>
<path d="M2468 3723 c7 -3 16 -2 19 1 4 3 -2 6 -13 5 -11 0 -14 -3 -6 -6z"/>
<path d="M1905 3695 c-31 -30 -33 -77 -4 -106 28 -28 85 -20 117 16 24 29 27
50 12 89 -8 23 -15 26 -55 26 -35 0 -52 -6 -70 -25z m89 -11 c18 -48 -4 -88
-46 -82 -48 7 -28 98 22 98 10 0 21 -7 24 -16z"/>
<path d="M2432 3708 c-26 -26 -6 -69 33 -67 17 1 17 2 -4 8 -33 9 -38 28 -9
34 l23 4 -24 2 c-20 1 -21 3 -11 16 15 18 9 20 -8 3z"/>
<path d="M2501 3704 c0 -11 3 -14 6 -6 3 7 2 16 -1 19 -3 4 -6 -2 -5 -13z"/>
<path d="M2743 3713 c11 -3 16 -11 13 -19 -3 -9 -1 -12 4 -9 19 12 10 35 -12
34 -19 -1 -19 -2 -5 -6z"/>
<path d="M2120 3695 c-10 -38 1 -95 19 -95 11 0 12 3 4 8 -6 4 -13 30 -15 57
-2 28 -5 41 -8 30z"/>
<path d="M2328 3703 c29 -6 39 -30 22 -57 -11 -20 -11 -20 5 -4 27 26 13 68
-23 67 -24 -2 -25 -2 -4 -6z"/>
<path d="M1810 3690 c0 -5 -11 -12 -25 -16 -14 -3 -25 -10 -25 -15 0 -5 11 -9
25 -9 23 0 25 -4 25 -45 0 -33 4 -45 15 -45 12 0 15 14 15 70 0 56 -3 70 -15
70 -8 0 -15 -4 -15 -10z"/>
<path d="M2280 3658 c0 -23 3 -38 6 -35 10 9 11 77 2 77 -5 0 -8 -19 -8 -42z"/>
<path d="M2594 3680 c1 -8 10 -16 21 -17 15 -1 15 0 3 3 -9 3 -19 11 -21 17
-2 7 -3 5 -3 -3z"/>
<path d="M2175 3680 c-3 -6 1 -7 9 -4 18 7 21 14 7 14 -6 0 -13 -4 -16 -10z"/>
<path d="M2238 3655 c-2 -21 0 -35 7 -35 7 0 9 14 7 35 -2 19 -5 35 -7 35 -2
0 -5 -16 -7 -35z"/>
<path d="M2707 3679 c7 -7 15 -10 18 -7 3 3 -2 9 -12 12 -14 6 -15 5 -6 -5z"/>
<path d="M2167 3635 c-4 -8 -2 -17 2 -20 5 -2 11 4 14 15 6 23 -8 27 -16 5z"/>
<path d="M1659 3616 c7 -8 14 -24 16 -36 6 -33 15 -37 15 -7 0 14 -7 33 -16
41 -19 20 -31 21 -15 2z"/>
<path d="M1603 3575 c0 -27 2 -38 4 -22 2 15 2 37 0 50 -2 12 -4 0 -4 -28z"/>
<path d="M1492 3598 c-6 -6 -12 -17 -12 -22 0 -6 5 -3 11 7 11 19 64 24 72 7
3 -6 4 -5 3 2 -3 17 -58 22 -74 6z"/>
<path d="M1396 3591 c-4 -5 3 -7 14 -4 23 6 26 13 6 13 -8 0 -17 -4 -20 -9z"/>
<path d="M985 3570 c3 -6 12 -10 20 -10 7 0 16 -5 18 -10 3 -6 4 -5 3 1 -1 7
-12 16 -25 20 -14 6 -20 5 -16 -1z"/>
<path d="M1267 3569 c6 -8 10 -27 9 -42 -2 -15 1 -30 6 -33 5 -4 8 12 6 37 -2
27 -9 44 -18 47 -12 4 -13 2 -3 -9z"/>
<path d="M1365 3561 c-7 -22 3 -51 17 -51 6 0 6 6 -2 15 -6 8 -9 23 -5 35 3
11 4 20 1 20 -2 0 -7 -8 -11 -19z"/>
<path d="M921 3543 c-23 -28 -20 -57 7 -83 14 -13 15 -13 3 2 -20 27 -10 81
19 95 17 9 20 13 8 13 -9 0 -26 -12 -37 -27z"/>
<path d="M1215 3560 c-3 -6 1 -7 9 -4 18 7 21 14 7 14 -6 0 -13 -4 -16 -10z"/>
<path d="M1173 3505 c0 -33 2 -45 4 -27 2 18 2 45 0 60 -2 15 -4 0 -4 -33z"/>
<path d="M1480 3540 c6 -11 18 -19 28 -19 16 1 16 2 0 6 -10 2 -18 11 -18 19
0 8 -5 14 -10 14 -7 0 -7 -6 0 -20z"/>
<path d="M1548 3538 c-10 -10 -14 -18 -9 -18 10 0 36 29 30 34 -2 1 -12 -6
-21 -16z"/>
<path d="M1065 3540 c-3 -6 1 -7 9 -4 18 7 21 14 7 14 -6 0 -13 -4 -16 -10z"/>
<path d="M1134 3516 c1 -25 6 -41 16 -44 12 -4 13 -2 3 9 -6 8 -13 28 -16 44
-4 23 -4 20 -3 -9z"/>
<path d="M1439 3523 c-13 -16 -12 -17 4 -4 9 7 17 15 17 17 0 8 -8 3 -21 -13z"/>
<path d="M1063 3503 c-29 -11 -5 -44 30 -42 7 0 1 5 -12 10 -19 8 -21 12 -11
24 13 16 13 16 -7 8z"/>
<path d="M1020 3485 c0 -8 2 -15 4 -15 2 0 6 7 10 15 3 8 1 15 -4 15 -6 0 -10
-7 -10 -15z"/>
<path d="M2773 3460 c0 -25 2 -35 4 -22 2 12 2 32 0 45 -2 12 -4 2 -4 -23z"/>
<path d="M1218 3483 c7 -3 16 -2 19 1 4 3 -2 6 -13 5 -11 0 -14 -3 -6 -6z"/>
<path d="M2623 3465 c12 -12 17 -27 13 -44 -5 -26 -5 -26 6 -3 13 26 3 52 -23
61 -9 3 -7 -2 4 -14z"/>
<path d="M990 3460 c-9 -6 -10 -10 -3 -10 6 0 15 5 18 10 8 12 4 12 -15 0z"/>
<path d="M2481 3430 l-2 -35 -17 28 c-25 40 -42 35 -42 -13 0 -23 5 -40 11
-40 6 0 8 7 5 16 -11 29 6 38 25 13 23 -30 31 -21 26 27 l-4 39 -2 -35z"/>
<path d="M3649 3440 c-13 -10 -19 -19 -13 -20 6 0 19 9 29 20 23 26 14 26 -16
0z"/>
<path d="M2287 3433 c-11 -10 -8 -83 3 -83 6 0 10 20 10 45 0 46 -2 50 -13 38z"/>
<path d="M2332 3428 c-17 -17 -15 -57 3 -64 41 -16 82 18 70 57 -7 22 -54 26
-73 7z m53 -28 c0 -18 -6 -26 -22 -28 -18 -3 -23 1 -23 21 0 28 9 39 30 35 9
-2 15 -14 15 -28z"/>
<path d="M2571 3429 c-1 -21 24 -43 41 -36 8 3 6 6 -5 6 -10 1 -22 11 -27 24
-6 15 -9 17 -9 6z"/>
<path d="M2222 3418 c-20 -20 -15 -66 9 -73 12 -4 26 -2 33 5 8 10 7 12 -6 7
-20 -7 -42 17 -34 38 3 9 16 20 28 25 22 8 22 9 3 9 -12 1 -26 -4 -33 -11z"/>
<path d="M2700 3421 c0 -6 4 -13 10 -16 6 -3 7 1 4 9 -7 18 -14 21 -14 7z"/>
<path d="M2125 3373 c-8 -20 -12 -39 -9 -42 4 -3 9 0 11 7 6 15 35 16 51 0 18
-18 16 6 -3 42 -20 39 -32 38 -50 -7z m35 8 c0 -6 -4 -13 -10 -16 -5 -3 -10 1
-10 9 0 9 5 16 10 16 6 0 10 -4 10 -9z"/>
<path d="M2030 3354 c0 -27 4 -43 10 -39 6 3 10 13 10 21 0 19 19 18 26 -1 4
-8 10 -15 16 -15 5 0 6 5 2 11 -4 7 -7 25 -6 40 1 26 -3 29 -29 29 -28 0 -29
-2 -29 -46z m50 26 c0 -5 -7 -10 -15 -10 -8 0 -15 5 -15 10 0 6 7 10 15 10 8
0 15 -4 15 -10z"/>
<path d="M1908 3383 c-22 -5 -24 -39 -3 -47 8 -3 15 -10 15 -16 0 -5 -7 -10
-15 -10 -8 0 -15 -4 -15 -10 0 -6 9 -6 23 -1 30 11 35 41 8 48 -24 6 -29 23
-7 23 8 0 18 5 21 10 6 10 2 11 -27 3z"/>
<path d="M1967 3382 c6 -4 13 -23 16 -42 l4 -35 1 37 c2 25 7 38 20 41 9 3 1
5 -18 6 -19 0 -30 -3 -23 -7z"/>
<path d="M1761 3323 c2 -43 2 -45 8 -15 l6 34 18 -31 c23 -39 37 -32 37 20 0
44 -17 53 -22 12 l-4 -28 -14 28 c-20 40 -30 33 -29 -20z"/>
<path d="M1850 3330 c0 -22 5 -40 10 -40 6 0 10 18 10 40 0 22 -4 40 -10 40
-5 0 -10 -18 -10 -40z"/>
<path d="M1723 3315 c0 -27 2 -38 4 -22 2 15 2 37 0 50 -2 12 -4 0 -4 -28z"/>
<path d="M1603 3343 c-15 -5 -18 -83 -3 -83 6 0 10 15 11 33 l1 32 11 -33 c12
-40 28 -37 41 9 l10 34 6 -35 7 -35 2 43 c1 51 -23 59 -33 10 l-7 -33 -17 31
c-9 17 -23 29 -29 27z"/>
<path d="M1500 3285 c0 -46 0 -47 27 -40 34 8 44 22 41 55 -3 20 -9 26 -35 28
-33 3 -33 3 -33 -43z m47 24 c14 -14 6 -37 -18 -50 -17 -9 -19 -6 -19 26 0 36
15 46 37 24z"/>
<path d="M1410 3279 c-20 -38 -20 -71 0 -40 5 9 18 12 38 8 l30 -6 -15 39 c-9
22 -20 40 -24 40 -5 0 -18 -18 -29 -41z m26 -16 c-11 -11 -17 4 -9 23 7 18 8
18 11 1 2 -10 1 -21 -2 -24z"/>
<path d="M1280 3255 c0 -41 2 -45 25 -45 14 0 25 5 25 10 0 6 -7 10 -15 10
-23 0 -18 19 8 30 l22 9 -22 0 c-27 1 -31 18 -5 24 10 3 6 5 -10 6 -27 1 -28
-1 -28 -44z"/>
<path d="M1010 3279 c0 -5 5 -7 10 -4 6 3 10 8 10 11 0 2 -4 4 -10 4 -5 0 -10
-5 -10 -11z"/>
<path d="M1182 3246 c0 -28 5 -46 12 -46 7 0 10 14 8 40 -4 42 11 53 36 28 16
-16 15 -23 -5 -43 -16 -16 -15 -17 3 -13 14 2 19 12 19 38 0 33 -2 35 -37 38
l-37 3 1 -45z"/>
<path d="M1056 3230 c-20 -50 -20 -56 -1 -40 8 7 15 21 15 31 0 10 5 21 12 25
8 5 9 0 6 -14 -4 -14 -2 -22 7 -22 7 0 15 -6 18 -12 2 -7 7 -11 10 -7 9 8 -26
78 -39 79 -7 0 -19 -18 -28 -40z"/>
<path d="M970 3244 c0 -8 -5 -25 -11 -36 -11 -20 -12 -20 -25 12 -19 44 -29
32 -13 -14 21 -57 39 -48 63 32 5 13 3 22 -3 22 -6 0 -11 -7 -11 -16z"/>
<path d="M1013 3220 c0 -25 2 -35 4 -22 2 12 2 32 0 45 -2 12 -4 2 -4 -23z"/>
<path d="M6102 3178 c-86 -42 -162 -164 -162 -262 0 -64 26 -128 70 -171 39
-38 40 -40 40 -110 l0 -72 53 10 c28 5 58 11 65 13 8 2 12 23 12 57 l0 54 57
34 c32 19 71 53 88 76 16 23 41 45 55 49 14 3 31 7 38 10 10 3 12 33 10 126
l-3 123 -33 -3 c-25 -3 -37 2 -52 21 -50 63 -159 84 -238 45z m165 -19 c53
-25 71 -53 46 -68 -13 -7 -23 -5 -38 7 -20 17 -20 17 -2 -5 17 -20 17 -24 4
-43 -11 -16 -16 -18 -20 -6 -3 7 -22 19 -41 26 -30 10 -44 9 -79 -5 -65 -25
-81 -54 -87 -160 l-5 -90 -17 30 c-10 17 -17 26 -18 20 0 -5 9 -23 20 -40 20
-30 27 -75 12 -75 -15 0 -51 44 -67 82 -45 109 18 268 129 323 61 31 106 32
163 4z m143 -113 c0 -35 -4 -45 -20 -49 -25 -6 -27 -29 -2 -25 14 2 17 -5 19
-40 2 -43 -4 -50 -41 -56 -9 -1 -24 -13 -33 -27 -40 -60 -110 -119 -142 -119
-5 0 -10 19 -9 43 0 35 5 46 34 70 46 38 62 73 65 136 4 76 34 109 102 110 25
1 27 -2 27 -43z m-177 -6 c47 -37 44 -114 -5 -167 -34 -36 -46 -29 -46 28 -1
48 -6 68 -16 58 -3 -3 -6 -82 -7 -177 -1 -95 -4 -174 -8 -176 -3 -2 -25 -7
-49 -11 l-44 -7 4 193 c3 185 4 195 27 227 38 54 99 67 144 32z"/>
<path d="M6120 3114 c-14 -9 -16 -12 -5 -7 11 4 45 8 77 8 31 0 54 3 51 8 -8
13 -97 7 -123 -9z"/>
<path d="M6054 3068 l-19 -23 23 19 c12 11 22 21 22 23 0 8 -8 2 -26 -19z"/>
<path d="M6318 2913 c7 -3 16 -2 19 1 4 3 -2 6 -13 5 -11 0 -14 -3 -6 -6z"/>
<path d="M6220 2799 c-22 -18 -22 -19 -3 -10 12 6 25 16 28 21 9 15 3 12 -25
-11z"/>
<path d="M6180 3006 c0 -2 7 -7 16 -10 8 -3 12 -2 9 4 -6 10 -25 14 -25 6z"/>
<path d="M6482 2550 c0 -19 2 -27 5 -17 2 9 2 25 0 35 -3 9 -5 1 -5 -18z"/>
<path d="M6364 2546 c-3 -8 -4 -23 -2 -33 3 -11 6 -6 9 15 6 34 2 42 -7 18z"/>
<path d="M6178 2538 c-3 -7 -1 -24 3 -38 6 -22 7 -20 8 13 1 38 -3 47 -11 25z"/>
<path d="M6322 2520 c0 -19 2 -27 5 -17 2 9 2 25 0 35 -3 9 -5 1 -5 -18z"/>
<path d="M6261 2524 c0 -11 3 -14 6 -6 3 7 2 16 -1 19 -3 4 -6 -2 -5 -13z"/>
<path d="M6149 2490 c-3 -15 -13 -27 -29 -31 -22 -6 -22 -7 -4 -8 26 -1 47 22
42 46 -4 14 -6 12 -9 -7z"/>
<path d="M6032 2488 c-15 -15 -16 -35 -2 -43 6 -3 7 1 4 10 -4 8 -1 22 6 30
15 18 9 20 -8 3z"/>
<path d="M5900 2476 c0 -2 9 -6 20 -9 11 -3 18 -1 14 4 -5 9 -34 13 -34 5z"/>
<path d="M6002 2455 c0 -16 2 -22 5 -12 2 9 2 23 0 30 -3 6 -5 -1 -5 -18z"/>
<path d="M5883 2425 c0 -27 2 -38 4 -22 2 15 2 37 0 50 -2 12 -4 0 -4 -28z"/>
</g>
</svg>
