<?xml version="1.0" standalone="no"?>
<!DOCTYPE svg PUBLIC "-//W3C//DTD SVG 20010904//EN"
 "http://www.w3.org/TR/2001/REC-SVG-20010904/DTD/svg10.dtd">
<svg version="1.0" xmlns="http://www.w3.org/2000/svg"
 width="500.000000pt" height="500.000000pt" viewBox="0 0 500.000000 500.000000"
 preserveAspectRatio="xMidYMid meet">

<g transform="translate(0.000000,500.000000) scale(0.100000,-0.100000)"
fill="#000000" stroke="none">
<path d="M3157 3523 c-14 -13 -6 -20 18 -15 14 2 28 8 31 13 6 10 -39 12 -49
2z"/>
<path d="M3240 3520 c0 -5 12 -10 26 -10 14 0 23 4 19 10 -3 6 -15 10 -26 10
-10 0 -19 -4 -19 -10z"/>
<path d="M3055 3510 l-30 -7 27 -7 c17 -5 36 -2 55 8 l28 15 -25 -1 c-14 0
-38 -4 -55 -8z"/>
<path d="M2890 3501 c0 -13 45 -22 67 -14 16 6 15 8 -7 14 -37 10 -60 10 -60
0z"/>
<path d="M2731 3481 c-31 -5 -33 -7 -17 -20 14 -12 22 -12 37 -3 10 7 30 12
43 12 14 0 28 5 31 10 7 11 -38 11 -94 1z"/>
<path d="M2630 3465 c0 -16 9 -19 34 -9 20 8 11 24 -15 24 -10 0 -19 -7 -19
-15z"/>
<path d="M2490 3458 c0 -19 42 -29 70 -16 43 19 37 26 -20 25 -27 -1 -50 -5
-50 -9z"/>
<path d="M2315 3441 c-16 -3 -28 -11 -26 -16 1 -6 8 -8 15 -6 6 2 37 4 68 5
32 1 63 7 70 14 9 9 0 12 -42 11 -30 -1 -68 -4 -85 -8z"/>
<path d="M2120 3423 c-35 -2 -70 -9 -76 -14 -7 -6 -30 -8 -51 -5 -21 3 -30 3
-20 0 9 -3 17 -10 17 -15 0 -13 34 -11 48 3 9 9 18 9 38 -1 19 -8 30 -9 38 -1
5 5 20 10 32 10 12 0 35 7 50 15 22 11 24 14 9 13 -11 -1 -49 -3 -85 -5z"/>
<path d="M2110 3370 c0 -5 20 -10 45 -10 25 0 45 5 45 10 0 6 -20 10 -45 10
-25 0 -45 -4 -45 -10z"/>
<path d="M4586 3362 c-5 -8 -17 -11 -29 -8 -28 7 -47 -11 -47 -45 0 -24 3 -27
28 -25 15 2 28 8 28 15 3 24 5 26 14 11 13 -21 22 -7 18 32 -2 23 -6 29 -12
20z"/>
<path d="M4013 3283 c5 -38 15 -97 22 -133 l13 -65 17 40 c20 45 30 122 22
157 -8 31 -44 68 -65 68 -17 0 -17 -6 -9 -67z"/>
<path d="M4419 3335 c0 0 -2 -15 -3 -32 -4 -36 7 -43 23 -15 10 16 10 16 11 0
0 -10 5 -18 10 -18 6 0 10 11 10 25 0 14 1 28 3 33 1 5 -47 12 -54 7z"/>
<path d="M1755 3320 c-3 -5 1 -10 9 -10 9 0 16 5 16 10 0 6 -4 10 -9 10 -6 0
-13 -4 -16 -10z"/>
<path d="M1600 3310 c0 -5 12 -10 26 -10 14 0 23 4 19 10 -3 6 -15 10 -26 10
-10 0 -19 -4 -19 -10z"/>
<path d="M1700 3310 c0 -5 7 -10 15 -10 8 0 15 5 15 10 0 6 -7 10 -15 10 -8 0
-15 -4 -15 -10z"/>
<path d="M4137 3299 c-3 -12 -2 -31 3 -42 8 -21 9 -20 9 5 1 14 4 33 7 42 3 9
2 16 -4 16 -5 0 -12 -9 -15 -21z"/>
<path d="M4281 3312 c-39 -3 -42 -5 -37 -25 3 -12 6 -25 6 -28 0 -10 69 -8 76
2 3 5 17 9 32 9 24 0 25 1 7 14 -18 13 -18 14 0 23 19 11 10 12 -84 5z"/>
<path d="M1109 3286 c8 -10 9 -16 1 -21 -5 -3 -10 -10 -10 -16 0 -13 37 -11
45 2 5 6 23 8 49 3 l41 -6 -20 21 c-15 18 -26 21 -51 16 -18 -3 -35 -1 -39 5
-3 5 -11 10 -17 10 -7 0 -6 -5 1 -14z"/>
<path d="M1261 3291 c-8 -5 -10 -14 -7 -20 8 -13 46 -15 46 -2 0 16 -25 30
-39 22z"/>
<path d="M1400 3290 c0 -5 7 -10 16 -10 8 0 12 5 9 10 -3 6 -10 10 -16 10 -5
0 -9 -4 -9 -10z"/>
<path d="M1445 3290 c3 -5 12 -10 20 -10 8 0 17 5 20 10 4 6 -5 10 -20 10 -15
0 -24 -4 -20 -10z"/>
<path d="M1517 3289 c8 -8 16 -8 30 0 16 9 14 10 -11 11 -22 0 -27 -3 -19 -11z"/>
<path d="M3838 3253 c-19 -27 -37 -53 -41 -59 -13 -23 -36 -125 -30 -139 7
-19 23 -19 23 -1 0 8 14 40 30 71 17 31 30 62 30 69 0 6 11 32 24 59 16 32 19
47 11 47 -7 0 -28 -21 -47 -47z"/>
<path d="M4189 3295 c-1 -3 -2 -8 -3 -12 -1 -5 -5 -14 -10 -21 -11 -18 -2 -25
23 -17 25 8 30 55 6 55 -8 0 -16 -2 -16 -5z"/>
<path d="M950 3283 c-8 -4 3 -11 30 -19 58 -17 80 -17 80 0 0 19 -76 32 -110
19z"/>
<path d="M1325 3280 c-4 -6 6 -10 22 -10 22 0 25 2 13 10 -19 12 -27 12 -35 0z"/>
<path d="M673 3242 c-41 -19 -42 -32 -5 -32 17 0 38 10 52 25 22 23 22 25 4
24 -10 -1 -34 -9 -51 -17z"/>
<path d="M826 3244 c-8 -22 -8 -26 4 -19 6 3 10 1 10 -4 0 -7 22 -11 53 -11
42 1 48 3 34 11 -11 6 -32 9 -48 7 -16 -3 -29 -1 -29 4 0 4 5 8 10 8 6 0 10 5
10 10 0 16 -37 11 -44 -6z"/>
<path d="M3930 3220 c0 -6 -9 -30 -20 -52 -11 -23 -20 -43 -20 -45 0 -2 16 -3
35 -3 34 0 35 1 35 39 0 22 -3 46 -6 55 -7 18 -24 22 -24 6z"/>
<path d="M4137 3203 c-10 -10 -77 -152 -77 -163 0 -17 19 -11 32 10 15 24 43
26 52 4 13 -35 26 2 26 77 0 59 -3 79 -13 79 -8 0 -17 -3 -20 -7z"/>
<path d="M4200 3135 c-7 -42 -11 -77 -9 -79 2 -3 20 -1 39 3 30 6 36 12 41 41
l6 35 2 -33 c0 -18 7 -35 15 -38 20 -8 64 23 69 49 3 15 5 11 6 -11 1 -40 21
-39 32 2 4 16 15 36 24 46 10 11 14 24 10 29 -11 18 -44 12 -56 -11 -11 -20
-12 -21 -22 -2 -15 29 -15 29 -42 4 -20 -18 -28 -21 -37 -12 -7 7 -20 12 -31
12 -14 0 -17 5 -12 20 4 14 2 20 -8 20 -10 0 -18 -23 -27 -75z m140 1 c0 -7
-7 -19 -15 -26 -16 -13 -20 -3 -9 24 8 20 24 21 24 2z m-108 -48 c-6 -6 -7 0
-4 19 5 21 7 23 10 9 2 -10 0 -22 -6 -28z"/>
<path d="M4525 3201 c-3 -5 -20 -7 -39 -4 l-33 5 -11 -58 c-7 -31 -10 -59 -7
-62 12 -12 35 10 35 36 0 27 15 52 32 52 5 0 6 -15 3 -34 -7 -37 4 -51 34 -41
22 7 41 46 41 85 0 25 -4 30 -24 30 -14 0 -27 -4 -31 -9z m21 -68 c-11 -11
-19 6 -11 24 8 17 8 17 12 0 3 -10 2 -21 -1 -24z"/>
<path d="M482 3053 c-9 -17 1 -124 14 -145 3 -5 14 -6 25 -3 15 5 19 1 19 -15
0 -11 7 -34 15 -50 9 -18 11 -31 5 -35 -15 -9 -12 -88 5 -112 12 -17 12 -22 1
-26 -11 -5 -11 -14 0 -57 10 -39 10 -57 2 -76 -9 -18 -9 -27 0 -36 8 -8 8 -17
1 -30 -8 -14 -6 -26 6 -45 12 -18 14 -28 6 -36 -16 -16 -13 -47 4 -47 8 0 15
-4 15 -10 0 -5 -4 -10 -9 -10 -12 0 -12 -96 -2 -119 5 -9 13 -26 19 -38 15
-29 15 -31 -5 -29 -27 2 -18 -81 10 -105 l22 -18 -22 -1 c-20 0 -21 -3 -16
-57 3 -32 12 -65 20 -74 12 -14 12 -17 -2 -22 -19 -8 -19 -44 0 -91 18 -43 41
-43 38 0 -1 16 -4 83 -7 149 -10 224 -17 309 -27 322 -6 7 -7 18 -3 24 15 25
15 80 -1 95 -18 18 -20 54 -4 54 8 0 9 14 4 48 -9 54 -13 101 -18 189 -1 35
-8 68 -15 75 -17 17 -15 35 4 42 12 5 13 10 6 19 -7 7 -9 43 -7 84 3 60 1 73
-13 79 -9 4 -22 6 -29 5 -7 -1 -17 8 -23 19 -14 26 5 28 32 3 27 -24 42 1 21
34 -17 26 -53 31 -53 8 0 -8 -5 -15 -11 -15 -7 0 -8 11 -4 29 7 33 -9 50 -23
24z"/>
<path d="M3935 3055 c-5 -2 -26 -6 -46 -9 -28 -5 -39 -13 -52 -42 -22 -45 -14
-58 33 -51 56 7 111 46 108 77 -3 23 -20 33 -43 25z"/>
<path d="M2271 3017 c-14 -15 -24 -42 -28 -75 -5 -45 -3 -53 21 -77 21 -21 33
-25 54 -20 41 10 54 29 60 83 9 96 -52 147 -107 89z m57 -29 c17 -17 15 -83
-3 -98 -22 -18 -35 -3 -35 40 0 63 13 83 38 58z"/>
<path d="M2183 3013 c-7 -2 -13 -20 -13 -39 0 -42 -13 -44 -30 -4 -9 21 -19
30 -36 30 -24 0 -24 -2 -24 -95 0 -88 1 -95 20 -95 17 0 20 7 20 40 0 45 19
47 39 4 8 -18 18 -24 34 -22 21 3 22 7 22 92 0 87 -5 100 -32 89z"/>
<path d="M1995 2995 c-5 -2 -22 -6 -37 -9 l-28 -6 0 -91 c0 -103 3 -106 78
-92 37 6 47 12 47 28 0 17 -6 20 -37 17 -46 -3 -55 25 -10 30 19 2 28 9 30 26
3 19 -1 22 -28 22 -43 0 -34 23 11 30 26 4 34 10 34 25 0 14 -7 21 -25 22 -14
1 -29 0 -35 -2z"/>
<path d="M1818 2968 l-38 -10 0 -88 c0 -71 3 -89 16 -94 24 -9 34 2 34 38 0
29 4 34 30 40 22 4 30 11 30 26 0 17 -5 21 -27 18 -41 -5 -36 23 7 37 74 25
27 55 -52 33z"/>
<path d="M1660 2947 c-13 -7 -31 -24 -38 -37 -15 -30 -11 -112 8 -135 20 -24
73 -19 105 11 25 23 27 30 23 81 -4 44 -10 59 -29 74 -28 22 -36 23 -69 6z
m46 -51 c3 -13 4 -38 2 -57 -2 -26 -8 -34 -23 -34 -17 0 -20 8 -23 49 -2 32 1
52 10 57 21 14 27 11 34 -15z"/>
<path d="M1463 2923 c-15 -6 -18 -188 -4 -197 21 -13 41 7 41 40 0 42 13 43
37 4 16 -28 41 -38 56 -24 3 4 -1 20 -10 37 -13 25 -13 37 -4 63 8 22 8 40 1
58 -8 23 -15 26 -57 25 -27 0 -54 -3 -60 -6z m85 -50 c5 -16 -22 -27 -44 -19
-13 5 -14 9 -4 22 15 17 41 15 48 -3z"/>
<path d="M1287 2904 c-8 -8 4 -187 13 -197 15 -17 40 6 40 38 0 29 4 34 30 40
53 12 78 75 44 109 -15 16 -113 23 -127 10z m88 -54 c0 -8 -8 -16 -17 -18 -13
-2 -18 3 -18 18 0 15 5 20 18 18 9 -2 17 -10 17 -18z"/>
<path d="M1215 2888 c-2 -7 -6 -44 -7 -83 -3 -67 -4 -70 -28 -70 -24 0 -25 3
-28 73 -3 69 -4 73 -25 70 -21 -3 -22 -7 -18 -73 4 -82 12 -102 47 -111 32 -8
68 8 89 39 12 19 14 38 8 92 -8 64 -26 96 -38 63z"/>
<path d="M958 2863 c-27 -4 -28 -6 -28 -66 0 -34 3 -79 6 -99 7 -38 7 -38 54
-38 36 0 51 5 69 24 20 21 21 30 15 92 -4 38 -11 75 -17 82 -9 12 -43 13 -99
5z m66 -64 c-7 -11 -44 -12 -44 -1 0 4 5 13 12 20 13 13 42 -4 32 -19z m14
-71 c-5 -15 -58 -24 -58 -10 0 15 12 22 38 22 14 0 22 -5 20 -12z"/>
<path d="M852 2748 c3 -99 9 -116 37 -99 10 7 12 29 6 105 -7 85 -9 96 -27 96
-17 0 -18 -7 -16 -102z"/>
<path d="M500 2745 c0 -8 5 -15 10 -15 6 0 10 7 10 15 0 8 -4 15 -10 15 -5 0
-10 -7 -10 -15z"/>
<path d="M510 2668 c0 -23 3 -38 6 -35 11 11 14 77 4 77 -6 0 -10 -19 -10 -42z"/>
<path d="M2127 2662 c-21 -23 -22 -51 -1 -59 12 -4 13 -7 3 -14 -8 -4 -10 -11
-6 -16 12 -12 42 12 45 37 5 28 -6 70 -17 70 -4 0 -15 -8 -24 -18z m23 -27 c0
-8 -4 -15 -10 -15 -5 0 -10 7 -10 15 0 8 5 15 10 15 6 0 10 -7 10 -15z"/>
<path d="M1823 2642 c-16 -13 -20 -24 -16 -49 6 -35 39 -55 54 -32 5 8 22 12
43 11 29 -3 35 0 38 20 9 60 -21 90 -52 53 -11 -14 -15 -14 -29 -1 -14 13 -19
13 -38 -2z m37 -49 c0 -14 -6 -23 -15 -23 -15 0 -22 50 -8 63 9 10 23 -14 23
-40z m70 17 c0 -10 -4 -22 -10 -25 -6 -4 -10 7 -10 25 0 18 4 29 10 25 6 -3
10 -15 10 -25z"/>
<path d="M2013 2653 c-8 -3 -13 -20 -12 -41 l1 -37 9 33 c12 41 29 42 29 1 0
-17 4 -28 10 -24 6 3 10 18 10 33 0 29 15 20 22 -13 5 -19 5 -19 13 -1 5 11 4
26 -2 35 -10 15 -55 23 -80 14z"/>
<path d="M1680 2620 c0 -11 5 -20 10 -20 6 0 10 9 10 20 0 11 -4 20 -10 20 -5
0 -10 -9 -10 -20z"/>
<path d="M1745 2630 c-3 -5 4 -10 15 -10 16 0 20 -5 16 -15 -3 -8 -1 -15 4
-15 6 0 10 11 10 25 0 18 -5 25 -19 25 -11 0 -23 -4 -26 -10z"/>
<path d="M1437 2583 c-12 -11 -8 -70 6 -81 13 -11 57 -6 57 7 0 3 22 4 49 3
55 -4 68 11 49 53 -11 24 -12 24 -36 9 -17 -11 -27 -13 -35 -5 -6 6 -18 11
-26 10 -14 0 -14 -2 0 -11 15 -10 13 -14 -11 -35 -36 -30 -44 -29 -37 5 6 29
-4 57 -16 45z m143 -42 c0 -14 -18 -23 -30 -16 -6 4 -8 11 -5 16 8 12 35 12
35 0z"/>
<path d="M1667 2580 c-12 -34 -15 -60 -6 -60 11 0 23 45 16 62 -3 10 -6 9 -10
-2z"/>
<path d="M1752 2568 c-18 -18 -15 -28 8 -28 13 0 20 7 20 20 0 23 -10 26 -28
8z"/>
<path d="M878 2560 c-21 -13 -48 -66 -48 -94 1 -30 22 -54 58 -67 40 -14 99
12 114 50 13 34 3 93 -19 108 -20 15 -81 17 -105 3z m72 -22 c-1 -20 -78 -100
-90 -93 -34 21 15 105 61 105 17 0 29 -5 29 -12z"/>
<path d="M1305 2554 c-8 -13 -15 -13 -39 -4 -16 6 -30 9 -31 8 -4 -3 -8 -57
-6 -75 1 -18 46 -16 65 2 9 9 17 11 21 5 15 -24 27 -8 22 27 -8 44 -19 58 -32
37z m15 -29 c0 -8 -4 -15 -10 -15 -5 0 -7 7 -4 15 4 8 8 15 10 15 2 0 4 -7 4
-15z m-40 -20 c0 -8 -6 -15 -14 -15 -17 0 -28 14 -19 24 12 12 33 6 33 -9z"/>
<path d="M1374 2562 c-16 -10 -26 -60 -14 -67 33 -20 71 32 43 60 -17 17 -15
17 -29 7z m26 -22 c0 -5 -4 -10 -10 -10 -5 0 -10 5 -10 10 0 6 5 10 10 10 6 0
10 -4 10 -10z"/>
<path d="M4555 2554 c-153 -30 -182 -35 -240 -44 -118 -18 -227 -39 -232 -44
-3 -3 -9 -83 -15 -178 -5 -95 -11 -178 -13 -184 -2 -7 -21 -14 -42 -16 -21 -3
-86 -13 -146 -23 -93 -15 -108 -20 -112 -39 -3 -11 -9 -90 -13 -174 l-7 -152
28 6 c16 3 38 7 50 9 12 1 60 12 107 23 47 12 146 33 220 47 74 14 149 30 166
36 l31 10 7 112 c4 62 9 137 13 169 5 56 6 56 42 61 20 3 79 14 131 24 l94 19
7 34 c4 19 9 99 13 178 5 111 4 142 -6 141 -7 -1 -44 -7 -83 -15z"/>
<path d="M510 2545 c0 -8 5 -15 10 -15 6 0 10 7 10 15 0 8 -4 15 -10 15 -5 0
-10 -7 -10 -15z"/>
<path d="M1076 2541 c-3 -5 1 -11 9 -15 9 -3 15 -19 15 -41 0 -19 5 -35 10
-35 6 0 10 15 10 34 0 19 5 38 10 41 6 3 10 10 10 16 0 12 -57 12 -64 0z"/>
<path d="M1155 2521 c-3 -6 1 -11 9 -11 9 0 16 -7 16 -15 0 -9 -6 -12 -15 -9
-10 4 -15 0 -15 -16 0 -17 5 -21 28 -18 24 3 27 7 27 38 0 28 -4 36 -22 38
-11 2 -24 -2 -28 -7z"/>
<path d="M2060 2399 c0 -17 4 -28 10 -24 6 3 10 17 10 31 0 13 -4 24 -10 24
-5 0 -10 -14 -10 -31z"/>
<path d="M2140 2405 c0 -17 5 -25 13 -22 6 2 12 12 12 22 0 10 -6 20 -12 23
-8 2 -13 -6 -13 -23z"/>
<path d="M1916 2391 c-4 -5 -2 -12 3 -15 5 -4 12 -2 15 3 4 5 2 12 -3 15 -5 4
-12 2 -15 -3z"/>
<path d="M1867 2371 c3 -12 9 -21 14 -21 14 0 11 16 -5 29 -12 10 -13 8 -9 -8z"/>
<path d="M531 2331 c2 -28 6 -51 11 -51 12 0 10 88 -3 95 -6 5 -9 -10 -8 -44z"/>
<path d="M2020 2370 c0 -5 7 -10 16 -10 8 0 12 5 9 10 -3 6 -10 10 -16 10 -5
0 -9 -4 -9 -10z"/>
<path d="M1810 2350 c0 -24 15 -27 24 -4 9 22 8 24 -9 24 -8 0 -15 -9 -15 -20z"/>
<path d="M1620 2351 c0 -6 5 -13 10 -16 6 -3 10 1 10 9 0 9 -4 16 -10 16 -5 0
-10 -4 -10 -9z"/>
<path d="M1666 2351 c-4 -7 -5 -15 -2 -18 9 -9 19 4 14 18 -4 11 -6 11 -12 0z"/>
<path d="M1748 2353 c-10 -2 -15 -10 -11 -19 8 -21 33 -17 33 6 0 11 -1 19 -2
19 -2 -1 -11 -3 -20 -6z"/>
<path d="M1705 2330 c-4 -6 -2 -17 4 -23 15 -15 25 -2 13 19 -7 12 -11 13 -17
4z"/>
<path d="M1517 2323 c-4 -3 -7 -15 -7 -25 0 -26 24 -17 28 10 3 21 -8 29 -21
15z"/>
<path d="M1570 2311 c0 -12 6 -21 16 -21 9 0 14 7 12 17 -5 25 -28 28 -28 4z"/>
<path d="M1473 2304 c-3 -8 -1 -20 6 -27 8 -8 11 -4 11 16 0 30 -7 35 -17 11z"/>
<path d="M1220 2291 c-17 -32 -12 -51 13 -51 13 0 26 3 30 6 10 11 -4 33 -18
28 -10 -4 -12 1 -8 15 7 26 -3 27 -17 2z"/>
<path d="M1380 2284 c0 -14 4 -23 10 -19 6 3 10 13 10 21 0 8 5 14 10 14 6 0
10 -7 10 -15 0 -8 5 -15 10 -15 6 0 10 9 10 20 0 16 -7 20 -30 20 -26 0 -30
-4 -30 -26z"/>
<path d="M1290 2290 c0 -5 4 -10 9 -10 6 0 13 5 16 10 3 6 -1 10 -9 10 -9 0
-16 -4 -16 -10z"/>
<path d="M1340 2275 c0 -14 2 -25 4 -25 2 0 6 11 8 25 3 14 1 25 -3 25 -5 0
-9 -11 -9 -25z"/>
<path d="M1128 2260 c-23 -22 -23 -36 1 -43 15 -3 17 0 13 16 -3 14 -1 18 6
13 7 -4 12 -1 12 8 0 23 -13 25 -32 6z"/>
<path d="M1067 2263 c-12 -11 -8 -23 8 -23 8 0 15 7 15 15 0 16 -12 20 -23 8z"/>
<path d="M1290 2255 c0 -9 6 -12 15 -9 8 4 15 7 15 9 0 2 -7 5 -15 9 -9 3 -15
0 -15 -9z"/>
<path d="M910 2251 c0 -6 5 -13 10 -16 6 -3 10 1 10 9 0 9 -4 16 -10 16 -5 0
-10 -4 -10 -9z"/>
<path d="M870 2218 c0 -22 17 -41 29 -34 8 5 8 13 1 27 -12 21 -30 26 -30 7z"/>
<path d="M967 2223 c-14 -13 -6 -23 18 -23 16 0 25 6 25 15 0 15 -31 21 -43 8z"/>
<path d="M1068 2213 c7 -3 16 -2 19 1 4 3 -2 6 -13 5 -11 0 -14 -3 -6 -6z"/>
<path d="M548 2112 c-3 -9 -1 -26 3 -37 9 -23 9 -22 15 23 5 33 -10 45 -18 14z"/>
<path d="M2069 1534 c-7 -9 -21 -13 -34 -10 -33 8 -39 -6 -13 -27 19 -16 20
-18 4 -13 -11 4 -23 1 -27 -6 -6 -9 -9 -8 -13 5 -19 57 -16 54 -31 34 -9 -13
-20 -17 -34 -12 -14 4 -24 0 -33 -14 -17 -27 -26 -26 -31 2 -2 12 -5 2 -6 -22
-1 -35 2 -41 12 -32 10 8 17 7 25 -1 6 -6 18 -8 28 -4 13 5 15 9 6 18 -7 7
-12 18 -12 26 0 12 3 12 15 2 10 -9 15 -9 15 -1 0 6 5 11 10 11 6 0 10 -9 10
-20 0 -18 5 -20 42 -16 23 3 46 10 52 16 5 5 20 10 33 10 14 0 23 6 23 15 0
17 -16 20 -25 5 -3 -5 -12 -10 -18 -10 -7 1 0 11 16 23 15 13 24 26 21 30 -11
11 -20 8 -35 -9z"/>
<path d="M1776 1493 c-10 -10 -7 -71 4 -78 14 -9 60 22 60 40 0 16 -54 48 -64
38z m34 -48 c0 -8 -4 -15 -10 -15 -5 0 -10 7 -10 15 0 8 5 15 10 15 6 0 10 -7
10 -15z"/>
<path d="M1644 1474 c-13 -11 -15 -17 -6 -20 6 -3 12 -19 12 -35 0 -16 5 -29
10 -29 6 0 10 14 10 32 0 17 7 40 17 50 15 17 15 18 -4 18 -10 0 -28 -7 -39
-16z"/>
<path d="M1713 1457 c21 -17 22 -27 2 -27 -8 0 -15 -7 -15 -16 0 -11 8 -14 28
-12 23 3 27 8 27 33 0 26 -4 30 -30 33 -27 2 -28 1 -12 -11z"/>
<path d="M1530 1439 c0 -6 6 -9 14 -6 24 9 26 -5 6 -33 -26 -36 -25 -40 5 -40
22 0 24 3 16 18 -6 11 -6 24 0 33 15 25 10 39 -16 39 -14 0 -25 -5 -25 -11z"/>
<path d="M1466 1431 c-4 -5 -2 -12 4 -16 5 -3 10 -17 10 -31 0 -13 5 -24 11
-24 14 0 7 72 -8 77 -6 2 -14 0 -17 -6z"/>
<path d="M1347 1393 c-11 -10 -8 -73 3 -73 6 0 10 15 10 33 l1 32 20 -24 c23
-28 29 -26 22 12 -4 20 -11 27 -27 27 -13 0 -26 -3 -29 -7z"/>
<path d="M1277 1366 c-15 -16 -13 -51 5 -62 16 -10 39 18 36 44 -4 31 -20 38
-41 18z m23 -28 c0 -16 -3 -19 -11 -11 -6 6 -8 16 -5 22 11 17 16 13 16 -11z"/>
<path d="M1205 1339 c-5 -13 -1 -27 8 -36 13 -14 15 -11 14 21 -1 40 -12 47
-22 15z"/>
<path d="M1060 1320 c-1 -19 -3 -47 -4 -62 -2 -31 8 -37 18 -12 8 22 6 65 -4
89 -7 17 -9 14 -10 -15z"/>
<path d="M1100 1333 c0 -3 8 -15 17 -25 15 -16 15 -18 1 -13 -9 4 -19 1 -23
-5 -10 -17 1 -23 30 -16 20 5 25 13 25 36 0 25 -4 30 -25 30 -14 0 -25 -3 -25
-7z"/>
<path d="M903 1308 c-33 -36 -7 -87 37 -73 27 9 25 25 -2 22 -18 -2 -23 3 -23
23 0 17 6 25 17 25 21 0 25 19 6 23 -8 1 -23 -8 -35 -20z"/>
<path d="M986 1311 c-3 -5 4 -12 17 -16 l22 -8 -23 -4 c-21 -4 -29 -35 -9 -34
4 1 16 1 27 1 16 0 20 7 20 35 0 30 -3 35 -24 35 -14 0 -27 -4 -30 -9z"/>
<path d="M659 1280 c-5 -59 4 -100 22 -100 14 0 5 88 -11 104 -7 7 -10 5 -11
-4z"/>
</g>
</svg>
