<?xml version="1.0" standalone="no"?>
<!DOCTYPE svg PUBLIC "-//W3C//DTD SVG 20010904//EN"
 "http://www.w3.org/TR/2001/REC-SVG-20010904/DTD/svg10.dtd">
<svg version="1.0" xmlns="http://www.w3.org/2000/svg"
 width="1000.000000pt" height="742.000000pt" viewBox="0 0 1000.000000 742.000000"
 preserveAspectRatio="xMidYMid meet">

<g transform="translate(0.000000,742.000000) scale(0.100000,-0.100000)"
fill="#000000" stroke="none">
<path d="M1117 7339 c-22 -22 -35 -39 -30 -39 5 0 10 -392 12 -940 1 -715 -1
-940 -10 -940 -8 0 -8 -4 -1 -13 14 -16 15 -1664 1 -1673 -11 -6 -12 -74 -1
-74 4 0 9 -306 10 -680 1 -429 -2 -680 -8 -680 -6 0 -10 -5 -10 -11 0 -5 4 -8
9 -4 6 3 9 -400 9 -1085 -1 -818 -5 -1090 -13 -1090 -7 0 -19 8 -29 18 -15 17
-16 277 -16 3612 1 1976 -1 3594 -2 3595 -2 1 -20 5 -40 8 -30 5 -38 3 -38
-10 0 -10 -6 -13 -16 -9 -9 3 -19 6 -22 7 -4 0 2 4 13 9 48 20 -17 9 -83 -15
-75 -27 -97 -31 -87 -15 9 14 5 13 -43 -10 -43 -21 -78 -26 -84 -11 -5 14 -68
0 -68 -15 0 -8 -8 -14 -17 -14 -16 0 -16 2 -3 10 10 7 -2 8 -40 4 -30 -4 -57
-10 -60 -14 -3 -5 -32 -11 -65 -15 -44 -6 -55 -10 -40 -16 19 -7 19 -8 -2 -8
-13 -1 -23 4 -23 10 0 6 -6 9 -12 6 -7 -2 -12 -10 -11 -16 4 -15 -14 -14 -21
2 -5 10 -7 10 -12 0 -3 -7 -14 -13 -24 -13 -9 0 -34 -7 -53 -15 -20 -8 -53
-14 -74 -14 l-38 2 45 6 c25 4 54 12 65 19 17 11 15 12 -20 6 -22 -4 -60 -10
-85 -13 l-45 -6 -3 -3240 c-1 -1782 0 -3250 3 -3263 3 -13 26 -34 58 -53 28
-17 90 -54 137 -84 47 -30 123 -77 170 -106 47 -28 148 -91 225 -139 77 -47
212 -131 299 -185 l160 -99 125 17 c69 9 196 25 281 37 85 11 247 33 360 50
113 16 275 38 360 50 85 11 184 25 220 30 36 5 164 23 285 39 497 68 675 92
775 106 103 15 444 61 670 91 63 8 160 21 215 29 55 8 154 21 220 30 66 9 165
22 220 30 103 15 194 27 520 71 105 14 237 32 295 40 58 8 139 19 180 24 41 5
107 14 145 20 71 11 519 71 850 115 186 25 399 54 590 81 254 35 324 44 405
54 47 6 114 15 150 20 36 6 117 17 180 25 63 9 160 22 215 30 55 8 154 22 220
30 66 9 167 22 225 30 355 49 833 114 1035 141 66 8 126 21 133 28 11 10 15
1817 12 5192 0 8 -13 7 -42 -3 -33 -11 -55 -12 -93 -5 -27 5 -82 7 -120 5 -48
-4 -88 0 -125 11 -29 9 -71 16 -92 16 -28 0 -41 5 -45 18 -10 27 -33 39 -84
46 -36 5 -48 12 -57 32 -24 51 -5 74 61 74 46 0 54 23 20 54 l-26 24 28 26
c15 14 32 26 36 26 5 0 9 6 9 14 0 19 33 29 68 21 18 -4 46 2 76 15 56 24 121
18 139 -11 16 -26 23 -24 55 12 41 46 149 83 176 60 20 -17 21 -5 18 172 l-3
157 -39 0 c-23 0 -39 -5 -38 -10 4 -16 -467 -13 -492 2 -14 9 -25 9 -45 0 -29
-14 -75 -16 -75 -4 0 4 -97 7 -216 6 -183 -2 -215 0 -210 12 4 10 -3 14 -24
14 -21 0 -30 -5 -30 -16 0 -14 -11 -15 -82 -9 -46 3 -99 11 -118 17 -22 7 -35
7 -37 1 -2 -6 -53 -9 -136 -7 -73 2 -204 4 -292 4 -108 1 -154 4 -140 11 13 6
-7 7 -60 3 -44 -3 -87 -6 -95 -6 -8 1 -118 1 -245 1 -154 1 -225 4 -215 11 13
8 13 10 -2 10 -9 0 -20 -4 -23 -10 -8 -13 -95 -13 -95 -1 0 6 -99 10 -237 10
-131 1 -307 3 -390 5 -84 1 -243 4 -354 4 -110 1 -198 5 -196 10 3 4 -60 6
-140 4 -99 -2 -143 0 -138 7 3 7 -3 11 -15 11 -13 0 -19 -4 -14 -11 8 -13
-210 -6 -288 9 -27 5 -48 5 -48 1 0 -4 19 -9 43 -11 23 -2 0 -4 -50 -5 -90 -1
-127 11 -60 20 17 2 -14 5 -70 5 -63 1 -103 -2 -103 -8 0 -5 -7 -10 -15 -10
-8 0 -15 5 -15 10 0 6 -11 10 -25 10 -14 0 -25 -5 -25 -11 0 -6 -7 -8 -17 -5
-9 4 -114 7 -235 7 -157 1 -218 4 -218 13 0 6 -4 5 -9 -3 -7 -11 -36 -13 -157
-7 -231 10 -399 14 -654 17 -129 2 -215 6 -190 9 25 3 -94 6 -265 6 -699 1
-1411 18 -1431 35 -7 5 -156 12 -345 14 -184 3 -359 7 -389 9 -52 3 -57 1 -93
-35z m6846 -126 c-7 -2 -21 -2 -30 0 -10 3 -4 5 12 5 17 0 24 -2 18 -5z m1270
-30 c-7 -2 -19 -2 -25 0 -7 3 -2 5 12 5 14 0 19 -2 13 -5z m-5983 -393 c230
-80 397 -249 445 -451 64 -271 -77 -542 -350 -674 -257 -124 -554 -89 -770 90
-103 85 -184 229 -207 367 -28 174 42 372 182 506 85 82 214 150 335 178 92
21 283 13 365 -16z m5683 -167 c34 -5 41 -11 58 -49 19 -47 32 -52 63 -29 25
19 50 19 66 0 7 -8 22 -15 34 -15 28 0 46 -18 46 -47 0 -13 5 -23 10 -23 6 0
10 -11 10 -24 0 -34 13 -39 48 -19 l30 17 35 -38 c20 -21 37 -47 39 -59 2 -16
11 -23 33 -25 17 -2 37 -12 45 -22 22 -26 55 -33 70 -15 16 19 39 19 46 0 4
-10 13 -13 26 -9 13 4 26 -1 38 -14 11 -11 25 -23 32 -26 11 -5 11 -7 0 -12
-7 -3 -17 -16 -22 -28 -12 -33 -124 -86 -196 -93 -41 -4 -63 -12 -74 -26 -12
-14 -31 -20 -73 -22 -43 -2 -64 -8 -81 -24 -12 -11 -30 -21 -39 -21 -9 0 -18
-4 -22 -9 -3 -6 -20 -17 -38 -26 -26 -13 -80 -17 -306 -21 l-274 -5 -27 33
-28 33 -203 1 c-211 1 -259 9 -259 41 -1 42 -22 52 -90 44 -81 -10 -120 0
-148 39 -19 25 -26 28 -42 20 -26 -14 -53 -13 -86 5 -16 8 -40 15 -54 15 -14
0 -30 4 -36 8 -11 6 -54 85 -54 96 0 9 142 76 154 74 6 -1 22 4 35 11 17 9 26
10 34 2 6 -6 31 -11 55 -11 38 0 48 5 79 40 26 29 44 40 62 39 29 -2 105 23
163 52 34 18 40 18 75 4 21 -8 56 -14 78 -13 39 3 40 2 38 -30 -1 -41 37 -73
62 -52 8 7 15 19 15 27 0 21 50 63 74 63 12 0 31 6 42 14 11 8 33 16 49 18 18
2 30 9 30 18 0 9 14 17 38 21 21 3 43 11 50 18 18 18 37 13 37 -9 0 -11 6 -23
14 -26 17 -7 93 34 128 69 28 28 46 31 111 20z m-8269 -314 c12 -11 10 -109
-3 -122 -6 -6 -6 -20 1 -39 14 -40 5 -45 -31 -17 -39 31 -41 71 -6 87 31 14
32 29 3 28 -20 -1 -23 5 -26 42 -3 42 -3 43 25 36 15 -4 32 -10 37 -15z m-214
-134 c0 -7 -6 -16 -12 -19 -9 -3 -8 -8 5 -16 13 -9 15 -15 7 -25 -7 -8 -7 -21
-1 -36 l9 -24 7 27 c8 30 34 43 70 34 63 -16 77 -196 15 -196 -53 0 -90 41
-90 100 l0 30 -20 -20 c-24 -24 -25 -30 -5 -30 9 0 15 -10 15 -26 0 -21 -4
-25 -22 -22 -22 3 -23 7 -25 113 -1 61 0 115 2 122 5 15 45 4 45 -12z m177
-69 c4 -7 18 -18 30 -25 28 -15 19 -41 -14 -41 -30 0 -26 -24 5 -28 19 -3 22
-10 23 -60 2 -103 -1 -113 -38 -103 -38 10 -46 51 -9 44 21 -4 24 -2 19 15 -2
11 -13 22 -24 25 -16 4 -18 14 -17 74 0 37 -2 78 -6 91 -5 16 -3 22 8 22 8 0
19 -6 23 -14z m8893 -128 l0 -38 -55 1 c-30 1 -55 4 -56 8 -2 15 -8 37 -14 54
-6 15 0 17 59 15 l66 -2 0 -38z m-9075 -109 c0 -25 6 -54 14 -63 11 -13 11
-20 3 -28 -7 -7 -12 -27 -12 -45 0 -25 -4 -33 -18 -33 -21 0 -40 36 -34 63 2
9 12 17 23 17 12 0 17 4 14 11 -4 6 -13 8 -20 5 -13 -5 -35 12 -35 26 0 4 7 8
15 8 11 0 13 8 9 30 -8 38 2 62 23 58 14 -3 18 -13 18 -49z m140 -25 c0 -41
-4 -43 -54 -28 -21 6 -22 5 -12 -14 15 -28 14 -42 -4 -42 -28 0 -71 131 -50
152 4 3 32 -2 63 -11 57 -17 57 -17 57 -57z m73 -16 c14 -14 16 -74 2 -83 -5
-3 -21 -3 -35 1 -21 5 -25 12 -25 43 0 21 3 41 7 44 10 11 38 8 51 -5z m12
-110 c0 -7 -4 -19 -9 -27 -6 -10 -4 -25 5 -42 17 -34 17 -39 1 -39 -21 0 -67
54 -67 78 0 22 24 41 53 42 9 0 17 -6 17 -12z m-260 -38 c0 -11 5 -20 10 -20
6 0 10 7 10 15 0 22 18 18 25 -5 8 -24 -11 -60 -30 -60 -18 0 -48 57 -41 76 8
21 26 17 26 -6z m231 -79 c34 -34 37 -51 9 -51 -11 0 -20 -4 -20 -10 0 -5 -7
-10 -15 -10 -11 0 -15 12 -15 50 0 28 3 50 6 50 3 0 19 -13 35 -29z m3029
-316 c23 -28 5 -151 -58 -380 -33 -121 -81 -303 -107 -405 -26 -102 -53 -203
-60 -225 -7 -22 -20 -71 -30 -110 -10 -38 -23 -76 -28 -83 -15 -20 -187 -12
-200 9 -9 15 16 116 179 719 75 276 83 307 94 363 7 32 9 70 6 83 -4 14 -4 29
-1 34 4 6 48 10 99 10 71 0 97 -4 106 -15z m-366 -3 c6 -9 -18 -95 -35 -128
-21 -40 -57 -50 -189 -53 -112 -2 -131 -5 -180 -29 -99 -48 -148 -148 -227
-452 -19 -75 -37 -173 -40 -222 -5 -77 -3 -90 16 -122 33 -52 64 -59 250 -50
l160 7 -14 -47 c-20 -64 -44 -102 -74 -116 -36 -17 -222 -33 -306 -27 -233 17
-325 161 -281 442 40 262 149 527 263 640 105 103 191 143 333 155 136 10 318
11 324 2z m2021 -26 c39 -28 12 -114 -46 -143 -13 -7 -43 -13 -67 -13 -55 0
-97 37 -88 77 10 36 36 74 60 83 33 14 120 11 141 -4z m429 -85 c4 -5 2 -20
-3 -33 -4 -12 -11 -40 -15 -60 l-7 -38 69 0 c38 0 71 -2 74 -5 10 -10 -14 -90
-34 -110 -13 -15 -36 -21 -84 -25 l-66 -5 -54 -210 c-74 -286 -76 -300 -51
-332 18 -23 25 -25 79 -21 32 2 58 1 58 -3 0 -5 -5 -31 -11 -59 -13 -62 -27
-69 -150 -77 -98 -7 -145 9 -180 59 -35 49 -28 116 40 381 33 131 61 243 61
248 0 5 -14 9 -31 9 -31 0 -32 0 -25 43 10 60 30 85 78 97 61 16 116 51 166
104 41 44 74 57 86 37z m2332 -36 c73 -51 37 -165 -52 -165 -46 0 -74 27 -81
77 -5 37 -2 46 25 73 34 33 74 39 108 15z m-7563 -57 c15 -17 17 -42 17 -173
0 -120 3 -155 14 -164 26 -22 38 22 34 127 -2 53 -7 105 -12 115 -12 25 16 22
40 -4 17 -19 19 -38 19 -168 0 -166 -11 -211 -51 -211 -35 0 -99 63 -131 127
-23 48 -27 72 -31 169 -5 126 1 176 24 199 19 19 52 12 77 -17z m7311 9 c65
-37 79 -74 72 -193 -6 -120 -25 -171 -73 -195 -24 -12 -78 -18 -210 -23 -141
-6 -180 -10 -190 -22 -6 -9 -14 -43 -18 -76 -13 -110 37 -140 204 -120 73 9
102 17 130 37 20 14 37 21 39 16 6 -17 -41 -154 -59 -172 -27 -27 -122 -43
-264 -43 -154 -1 -185 10 -216 77 -58 129 38 510 160 634 75 77 144 101 286
102 86 1 106 -3 139 -22z m-688 -32 c87 -67 88 -129 10 -470 -32 -137 -61
-263 -63 -278 -7 -37 -39 -49 -117 -45 -58 3 -61 4 -64 30 -4 30 12 111 69
352 48 201 53 261 25 282 -45 32 -176 0 -195 -48 -5 -13 -33 -122 -61 -243
-29 -121 -62 -258 -74 -305 l-21 -85 -85 0 -85 0 -3 29 c-3 26 16 110 113 496
20 80 40 181 43 225 l7 80 80 3 c90 3 105 -6 105 -65 0 -18 2 -33 5 -33 3 0
19 16 37 36 68 74 203 93 274 39z m-565 -9 c14 -31 7 -47 -186 -396 -100 -180
-202 -365 -235 -425 -130 -237 -155 -281 -169 -292 -8 -8 -43 -13 -82 -13
-103 0 -103 -2 25 230 47 85 86 165 86 177 0 35 -99 655 -110 686 -11 34 -11
34 92 40 102 7 104 4 129 -160 24 -155 38 -262 39 -285 0 -32 14 -19 45 39 17
32 69 130 117 218 49 88 88 170 88 183 0 21 4 22 75 22 70 0 76 -2 86 -24z
m-1271 -42 c6 -14 10 -40 10 -57 -1 -34 -180 -754 -193 -774 -6 -9 -36 -13
-92 -13 -72 0 -86 3 -94 18 -8 14 13 106 80 368 58 220 92 373 94 414 2 36 4
66 4 68 1 1 42 2 91 2 88 0 91 -1 100 -26z m-530 -55 l0 -38 47 45 c58 56 77
64 160 64 52 0 64 -3 60 -14 -3 -8 -11 -34 -17 -57 -14 -50 -56 -95 -96 -104
-84 -19 -104 -27 -129 -52 -56 -57 -75 -107 -155 -421 -32 -123 -61 -226 -65
-230 -9 -9 -140 -15 -170 -8 -32 8 -32 25 1 146 129 481 167 645 158 697 l-6
32 88 3 c106 4 124 -6 124 -63z m-515 34 c22 -12 53 -33 68 -48 27 -28 57
-107 57 -152 0 -13 -25 -121 -56 -241 -76 -291 -86 -341 -79 -383 l6 -36 -91
-7 c-111 -9 -140 3 -140 59 0 19 -3 35 -7 35 -3 0 -22 -19 -41 -41 -47 -54
-85 -69 -179 -69 -96 0 -147 22 -186 82 -27 41 -28 47 -24 133 5 105 33 178
93 245 90 99 183 138 354 148 l114 7 9 32 c13 44 2 77 -28 91 -15 7 -75 12
-143 12 -64 0 -123 4 -130 9 -12 7 -12 19 0 72 12 53 18 65 39 71 13 4 92 6
174 5 130 -3 155 -6 190 -24z m-3699 -440 l74 -57 0 -58 c0 -51 -2 -58 -19
-58 -11 0 -23 5 -26 10 -14 23 -116 90 -126 84 -12 -7 -5 -115 8 -139 5 -7 43
-41 86 -76 l77 -62 0 -59 c0 -76 -11 -75 -104 6 -41 35 -83 69 -95 75 -17 10
-21 21 -21 64 0 29 5 58 11 64 8 8 8 22 0 49 -6 22 -11 69 -11 105 0 52 4 72
21 93 13 16 27 25 36 22 8 -3 48 -32 89 -63z m-70 -455 c242 -415 225 -380
218 -432 -4 -26 -10 -46 -14 -46 -8 0 -80 118 -80 131 0 13 -47 11 -119 -6
-37 -9 -68 -12 -73 -7 -5 5 -8 36 -6 68 l3 59 45 7 c74 13 74 11 23 95 -25 43
-52 85 -60 94 -18 21 -18 119 1 119 7 0 35 -37 62 -82z m9134 -24 c0 -33 1
-34 16 -19 15 14 19 14 39 1 20 -13 24 -13 29 -1 8 23 56 19 56 -4 0 -11 -5
-21 -11 -23 -9 -3 -9 -9 0 -25 8 -15 8 -30 1 -49 -9 -23 -15 -26 -44 -21 -19
3 -39 0 -45 -6 -9 -9 -17 -8 -32 1 -15 10 -24 10 -34 2 -8 -6 -27 -11 -42 -10
-15 1 -30 1 -33 0 -21 -7 -71 -6 -76 2 -3 5 -12 4 -20 -3 -11 -9 -17 -9 -29 1
-10 9 -15 9 -15 1 0 -15 -40 -14 -40 2 0 6 -5 4 -11 -5 -11 -20 -44 -24 -55
-7 -5 8 -10 6 -16 -5 -8 -14 -13 -15 -24 -5 -9 8 -18 8 -26 2 -19 -15 -128
-16 -128 -2 0 8 -7 6 -18 -4 -25 -23 -37 -21 -55 6 -13 18 -16 19 -16 5 -1
-22 -46 -34 -66 -18 -20 16 -19 80 1 108 18 25 62 30 71 7 5 -13 8 -13 20 5
16 22 49 27 56 8 3 -10 7 -10 19 0 8 7 31 12 49 12 99 1 95 -1 94 28 0 18 6
28 19 30 17 4 18 0 13 -32 -6 -40 -5 -41 23 -24 16 10 24 10 40 0 11 -7 20 -8
20 -3 0 14 73 22 82 8 6 -9 10 -9 20 1 15 15 64 16 74 1 5 -8 10 -6 16 5 5 9
16 16 23 16 8 0 14 3 14 8 -4 26 3 42 21 42 16 0 20 -7 20 -36z m-1250 -54 c0
-11 -7 -23 -15 -26 -29 -11 -5 -22 31 -14 20 5 42 6 49 4 7 -3 15 5 18 16 7
28 41 23 45 -7 3 -22 4 -22 28 -6 23 14 26 14 43 -1 15 -14 20 -14 24 -3 3 8
22 14 47 15 23 1 46 5 52 8 5 3 16 -2 23 -12 13 -18 14 -18 28 0 10 14 22 18
48 14 18 -3 42 0 51 6 14 8 21 7 34 -5 14 -15 14 -18 -1 -32 -13 -13 -13 -20
-3 -36 9 -15 9 -25 0 -46 -12 -27 -14 -27 -87 -23 -45 2 -76 -1 -78 -7 -2 -6
-10 -5 -19 3 -11 9 -18 10 -23 2 -10 -16 -35 -12 -36 8 -1 16 -2 16 -6 0 -5
-21 -24 -23 -41 -6 -9 9 -12 9 -12 1 0 -17 -39 -26 -55 -13 -9 7 -15 8 -20 0
-12 -20 -45 -11 -45 13 l0 22 -13 -24 c-19 -37 -32 -30 -36 19 l-5 45 -5 -45
-6 -45 -46 -1 c-25 0 -51 -4 -57 -8 -20 -12 -50 3 -54 28 -4 19 -1 22 14 18
22 -5 23 4 3 25 -14 13 -13 18 2 45 15 24 23 29 46 24 19 -4 27 -2 25 7 -1 6
2 22 6 35 10 28 46 30 46 2z m-239 -12 c1 -7 0 -24 -1 -37 -2 -22 -1 -23 21
-8 31 22 59 6 59 -34 0 -22 -5 -32 -20 -36 -24 -6 -27 -23 -4 -23 9 0 14 -7
12 -17 -4 -21 -45 -30 -61 -14 -6 6 -15 7 -21 2 -6 -5 -25 -12 -43 -15 -26 -6
-34 -4 -43 14 -21 39 13 141 41 124 5 -3 11 2 14 10 3 9 7 23 10 31 5 18 35
20 36 3z m-227 -37 c-2 -35 -1 -36 25 -19 62 38 95 -89 34 -129 -21 -14 -28
-14 -45 -4 -16 10 -22 10 -28 0 -5 -6 -16 -9 -25 -5 -12 4 -16 14 -13 36 2 16
1 27 -4 24 -4 -3 -8 -14 -8 -24 0 -10 -7 -26 -16 -35 -21 -20 -43 -4 -45 34
-1 21 -3 20 -8 -9 -5 -28 -11 -35 -31 -36 -14 -1 -49 -4 -78 -7 -38 -4 -57 -1
-67 10 -20 19 -19 66 1 105 14 28 19 30 55 25 35 -5 39 -3 39 18 0 31 19 44
58 38 29 -5 33 -9 29 -30 -3 -18 -1 -23 10 -19 8 4 17 -3 22 -17 l8 -22 7 23
c5 13 15 22 24 21 30 -3 35 1 22 16 -10 12 -10 18 0 30 19 23 35 12 34 -24z
m-352 -71 c-3 -86 -16 -130 -34 -112 -6 6 -20 6 -40 -2 -26 -10 -32 -8 -49 13
-24 30 -24 58 1 99 20 33 47 41 68 20 9 -9 12 -4 12 24 0 34 12 50 35 44 6 -2
9 -36 7 -86z m-567 14 c-6 -37 0 -41 28 -20 12 9 28 12 45 7 15 -4 38 -4 52 0
39 11 47 10 54 -6 3 -9 -3 -23 -14 -32 -11 -10 -20 -29 -20 -43 0 -44 -20 -60
-78 -64 -29 -2 -55 0 -58 6 -4 5 -10 5 -18 -1 -6 -6 -21 -10 -31 -9 -36 1
-219 -13 -243 -19 -15 -3 -27 -1 -33 8 -6 10 -9 11 -9 2 0 -21 -41 -15 -47 7
-7 25 -20 26 -28 1 -7 -22 -34 -36 -47 -23 -4 4 4 46 20 93 23 71 31 85 51 87
31 5 41 -12 41 -72 0 -56 9 -57 13 -3 4 43 10 52 33 43 13 -5 15 -14 10 -49
-5 -27 -4 -39 3 -32 5 6 11 26 13 45 3 30 7 36 33 41 17 3 38 2 47 -3 10 -5
19 -4 23 2 3 6 18 7 33 4 22 -5 25 -4 15 7 -7 7 -13 21 -13 30 0 18 20 24 93
25 39 1 39 1 32 -32z m287 -4 c2 -6 16 -6 41 1 59 16 67 9 67 -60 0 -49 -4
-62 -19 -71 -16 -8 -21 -6 -26 10 -3 11 -3 29 0 40 4 11 2 20 -4 20 -6 0 -11
-15 -11 -34 0 -39 -14 -53 -35 -36 -9 7 -15 8 -20 0 -3 -5 -17 -10 -30 -10
-49 0 -62 84 -20 125 25 26 51 32 57 15z m-3329 -67 c5 -8 -14 -217 -29 -330
-6 -47 -9 -53 -30 -53 -16 0 -24 6 -25 18 0 10 -3 12 -6 4 -9 -23 -56 -40 -89
-31 -38 11 -54 43 -54 110 0 60 20 110 56 144 27 25 77 34 89 15 13 -20 25 -9
25 23 0 17 3 49 6 70 5 30 11 37 30 37 12 0 25 -3 27 -7z m87 -7 c0 -2 3 -11
6 -19 6 -16 -20 -47 -41 -47 -19 0 -29 38 -15 55 11 13 50 21 50 11z m370 -81
c11 -14 15 -14 29 -1 10 9 22 12 30 7 10 -7 11 -26 5 -87 -4 -44 -7 -103 -6
-131 2 -50 1 -53 -23 -53 -14 0 -28 7 -32 16 -5 13 -8 12 -25 -5 -25 -28 -64
-26 -93 4 -21 21 -25 33 -25 89 0 77 18 122 63 154 37 26 60 28 77 7z m-961
-4 c8 -5 11 -16 6 -30 -5 -17 -2 -21 14 -21 16 0 21 -6 21 -25 0 -20 -5 -25
-25 -25 -20 0 -25 -5 -25 -24 0 -12 -3 -50 -6 -83 -6 -55 -5 -60 15 -66 25 -6
27 -20 5 -41 -20 -20 -58 -21 -74 -1 -15 18 -15 114 0 165 8 27 7 36 -5 43
-19 10 -19 43 0 51 8 3 15 16 15 29 0 13 3 27 7 30 9 10 35 8 52 -2z m782 -13
c20 -22 20 -29 14 -118 -4 -52 -7 -103 -7 -112 0 -9 -6 -22 -13 -28 -19 -16
-58 5 -51 28 3 9 8 55 12 100 l7 84 -24 -4 c-31 -4 -58 -59 -59 -120 0 -68
-14 -98 -45 -98 -24 0 -25 1 -19 53 3 28 8 88 12 132 7 78 8 80 35 83 20 3 27
-1 27 -14 0 -16 1 -17 13 -1 11 14 49 35 69 36 4 1 17 -9 29 -21z m4196 12
c11 0 14 -8 11 -30 -5 -33 8 -51 18 -26 7 18 39 22 49 6 4 -7 14 -5 26 4 11 7
29 12 40 9 13 -4 19 0 19 11 0 24 37 20 43 -6 5 -17 9 -19 20 -10 7 6 33 12
58 12 24 0 58 2 74 3 30 2 30 1 33 -53 3 -62 -8 -86 -33 -76 -14 5 -16 14 -12
44 5 25 3 32 -3 22 -5 -8 -10 -27 -10 -42 0 -24 -5 -27 -43 -33 -24 -4 -52 -6
-63 -5 -10 1 -21 1 -24 0 -3 -1 -29 -3 -58 -5 -29 -2 -65 -6 -81 -10 -19 -4
-34 -1 -42 8 -12 12 -15 12 -25 -1 -19 -26 -37 -4 -31 39 3 22 1 39 -4 39 -5
0 -9 -23 -9 -51 0 -63 -13 -89 -45 -89 -29 0 -31 7 -9 38 9 13 14 35 11 55
l-4 32 -1 -36 c-2 -33 -5 -37 -34 -42 -43 -6 -48 -3 -50 41 -1 36 -1 36 -7 -8
l-6 -45 -55 -1 c-30 -1 -61 3 -67 9 -9 6 -13 6 -13 -2 0 -7 -10 -11 -22 -10
-13 2 -29 0 -36 -5 -7 -4 -19 -3 -27 4 -9 7 -15 8 -20 0 -3 -5 -13 -10 -22
-10 -13 0 -15 11 -11 65 2 35 6 66 9 69 12 12 123 16 130 4 6 -9 11 -9 23 1 9
7 39 13 68 13 29 1 61 5 71 10 12 6 19 5 23 -7 9 -22 25 -7 19 18 -3 12 -1 28
4 36 8 12 12 13 26 1 14 -11 19 -11 33 4 9 9 23 14 30 11 8 -3 21 -5 29 -5z
m718 -25 c0 -13 -8 -21 -22 -23 -28 -4 -32 -41 -5 -38 12 1 17 -6 17 -24 0
-21 -5 -25 -37 -27 -37 -3 -38 -3 -40 34 l-1 38 -4 -35 c-5 -41 -23 -56 -40
-33 -12 15 -13 15 -19 0 -7 -19 -49 -23 -60 -6 -5 8 -10 6 -16 -5 -12 -22 -45
-20 -58 3 -17 33 -12 89 10 111 22 22 41 25 57 9 8 -8 13 -8 17 0 11 17 53 13
61 -6 6 -17 8 -16 15 2 6 17 17 20 66 20 52 0 59 -2 59 -20z m-5115 -12 c0
-16 -5 -76 -12 -136 -11 -100 -13 -108 -35 -113 -13 -4 -27 -4 -30 0 -6 6 16
255 24 269 2 4 15 7 29 7 20 0 24 -5 24 -27z m-1399 12 c3 -2 0 -51 -7 -107
-7 -57 -14 -121 -16 -143 l-3 -40 58 3 c55 4 57 3 57 -22 0 -34 -23 -44 -100
-46 -96 -2 -91 -4 -85 38 2 20 12 101 21 180 l17 142 27 0 c15 0 29 -2 31 -5z
m1004 -19 c16 -12 21 -11 33 1 23 22 37 9 36 -33 -9 -231 -9 -229 -34 -232
-13 -2 -27 3 -32 12 -8 13 -11 13 -29 -5 -28 -28 -76 -22 -102 13 -15 20 -20
42 -20 86 1 117 84 205 148 158z m-3180 -23 c7 -9 10 -34 8 -58 -5 -39 -2 -43
52 -95 31 -30 61 -55 68 -55 7 0 12 16 12 39 0 43 15 56 35 31 9 -10 11 -41 8
-104 -4 -84 -16 -121 -40 -121 -5 0 -36 26 -69 57 -47 44 -62 54 -69 43 -16
-26 -37 8 -44 71 -3 33 -13 76 -22 94 -18 38 -11 63 12 44 12 -9 14 -5 14 30
0 43 14 53 35 24z m2810 3 c16 -11 21 -11 33 0 9 10 19 11 32 4 15 -8 17 -15
9 -51 -5 -22 -11 -82 -12 -132 -2 -80 -4 -92 -20 -95 -10 -2 -25 5 -33 15 -10
13 -16 15 -22 6 -11 -18 -60 -33 -79 -26 -38 15 -52 46 -53 116 0 72 13 108
52 143 38 35 65 41 93 20z m-141 -4 c11 -17 -7 -52 -29 -58 -39 -10 -55 -37
-65 -115 -5 -41 -10 -82 -10 -91 0 -20 -38 -34 -52 -20 -13 13 9 251 24 269
11 14 49 18 47 6 -3 -21 3 -22 23 -3 22 21 53 26 62 12z m-219 -18 c22 -9 45
-57 45 -96 0 -73 -13 -110 -50 -149 -31 -33 -43 -39 -78 -39 -33 0 -45 6 -66
31 -22 26 -26 40 -26 93 0 50 5 70 27 103 14 23 36 46 47 52 24 11 77 14 101
5z m4350 -31 c-6 -33 -5 -35 9 -24 9 8 47 15 86 16 63 3 70 1 70 -16 0 -11 -7
-19 -17 -19 -15 0 -15 -1 0 -18 19 -20 22 -49 8 -71 -12 -19 -151 -26 -151 -9
0 7 -7 5 -17 -4 -10 -9 -22 -14 -28 -12 -5 2 -18 -10 -27 -27 -15 -25 -23 -30
-50 -27 -38 4 -46 31 -10 36 27 4 30 22 3 22 -23 0 -33 23 -25 56 4 14 2 24
-4 24 -6 0 -14 -17 -17 -37 -4 -21 -8 -44 -10 -50 -5 -16 -35 -17 -35 -1 0 9
-3 9 -12 0 -18 -18 -58 -15 -65 5 -6 14 -7 14 -14 -3 -6 -17 -18 -20 -72 -22
l-65 -3 -7 40 c-4 26 -2 50 7 68 11 24 20 28 61 31 44 3 47 5 47 32 0 16 5 32
10 35 20 12 37 -13 32 -47 l-5 -33 22 20 c18 16 26 17 41 7 11 -7 21 -8 25 -2
3 5 24 8 46 7 22 -2 43 1 45 5 3 5 23 5 45 2 36 -6 40 -5 39 12 -4 36 0 44 21
44 19 0 21 -4 14 -37z m585 22 c0 -8 4 -15 9 -15 5 0 14 7 21 15 17 21 36 19
53 -6 19 -26 12 -54 -16 -67 -17 -8 -18 -11 -5 -11 42 -2 26 -51 -17 -51 -13
0 -26 8 -29 17 -6 15 -8 14 -21 -4 -18 -26 -65 -20 -65 8 0 11 7 19 17 19 15
0 15 1 0 18 -10 10 -17 25 -17 33 1 26 32 55 63 58 4 1 7 -6 7 -14z m-105 -19
c19 -29 12 -49 -23 -67 l-27 -13 27 -4 c24 -3 27 -6 18 -23 -12 -21 -54 -26
-66 -8 -4 7 -9 7 -13 2 -3 -6 -23 -13 -43 -17 -29 -5 -39 -3 -47 11 -9 15 -10
13 -11 -14 0 -45 -9 -63 -31 -63 -14 0 -19 7 -19 25 0 15 -6 25 -15 25 -37 0
-47 83 -14 124 17 21 29 27 53 25 17 -2 37 1 45 5 18 11 29 -3 34 -44 l4 -35
1 36 c2 36 28 62 41 40 4 -5 16 -4 31 4 34 19 37 19 55 -9z m-955 -61 c0 -8
-9 -22 -19 -32 -11 -11 -21 -35 -23 -58 -2 -33 -7 -41 -25 -43 -17 -2 -23 2
-23 15 0 15 -2 14 -16 -5 -19 -28 -48 -28 -67 -1 -15 21 -15 21 -22 1 -3 -12
-16 -22 -28 -24 -16 -2 -23 -11 -25 -30 -2 -20 -9 -28 -22 -28 -10 0 -21 3
-23 8 -2 4 1 47 7 97 l11 89 35 8 c27 5 38 3 47 -9 12 -15 14 -15 31 0 24 22
58 22 71 0 9 -16 10 -17 11 -1 0 25 80 38 80 13z m1321 -175 c-4 -88 -15 -124
-36 -116 -8 3 -16 2 -19 -2 -8 -13 -80 -6 -84 7 -3 9 -8 9 -21 -2 -24 -21
-127 -29 -145 -12 -12 12 -15 12 -20 0 -3 -8 -13 -15 -22 -15 -13 0 -15 9 -12
50 3 28 1 50 -3 50 -9 0 -17 -28 -21 -75 -2 -19 -9 -31 -20 -33 -14 -3 -18 3
-17 30 1 67 14 113 31 110 9 -1 19 2 22 7 9 14 46 1 46 -17 0 -12 5 -10 21 7
18 19 29 22 60 18 22 -3 42 -1 45 4 9 15 41 10 48 -8 6 -14 8 -14 22 5 12 17
21 21 42 16 15 -4 30 -12 34 -18 4 -6 8 5 8 25 0 40 7 51 30 47 12 -3 14 -17
11 -78z m-801 -5 c0 -8 -6 -15 -14 -15 -17 0 -28 14 -19 24 12 12 33 6 33 -9z
m244 -11 c6 -24 8 -25 25 -10 21 19 52 21 69 4 22 -22 14 -86 -13 -113 -13
-14 -31 -25 -39 -25 -25 0 -49 46 -42 81 4 21 2 28 -5 23 -7 -4 -9 -24 -6 -54
7 -54 2 -63 -23 -50 -15 8 -17 20 -14 72 2 35 4 71 4 81 0 28 37 21 44 -9z
m-434 2 c0 -8 -5 -18 -11 -22 -14 -8 -33 11 -25 25 10 16 36 13 36 -3z m-6710
-25 c20 -39 10 -121 -15 -121 -18 0 -25 23 -25 79 0 63 18 82 40 42z m6980 -5
c1 -6 6 -5 13 4 7 8 28 16 48 18 43 3 50 -12 42 -80 -7 -61 -10 -68 -28 -61
-14 5 -15 15 -10 57 6 40 4 48 -5 39 -7 -6 -15 -32 -18 -58 -4 -43 -7 -46 -28
-41 -12 3 -26 2 -29 -4 -10 -17 -43 -11 -58 10 -14 20 -15 20 -20 1 -3 -14
-13 -19 -41 -19 l-37 0 2 44 c2 24 0 46 -4 50 -4 4 -7 -11 -7 -32 0 -49 -24
-87 -39 -64 -10 14 -6 63 5 81 2 4 0 10 -5 14 -9 5 -16 -20 -24 -85 -1 -8 -11
-15 -22 -15 -11 -1 -26 -5 -34 -9 -20 -13 -29 10 -23 60 3 29 1 44 -7 44 -11
0 -19 -24 -23 -75 -2 -20 -9 -31 -22 -33 -17 -4 -18 1 -14 52 3 31 1 56 -3 56
-14 0 -29 -38 -29 -73 0 -34 -23 -57 -36 -36 -4 6 -11 6 -20 -2 -8 -6 -14 -8
-14 -5 0 4 -8 3 -17 -3 -33 -18 -53 5 -53 59 0 47 -1 49 -22 41 -16 -6 -24
-18 -26 -40 -3 -26 0 -31 18 -31 15 0 20 -5 18 -17 -4 -22 -44 -29 -65 -12
-12 11 -17 10 -24 -3 -7 -12 -24 -17 -62 -17 -29 0 -59 -1 -67 -3 -19 -4 -24
46 -13 122 8 51 11 55 38 61 59 11 79 -21 24 -40 -17 -6 -28 -15 -25 -20 9
-14 29 -8 60 17 34 26 52 28 60 6 4 -11 -1 -18 -14 -21 -24 -6 -25 -16 -5 -33
12 -10 15 -9 15 7 0 37 35 61 86 61 l46 -1 -4 -49 c-3 -26 -2 -48 2 -48 11 0
20 27 20 58 0 37 11 50 40 50 14 0 70 3 125 7 94 6 132 10 180 17 17 3 21 -4
26 -42 l6 -45 1 42 c2 47 19 65 38 39 10 -15 14 -15 21 -3 15 26 63 29 63 3z
m-4055 -16 c4 -6 -1 -75 -10 -153 -26 -230 -27 -232 -54 -235 -34 -5 -41 8
-31 53 5 22 13 94 19 160 17 181 18 185 46 185 13 0 27 -5 30 -10z m-2777 -89
l92 -89 0 -55 c0 -31 -4 -58 -8 -61 -5 -3 -44 29 -88 71 -43 41 -89 82 -101
90 -19 13 -23 24 -23 67 0 91 11 89 128 -23z m2538 74 c3 -8 2 -40 -3 -70 -11
-59 -9 -62 21 -40 24 18 55 19 77 2 66 -51 44 -220 -35 -268 -40 -24 -61 -24
-84 1 l-19 21 -6 -21 c-6 -25 -47 -28 -47 -3 0 9 7 93 16 187 12 120 21 176
32 189 19 21 41 22 48 2z m541 -42 c-3 -19 1 -27 20 -34 17 -6 23 -14 19 -25
-3 -9 -6 -18 -6 -20 0 -2 -8 -4 -19 -4 -15 0 -20 -10 -25 -47 -4 -27 -9 -65
-12 -85 -5 -34 -3 -38 15 -38 27 0 28 -35 2 -50 -68 -36 -97 28 -71 160 5 27
5 49 -1 55 -14 14 -11 45 6 51 8 4 15 18 15 34 0 19 6 30 18 32 30 7 44 -3 39
-29z m2894 27 c23 -13 26 -62 5 -80 -8 -6 -25 -10 -38 -8 -30 4 -37 51 -12 79
20 22 20 22 45 9z m-3756 -50 c3 -6 3 -19 0 -30 -5 -15 -15 -20 -39 -20 l-33
0 -12 -88 c-6 -49 -11 -106 -12 -128 -2 -70 -11 -89 -44 -89 -34 0 -34 -10
-12 186 l13 110 -31 -3 c-27 -3 -30 0 -30 27 0 29 2 30 50 36 84 10 144 10
150 -1z m1043 -2 c9 -9 15 -9 24 0 7 7 20 12 30 12 21 0 22 -11 8 -129 -6 -56
-6 -90 1 -103 20 -37 -38 -69 -59 -32 -8 15 -11 15 -31 -5 -24 -24 -39 -26
-74 -10 -33 15 -47 49 -47 110 0 58 19 109 54 144 27 27 74 33 94 13z m-307
-27 c17 -13 23 -29 23 -56 0 -47 -35 -80 -93 -90 -29 -5 -41 -12 -41 -23 0
-36 16 -45 64 -39 41 6 46 4 46 -13 0 -52 -104 -69 -145 -24 -21 22 -25 37
-25 86 0 72 17 115 59 151 38 32 79 35 112 8z m-601 -36 c15 -18 31 -20 28 -2
-2 7 7 12 22 12 22 0 25 -4 23 -30 -1 -16 -4 -75 -6 -131 -2 -55 -7 -106 -11
-112 -11 -18 -43 -15 -50 4 -6 15 -9 15 -29 -5 -55 -51 -120 -11 -128 79 -8
84 40 183 94 193 40 8 44 7 57 -8z m-2430 -119 c1 -71 27 -120 104 -196 l66
-64 0 -59 c0 -45 -3 -58 -14 -55 -8 2 -57 45 -110 96 l-96 93 0 54 c0 33 5 55
12 57 10 4 10 10 0 32 -13 29 -17 118 -5 130 17 17 43 -37 43 -88z m6764 51
l-1 -38 21 20 c27 25 34 26 56 6 15 -14 18 -14 30 0 19 23 60 20 60 -5 0 -14
-7 -20 -22 -20 l-21 0 21 -23 c27 -29 28 -51 3 -76 -20 -20 -61 -19 -61 2 0 5
-8 3 -18 -6 -10 -10 -25 -17 -32 -17 -7 0 -22 7 -32 17 -16 14 -18 14 -18 1 0
-10 -13 -18 -37 -23 -31 -6 -40 -3 -55 17 -17 21 -19 21 -16 3 2 -12 -3 -20
-12 -21 -8 0 -23 -4 -33 -9 -20 -8 -47 10 -48 34 -1 9 -4 5 -8 -9 -4 -14 -13
-25 -21 -25 -11 0 -15 12 -13 48 2 56 -13 63 -22 10 -11 -61 -16 -74 -28 -70
-7 2 -12 25 -12 55 1 29 -2 52 -6 52 -15 0 -28 -27 -31 -65 -2 -28 -8 -41 -20
-43 -12 -2 -18 3 -18 14 0 16 -2 15 -16 -4 -25 -36 -66 -26 -80 18 -8 22 -8
41 -3 53 6 11 6 17 0 17 -16 0 -25 -68 -11 -85 6 -8 9 -19 5 -25 -9 -15 -33
-12 -43 6 -8 15 -11 15 -28 -2 -15 -15 -34 -19 -84 -19 l-65 0 3 50 c2 28 7
68 11 90 6 39 8 40 49 43 37 3 43 1 40 -14 -2 -10 -13 -21 -26 -24 -28 -6 -33
-24 -8 -28 10 -2 25 6 33 18 11 16 23 21 44 18 20 -3 29 0 32 14 7 24 34 23
42 -2 7 -22 20 -26 30 -10 12 20 61 11 73 -12 l11 -23 0 22 c1 18 9 23 49 28
26 3 59 9 75 11 19 4 29 1 34 -12 6 -16 7 -16 19 1 23 31 38 13 35 -41 -3 -58
10 -51 24 13 6 29 16 47 26 48 12 2 15 -4 12 -24 l-4 -26 16 28 c10 18 24 27
40 27 21 0 25 5 25 31 0 24 4 30 18 27 13 -3 17 -13 16 -41z m-760 -83 c21
-20 20 -43 -1 -66 -35 -39 -87 -3 -62 45 21 39 39 45 63 21z m421 -154 c5 -8
11 -7 20 0 23 19 37 1 30 -36 -3 -21 -2 -34 5 -34 5 0 10 4 10 10 0 5 9 14 19
19 14 8 25 6 45 -10 20 -16 26 -17 26 -6 0 18 61 32 70 17 4 -7 11 -6 20 5 16
19 29 19 52 -1 16 -16 18 -16 24 0 7 18 64 23 64 4 0 -6 7 -4 18 5 21 19 53
22 68 7 8 -8 15 -6 24 5 19 23 60 20 60 -5 0 -13 -7 -20 -20 -20 -25 0 -25 -8
1 -29 16 -13 19 -23 13 -44 -8 -36 -53 -56 -70 -32 -10 14 -13 14 -24 0 -17
-20 -56 -19 -64 2 -6 14 -8 14 -22 -5 -15 -22 -64 -31 -64 -12 0 5 -13 2 -29
-8 -28 -16 -31 -16 -51 3 -18 16 -21 28 -17 58 4 26 2 37 -6 34 -7 -2 -13 -17
-15 -33 -5 -54 -12 -74 -27 -74 -8 0 -15 8 -15 17 0 14 -3 13 -20 -5 -26 -28
-55 -28 -74 -1 l-14 21 -4 -23 c-2 -13 -10 -24 -18 -24 -8 0 -14 7 -12 15 2
11 -2 10 -12 -4 -20 -25 -48 -14 -42 16 3 13 8 51 11 86 3 35 9 70 12 78 6 17
19 18 28 4z m2992 0 c16 -6 30 -16 31 -23 6 -68 16 -126 22 -122 8 5 7 14 16
-187 6 -151 5 -168 -9 -174 -20 -7 -23 -34 -4 -34 8 0 8 -3 2 -8 -12 -8 -39
-169 -37 -221 0 -19 6 -37 13 -42 15 -9 -37 -65 -67 -71 -12 -2 -18 -10 -16
-21 3 -15 0 -16 -16 -6 -11 7 -18 19 -15 26 3 7 1 13 -5 13 -5 0 -12 -8 -15
-17 -2 -10 -8 -25 -11 -34 -5 -11 -1 -18 13 -22 12 -3 21 -11 21 -17 0 -8 -9
-10 -25 -6 -17 4 -25 2 -26 -6 0 -7 -4 -3 -10 10 -9 24 -29 22 -29 -4 0 -24
-19 -16 -26 11 -6 25 -28 33 -39 15 -11 -18 -40 -6 -47 20 -5 17 -6 12 -3 -14
2 -22 9 -43 16 -46 26 -17 -12 -19 -51 -4 -22 9 -44 14 -47 10 -3 -3 -12 -1
-19 4 -16 14 -74 21 -74 9 0 -6 -14 -7 -35 -3 -24 4 -35 2 -35 -6 0 -7 -8 -9
-19 -5 -11 3 -22 1 -26 -5 -3 -5 -16 -10 -28 -10 -46 0 -175 -84 -190 -123 -3
-9 -11 -17 -17 -17 -6 0 -8 -4 -5 -10 3 -5 2 -10 -4 -10 -21 0 -21 20 1 39 12
12 16 21 9 21 -7 0 -19 7 -27 15 -9 8 -11 15 -5 15 6 0 11 7 11 15 0 18 16 20
26 3 4 -6 2 -14 -4 -16 -8 -2 -8 -7 1 -16 14 -16 37 -9 37 11 0 8 -7 21 -15
29 -8 9 -15 24 -15 34 0 28 -18 34 -26 8 -3 -12 -12 -27 -18 -33 -7 -5 -24
-21 -38 -34 -36 -31 -53 -19 -31 22 9 18 22 37 29 42 11 8 8 13 -12 22 -22 10
-25 10 -20 -3 3 -7 2 -14 -2 -14 -8 0 -38 -63 -48 -105 l-8 -30 -4 30 c-2 17
-8 36 -14 42 -11 14 -32 7 -23 -8 3 -5 0 -6 -8 -3 -9 3 -16 -3 -20 -15 -7 -27
-24 -27 -33 1 l-7 22 -18 -23 c-11 -13 -19 -31 -19 -41 0 -11 -10 -19 -25 -22
-29 -6 -31 -1 -9 31 15 21 15 24 0 39 -15 15 -16 14 -16 -11 0 -22 -4 -26 -22
-24 -15 1 -23 -4 -26 -16 -3 -16 0 -18 19 -12 19 6 20 5 8 -8 -8 -8 -17 -13
-21 -11 -13 8 -39 -9 -37 -25 4 -47 0 -54 -32 -47 -19 3 -38 1 -46 -5 -7 -7
-17 -9 -20 -5 -4 4 -2 11 5 15 10 6 10 10 -2 20 -17 14 -29 0 -20 -23 5 -13
-1 -15 -35 -12 -35 4 -46 0 -66 -22 -27 -29 -46 -23 -27 8 15 24 16 54 2 45
-5 -3 -10 -14 -10 -25 0 -20 -32 -38 -38 -21 -6 18 -19 13 -25 -9 -4 -16 0
-20 20 -20 23 0 25 -3 20 -32 -3 -18 -9 -59 -13 -90 l-6 -58 33 6 c19 4 35 7
36 8 1 1 3 36 6 79 3 44 9 82 13 87 11 9 163 30 217 30 20 0 37 -5 37 -11 0
-19 -21 -49 -34 -49 -19 0 -26 -22 -26 -78 0 -54 -18 -95 -43 -100 -19 -4 -22
27 -8 111 7 44 6 49 -12 56 -26 10 -87 -8 -87 -25 0 -8 11 -12 28 -11 42 3 38
-35 -5 -48 -22 -6 -33 -15 -33 -27 0 -15 3 -17 19 -8 32 17 43 12 39 -17 -3
-25 -9 -29 -51 -37 -37 -7 -50 -7 -57 3 -6 11 -9 10 -16 -1 -5 -9 -32 -18 -62
-22 -49 -6 -53 -5 -48 11 2 10 8 57 12 105 8 105 -6 138 -56 138 -17 0 -30 -4
-30 -9 0 -12 -42 -22 -54 -12 -28 21 -47 20 -55 -2 -9 -22 -9 -22 -20 6 -6 15
-13 27 -16 27 -4 0 -4 -4 -1 -8 2 -4 0 -14 -5 -22 -8 -13 -10 -13 -19 0 -5 8
-10 24 -10 34 0 30 -14 9 -15 -22 0 -15 7 -30 15 -34 13 -6 13 -7 -1 -7 -19
-1 -35 16 -41 44 l-5 20 -7 -20 c-15 -40 -24 -50 -47 -51 -48 -1 -59 -4 -59
-14 0 -7 23 -8 65 -4 36 4 65 4 65 1 0 -21 -22 -56 -38 -61 -16 -5 -20 -20
-26 -79 -7 -74 -31 -118 -56 -102 -12 7 -9 71 6 148 6 26 4 28 -14 18 -31 -17
-32 -15 -25 37 6 43 5 46 -10 33 -10 -7 -18 -21 -18 -30 -1 -9 -5 11 -10 43
-15 99 -29 92 -29 -15 0 -121 -20 -192 -67 -236 -28 -27 -43 -33 -78 -33 -65
0 -85 30 -85 129 0 42 4 102 10 134 5 33 5 67 1 80 -13 34 -18 11 -36 -173 -9
-91 -22 -170 -28 -177 -7 -6 -34 -15 -62 -19 -42 -6 -48 -5 -39 7 7 8 15 43
18 79 11 106 13 114 20 138 11 32 -6 27 -31 -11 -24 -34 -31 -63 -13 -52 6 3
10 0 10 -8 0 -8 -9 -17 -20 -20 -11 -3 -27 -20 -35 -39 -10 -24 -14 -28 -15
-13 0 12 6 27 13 34 10 11 9 13 -5 8 -12 -4 -18 -1 -18 7 0 8 6 16 13 19 10 4
10 7 0 18 -10 9 -13 10 -13 1 0 -7 -6 -12 -13 -12 -9 0 -14 -22 -16 -77 -3
-82 -11 -103 -42 -103 -15 0 -18 5 -15 23 14 65 16 97 7 97 -12 0 -31 -55 -31
-90 0 -16 -7 -30 -16 -34 -30 -12 -36 -7 -29 26 12 54 7 119 -11 139 -18 20
-44 25 -44 9 0 -5 4 -10 9 -10 23 0 41 -34 41 -75 0 -77 -79 -138 -115 -88
-11 15 -13 15 -24 -4 -6 -12 -25 -25 -43 -29 l-33 -8 45 -6 c25 -3 50 -3 55 1
6 4 28 8 51 10 l40 4 -8 -40 c-4 -22 -11 -63 -14 -92 -4 -29 -13 -54 -20 -57
-17 -7 -28 10 -20 31 7 16 -10 43 -26 43 -6 0 -8 -14 -4 -34 7 -37 -9 -59 -25
-35 -5 8 -4 15 1 17 6 2 7 9 4 14 -4 6 -14 -4 -23 -22 -24 -50 -41 -50 -41 -1
0 32 -4 41 -17 41 -13 0 -14 -3 -5 -12 18 -18 14 -30 -10 -26 -16 2 -23 -3
-28 -22 -3 -14 -13 -25 -22 -25 -8 0 -23 -7 -32 -14 -14 -12 -18 -12 -30 4
-12 17 -13 17 -18 -3 -5 -18 -11 -20 -44 -15 -36 6 -38 5 -25 -10 15 -18 8
-20 -24 -7 -15 6 -24 2 -36 -13 -9 -11 -29 -21 -45 -22 -16 -2 -37 -6 -46 -10
-15 -6 -18 -2 -18 21 l0 28 -28 -32 c-32 -36 -77 -43 -97 -15 -11 15 -13 15
-20 -6 -5 -15 -12 -21 -23 -16 -10 4 -23 -2 -34 -17 -10 -13 -18 -18 -18 -12
0 18 -61 9 -72 -10 -9 -16 -11 -16 -29 0 -15 13 -19 14 -19 3 -1 -10 -4 -9
-14 4 -13 17 -15 17 -24 1 -8 -15 -11 -15 -32 6 l-22 22 -22 -27 c-18 -23 -28
-27 -49 -21 -16 4 -27 2 -27 -4 0 -5 -13 -7 -30 -3 -24 4 -30 2 -30 -11 0 -13
-5 -16 -20 -11 -12 4 -27 2 -35 -5 -8 -7 -27 -9 -49 -4 -26 4 -36 3 -36 -6 0
-10 -3 -10 -15 0 -12 10 -18 10 -30 0 -9 -7 -29 -13 -45 -12 -16 0 -31 -6 -34
-14 -10 -27 -28 -15 -24 16 3 21 0 30 -10 30 -7 0 -12 -6 -9 -12 6 -18 -12
-50 -24 -43 -5 4 -9 16 -9 28 -1 20 -2 20 -11 5 -5 -10 -14 -18 -19 -18 -6 0
-20 -10 -32 -22 -20 -20 -23 -21 -26 -5 -4 18 -22 24 -22 6 0 -6 -6 -9 -12 -6
-7 2 -18 -3 -25 -12 -11 -14 -13 -14 -26 3 -14 19 -16 19 -31 3 -22 -22 -35
-22 -43 1 -6 14 -8 13 -13 -8 -6 -26 -37 -36 -32 -10 3 12 1 13 -9 3 -7 -7
-21 -13 -31 -13 -10 0 -18 -5 -18 -11 0 -6 -9 -8 -20 -4 -12 4 -27 1 -35 -5
-8 -6 -27 -11 -42 -9 -15 1 -37 -2 -47 -6 -13 -6 -21 -4 -24 3 -2 8 -12 6 -29
-8 -31 -24 -69 -26 -77 -3 -6 14 -8 14 -21 -3 -10 -15 -16 -16 -26 -7 -9 9
-18 7 -40 -9 -19 -14 -35 -19 -53 -14 -13 3 -27 2 -30 -3 -3 -5 -15 -7 -26 -4
-12 3 -20 0 -20 -7 0 -10 -3 -10 -14 -1 -8 7 -17 8 -20 3 -3 -5 -27 -15 -52
-21 -38 -10 -49 -10 -56 1 -6 10 -10 10 -18 -2 -6 -10 -27 -15 -69 -15 -33 0
-63 -4 -67 -8 -13 -12 -74 -8 -74 6 -1 7 -8 4 -18 -8 -11 -14 -29 -20 -55 -20
-22 0 -41 -3 -44 -8 -7 -12 -43 -8 -43 5 0 6 -8 4 -19 -6 -12 -11 -21 -13 -25
-7 -4 6 -17 4 -36 -7 -28 -16 -30 -16 -44 3 -9 11 -16 14 -16 8 0 -7 -4 -13
-9 -13 -5 0 -9 18 -9 41 -1 40 -7 57 -17 47 -3 -3 -1 -17 4 -31 7 -17 7 -28 1
-32 -6 -4 -10 -15 -10 -27 0 -17 -5 -20 -30 -16 -18 3 -35 -1 -41 -9 -17 -19
-27 -16 -32 10 l-4 22 -8 -22 c-4 -13 -10 -23 -14 -23 -3 0 -16 -3 -28 -6 -19
-5 -23 -2 -23 15 0 12 -6 21 -15 21 -8 0 -15 -5 -15 -11 0 -11 -24 -39 -34
-39 -3 0 -6 10 -6 21 0 18 -2 20 -16 8 -13 -10 -17 -10 -24 0 -6 10 -9 10 -15
1 -4 -6 -13 -9 -21 -6 -9 3 -22 -6 -33 -25 -15 -25 -20 -27 -25 -13 -4 9 -4
25 -1 35 4 11 2 19 -4 19 -6 0 -11 -9 -11 -19 0 -22 -15 -34 -43 -36 -14 -1
-17 3 -13 20 9 34 -5 38 -25 8 -15 -22 -19 -24 -24 -11 -5 13 -14 9 -46 -24
-30 -31 -39 -36 -39 -22 1 11 7 30 15 44 8 14 14 31 15 39 0 21 -32 -15 -53
-61 -16 -33 -19 -35 -41 -25 -15 8 -21 17 -18 30 5 19 -16 67 -29 67 -4 0 -11
-15 -14 -33 -10 -43 -16 -52 -26 -36 -6 11 -11 11 -20 2 -9 -9 -9 -15 0 -27 9
-11 9 -16 0 -21 -13 -8 -25 6 -41 48 l-10 28 -18 -33 c-9 -18 -26 -35 -36 -37
-17 -3 -17 -2 -1 22 15 23 15 26 0 39 -13 10 -17 10 -20 1 -3 -7 -13 -13 -24
-13 -12 0 -19 -7 -19 -19 0 -10 -16 -31 -36 -46 -31 -24 -37 -25 -47 -12 -7 9
-23 19 -37 22 -19 5 -27 1 -35 -16 -13 -29 -42 -41 -30 -13 17 43 18 57 4 52
-8 -3 -16 -13 -18 -24 -7 -42 -44 -61 -41 -21 3 36 1 40 -15 27 -8 -7 -15 -9
-15 -4 0 5 -8 -6 -16 -23 -21 -42 -55 -45 -73 -7 -13 29 -26 24 -26 -9 0 -30
-29 -33 -43 -5 -8 18 -11 19 -11 6 -1 -13 -9 -18 -31 -18 -16 0 -30 5 -30 11
0 6 -9 8 -20 4 -13 -4 -20 -2 -21 7 0 7 -4 3 -10 -10 -7 -18 -14 -22 -29 -17
-12 4 -20 2 -20 -5 0 -7 -8 -9 -20 -5 -12 4 -27 2 -35 -5 -10 -8 -18 -8 -34 1
-17 11 -23 10 -39 -4 -10 -9 -21 -14 -25 -11 -3 4 -20 1 -38 -6 -25 -11 -32
-11 -39 -1 -6 10 -13 9 -34 -5 -15 -9 -46 -19 -69 -21 -22 -3 -47 -12 -54 -21
-11 -16 -12 -16 -13 1 0 23 -14 21 -34 -6 -12 -15 -18 -18 -22 -9 -3 6 -10 10
-15 6 -5 -3 -9 1 -9 8 0 9 -3 10 -8 2 -11 -18 -105 -35 -114 -21 -8 12 -13 73
-8 92 2 6 3 24 4 40 1 23 5 29 19 27 9 -2 20 4 23 12 3 9 10 13 15 10 5 -3 7
-10 3 -15 -3 -6 4 -7 18 -4 33 8 61 9 79 1 13 -6 16 -2 12 18 -6 32 3 33 35 3
l24 -22 -4 25 c-2 14 2 25 9 25 6 0 15 3 19 8 14 14 33 7 36 -15 3 -21 4 -21
39 10 43 38 49 39 42 11 -5 -18 -3 -20 16 -14 15 5 21 2 21 -9 0 -9 5 -16 10
-16 14 0 12 28 -2 32 -10 4 -10 10 -1 31 13 28 40 39 30 12 -8 -19 13 -31 24
-14 8 12 10 12 18 0 8 -12 13 -11 30 10 20 24 20 24 35 4 8 -11 16 -15 16 -9
0 7 11 19 25 28 14 9 24 13 23 9 -5 -15 29 -11 63 7 9 5 20 5 25 0 11 -11 25
-3 48 30 10 14 16 17 13 8 -4 -10 -2 -20 3 -23 6 -4 10 -1 10 5 0 7 7 10 15 6
9 -3 15 0 15 10 0 12 6 15 25 10 16 -4 25 -2 25 5 0 7 9 9 24 5 19 -5 30 1 49
24 32 37 50 40 37 5 -6 -16 -6 -25 0 -25 6 0 10 4 10 9 0 5 10 13 23 17 12 4
28 15 35 26 16 22 34 15 25 -9 -5 -13 1 -12 26 6 26 19 35 21 41 10 7 -10 13
-8 28 11 18 22 22 23 48 11 24 -11 30 -10 41 5 6 9 18 14 26 11 7 -3 24 1 37
8 19 10 28 11 39 2 10 -9 16 -7 26 6 8 12 26 17 59 17 39 0 46 3 46 20 0 24
13 26 30 5 14 -16 31 -14 86 12 17 7 35 13 40 12 14 -3 48 13 57 28 12 20 30
15 24 -7 -6 -25 -7 -25 47 0 24 12 47 20 52 19 5 -1 23 4 39 11 28 13 60 19
113 21 15 1 22 8 23 23 0 11 3 15 6 9 6 -16 35 -17 51 -1 9 9 12 9 12 -1 0
-11 3 -11 15 -1 8 6 19 9 24 6 6 -4 15 3 21 14 6 12 17 19 25 17 7 -3 22 1 34
9 19 14 22 14 27 0 5 -14 8 -14 21 -1 16 17 33 20 33 5 0 -5 12 -3 28 5 41 21
64 28 100 30 18 1 38 10 46 20 15 21 67 29 77 13 8 -13 58 14 72 39 6 9 18 12
36 8 19 -4 34 0 51 15 27 24 46 21 43 -6 -1 -18 -1 -18 12 1 27 39 34 43 82
50 26 4 53 10 58 13 6 4 19 8 30 9 27 4 77 24 94 37 18 14 61 15 61 1 1 -5 10
1 21 15 22 26 48 32 62 15 4 -6 15 0 28 14 14 17 32 25 57 27 20 0 50 6 65 13
16 6 34 11 41 11 6 0 17 5 22 10 15 15 74 30 74 19 0 -5 7 -9 15 -9 8 0 15 7
15 15 0 17 12 19 26 5 7 -7 21 -1 42 20 37 35 56 39 47 10 -3 -11 -4 -20 0
-20 8 0 58 33 70 46 14 16 53 24 58 11 4 -13 67 14 87 38 13 15 40 21 40 8 0
-4 -10 -18 -22 -31 -21 -22 -21 -24 -3 -14 11 5 29 20 39 31 12 13 31 21 53
21 21 0 36 6 39 15 4 10 13 13 25 10 11 -4 19 -2 19 2 0 5 29 15 65 22 36 7
65 17 65 21 0 12 -110 21 -258 21 -75 0 -191 0 -257 0 -131 0 -224 -8 -245
-21 -8 -5 -18 -3 -26 4 -15 15 -74 9 -71 -7 1 -6 -8 -13 -20 -15 -16 -2 -23 2
-23 12 0 18 -17 19 -134 10 -61 -6 -76 -10 -74 -23 2 -8 -5 -17 -15 -19 -15
-3 -18 0 -12 17 5 18 2 21 -25 21 -27 0 -30 -3 -25 -20 6 -19 2 -20 -91 -19
-86 2 -94 3 -73 15 22 12 15 13 -61 14 -120 0 -193 -10 -180 -24 12 -15 1 -58
-13 -53 -6 2 -15 18 -20 36 -8 32 -10 33 -45 27 -20 -3 -57 -6 -81 -6 -24 0
-42 -2 -39 -5 3 -3 36 -6 74 -6 64 -1 67 -2 44 -15 -57 -32 -165 -49 -206 -34
-15 6 -24 6 -24 0 0 -6 12 -15 26 -21 15 -5 24 -12 21 -15 -11 -12 -82 33 -95
59 -14 29 -20 32 -42 17 -13 -8 -13 -10 1 -10 9 0 19 -7 23 -15 3 -9 0 -15 -8
-15 -8 0 -16 -9 -19 -20 -4 -17 -11 -19 -31 -14 -15 3 -32 1 -40 -5 -9 -8 -17
-8 -20 -2 -3 5 0 12 6 15 7 3 0 3 -17 0 -38 -7 -39 -8 -24 -32 11 -17 9 -26
-12 -56 -13 -20 -31 -35 -39 -34 -18 4 -26 38 -9 38 18 0 49 30 49 48 0 11 -8
13 -30 9 -22 -5 -30 -3 -30 7 0 8 6 16 13 19 6 2 9 8 5 12 -10 10 -38 -13 -38
-31 0 -18 -34 -18 -49 0 -14 17 -57 18 -72 0 -8 -10 -16 -10 -35 -2 -21 10
-27 8 -40 -10 -20 -29 -42 -28 -56 3 -14 31 -29 33 -25 3 1 -17 -4 -24 -22
-26 -21 -3 -23 -1 -19 23 4 17 2 23 -4 17 -14 -14 0 -72 16 -66 9 3 11 -4 8
-26 -4 -27 -22 -44 -22 -20 0 6 -9 10 -20 10 -11 0 -23 7 -26 15 -5 11 -12 6
-25 -20 -11 -20 -17 -40 -14 -46 9 -14 -23 -23 -38 -10 -8 6 -12 23 -9 42 l5
31 -27 -27 c-15 -15 -31 -23 -38 -19 -6 4 -21 -5 -34 -21 -24 -31 -23 -31 -39
20 -7 25 -23 17 -30 -15 -7 -31 -25 -51 -25 -28 -1 21 -28 51 -40 43 -9 -5 -9
-10 -1 -18 18 -18 13 -37 -10 -37 -27 0 -20 -24 9 -28 14 -2 19 -8 15 -18 -3
-9 0 -26 7 -39 11 -21 9 -27 -24 -59 -42 -43 -45 -56 -11 -56 18 0 25 5 25 18
0 11 9 27 20 37 19 17 20 17 26 -1 3 -11 9 -28 14 -40 9 -24 1 -41 -20 -41 -8
0 -27 -4 -41 -7 -21 -6 -30 -2 -50 23 -25 33 -47 39 -67 19 -9 -9 -12 -4 -13
22 -1 22 -3 27 -6 14 -2 -12 -15 -32 -28 -44 -20 -19 -27 -21 -39 -11 -9 7
-21 11 -28 8 -8 -4 -7 -6 5 -6 9 -1 17 -6 17 -12 0 -13 -73 -2 -78 12 -2 5
-10 9 -18 9 -8 0 -14 6 -14 13 -1 20 -30 -25 -30 -46 0 -19 1 -20 20 -2 23 21
39 12 24 -12 -21 -33 -40 -37 -62 -15 -24 24 -28 47 -12 57 6 3 17 20 26 36
l15 31 -31 -23 c-21 -16 -32 -34 -37 -61 -3 -21 -9 -41 -13 -43 -13 -8 -33 24
-27 45 7 28 -19 26 -38 -3 -11 -17 -25 -24 -51 -25 -35 -1 -36 -1 -30 28 3 17
1 30 -4 30 -14 0 -28 -31 -23 -51 8 -28 -17 -93 -30 -80 -8 8 -8 14 1 23 14
14 16 48 3 48 -6 0 -13 -5 -16 -10 -4 -6 -10 -8 -14 -5 -14 8 1 59 25 88 13
16 24 34 24 40 -1 28 -58 -58 -74 -113 -19 -63 -30 -72 -52 -42 -12 16 -13 16
-14 -4 0 -12 7 -27 15 -34 19 -16 19 -30 0 -30 -8 0 -15 5 -15 10 0 6 -7 10
-15 10 -9 0 -12 6 -9 15 4 8 4 22 0 30 -5 13 -9 13 -28 3 -12 -7 -28 -19 -34
-27 -6 -8 -16 -11 -22 -7 -5 3 -17 3 -26 0 -13 -5 -15 -14 -10 -40 4 -22 2
-34 -5 -34 -6 0 -11 8 -11 19 0 10 -7 24 -15 31 -17 14 -20 40 -5 40 6 0 10 7
10 15 0 8 -4 15 -9 15 -12 0 -22 -45 -15 -64 4 -9 1 -16 -6 -16 -9 0 -9 -4 -3
-12 20 -25 22 -65 9 -129 -8 -42 -18 -64 -27 -64 -19 0 -17 75 3 86 17 9 23
79 7 79 -5 0 -14 -10 -19 -22 -8 -18 -9 -13 -8 26 2 56 -16 74 -26 26 -3 -17
-10 -29 -15 -26 -4 3 -6 17 -3 31 6 32 -15 34 -23 2 -7 -26 -45 -56 -45 -35 0
6 -11 1 -25 -12 -20 -18 -28 -21 -37 -12 -7 7 -23 12 -36 12 -22 0 -23 -3 -17
-27 4 -16 7 -40 6 -56 -1 -15 3 -27 9 -27 5 0 10 4 10 9 0 11 50 44 56 38 7
-7 -57 -107 -68 -107 -6 0 -7 -17 -3 -39 4 -24 2 -47 -5 -58 -9 -14 -10 -1 -6
59 2 43 1 80 -3 83 -10 6 -10 -26 -10 1035 1 470 4 911 8 980 l8 125 1 -122
c1 -69 6 -125 12 -128 6 -4 11 6 11 22 1 17 3 21 6 11 3 -13 15 -18 44 -18 21
0 39 4 39 9 0 4 30 9 67 10 38 1 113 8 168 16 55 7 129 15 165 16 36 1 75 6
87 10 24 9 25 7 36 -56 2 -11 7 5 11 35 4 30 11 71 16 90 l9 35 -22 -28 c-22
-26 -57 -37 -57 -17 0 41 92 160 123 160 15 0 40 -24 32 -31 -5 -6 -13 -72
-19 -174 -5 -70 -4 -76 7 -49 7 17 18 29 25 27 8 -3 12 7 12 30 0 59 35 156
67 183 39 33 85 32 113 -3 21 -26 22 -35 17 -148 -5 -132 5 -128 22 9 6 48 13
91 16 96 10 16 43 11 54 -7 6 -10 11 -13 11 -6 0 7 12 19 27 27 31 16 73 3 73
-22 0 -11 8 -8 28 11 19 18 39 27 60 27 44 0 54 -30 47 -138 -7 -97 9 -105 19
-10 9 73 24 106 66 142 36 30 45 31 82 12 23 -12 27 -12 32 0 3 8 17 14 32 14
l26 0 -7 -77 c-3 -43 -8 -89 -10 -103 -3 -19 0 -17 12 10 l16 35 346 -3 c201
-2 347 -7 349 -13 2 -5 39 -9 83 -9 44 0 79 -4 79 -10 0 -5 36 -9 82 -9 46 1
94 -2 108 -6 14 -4 55 -9 92 -11 37 -1 72 -5 77 -8 5 -3 69 -9 143 -12 73 -4
135 -10 136 -15 2 -5 32 -9 67 -9 35 0 67 -5 70 -10 4 -6 11 -8 16 -5 5 4 9 1
9 -4 0 -6 12 -11 28 -11 15 -1 68 -10 117 -21 50 -11 119 -24 155 -29 36 -4
94 -15 130 -23 36 -9 90 -19 120 -22 30 -3 65 -12 76 -20 12 -7 43 -16 70 -19
27 -2 67 -11 89 -19 22 -9 67 -18 100 -21 117 -13 129 -16 158 -43 21 -19 28
-23 24 -10 -4 9 -2 17 3 17 6 0 10 -4 10 -8 0 -4 13 -13 29 -19 25 -9 31 -8
34 6 2 9 2 -4 0 -29 -4 -37 -2 -43 8 -32 7 6 16 33 19 60 4 39 9 47 25 47 18
0 20 -7 20 -52 -1 -91 25 -54 34 50 1 4 10 7 21 7 14 0 20 -7 20 -21 0 -18 4
-20 33 -14 17 4 36 14 40 21 11 19 36 18 43 -1 7 -17 34 -21 34 -5 0 6 -4 10
-10 10 -16 0 -11 30 6 37 21 8 36 -17 22 -35 -7 -8 -8 -16 -1 -23 7 -7 14 -5
23 6 15 18 57 20 62 3 3 -9 9 -8 22 4 11 11 27 16 48 13 47 -6 130 15 118 30
-12 15 6 32 32 32 17 0 14 -26 -5 -38 -5 -4 -6 -12 -2 -19 5 -8 12 -7 25 5 11
10 31 15 52 13 l33 -3 -3 -57 c-3 -46 -1 -58 11 -58 10 0 16 17 20 60 8 74 40
140 67 140 19 0 19 -1 -1 -57 -10 -31 -18 -77 -18 -102 l1 -46 13 63 c14 72
10 66 53 80 27 9 32 9 32 -5 0 -15 2 -15 18 0 23 21 36 21 56 1 13 -13 16 -13
16 -1 0 9 14 17 36 20 42 7 64 0 64 -20 0 -10 7 -6 21 12 16 19 28 26 45 22
20 -3 23 1 26 27 2 23 8 31 23 31 16 0 20 -6 18 -28 -2 -24 1 -27 18 -22 12 4
21 1 25 -10 6 -14 8 -14 24 0 9 8 34 17 56 19 21 1 47 6 57 11 25 10 47 -1 47
-25 0 -14 -7 -20 -22 -20 -21 -1 -22 -2 -5 -14 9 -7 17 -18 17 -25 0 -6 5 -11
11 -11 8 0 10 25 7 81 -4 64 -2 82 10 86 18 8 32 -14 32 -52 0 -38 16 -65 28
-48 4 7 19 15 32 17 14 2 25 5 25 6 0 3 42 10 98 16 31 4 57 11 57 16 0 5 4 7
9 4 4 -3 17 1 27 9 13 10 46 14 107 15 65 0 89 4 93 14 3 7 24 17 47 20 23 4
49 14 59 22 9 9 34 16 55 16 21 0 32 3 25 5 -6 3 -10 9 -6 14 3 5 15 3 27 -6
27 -19 38 -19 31 -1 -4 10 2 12 21 8 17 -3 31 1 36 9 8 12 11 12 19 -1 5 -9
10 -10 10 -3 0 6 18 14 40 18 22 4 40 11 40 16 0 5 10 9 23 9 13 0 28 5 33 10
6 6 35 13 65 17 30 3 65 11 79 18 14 6 45 13 70 14 24 1 47 6 50 11 3 5 27 10
53 11 27 2 50 6 53 11 6 9 92 34 139 41 69 11 161 30 180 38 23 11 42 15 135
34 36 7 72 15 80 18 8 3 33 8 55 11 22 3 56 12 75 20 43 19 40 18 77 6z
m-3243 -36 c9 -23 8 -24 -14 -24 -19 0 -27 20 -13 33 11 11 20 8 27 -9z m-68
-12 c6 -4 13 -15 17 -24 4 -11 13 -15 26 -11 13 3 21 1 21 -8 0 -8 9 -4 23 9
28 26 35 27 58 6 16 -14 19 -14 37 4 13 13 28 19 41 15 27 -7 27 -31 0 -41
-19 -7 -19 -9 -5 -21 31 -26 12 -91 -27 -91 -13 0 -28 5 -33 10 -8 8 -15 6
-24 -5 -18 -22 -46 -19 -64 7 -16 22 -16 22 -16 -13 0 -41 -29 -75 -56 -65
-14 6 -15 9 -1 29 8 12 17 38 20 57 6 33 5 33 -5 9 -13 -31 -55 -57 -81 -52
-20 5 -47 52 -47 83 0 26 35 97 52 103 20 8 52 8 64 -1z m-152 -58 c22 -21 20
-38 -7 -70 l-24 -27 -22 22 c-16 16 -20 28 -15 44 14 48 40 59 68 31z m-3107
-26 c-3 -8 -6 -5 -6 6 -1 11 2 17 5 13 3 -3 4 -12 1 -19z m5173 -8 c0 -21 15
-27 25 -10 7 12 75 14 75 3 1 -5 2 -37 2 -73 l2 -65 -42 -2 c-22 -2 -44 2 -47
8 -4 6 -12 4 -20 -7 -19 -26 -45 -10 -46 28 -2 32 -2 32 -8 -6 -4 -28 -11 -40
-25 -42 -16 -2 -17 3 -11 52 4 36 3 54 -4 54 -6 0 -11 -19 -11 -42 0 -58 -8
-66 -65 -72 -43 -4 -52 -2 -67 17 l-18 22 0 -31 c0 -63 -82 -99 -102 -45 -8
22 -7 23 22 18 35 -8 40 4 8 18 -19 8 -23 18 -22 53 1 42 -9 55 -20 26 -3 -9
-6 -31 -6 -49 0 -19 -5 -37 -10 -40 -20 -12 -103 -15 -116 -4 -11 9 -14 8 -14
-3 0 -9 -9 -27 -21 -42 -26 -34 -89 -38 -89 -6 0 16 7 20 30 20 17 0 30 4 30
10 0 5 -6 7 -14 4 -22 -9 -50 40 -41 73 12 52 33 73 70 73 20 0 35 -5 35 -12
0 -6 8 -4 19 6 13 12 30 16 53 13 18 -2 46 1 61 6 20 6 32 6 40 -2 8 -8 15 -7
25 2 17 14 72 16 72 3 0 -5 8 -2 18 7 11 11 30 15 50 13 17 -3 48 0 67 5 26 7
40 7 50 -1 11 -9 15 -7 21 14 8 32 44 37 44 6z m-7935 -79 c33 -34 65 -61 72
-61 19 0 18 -129 -1 -136 -12 -5 -12 -10 0 -39 16 -39 18 -111 5 -169 -13 -53
-25 -63 -56 -46 -54 29 -100 186 -93 317 2 37 -1 63 -7 63 -6 0 -11 -37 -13
-85 -1 -47 -6 -85 -9 -85 -4 0 -15 7 -25 17 -14 13 -18 31 -18 87 0 98 16 188
36 203 22 16 39 6 109 -66z m7075 19 c0 -13 -7 -20 -20 -20 -22 0 -28 25 -7
33 22 10 27 7 27 -13z m-447 -60 l-2 -43 20 22 c25 27 49 24 65 -8 16 -32 9
-47 -28 -60 -32 -11 -31 -32 2 -24 15 4 20 0 20 -16 0 -33 -48 -40 -72 -11
-17 21 -18 21 -18 2 0 -15 -9 -21 -37 -26 -32 -5 -41 -2 -56 17 -29 37 5 134
47 131 9 -1 16 5 16 13 0 24 20 55 33 50 7 -2 11 -21 10 -47z m641 34 c20 -19
20 -66 1 -103 -19 -37 -42 -45 -71 -26 -31 20 -33 81 -3 119 23 29 50 33 73
10z m-114 -18 c0 -6 -11 -28 -25 -49 -25 -36 -25 -37 -5 -37 13 0 20 -7 20
-20 0 -21 -44 -34 -96 -28 -28 3 -29 4 -26 57 5 68 -15 61 -24 -10 -7 -55 -8
-55 -72 -62 -35 -4 -47 -1 -62 16 l-20 21 0 -23 c0 -16 -5 -21 -17 -19 -15 3
-18 13 -16 56 2 32 -1 50 -7 47 -6 -3 -10 -26 -10 -49 0 -44 -19 -74 -40 -61
-11 7 -12 61 -1 109 5 23 14 32 41 39 29 7 37 6 51 -12 16 -20 16 -20 29 4 11
20 20 24 59 24 60 -1 183 9 188 15 8 8 33 -6 33 -18z m-793 -1 c3 -9 -2 -24
-10 -33 -15 -16 -15 -19 3 -30 11 -7 20 -9 20 -5 0 11 61 29 81 25 20 -4 26
-31 19 -97 -4 -37 -9 -51 -22 -53 -16 -3 -18 5 -18 54 0 71 -17 62 -22 -12 -2
-43 -6 -50 -20 -46 -10 2 -18 12 -19 21 0 12 -4 11 -16 -6 -16 -24 -57 -31
-69 -11 -5 8 -10 7 -18 -4 -16 -21 -166 -34 -178 -16 -6 10 -11 9 -19 -4 -5
-10 -21 -18 -34 -18 -13 0 -29 8 -34 18 -10 16 -10 16 -11 -1 0 -13 -6 -17
-22 -15 -21 3 -23 8 -20 47 l4 44 -23 -17 c-13 -9 -28 -33 -34 -54 -6 -21 -17
-37 -25 -37 -12 0 -14 14 -12 74 2 41 8 84 12 96 13 33 55 38 83 9 12 -13 27
-24 34 -24 7 0 10 -7 6 -17 -3 -10 4 -6 16 10 22 27 71 38 71 16 0 -8 4 -8 15
1 8 7 41 13 74 15 33 2 69 6 80 10 16 5 21 2 21 -11 0 -16 1 -16 20 1 11 10
20 24 20 32 0 20 19 53 31 53 5 0 12 -7 16 -15z m-357 -56 c0 -14 -5 -19 -17
-17 -26 5 -29 38 -4 38 15 0 21 -6 21 -21z m-180 -69 c18 -33 -8 -75 -45 -75
-26 0 -30 4 -33 31 -5 55 54 88 78 44z m1605 -40 c3 -5 -1 -10 -9 -10 -9 0
-16 5 -16 10 0 6 4 10 9 10 6 0 13 -4 16 -10z m-85 -20 c0 -5 -7 -10 -15 -10
-8 0 -15 5 -15 10 0 6 7 10 15 10 8 0 15 -4 15 -10z m-460 -10 c0 -5 -2 -10
-4 -10 -3 0 -8 5 -11 10 -3 6 -1 10 4 10 6 0 11 -4 11 -10z m190 -5 c0 -8 -4
-15 -10 -15 -5 0 -10 7 -10 15 0 8 5 15 10 15 6 0 10 -7 10 -15z m-7159 -187
c52 -57 111 -121 131 -143 35 -37 38 -45 38 -97 0 -42 -4 -58 -13 -58 -8 0
-38 28 -68 62 -30 35 -91 101 -136 147 -80 81 -83 86 -83 131 0 88 17 83 131
-42z m-93 -135 c5 -10 12 -70 14 -133 4 -106 7 -120 37 -176 39 -73 122 -160
145 -151 13 5 16 25 16 116 0 91 2 109 14 105 30 -11 39 -61 34 -187 -5 -139
-21 -187 -63 -187 -42 0 -137 109 -183 210 -36 80 -43 122 -49 273 -5 130 -4
147 10 147 9 0 20 -8 25 -17z m9302 -203 c0 -5 -5 -10 -11 -10 -5 0 -7 5 -4
10 3 6 8 10 11 10 2 0 4 -4 4 -10z m-115 -50 c75 -42 98 -74 110 -150 6 -40 3
-51 -26 -94 -34 -51 -112 -115 -141 -116 -9 0 -19 -4 -22 -9 -11 -17 -127 -34
-199 -28 -82 6 -118 22 -165 70 -102 106 -32 261 150 329 64 25 84 28 163 25
70 -3 99 -9 130 -27z m95 9 c0 -5 -4 -9 -10 -9 -5 0 -10 7 -10 16 0 8 5 12 10
9 6 -3 10 -10 10 -16z m-607 -146 c3 -5 -1 -14 -9 -21 -12 -11 -14 -9 -14 8 0
20 14 27 23 13z m-318 -53 c3 -5 1 -10 -4 -10 -6 0 -11 5 -11 10 0 6 2 10 4
10 3 0 8 -4 11 -10z m225 -22 c0 -19 -18 -43 -32 -44 -32 -2 -38 -4 -38 -12 0
-4 14 -16 31 -26 28 -17 31 -22 26 -54 -4 -19 -17 -46 -29 -59 -19 -20 -30
-24 -60 -20 -21 3 -41 1 -44 -4 -3 -5 -14 -9 -25 -9 -14 0 -19 7 -19 26 0 21
-4 25 -22 22 -13 -2 -28 -15 -36 -30 -12 -26 -47 -46 -59 -34 -4 3 6 36 20 73
14 38 32 86 39 108 14 46 33 65 63 65 19 0 22 -9 34 -92 10 -72 16 -89 25 -77
6 8 21 13 34 11 30 -5 28 5 -8 38 -25 24 -30 34 -24 57 13 57 31 73 79 73 29
0 45 -4 45 -12z m887 -30 c-3 -8 -6 -5 -6 6 -1 11 2 17 5 13 3 -3 4 -12 1 -19z
m48 -28 c3 -5 1 -10 -4 -10 -6 0 -11 5 -11 10 0 6 2 10 4 10 3 0 8 -4 11 -10z
m-1607 -92 c-2 -120 -17 -143 -98 -151 l-25 -2 1 109 c2 123 4 126 76 126 l48
0 -2 -82z m-164 41 c-1 -13 2 -44 6 -69 23 -122 23 -119 -5 -132 -24 -11 -25
-13 -10 -24 19 -14 12 -34 -10 -34 -9 0 -12 6 -9 15 4 8 1 15 -4 15 -6 0 -9
15 -6 35 4 31 2 35 -18 35 -15 0 -29 -11 -40 -30 -9 -17 -24 -30 -32 -30 -16
0 -46 -48 -46 -75 0 -27 17 -16 26 17 10 34 37 53 31 21 -10 -48 -27 -73 -51
-73 -15 0 -26 -7 -29 -17 -3 -10 -5 -2 -6 17 l-2 35 -12 -28 -12 -28 -22 21
c-13 11 -23 26 -23 33 0 6 -7 1 -16 -11 -8 -12 -20 -20 -25 -17 -13 8 -11 45
2 45 5 0 9 8 8 18 -3 30 1 43 10 38 4 -3 6 -17 3 -31 -3 -18 0 -25 12 -25 9 0
16 8 16 20 0 27 16 25 24 -2 3 -14 9 -19 13 -13 5 6 20 18 35 28 15 9 31 30
34 45 4 15 11 32 16 38 5 7 21 49 37 95 25 76 31 85 57 90 41 9 49 5 48 -22z
m979 -25 c8 -8 -3 -34 -14 -34 -5 0 -9 9 -9 20 0 19 11 26 23 14z m-1264 -46
c0 -7 -4 -22 -9 -33 -7 -17 -9 -15 -9 13 -1 17 4 32 9 32 6 0 10 -6 9 -12z
m-2224 -8 c3 -5 1 -10 -4 -10 -6 0 -11 5 -11 10 0 6 2 10 4 10 3 0 8 -4 11
-10z m-512 -17 c-7 -2 -21 -2 -30 0 -10 3 -4 5 12 5 17 0 24 -2 18 -5z m-533
-27 c0 -7 -9 -16 -20 -19 -13 -3 -20 0 -20 9 0 8 -4 14 -10 14 -5 0 -10 -11
-10 -25 0 -31 -16 -33 -23 -3 -7 27 7 38 51 38 21 0 32 -5 32 -14z m4177 -8
c-3 -8 -6 -5 -6 6 -1 11 2 17 5 13 3 -3 4 -12 1 -19z m-104 -41 c4 -10 -2 -13
-20 -9 -18 3 -21 7 -11 13 18 12 25 11 31 -4z m50 -7 c-3 -12 -6 -19 -7 -18
-1 2 -8 11 -15 21 -12 15 -11 17 7 17 15 0 19 -5 15 -20z m-4138 -10 c3 -5 1
-10 -4 -10 -6 0 -11 5 -11 10 0 6 2 10 4 10 3 0 8 -4 11 -10z m2851 -27 c-11
-11 -19 6 -11 24 8 17 8 17 12 0 3 -10 2 -21 -1 -24z m398 22 c-4 -8 -8 -15
-10 -15 -2 0 -4 7 -4 15 0 8 4 15 10 15 5 0 7 -7 4 -15z m-3494 -5 c0 -5 -5
-10 -11 -10 -5 0 -7 5 -4 10 3 6 8 10 11 10 2 0 4 -4 4 -10z m3980 -10 c0 -11
-4 -20 -10 -20 -5 0 -10 9 -10 20 0 11 5 20 10 20 6 0 10 -9 10 -20z m343 -6
c-7 -20 -30 -17 -35 4 -4 15 -1 18 18 14 14 -2 21 -9 17 -18z m-4217 -11 c-10
-10 -19 5 -10 18 6 11 8 11 12 0 2 -7 1 -15 -2 -18z m464 17 c0 -5 -2 -10 -4
-10 -3 0 -8 5 -11 10 -3 6 -1 10 4 10 6 0 11 -4 11 -10z m3462 -35 c-1 -19 3
-35 8 -35 12 0 13 -37 1 -44 -13 -8 -34 69 -27 99 9 36 20 24 18 -20z m-3682
15 c0 -5 -4 -10 -10 -10 -5 0 -10 5 -10 10 0 6 5 10 10 10 6 0 10 -4 10 -10z
m2900 -35 c0 -14 -4 -25 -9 -25 -4 0 -6 11 -3 25 2 14 6 25 8 25 2 0 4 -11 4
-25z m213 0 c-3 -8 -9 -15 -14 -15 -10 0 -12 24 -3 33 11 11 24 -3 17 -18z
m-417 -57 c2 -16 -1 -28 -6 -28 -6 0 -10 -7 -10 -15 0 -22 16 -18 33 8 8 12
29 27 47 34 28 11 31 10 25 -5 -8 -21 -15 -49 -19 -81 -2 -13 -9 -27 -16 -31
-6 -4 -15 -23 -19 -41 -5 -27 -12 -35 -33 -37 -25 -3 -27 0 -33 52 -4 30 -4
59 -1 65 4 5 2 12 -4 16 -5 3 -12 -6 -16 -20 -3 -14 -12 -25 -19 -25 -21 0
-26 16 -10 30 8 7 15 18 15 26 0 7 9 18 21 24 12 7 18 18 15 26 -3 8 -3 28 1
46 6 31 6 31 16 7 5 -13 11 -36 13 -51z m681 50 c-3 -8 -6 -5 -6 6 -1 11 2 17
5 13 3 -3 4 -12 1 -19z m-4363 -12 c-5 -13 -14 -16 -30 -12 -17 5 -24 2 -24
-8 0 -16 -19 -25 -37 -18 -19 6 -16 30 5 41 9 5 29 7 43 4 15 -3 30 0 34 7 10
16 17 6 9 -14z m546 -1 c0 -8 -4 -15 -10 -15 -5 0 -10 7 -10 15 0 8 5 15 10
15 6 0 10 -7 10 -15z m3893 8 c-7 -2 -19 -2 -25 0 -7 3 -2 5 12 5 14 0 19 -2
13 -5z m-4050 -17 c3 -8 -1 -20 -9 -26 -9 -8 -14 -9 -14 -2 0 6 -3 17 -6 26
-4 10 -1 16 9 16 8 0 17 -6 20 -14z m367 -1 c0 -8 -4 -15 -10 -15 -5 0 -10 7
-10 15 0 8 5 15 10 15 6 0 10 -7 10 -15z m3160 -43 c-10 -43 -15 -51 -41 -56
-16 -3 -29 -10 -29 -16 0 -6 -9 -20 -19 -31 -19 -20 -19 -20 -35 12 -20 41
-13 89 14 89 10 0 21 -6 24 -12 5 -10 7 -10 12 0 3 6 12 12 19 12 7 0 24 13
37 29 13 15 25 27 27 25 2 -2 -2 -25 -9 -52z m-70 18 c0 -5 -9 -10 -21 -10
-11 0 -17 5 -14 10 3 6 13 10 21 10 8 0 14 -4 14 -10z m-3715 -10 c-3 -5 -10
-10 -16 -10 -5 0 -9 5 -9 10 0 6 7 10 16 10 8 0 12 -4 9 -10z m240 -20 c3 -5
-1 -10 -10 -10 -9 0 -13 5 -10 10 3 6 8 10 10 10 2 0 7 -4 10 -10z m3160 4
c14 -6 14 -9 0 -30 -9 -14 -19 -54 -22 -89 -5 -53 -9 -65 -23 -65 -15 0 -17 8
-14 60 2 33 10 73 18 89 9 16 12 31 9 35 -8 8 11 8 32 0z m75 -8 c0 -8 -4 -17
-9 -21 -12 -7 -24 12 -16 25 9 15 25 12 25 -4z m717 -8 c-3 -8 -6 -5 -6 6 -1
11 2 17 5 13 3 -3 4 -12 1 -19z m-4637 -19 c0 -5 -7 -9 -15 -9 -15 0 -20 12
-9 23 8 8 24 -1 24 -14z m115 11 c-3 -5 -10 -10 -16 -10 -5 0 -9 5 -9 10 0 6
7 10 16 10 8 0 12 -4 9 -10z m-38 -42 c-3 -8 -6 -5 -6 6 -1 11 2 17 5 13 3 -3
4 -12 1 -19z m3803 -3 c0 -7 8 -18 17 -23 21 -12 46 -93 33 -106 -10 -10 -14
4 -11 32 2 10 -2 10 -18 0 -12 -7 -21 -16 -21 -20 0 -5 -6 -8 -14 -8 -18 0
-29 59 -15 76 6 8 8 21 5 30 -3 9 -4 20 0 25 8 14 24 11 24 -6z m-4011 -17 c6
-10 9 -18 5 -18 -11 0 -44 21 -44 29 0 15 27 8 39 -11z m96 2 c3 -5 1 -10 -4
-10 -6 0 -11 5 -11 10 0 6 2 10 4 10 3 0 8 -4 11 -10z m75 -4 c0 -8 -4 -17 -9
-21 -12 -7 -24 12 -16 25 9 15 25 12 25 -4z m630 5 c0 -12 -20 -25 -27 -18 -7
7 6 27 18 27 5 0 9 -4 9 -9z m-434 -49 c-12 -11 -18 7 -10 30 l8 23 4 -23 c2
-13 1 -26 -2 -30z m217 26 c6 -18 -12 -50 -24 -43 -15 10 -11 55 5 55 8 0 16
-6 19 -12z m-377 -38 c-3 -19 -2 -29 4 -25 6 3 10 1 10 -4 0 -13 -37 -15 -45
-2 -7 12 15 61 28 61 5 0 7 -13 3 -30z m287 24 c3 -3 3 -12 0 -20 -4 -11 -9
-12 -19 -3 -8 6 -14 15 -14 20 0 10 24 12 33 3z m-469 -58 c6 -30 14 -45 22
-42 7 2 15 -5 18 -17 9 -33 7 -37 -9 -37 -8 0 -15 6 -15 14 0 8 -9 21 -21 29
-17 13 -19 19 -10 36 10 18 9 21 -9 21 -20 0 -28 28 -13 44 15 14 28 -3 37
-48z m274 23 c-3 -8 -7 -3 -11 10 -4 17 -3 21 5 13 5 -5 8 -16 6 -23z m122
-15 c0 -8 -4 -12 -10 -9 -5 3 -10 13 -10 21 0 8 5 12 10 9 6 -3 10 -13 10 -21z
m-276 -6 c-4 -6 -7 -26 -6 -45 1 -18 -2 -33 -7 -33 -9 0 -13 78 -5 92 3 5 10
6 15 2 5 -3 6 -10 3 -16z m-45 -43 c-12 -12 -29 11 -29 40 0 18 2 18 20 -5 12
-16 16 -28 9 -35z m181 33 c0 -13 -23 -5 -28 10 -2 7 2 10 12 6 9 -3 16 -11
16 -16z m-428 -125 c-9 -7 -21 -13 -28 -13 -7 0 -15 -8 -17 -17 -3 -11 -5 -8
-6 9 -1 18 9 36 27 53 l27 25 6 -22 c4 -15 0 -28 -9 -35z m-172 12 c0 -8 -7
-15 -15 -15 -8 0 -15 7 -15 15 0 8 7 15 15 15 8 0 15 -7 15 -15z m-200 -14 c0
-6 -4 -13 -10 -16 -5 -3 -10 1 -10 9 0 9 5 16 10 16 6 0 10 -4 10 -9z m-45
-21 c3 -5 2 -10 -4 -10 -5 0 -13 5 -16 10 -3 6 -2 10 4 10 5 0 13 -4 16 -10z
m70 -10 c-3 -5 -10 -10 -16 -10 -5 0 -9 5 -9 10 0 6 7 10 16 10 8 0 12 -4 9
-10z m-225 -30 c0 -11 -7 -20 -15 -20 -15 0 -21 21 -8 33 12 13 23 7 23 -13z
m127 -32 c-3 -8 -6 -5 -6 6 -1 11 2 17 5 13 3 -3 4 -12 1 -19z m-312 -7 c3 -5
1 -12 -5 -16 -5 -3 -10 1 -10 9 0 18 6 21 15 7z m67 -23 c15 15 28 15 28 1 0
-11 -40 -48 -52 -49 -5 0 -8 6 -8 14 0 8 -5 16 -12 18 -7 3 -9 12 -4 24 7 19
8 19 22 0 11 -16 17 -17 26 -8z m518 18 c0 -3 -4 -8 -10 -11 -5 -3 -10 -1 -10
4 0 6 5 11 10 11 6 0 10 -2 10 -4z m-549 -129 c-6 -6 -11 -19 -11 -29 0 -10
-7 -18 -15 -18 -8 0 -15 2 -15 4 0 2 -3 11 -6 20 -4 12 0 16 15 16 12 0 21 6
21 16 0 8 5 12 11 8 8 -4 8 -9 0 -17z m-85 -44 c-5 -12 -10 -13 -17 -6 -8 8
-7 16 2 26 16 17 24 5 15 -20z m-199 -21 c-17 -17 -51 -9 -44 11 2 6 14 11 25
9 15 -2 22 2 23 15 1 17 2 17 6 -1 3 -10 -2 -25 -10 -34z m72 39 c7 -5 12 -14
9 -21 -2 -8 -11 -5 -28 9 -17 14 -20 20 -10 21 8 0 21 -4 29 -9z m279 -28 c-5
-25 -28 -28 -28 -4 0 12 6 21 16 21 9 0 14 -7 12 -17z m-367 -86 c-6 -15 -15
-27 -21 -27 -15 0 -12 18 8 52 19 34 29 16 13 -25z m59 43 c0 -5 -4 -10 -10
-10 -5 0 -10 5 -10 10 0 6 5 10 10 10 6 0 10 -4 10 -10z m100 -47 c0 -20 -3
-24 -11 -16 -7 7 -9 19 -6 27 10 24 17 19 17 -11z m130 -13 c0 -5 -5 -10 -11
-10 -5 0 -7 5 -4 10 3 6 8 10 11 10 2 0 4 -4 4 -10z m-145 -30 c3 -5 2 -10 -4
-10 -5 0 -13 5 -16 10 -3 6 -2 10 4 10 5 0 13 -4 16 -10z m440 -160 c3 -5 1
-10 -4 -10 -6 0 -11 5 -11 10 0 6 2 10 4 10 3 0 8 -4 11 -10z"/>
<path d="M2944 6741 c-240 -38 -429 -201 -484 -416 -25 -99 -25 -149 1 -247
33 -121 102 -220 204 -293 215 -153 490 -159 717 -16 243 153 320 462 175 702
-69 115 -228 230 -358 258 -67 15 -197 21 -255 12z m191 -57 c9 -9 15 -29 13
-48 -1 -17 2 -37 6 -44 7 -12 -10 -52 -28 -64 -6 -4 -46 -8 -88 -8 l-78 0 0
68 c0 37 -3 77 -6 90 -6 22 -5 22 79 22 65 0 89 -4 102 -16z m-18 -264 c23
-41 41 -82 40 -90 -3 -18 -44 -15 -64 5 -16 17 -91 17 -101 0 -11 -18 -52 -26
-58 -10 -5 12 52 129 79 163 6 7 22 12 36 10 20 -2 34 -19 68 -78z m-445 -140
c22 -16 25 -28 26 -80 1 -52 -2 -62 -21 -74 -18 -12 -104 -21 -164 -17 -9 1
-13 26 -13 89 0 49 3 92 7 95 3 4 36 7 73 7 52 0 73 -5 92 -20z m232 -61 c25
-45 46 -87 46 -95 0 -19 -56 -18 -64 1 -7 21 -84 20 -107 -1 -9 -8 -29 -14
-44 -12 l-26 3 31 60 c58 109 70 125 95 125 19 0 32 -15 69 -81z m109 45 l34
-36 28 36 c20 27 35 36 56 36 39 0 37 -13 -10 -69 -26 -30 -41 -59 -43 -81 -3
-31 -6 -35 -33 -35 -27 0 -30 4 -33 34 -2 22 -18 51 -44 82 -22 26 -37 52 -33
58 12 21 44 11 78 -25z m345 9 c3 -22 0 -23 -57 -23 -77 0 -80 -18 -3 -22 49
-3 57 -6 57 -23 0 -17 -9 -21 -60 -26 -67 -6 -64 -11 10 -13 46 -1 50 -3 50
-26 0 -25 -1 -25 -85 -25 l-85 0 -3 79 c-2 44 -1 85 2 93 4 11 25 13 88 11 77
-3 83 -5 86 -25z m212 7 c24 -24 26 -57 3 -82 -15 -17 -15 -20 6 -42 13 -14
20 -29 16 -35 -12 -21 -47 -11 -80 25 -33 34 -60 39 -48 9 3 -9 0 -22 -7 -30
-14 -17 -50 -20 -50 -5 -1 6 -1 44 -1 85 0 41 0 80 1 85 0 6 30 10 70 10 57 0
74 -4 90 -20z m-435 -215 c0 -18 -8 -20 -63 -23 -34 -2 -60 -7 -57 -12 3 -4
22 -6 44 -3 45 6 83 -10 75 -32 -5 -11 -22 -15 -60 -15 -72 0 -69 -18 4 -22
50 -3 57 -6 60 -25 3 -20 -1 -23 -35 -24 -21 -1 -60 -3 -86 -4 -61 -2 -67 9
-60 109 l6 77 86 -3 c78 -3 86 -5 86 -23z m-1 -201 c21 -20 20 -58 0 -79 -15
-15 -15 -18 10 -44 29 -31 26 -41 -15 -41 -18 0 -36 10 -53 31 -29 35 -61 36
-61 2 0 -33 -18 -47 -44 -34 -18 10 -21 21 -21 81 0 101 -1 100 90 100 58 0
83 -4 94 -16z"/>
<path d="M3028 6643 c12 -2 30 -2 40 0 9 3 -1 5 -23 4 -22 0 -30 -2 -17 -4z"/>
<path d="M3020 6580 c0 -5 16 -10 35 -10 19 0 35 5 35 10 0 6 -16 10 -35 10
-19 0 -35 -4 -35 -10z"/>
<path d="M3036 6423 c-11 -11 -6 -23 9 -23 8 0 15 4 15 9 0 13 -16 22 -24 14z"/>
<path d="M2560 6239 c0 -5 16 -9 36 -9 19 0 33 4 30 8 -7 12 -66 13 -66 1z"/>
<path d="M2560 6170 c0 -5 18 -10 40 -10 22 0 40 5 40 10 0 6 -18 10 -40 10
-22 0 -40 -4 -40 -10z"/>
<path d="M2826 6213 c-11 -11 -6 -23 9 -23 8 0 15 4 15 9 0 13 -16 22 -24 14z"/>
<path d="M3470 6240 c0 -5 11 -10 25 -10 14 0 25 5 25 10 0 6 -11 10 -25 10
-14 0 -25 -4 -25 -10z"/>
<path d="M3020 5820 c0 -5 11 -10 24 -10 14 0 28 5 31 10 4 6 -7 10 -24 10
-17 0 -31 -4 -31 -10z"/>
<path d="M504 6035 c-7 -18 12 -45 32 -45 17 0 18 32 2 48 -16 16 -27 15 -34
-3z"/>
<path d="M8068 5078 c-3 -15 -2 -32 2 -38 10 -17 19 21 10 45 -6 17 -7 16 -12
-7z"/>
<path d="M7992 5055 c0 -16 2 -22 5 -12 2 9 2 23 0 30 -3 6 -5 -1 -5 -18z"/>
<path d="M8028 5013 c7 -3 16 -2 19 1 4 3 -2 6 -13 5 -11 0 -14 -3 -6 -6z"/>
<path d="M467 4983 c-12 -12 -6 -127 8 -158 7 -16 14 -25 15 -20 0 6 3 49 6
98 4 70 3 87 -9 87 -7 0 -17 -3 -20 -7z"/>
<path d="M7581 4969 c-37 -15 -67 -53 -90 -114 -12 -31 -21 -58 -21 -60 0 -3
56 -5 125 -5 152 0 165 7 165 94 0 47 -4 57 -26 75 -29 23 -108 28 -153 10z"/>
<path d="M3950 4557 c-83 -34 -130 -115 -130 -225 0 -44 4 -54 25 -68 34 -22
93 -27 144 -12 50 15 45 6 96 193 15 55 30 108 32 118 5 15 -2 17 -53 17 -37
-1 -79 -9 -114 -23z"/>
<path d="M9572 3980 c0 -14 2 -19 5 -12 2 6 2 18 0 25 -3 6 -5 1 -5 -13z"/>
<path d="M9656 3991 c-4 -7 -5 -15 -2 -18 9 -9 19 4 14 18 -4 11 -6 11 -12 0z"/>
<path d="M9216 3981 c-4 -5 -2 -12 3 -15 5 -4 12 -2 15 3 4 5 2 12 -3 15 -5 4
-12 2 -15 -3z"/>
<path d="M9481 3974 c0 -11 3 -14 6 -6 3 7 2 16 -1 19 -3 4 -6 -2 -5 -13z"/>
<path d="M9312 3960 c0 -14 2 -19 5 -12 2 6 2 18 0 25 -3 6 -5 1 -5 -13z"/>
<path d="M9397 3973 c-4 -3 -7 -16 -6 -27 0 -19 1 -19 10 3 10 24 8 36 -4 24z"/>
<path d="M9700 3970 c0 -5 5 -10 10 -10 6 0 10 5 10 10 0 6 -4 10 -10 10 -5 0
-10 -4 -10 -10z"/>
<path d="M9054 3955 c-7 -17 4 -37 17 -30 12 8 12 45 -1 45 -6 0 -13 -7 -16
-15z"/>
<path d="M9122 3950 c0 -14 2 -19 5 -12 2 6 2 18 0 25 -3 6 -5 1 -5 -13z"/>
<path d="M8960 3941 c0 -25 6 -27 13 -6 4 8 2 17 -3 20 -6 4 -10 -3 -10 -14z"/>
<path d="M9170 3940 c0 -5 5 -10 11 -10 5 0 7 5 4 10 -3 6 -8 10 -11 10 -2 0
-4 -4 -4 -10z"/>
<path d="M8772 3930 c0 -14 2 -19 5 -12 2 6 2 18 0 25 -3 6 -5 1 -5 -13z"/>
<path d="M8300 3921 c0 -6 5 -13 10 -16 6 -3 10 1 10 9 0 9 -4 16 -10 16 -5 0
-10 -4 -10 -9z"/>
<path d="M8546 3921 c-4 -7 -5 -15 -2 -18 9 -9 19 4 14 18 -4 11 -6 11 -12 0z"/>
<path d="M8820 3921 c0 -6 5 -13 10 -16 6 -3 10 1 10 9 0 9 -4 16 -10 16 -5 0
-10 -4 -10 -9z"/>
<path d="M8682 3900 c0 -14 2 -19 5 -12 2 6 2 18 0 25 -3 6 -5 1 -5 -13z"/>
<path d="M8501 3894 c0 -11 3 -14 6 -6 3 7 2 16 -1 19 -3 4 -6 -2 -5 -13z"/>
<path d="M8081 3884 c0 -11 3 -14 6 -6 3 7 2 16 -1 19 -3 4 -6 -2 -5 -13z"/>
<path d="M7952 3880 c0 -14 2 -19 5 -12 2 6 2 18 0 25 -3 6 -5 1 -5 -13z"/>
<path d="M7637 3860 c-3 -11 -1 -20 4 -20 5 0 9 9 9 20 0 11 -2 20 -4 20 -2 0
-6 -9 -9 -20z"/>
<path d="M7490 3835 c-24 -14 -24 -14 -4 -15 12 0 24 7 28 15 6 18 7 18 -24 0z"/>
<path d="M6845 3820 c-3 -11 -2 -27 3 -36 8 -14 10 -11 14 15 5 36 -7 52 -17
21z"/>
<path d="M7037 3834 c-4 -4 -7 -14 -7 -23 0 -11 3 -12 11 -4 6 6 10 16 7 23
-2 6 -7 8 -11 4z"/>
<path d="M6771 3800 c0 -33 1 -34 11 -12 8 17 8 26 0 34 -9 9 -12 4 -11 -22z"/>
<path d="M7266 3825 c-17 -13 -18 -15 -2 -21 20 -8 29 -1 24 20 -3 13 -6 13
-22 1z"/>
<path d="M3817 3658 c-33 -26 -48 -109 -27 -149 15 -26 35 -24 59 7 33 42 26
154 -9 154 -3 0 -14 -6 -23 -12z"/>
<path d="M4356 3681 c-32 -35 -34 -151 -2 -151 23 0 48 38 57 86 14 73 -16
108 -55 65z"/>
<path d="M8335 3690 c-3 -5 -1 -10 4 -10 6 0 11 5 11 10 0 6 -2 10 -4 10 -3 0
-8 -4 -11 -10z"/>
<path d="M8390 3690 c0 -5 5 -10 10 -10 6 0 10 5 10 10 0 6 -4 10 -10 10 -5 0
-10 -4 -10 -10z"/>
<path d="M8550 3656 c0 -2 7 -9 15 -16 12 -10 15 -10 15 4 0 9 -7 16 -15 16
-8 0 -15 -2 -15 -4z"/>
<path d="M8622 3635 c0 -16 2 -22 5 -12 2 9 2 23 0 30 -3 6 -5 -1 -5 -18z"/>
<path d="M8671 3644 c0 -11 3 -14 6 -6 3 7 2 16 -1 19 -3 4 -6 -2 -5 -13z"/>
<path d="M8494 3615 c-18 -14 -17 -14 15 -15 29 0 32 2 21 15 -15 18 -12 18
-36 0z"/>
<path d="M8146 3611 c-4 -7 -5 -15 -2 -18 9 -9 19 4 14 18 -4 11 -6 11 -12 0z"/>
<path d="M8051 3584 c0 -11 3 -14 6 -6 3 7 2 16 -1 19 -3 4 -6 -2 -5 -13z"/>
<path d="M8896 3664 c-7 -18 0 -34 15 -34 5 0 9 11 9 25 0 28 -15 34 -24 9z"/>
<path d="M8960 3654 c0 -8 5 -12 10 -9 6 3 10 10 10 16 0 5 -4 9 -10 9 -5 0
-10 -7 -10 -16z"/>
<path d="M3576 3631 c-20 -22 -32 -88 -22 -125 14 -57 67 -20 81 56 14 77 -18
114 -59 69z"/>
<path d="M3200 3598 c-23 -38 -26 -106 -7 -132 39 -53 99 75 71 148 -10 27
-43 18 -64 -16z"/>
<path d="M2816 3578 c-21 -33 -29 -73 -22 -113 6 -28 12 -35 30 -35 44 0 74
68 60 138 -5 25 -12 32 -30 32 -13 0 -30 -10 -38 -22z"/>
<path d="M7290 3540 c0 -11 2 -20 4 -20 2 0 6 9 9 20 3 11 1 20 -4 20 -5 0 -9
-9 -9 -20z"/>
<path d="M7150 3529 c0 -11 5 -17 10 -14 6 3 10 13 10 21 0 8 -4 14 -10 14 -5
0 -10 -9 -10 -21z"/>
<path d="M7350 3536 c0 -9 5 -16 10 -16 6 0 10 4 10 9 0 6 -4 13 -10 16 -5 3
-10 -1 -10 -9z"/>
<path d="M6851 3514 c0 -11 3 -14 6 -6 3 7 2 16 -1 19 -3 4 -6 -2 -5 -13z"/>
<path d="M7010 3510 l-25 -20 23 0 c12 0 25 7 29 15 9 24 0 25 -27 5z"/>
<path d="M7820 3600 c0 -5 5 -10 10 -10 6 0 10 5 10 10 0 6 -4 10 -10 10 -5 0
-10 -4 -10 -10z"/>
<path d="M7502 3560 c0 -14 2 -19 5 -12 2 6 2 18 0 25 -3 6 -5 1 -5 -13z"/>
<path d="M6642 3495 c0 -16 2 -22 5 -12 2 9 2 23 0 30 -3 6 -5 -1 -5 -18z"/>
<path d="M6545 3497 c-4 -10 -5 -21 -1 -24 10 -10 18 4 13 24 -4 17 -4 17 -12
0z"/>
<path d="M7930 3350 c6 -11 13 -20 15 -20 3 0 5 9 5 20 0 11 -7 20 -15 20 -13
0 -14 -4 -5 -20z"/>
<path d="M7990 3333 c0 -41 13 -35 24 10 5 20 3 27 -9 27 -11 0 -15 -11 -15
-37z"/>
<path d="M7827 3353 c-11 -10 -8 -63 3 -63 6 0 10 9 10 19 0 11 3 26 6 35 6
16 -7 22 -19 9z"/>
<path d="M7880 3317 c0 -19 10 -27 26 -20 11 4 12 9 3 19 -15 18 -29 18 -29 1z"/>
<path d="M7584 3316 c-7 -31 4 -55 17 -35 12 19 11 59 -1 59 -5 0 -12 -11 -16
-24z"/>
<path d="M7358 3281 c-34 -20 -36 -31 -4 -31 16 0 27 7 31 21 9 27 5 29 -27
10z"/>
<path d="M7101 3274 c0 -11 3 -14 6 -6 3 7 2 16 -1 19 -3 4 -6 -2 -5 -13z"/>
<path d="M6916 3245 c-9 -26 -7 -32 5 -12 6 10 9 21 6 23 -2 3 -7 -2 -11 -11z"/>
<path d="M6633 3233 c-41 -8 -27 -33 17 -33 22 0 40 4 40 8 0 10 -22 33 -29
31 -4 -1 -16 -4 -28 -6z"/>
<path d="M3091 3134 c-11 -14 -23 -41 -27 -60 -7 -38 11 -94 30 -94 45 0 86
129 51 163 -22 23 -30 21 -54 -9z"/>
<path d="M3767 3199 c-25 -14 -47 -63 -47 -103 0 -38 23 -68 45 -60 21 8 45
67 45 112 0 46 -16 65 -43 51z"/>
<path d="M3406 3150 c-14 -30 -14 -30 13 -30 31 0 51 16 51 42 0 32 -46 23
-64 -12z"/>
<path d="M2842 3119 c-36 -38 -39 -140 -4 -154 25 -9 51 26 64 87 9 45 9 59
-1 72 -18 22 -36 20 -59 -5z"/>
<path d="M7266 3045 c-7 -29 0 -48 15 -40 12 8 12 65 0 65 -5 0 -12 -11 -15
-25z"/>
<path d="M7161 3038 c-9 -26 -3 -54 10 -41 4 4 11 20 14 36 9 33 -12 38 -24 5z"/>
<path d="M7330 3025 c0 -8 7 -15 16 -15 14 0 14 3 4 15 -7 8 -14 15 -16 15 -2
0 -4 -7 -4 -15z"/>
<path d="M6661 3021 c-11 -7 -10 -13 8 -32 l21 -23 0 32 c0 33 -6 38 -29 23z"/>
<path d="M6787 3023 c-4 -3 -7 -20 -7 -36 0 -25 2 -28 15 -17 8 7 15 23 15 36
0 23 -10 31 -23 17z"/>
<path d="M6583 2983 c-13 -3 -23 -12 -23 -21 0 -14 7 -17 40 -14 22 2 40 6 40
9 0 6 -28 33 -32 32 -2 -1 -13 -4 -25 -6z"/>
<path d="M6901 2844 c0 -11 3 -14 6 -6 3 7 2 16 -1 19 -3 4 -6 -2 -5 -13z"/>
<path d="M7247 2824 c-8 -8 1 -24 13 -24 4 0 10 7 14 15 5 15 -14 21 -27 9z"/>
<path d="M7315 2799 c-7 -33 -3 -45 14 -34 13 8 15 65 2 65 -5 0 -12 -14 -16
-31z"/>
<path d="M7151 2798 c-8 -15 -10 -35 -7 -45 7 -17 8 -17 17 0 6 10 9 30 7 45
l-4 27 -13 -27z"/>
<path d="M6975 2769 c-7 -33 -3 -45 14 -34 13 8 15 65 2 65 -5 0 -12 -14 -16
-31z"/>
<path d="M7380 2787 c0 -19 16 -31 24 -18 3 5 -1 14 -9 21 -12 10 -15 10 -15
-3z"/>
<path d="M6892 2755 c0 -16 2 -22 5 -12 2 9 2 23 0 30 -3 6 -5 -1 -5 -18z"/>
<path d="M7210 2766 c0 -9 7 -16 16 -16 9 0 14 5 12 12 -6 18 -28 21 -28 4z"/>
<path d="M2834 2715 c-9 -14 -17 -54 -20 -102 -4 -71 -2 -77 12 -34 3 10 8 11
16 3 13 -13 2 -65 -12 -57 -6 3 -10 -1 -10 -11 0 -13 3 -14 14 -5 39 33 64
212 31 225 -9 3 -21 -4 -31 -19z m13 -87 c-3 -7 -5 -2 -5 12 0 14 2 19 5 13 2
-7 2 -19 0 -25z"/>
<path d="M3397 2709 c-9 -6 -17 -19 -17 -29 0 -11 -4 -20 -10 -20 -5 0 -10
-18 -10 -40 0 -22 4 -40 9 -40 5 0 9 12 9 26 0 14 5 31 11 37 8 8 11 6 11 -8
0 -16 2 -17 10 -5 8 12 10 12 16 -3 4 -10 2 -23 -5 -30 -6 -6 -11 -18 -11 -26
0 -10 8 -4 20 14 41 62 17 151 -33 124z m33 -29 c0 -5 -2 -10 -4 -10 -3 0 -8
5 -11 10 -3 6 -1 10 4 10 6 0 11 -4 11 -10z"/>
<path d="M3170 2668 c-13 -21 -20 -49 -19 -78 l1 -45 11 42 c16 55 27 64 27
22 0 -26 3 -30 10 -19 13 20 13 110 0 110 -6 0 -19 -15 -30 -32z"/>
<path d="M3045 2660 c-12 -13 -19 -40 -22 -78 -3 -57 0 -60 11 -9 7 30 26 37
26 10 0 -34 18 2 24 50 8 53 -6 63 -39 27z"/>
<path d="M8148 2463 c7 -3 16 -2 19 1 4 3 -2 6 -13 5 -11 0 -14 -3 -6 -6z"/>
<path d="M7656 2363 c-9 -10 -7 -55 3 -49 12 8 21 45 11 51 -4 2 -10 2 -14 -2z"/>
<path d="M7558 2320 c-7 -43 -4 -59 8 -48 3 3 4 26 2 49 l-3 44 -7 -45z"/>
<path d="M7477 2343 c-4 -3 -7 -17 -7 -30 0 -35 34 -26 38 10 3 26 -14 37 -31
20z"/>
<path d="M7377 2326 c-4 -10 -7 -32 -6 -49 1 -31 1 -31 10 7 10 43 7 72 -4 42z"/>
<path d="M7715 2330 c-3 -5 1 -10 10 -10 9 0 13 5 10 10 -3 6 -8 10 -10 10 -2
0 -7 -4 -10 -10z"/>
<path d="M7212 2318 c-17 -17 -15 -73 3 -88 9 -7 18 -10 22 -6 3 3 1 6 -7 6
-9 0 -11 13 -8 50 3 28 4 50 4 50 -1 0 -7 -5 -14 -12z"/>
<path d="M7268 2306 c-6 -31 6 -55 16 -31 9 24 7 55 -3 55 -5 0 -11 -11 -13
-24z"/>
<path d="M6996 2288 c-8 -32 -7 -48 3 -48 13 0 24 51 13 62 -6 6 -12 0 -16
-14z"/>
<path d="M6896 2278 c-3 -13 -7 -41 -11 -63 -5 -37 -4 -39 10 -21 8 11 15 39
15 63 0 47 -7 56 -14 21z"/>
<path d="M6708 2269 c-22 -12 -24 -59 -3 -59 18 0 28 20 23 49 -2 16 -7 18
-20 10z"/>
<path d="M6777 2253 c-3 -16 -3 -30 -1 -33 7 -7 24 23 24 43 0 27 -17 20 -23
-10z"/>
<path d="M6537 2253 c-4 -3 -7 -24 -7 -46 0 -49 6 -45 18 11 9 39 5 52 -11 35z"/>
<path d="M6602 2230 c0 -19 2 -27 5 -17 2 9 2 25 0 35 -3 9 -5 1 -5 -18z"/>
<path d="M6951 2204 c0 -11 3 -14 6 -6 3 7 2 16 -1 19 -3 4 -6 -2 -5 -13z"/>
<path d="M7091 2204 c0 -11 3 -14 6 -6 3 7 2 16 -1 19 -3 4 -6 -2 -5 -13z"/>
<path d="M6410 2195 c0 -8 5 -15 10 -15 6 0 10 7 10 15 0 8 -4 15 -10 15 -5 0
-10 -7 -10 -15z"/>
<path d="M9615 2181 c-3 -5 -1 -12 5 -16 5 -3 10 1 10 9 0 18 -6 21 -15 7z"/>
<path d="M6730 2169 c0 -5 5 -7 10 -4 6 3 10 8 10 11 0 2 -4 4 -10 4 -5 0 -10
-5 -10 -11z"/>
<path d="M9826 2173 c-9 -9 -7 -33 3 -33 12 0 22 28 12 34 -5 3 -11 3 -15 -1z"/>
<path d="M9671 2084 c0 -11 3 -14 6 -6 3 7 2 16 -1 19 -3 4 -6 -2 -5 -13z"/>
<path d="M9646 2044 c-4 -9 -4 -19 -1 -22 2 -3 7 3 11 12 4 9 4 19 1 22 -2 3
-7 -3 -11 -12z"/>
<path d="M9695 2000 c-3 -5 -1 -10 4 -10 6 0 11 5 11 10 0 6 -2 10 -4 10 -3 0
-8 -4 -11 -10z"/>
<path d="M9490 1969 c0 -5 5 -7 10 -4 6 3 10 8 10 11 0 2 -4 4 -10 4 -5 0 -10
-5 -10 -11z"/>
<path d="M9037 1953 c-4 -3 -7 -13 -7 -22 1 -13 3 -13 11 2 11 19 8 33 -4 20z"/>
<path d="M9540 1951 c0 -6 5 -13 10 -16 6 -3 10 1 10 9 0 9 -4 16 -10 16 -5 0
-10 -4 -10 -9z"/>
<path d="M9171 1914 c0 -11 3 -14 6 -6 3 7 2 16 -1 19 -3 4 -6 -2 -5 -13z"/>
<path d="M9160 1882 c6 -13 14 -21 18 -18 3 4 -2 14 -12 24 -18 16 -18 16 -6
-6z"/>
<path d="M8701 1864 c0 -11 3 -14 6 -6 3 7 2 16 -1 19 -3 4 -6 -2 -5 -13z"/>
<path d="M8821 1844 c0 -11 3 -14 6 -6 3 7 2 16 -1 19 -3 4 -6 -2 -5 -13z"/>
<path d="M8770 1824 c0 -8 5 -12 10 -9 6 3 10 10 10 16 0 5 -4 9 -10 9 -5 0
-10 -7 -10 -16z"/>
<path d="M8518 1813 c7 -3 16 -2 19 1 4 3 -2 6 -13 5 -11 0 -14 -3 -6 -6z"/>
<path d="M8470 1795 c0 -5 5 -17 10 -25 5 -8 10 -10 10 -5 0 6 -5 17 -10 25
-5 8 -10 11 -10 5z"/>
<path d="M8616 1783 c-12 -12 -6 -33 9 -33 8 0 15 6 15 14 0 17 -14 28 -24 19z"/>
<path d="M8550 1760 c-8 -14 -8 -26 -2 -32 6 -6 12 0 16 17 9 35 1 43 -14 15z"/>
<path d="M8420 1748 c-12 -22 -12 -22 6 -6 10 10 15 20 12 24 -4 3 -12 -5 -18
-18z"/>
<path d="M8470 1679 c0 -11 4 -18 10 -14 5 3 7 12 3 20 -7 21 -13 19 -13 -6z"/>
<path d="M8330 1671 c0 -6 5 -13 10 -16 6 -3 10 1 10 9 0 9 -4 16 -10 16 -5 0
-10 -4 -10 -9z"/>
<path d="M8273 1662 c-8 -5 -9 -13 -3 -22 7 -12 10 -12 16 3 8 21 3 29 -13 19z"/>
<path d="M7915 1620 c-3 -5 -1 -18 4 -27 9 -16 10 -14 11 10 0 28 -5 34 -15
17z"/>
<path d="M7672 1567 c-11 -12 -32 -122 -32 -162 0 -34 16 -51 33 -37 19 16 30
70 31 150 1 62 -9 77 -32 49z m15 -94 c-3 -10 -5 -2 -5 17 0 19 2 27 5 18 2
-10 2 -26 0 -35z m-10 -45 c-3 -8 -6 -5 -6 6 -1 11 2 17 5 13 3 -3 4 -12 1
-19z"/>
<path d="M7065 1430 c-3 -5 -1 -10 4 -10 6 0 11 5 11 10 0 6 -2 10 -4 10 -3 0
-8 -4 -11 -10z"/>
<path d="M4173 1413 c9 -2 23 -2 30 0 6 3 -1 5 -18 5 -16 0 -22 -2 -12 -5z"/>
<path d="M7270 1410 c0 -5 5 -10 10 -10 6 0 10 5 10 10 0 6 -4 10 -10 10 -5 0
-10 -4 -10 -10z"/>
<path d="M7195 1400 c-3 -5 1 -10 10 -10 9 0 13 5 10 10 -3 6 -8 10 -10 10 -2
0 -7 -4 -10 -10z"/>
<path d="M3988 1393 c12 -2 30 -2 40 0 9 3 -1 5 -23 4 -22 0 -30 -2 -17 -4z"/>
<path d="M7230 1390 c0 -5 5 -10 10 -10 6 0 10 5 10 10 0 6 -4 10 -10 10 -5 0
-10 -4 -10 -10z"/>
<path d="M3755 1379 c-4 -6 -5 -12 -2 -15 2 -3 7 2 10 11 7 17 1 20 -8 4z"/>
<path d="M3800 1380 c0 -5 4 -10 9 -10 6 0 13 5 16 10 3 6 -1 10 -9 10 -9 0
-16 -4 -16 -10z"/>
<path d="M3498 1370 c-43 -3 -79 -8 -82 -10 -2 -3 34 -6 80 -6 46 -1 86 2 89
6 9 14 -7 16 -87 10z"/>
<path d="M3670 1370 c20 -13 40 -13 40 0 0 6 -12 10 -27 10 -22 0 -25 -2 -13
-10z"/>
<path d="M3607 1363 c-10 -10 -8 -33 3 -33 5 0 14 9 20 20 8 15 8 20 -3 20 -8
0 -17 -3 -20 -7z"/>
<path d="M6743 1350 c-7 -10 -10 -25 -8 -32 3 -7 1 -56 -4 -107 -8 -86 -11
-97 -36 -119 -32 -27 -28 -37 10 -22 16 6 32 23 38 41 11 28 15 31 49 26 30
-4 37 -1 41 14 6 23 -10 36 -26 20 -6 -6 -21 -11 -33 -11 -18 0 -23 7 -26 38
-3 20 1 60 9 87 21 80 14 111 -14 65z"/>
<path d="M3345 1350 c-3 -5 -1 -10 4 -10 6 0 11 5 11 10 0 6 -2 10 -4 10 -3 0
-8 -4 -11 -10z"/>
<path d="M3160 1340 c-21 -7 -21 -8 -5 -9 11 0 27 4 35 9 18 11 5 11 -30 0z"/>
<path d="M3222 1344 c8 -7 88 -8 95 0 4 3 -18 6 -47 6 -29 0 -51 -3 -48 -6z"/>
<path d="M7045 1333 c-4 -12 -17 -23 -29 -25 -16 -2 -22 -11 -24 -37 -3 -28
-1 -33 13 -27 9 3 19 6 21 6 3 0 2 4 -1 10 -3 5 4 23 16 39 12 16 19 35 16 43
-4 9 -8 6 -12 -9z"/>
<path d="M6574 1332 c-12 -2 -24 -12 -27 -23 -3 -12 -14 -19 -30 -19 -39 0
-62 -36 -58 -92 1 -19 41 -26 41 -8 0 6 7 10 15 10 8 0 15 6 15 14 0 8 3 21 6
30 3 9 1 16 -5 16 -6 0 -11 -6 -11 -13 0 -7 -9 -20 -20 -30 -17 -15 -20 -15
-20 -1 0 32 20 54 50 54 17 0 30 5 30 10 0 6 9 19 21 31 24 24 23 26 -7 21z"/>
<path d="M6884 1328 c-5 -7 -9 -42 -10 -77 -2 -35 -8 -69 -13 -74 -15 -15 -14
-27 3 -27 23 0 28 16 33 106 5 82 2 97 -13 72z"/>
<path d="M3068 1323 c7 -3 16 -2 19 1 4 3 -2 6 -13 5 -11 0 -14 -3 -6 -6z"/>
<path d="M6620 1320 c0 -5 5 -10 11 -10 5 0 7 5 4 10 -3 6 -8 10 -11 10 -2 0
-4 -4 -4 -10z"/>
<path d="M2938 1313 c7 -3 16 -2 19 1 4 3 -2 6 -13 5 -11 0 -14 -3 -6 -6z"/>
<path d="M6920 1304 c0 -8 5 -12 10 -9 6 3 10 10 10 16 0 5 -4 9 -10 9 -5 0
-10 -7 -10 -16z"/>
<path d="M7096 1304 c-10 -27 -7 -56 7 -52 14 5 23 68 9 68 -6 0 -13 -7 -16
-16z"/>
<path d="M2785 1300 c-3 -5 -1 -10 4 -10 6 0 11 5 11 10 0 6 -2 10 -4 10 -3 0
-8 -4 -11 -10z"/>
<path d="M3415 1300 c4 -6 11 -8 16 -5 14 9 11 15 -7 15 -8 0 -12 -5 -9 -10z"/>
<path d="M6677 1293 c-4 -3 -7 -35 -7 -69 0 -67 -8 -79 -49 -79 -17 0 -30 -10
-43 -34 -11 -19 -15 -37 -10 -40 5 -3 12 -16 16 -28 12 -37 29 -27 22 12 -6
28 -4 35 9 35 35 0 63 52 71 128 6 71 4 89 -9 75z"/>
<path d="M6801 1268 c-8 -15 -10 -35 -7 -45 7 -17 8 -17 17 0 6 10 9 30 7 45
l-4 27 -13 -27z"/>
<path d="M6917 1273 c-11 -10 -8 -61 3 -68 6 -4 10 10 10 34 0 42 -2 46 -13
34z"/>
<path d="M3395 1263 c11 -3 26 -10 33 -15 9 -8 12 -6 12 6 0 12 -9 16 -32 15
-22 -1 -26 -3 -13 -6z"/>
<path d="M6388 1263 c7 -3 16 -2 19 1 4 3 -2 6 -13 5 -11 0 -14 -3 -6 -6z"/>
<path d="M6596 1244 c-9 -23 -7 -54 3 -54 9 0 21 33 21 58 0 17 -17 15 -24 -4z"/>
<path d="M6383 1190 c3 -10 -1 -24 -9 -31 -8 -6 -14 -23 -13 -38 0 -25 1 -25
9 -5 5 12 13 25 19 29 15 8 14 65 0 65 -6 0 -9 -9 -6 -20z"/>
<path d="M3090 1190 c-13 -8 -13 -11 2 -27 21 -21 35 -11 22 17 -7 14 -13 17
-24 10z"/>
<path d="M6327 1162 c5 -21 -22 -49 -32 -32 -7 11 -45 14 -45 4 0 -11 34 -33
51 -34 9 0 20 -11 23 -25 7 -27 26 -34 26 -10 0 8 -4 15 -10 15 -13 0 -13 33
0 46 10 10 2 54 -10 54 -5 0 -6 -8 -3 -18z"/>
<path d="M6523 1150 c-16 -24 -73 -41 -91 -27 -14 11 -32 -6 -31 -28 0 -5 3
-4 6 3 2 6 12 12 20 12 10 0 13 -6 8 -17 -3 -10 -9 -30 -12 -44 -6 -32 19 -46
42 -23 9 9 15 11 15 4 0 -6 5 -8 10 -5 8 5 7 11 -1 21 -18 22 4 42 26 24 12
-10 15 -10 15 3 0 8 9 21 20 28 19 13 19 17 8 41 -15 33 -19 34 -35 8z m17
-40 c-8 -5 -19 -10 -25 -10 -5 0 -3 5 5 10 8 5 20 10 25 10 6 0 3 -5 -5 -10z"/>
<path d="M3061 1131 c-18 -18 -20 -18 -24 -3 -3 15 -5 14 -11 -3 -4 -11 -11
-27 -16 -36 -7 -14 -3 -18 21 -21 23 -4 35 1 50 20 20 26 26 62 9 62 -5 0 -19
-9 -29 -19z"/>
<path d="M6896 1135 c-3 -8 -1 -15 4 -15 6 0 10 7 10 15 0 8 -2 15 -4 15 -2 0
-6 -7 -10 -15z"/>
<path d="M2956 1122 c-11 -17 5 -71 19 -66 10 4 11 14 4 36 -10 36 -15 43 -23
30z"/>
<path d="M6053 1091 c-33 -17 -42 -32 -53 -95 -6 -34 -5 -36 7 -20 7 10 13 26
13 36 0 9 13 24 29 32 22 12 48 54 38 62 -1 1 -16 -6 -34 -15z"/>
<path d="M6123 1095 c-8 -23 0 -24 20 -3 14 15 15 18 2 18 -9 0 -18 -7 -22
-15z"/>
<path d="M6785 1100 c-3 -5 1 -10 10 -10 9 0 13 5 10 10 -3 6 -8 10 -10 10 -2
0 -7 -4 -10 -10z"/>
<path d="M6960 1094 c0 -8 5 -12 10 -9 6 4 8 11 5 16 -9 14 -15 11 -15 -7z"/>
<path d="M5855 1087 c-4 -10 -5 -21 -1 -24 10 -10 18 4 13 24 -4 17 -4 17 -12
0z"/>
<path d="M2575 1080 c-3 -5 -1 -10 4 -10 6 0 11 5 11 10 0 6 -2 10 -4 10 -3 0
-8 -4 -11 -10z"/>
<path d="M6161 1064 c-16 -36 -6 -42 18 -13 24 28 26 39 8 39 -8 0 -19 -12
-26 -26z"/>
<path d="M5782 1063 c-1 -12 -6 -24 -11 -27 -4 -3 -6 -16 -4 -30 3 -13 0 -27
-6 -30 -6 -4 -11 -2 -11 3 0 6 -4 11 -10 11 -5 0 -10 -13 -10 -29 0 -17 -4
-33 -10 -36 -5 -3 -10 -14 -10 -22 0 -14 4 -13 20 5 11 12 20 28 20 36 0 10 6
13 15 10 8 -4 12 -10 9 -15 -3 -5 2 -9 10 -9 9 0 16 4 16 10 0 5 16 16 35 24
37 16 48 49 23 74 -16 16 -28 15 -28 -3 0 -8 4 -15 10 -15 5 0 7 -7 4 -15 -10
-25 -52 11 -57 48 -2 19 -4 23 -5 10z"/>
<path d="M5946 1064 c-4 -9 -4 -19 -2 -21 8 -8 26 8 26 23 0 19 -16 18 -24 -2z"/>
<path d="M6290 1057 c0 -8 7 -18 16 -21 11 -4 14 -1 12 11 -4 21 -28 30 -28
10z"/>
<path d="M6753 1055 c-3 -9 -3 -18 -1 -21 3 -3 8 4 11 16 6 23 -1 27 -10 5z"/>
<path d="M2710 1044 c0 -8 5 -12 10 -9 6 3 10 10 10 16 0 5 -4 9 -10 9 -5 0
-10 -7 -10 -16z"/>
<path d="M5890 1046 c0 -26 20 -67 29 -61 11 6 10 45 -1 45 -4 0 -8 7 -8 15 0
8 -4 15 -10 15 -5 0 -10 -6 -10 -14z"/>
<path d="M6661 1034 c0 -11 3 -14 6 -6 3 7 2 16 -1 19 -3 4 -6 -2 -5 -13z"/>
<path d="M2764 1026 c-10 -27 2 -43 14 -19 8 14 9 24 2 28 -6 3 -13 -1 -16 -9z"/>
<path d="M6066 1024 c-4 -9 -4 -19 -1 -22 2 -3 7 3 11 12 4 9 4 19 1 22 -2 3
-7 -3 -11 -12z"/>
<path d="M2665 1020 c-3 -5 -1 -10 4 -10 6 0 11 5 11 10 0 6 -2 10 -4 10 -3 0
-8 -4 -11 -10z"/>
<path d="M2500 1000 c-14 -10 -22 -21 -19 -24 3 -3 16 5 29 19 28 30 24 32
-10 5z"/>
<path d="M2942 1000 c-7 -11 -8 -20 -3 -20 9 0 24 30 18 36 -1 2 -8 -6 -15
-16z"/>
<path d="M2977 1007 c-11 -29 -9 -43 4 -30 6 6 9 19 7 29 -3 18 -4 18 -11 1z"/>
<path d="M5960 1010 c0 -5 4 -10 9 -10 6 0 13 5 16 10 3 6 -1 10 -9 10 -9 0
-16 -4 -16 -10z"/>
<path d="M6311 1004 c0 -11 3 -14 6 -6 3 7 2 16 -1 19 -3 4 -6 -2 -5 -13z"/>
<path d="M2865 990 c-3 -5 -1 -10 4 -10 6 0 11 5 11 10 0 6 -2 10 -4 10 -3 0
-8 -4 -11 -10z"/>
<path d="M5510 980 c-8 -5 -11 -12 -7 -16 4 -4 13 -2 19 4 15 15 7 24 -12 12z"/>
<path d="M5670 980 c-8 -5 -11 -12 -7 -16 4 -4 13 -2 19 4 15 15 7 24 -12 12z"/>
<path d="M5950 970 c0 -5 5 -10 11 -10 5 0 7 5 4 10 -3 6 -8 10 -11 10 -2 0
-4 -4 -4 -10z"/>
<path d="M5683 955 c-3 -9 -3 -18 0 -21 9 -9 27 6 27 22 0 19 -19 18 -27 -1z"/>
<path d="M2338 935 c-20 -26 -24 -50 -7 -40 10 7 32 55 27 60 -2 2 -11 -7 -20
-20z"/>
<path d="M5620 938 c-11 -12 -18 -23 -16 -26 8 -8 46 19 46 33 0 20 -6 19 -30
-7z"/>
<path d="M2449 942 c-10 -5 -13 -15 -9 -32 l6 -25 16 33 c17 33 15 36 -13 24z"/>
<path d="M5465 940 c-3 -5 -1 -10 4 -10 6 0 11 5 11 10 0 6 -2 10 -4 10 -3 0
-8 -4 -11 -10z"/>
<path d="M5530 939 c0 -5 -4 -8 -8 -5 -8 5 -38 -82 -30 -89 3 -3 15 15 27 40
12 25 27 45 32 45 6 0 7 5 4 10 -8 13 -25 13 -25 -1z"/>
<path d="M1992 895 c-17 -37 -15 -42 8 -17 21 22 26 42 12 42 -5 0 -14 -11
-20 -25z"/>
<path d="M2072 900 c0 -14 2 -19 5 -12 2 6 2 18 0 25 -3 6 -5 1 -5 -13z"/>
<path d="M5380 892 c0 -10 -5 -23 -11 -29 -7 -7 -6 -12 4 -16 10 -4 17 2 21
16 5 18 8 19 15 7 6 -8 12 -12 15 -9 7 7 -23 49 -35 49 -5 0 -9 -8 -9 -18z"/>
<path d="M5619 891 c-12 -14 -13 -19 -2 -30 10 -9 13 -9 13 3 0 7 7 16 15 20
18 7 20 26 3 25 -7 0 -20 -8 -29 -18z"/>
<path d="M5305 871 c-2 -5 2 -16 9 -26 13 -18 14 -18 24 2 10 17 8 22 -8 26
-11 3 -22 2 -25 -2z"/>
<path d="M5175 860 c-3 -5 -2 -10 4 -10 5 0 13 5 16 10 3 6 2 10 -4 10 -5 0
-13 -4 -16 -10z"/>
<path d="M5231 856 c-15 -17 -1 -28 19 -15 13 7 13 9 0 9 -13 0 -13 1 0 10 8
5 10 10 4 10 -6 0 -17 -6 -23 -14z"/>
<path d="M5680 855 c0 -8 2 -15 4 -15 2 0 6 7 10 15 3 8 1 15 -4 15 -6 0 -10
-7 -10 -15z"/>
<path d="M5044 849 c-13 -22 12 -30 31 -9 18 19 18 20 -3 20 -11 0 -24 -5 -28
-11z"/>
<path d="M5123 845 c-8 -8 -9 -16 -3 -20 5 -3 14 4 20 15 12 23 1 26 -17 5z"/>
<path d="M2071 834 c0 -11 3 -14 6 -6 3 7 2 16 -1 19 -3 4 -6 -2 -5 -13z"/>
<path d="M1980 830 c0 -5 5 -10 11 -10 5 0 7 5 4 10 -3 6 -8 10 -11 10 -2 0
-4 -4 -4 -10z"/>
<path d="M5202 809 c2 -7 10 -15 17 -17 8 -3 12 1 9 9 -2 7 -10 15 -17 17 -8
3 -12 -1 -9 -9z"/>
<path d="M4990 800 c0 -5 5 -10 10 -10 6 0 10 5 10 10 0 6 -4 10 -10 10 -5 0
-10 -4 -10 -10z"/>
<path d="M5840 800 c0 -5 5 -10 10 -10 6 0 10 5 10 10 0 6 -4 10 -10 10 -5 0
-10 -4 -10 -10z"/>
<path d="M5055 790 c3 -5 8 -10 11 -10 2 0 4 5 4 10 0 6 -5 10 -11 10 -5 0 -7
-4 -4 -10z"/>
<path d="M4905 770 c3 -5 8 -10 11 -10 2 0 4 5 4 10 0 6 -5 10 -11 10 -5 0 -7
-4 -4 -10z"/>
<path d="M5431 764 c0 -11 3 -14 6 -6 3 7 2 16 -1 19 -3 4 -6 -2 -5 -13z"/>
<path d="M4841 734 c0 -11 3 -14 6 -6 3 7 2 16 -1 19 -3 4 -6 -2 -5 -13z"/>
<path d="M4106 654 c-8 -21 -8 -34 2 -34 4 0 8 11 8 25 2 29 -1 32 -10 9z"/>
<path d="M4240 650 c-8 -5 -12 -12 -9 -15 4 -3 12 1 19 10 14 17 11 19 -10 5z"/>
<path d="M4296 637 c3 -10 9 -15 12 -12 3 3 0 11 -7 18 -10 9 -11 8 -5 -6z"/>
<path d="M4210 620 c0 -5 5 -10 11 -10 5 0 7 5 4 10 -3 6 -8 10 -11 10 -2 0
-4 -4 -4 -10z"/>
<path d="M3852 589 c-13 -5 -28 -7 -33 -3 -5 3 -9 -2 -9 -10 0 -9 9 -16 20
-16 11 0 20 -4 20 -10 0 -5 5 -10 10 -10 6 0 10 8 10 18 0 10 5 23 12 30 14
14 3 15 -30 1z"/>
<path d="M3987 583 c-3 -5 -1 -17 4 -28 7 -17 8 -17 8 8 1 27 -4 34 -12 20z"/>
<path d="M3690 564 c0 -8 5 -12 10 -9 6 3 10 10 10 16 0 5 -4 9 -10 9 -5 0
-10 -7 -10 -16z"/>
<path d="M3780 518 c0 -19 2 -20 10 -8 13 19 13 30 0 30 -5 0 -10 -10 -10 -22z"/>
<path d="M3565 499 c-4 -11 -4 -23 0 -27 7 -7 25 17 25 36 0 20 -18 14 -25 -9z"/>
<path d="M3437 485 c-3 -16 0 -24 7 -22 14 4 21 47 8 47 -5 0 -12 -11 -15 -25z"/>
<path d="M3071 446 c-8 -9 -11 -19 -7 -23 9 -9 29 13 24 27 -2 8 -8 7 -17 -4z"/>
<path d="M6522 2788 c-18 -18 -16 -98 3 -98 19 0 37 44 33 79 -3 28 -18 37
-36 19z"/>
<path d="M6676 2745 c-8 -31 2 -54 15 -34 11 18 11 59 0 59 -5 0 -12 -11 -15
-25z"/>
<path d="M6740 2726 c0 -9 7 -16 16 -16 9 0 14 5 12 12 -6 18 -28 21 -28 4z"/>
<path d="M8530 2669 c0 -17 4 -28 10 -24 6 3 10 17 10 31 0 13 -4 24 -10 24
-5 0 -10 -14 -10 -31z"/>
<path d="M8481 2674 c0 -11 3 -14 6 -6 3 7 2 16 -1 19 -3 4 -6 -2 -5 -13z"/>
<path d="M8278 2640 c-3 -17 0 -29 5 -27 12 4 19 57 7 57 -4 0 -10 -14 -12
-30z"/>
<path d="M8178 2635 c-6 -29 7 -43 16 -19 9 23 7 44 -3 44 -5 0 -11 -11 -13
-25z"/>
<path d="M8018 2644 c-5 -4 -8 -21 -8 -38 0 -21 3 -27 11 -19 6 6 9 23 7 38
-2 15 -6 23 -10 19z"/>
<path d="M8481 2634 c0 -11 3 -14 6 -6 3 7 2 16 -1 19 -3 4 -6 -2 -5 -13z"/>
<path d="M7913 2620 c-12 -28 -6 -57 9 -42 5 5 8 22 6 38 l-4 29 -11 -25z"/>
<path d="M526 2483 c10 -83 41 -149 61 -130 10 11 12 101 2 120 -15 27 -51 67
-62 67 -5 0 -5 -25 -1 -57z"/>
<path d="M7220 2570 c0 -5 5 -10 10 -10 6 0 10 5 10 10 0 6 -4 10 -10 10 -5 0
-10 -4 -10 -10z"/>
<path d="M7116 2554 c-9 -24 -7 -54 4 -54 6 0 10 3 11 8 0 4 2 17 5 29 4 26
-11 40 -20 17z"/>
<path d="M7775 2599 c-6 -28 -1 -48 10 -37 3 2 8 19 11 36 8 42 -12 43 -21 1z"/>
<path d="M7512 2590 c0 -14 2 -19 5 -12 2 6 2 18 0 25 -3 6 -5 1 -5 -13z"/>
<path d="M7620 2578 l0 -33 15 29 c18 35 18 36 0 36 -10 0 -15 -10 -15 -32z"/>
<path d="M7458 2590 c-13 -32 -16 -60 -7 -60 14 0 21 25 17 52 -3 16 -6 19
-10 8z"/>
<path d="M6460 2525 c0 -8 5 -15 10 -15 6 0 10 7 10 15 0 8 -4 15 -10 15 -5 0
-10 -7 -10 -15z"/>
<path d="M6864 2516 c-7 -31 4 -55 17 -35 12 19 11 59 -1 59 -5 0 -12 -11 -16
-24z"/>
<path d="M6750 2518 c0 -7 -3 -24 -6 -38 -5 -22 -3 -21 15 8 25 39 25 42 6 42
-8 0 -15 -6 -15 -12z"/>
<path d="M6602 2508 c-20 -20 -15 -58 8 -58 11 0 20 6 20 13 0 6 3 22 6 35 7
25 -13 31 -34 10z"/>
<path d="M6676 2495 c-8 -31 2 -54 15 -34 11 18 11 59 0 59 -5 0 -12 -11 -15
-25z"/>
<path d="M6802 2496 c-9 -19 -8 -25 4 -30 10 -4 14 3 14 24 0 36 -3 37 -18 6z"/>
<path d="M8746 1542 c-4 -13 -5 -26 -2 -29 10 -11 18 4 14 29 l-4 23 -8 -23z"/>
<path d="M8221 1511 c-10 -17 -9 -21 3 -21 20 0 31 19 18 32 -7 7 -14 3 -21
-11z"/>
<path d="M8210 1419 c0 -24 23 -21 28 4 2 10 -3 17 -12 17 -10 0 -16 -9 -16
-21z"/>
<path d="M8067 1456 c-4 -10 -5 -21 -2 -24 9 -9 17 6 13 25 -3 17 -4 17 -11
-1z"/>
<path d="M7362 1130 c0 -14 2 -19 5 -12 2 6 2 18 0 25 -3 6 -5 1 -5 -13z"/>
<path d="M7340 1075 c0 -14 5 -25 10 -25 6 0 10 11 10 25 0 14 -4 25 -10 25
-5 0 -10 -11 -10 -25z"/>
<path d="M7490 1155 c0 -9 5 -15 11 -13 6 2 11 8 11 13 0 5 -5 11 -11 13 -6 2
-11 -4 -11 -13z"/>
<path d="M7230 1061 c0 -17 5 -31 10 -31 6 0 10 11 10 24 0 14 -4 28 -10 31
-6 4 -10 -7 -10 -24z"/>
<path d="M2258 7343 c45 -2 119 -2 165 0 45 1 8 3 -83 3 -91 0 -128 -2 -82 -3z"/>
<path d="M2568 7343 c6 -2 18 -2 25 0 6 3 1 5 -13 5 -14 0 -19 -2 -12 -5z"/>
<path d="M785 7320 c3 -5 8 -10 11 -10 2 0 4 5 4 10 0 6 -5 10 -11 10 -5 0 -7
-4 -4 -10z"/>
<path d="M3793 7313 c20 -2 54 -2 75 0 20 2 3 4 -38 4 -41 0 -58 -2 -37 -4z"/>
<path d="M678 7303 c7 -3 16 -2 19 1 4 3 -2 6 -13 5 -11 0 -14 -3 -6 -6z"/>
<path d="M4450 7300 c-11 -7 -4 -10 25 -9 31 0 36 2 20 9 -26 11 -28 11 -45 0z"/>
<path d="M4568 7293 c6 -2 18 -2 25 0 6 3 1 5 -13 5 -14 0 -19 -2 -12 -5z"/>
<path d="M5618 7273 c6 -2 18 -2 25 0 6 3 1 5 -13 5 -14 0 -19 -2 -12 -5z"/>
<path d="M5868 7273 c7 -3 16 -2 19 1 4 3 -2 6 -13 5 -11 0 -14 -3 -6 -6z"/>
<path d="M5978 7273 c7 -3 16 -2 19 1 4 3 -2 6 -13 5 -11 0 -14 -3 -6 -6z"/>
<path d="M6423 7263 c9 -2 23 -2 30 0 6 3 -1 5 -18 5 -16 0 -22 -2 -12 -5z"/>
<path d="M7298 7233 c12 -2 30 -2 40 0 9 3 -1 5 -23 4 -22 0 -30 -2 -17 -4z"/>
<path d="M7467 7233 c18 -2 50 -2 70 0 21 2 7 4 -32 4 -38 0 -55 -2 -38 -4z"/>
<path d="M8093 7223 c9 -2 23 -2 30 0 6 3 -1 5 -18 5 -16 0 -22 -2 -12 -5z"/>
<path d="M8168 7223 c6 -2 18 -2 25 0 6 3 1 5 -13 5 -14 0 -19 -2 -12 -5z"/>
<path d="M9502 7193 c37 -2 100 -2 140 0 40 1 10 3 -67 3 -77 0 -110 -1 -73
-3z"/>
<path d="M9758 7193 c12 -2 32 -2 45 0 12 2 2 4 -23 4 -25 0 -35 -2 -22 -4z"/>
<path d="M1083 495 c0 -22 2 -30 4 -17 2 12 2 30 0 40 -3 9 -5 -1 -4 -23z"/>
</g>
</svg>
