<?xml version="1.0" standalone="no"?>
<!DOCTYPE svg PUBLIC "-//W3C//DTD SVG 20010904//EN"
 "http://www.w3.org/TR/2001/REC-SVG-20010904/DTD/svg10.dtd">
<svg version="1.0" xmlns="http://www.w3.org/2000/svg"
 width="500.000000pt" height="500.000000pt" viewBox="0 0 500.000000 500.000000"
 preserveAspectRatio="xMidYMid meet">

<g transform="translate(0.000000,500.000000) scale(0.100000,-0.100000)"
fill="#000000" stroke="none">
<path d="M1158 4323 c6 -2 18 -2 25 0 6 3 1 5 -13 5 -14 0 -19 -2 -12 -5z"/>
<path d="M1518 4283 c6 -2 18 -2 25 0 6 3 1 5 -13 5 -14 0 -19 -2 -12 -5z"/>
<path d="M1600 4282 c0 -4 12 -8 28 -9 23 -1 24 -1 7 7 -26 11 -35 12 -35 2z"/>
<path d="M273 4184 c-4 -10 -1 -295 5 -633 7 -339 19 -1001 28 -1471 12 -660
18 -858 28 -868 9 -10 498 -112 535 -112 4 0 8 21 10 48 1 26 9 96 17 156 20
156 22 147 -38 175 -67 30 -153 118 -194 196 -51 98 -67 160 -68 265 -1 131
27 221 92 292 13 14 24 29 23 32 -1 3 0 5 2 4 1 -2 18 7 37 18 59 36 131 49
191 36 28 -7 56 -9 61 -5 7 3 8 1 4 -5 -4 -7 -1 -12 7 -12 10 0 17 25 26 88
19 138 189 1356 206 1472 9 58 20 132 24 165 5 33 8 61 7 62 -3 3 -287 35
-691 78 -132 14 -255 28 -273 31 -25 4 -34 1 -39 -12z"/>
<path d="M2267 4192 c-9 -2 -17 -8 -17 -13 0 -5 -9 -9 -20 -9 -11 0 -20 -4
-20 -10 0 -5 17 -10 38 -11 20 0 73 -2 117 -4 53 -2 70 -1 50 5 -16 4 -50 9
-75 10 -39 3 -40 4 -12 7 17 2 32 8 32 13 0 9 -65 17 -93 12z"/>
<path d="M2379 4179 c-10 -6 -8 -9 11 -8 14 1 45 -2 70 -5 32 -5 40 -4 29 3
-22 14 -93 21 -110 10z"/>
<path d="M2145 4170 c-17 -7 -15 -9 13 -9 17 -1 32 4 32 9 0 12 -17 12 -45 0z"/>
<path d="M2803 4127 c-78 -17 -140 -34 -137 -39 3 -4 -1 -5 -8 -3 -7 3 -43 -1
-78 -9 -36 -8 -57 -14 -47 -15 10 -1 17 -9 17 -22 0 -11 5 -17 10 -14 6 4 8
11 5 16 -4 5 -3 9 2 9 17 0 477 101 481 105 15 14 -121 -1 -245 -28z"/>
<path d="M3045 4135 l-50 -14 45 6 c25 3 54 9 65 14 31 12 -4 9 -60 -6z"/>
<path d="M2927 4090 c-209 -46 -288 -70 -182 -56 38 5 47 4 35 -5 -13 -9 -12
-10 3 -5 10 3 37 9 60 13 38 6 40 7 17 15 -17 5 -10 6 20 3 33 -4 40 -2 25 5
-15 7 -8 8 25 5 36 -4 40 -3 20 5 -19 7 -14 8 25 5 33 -3 42 -2 25 3 -25 8
-25 8 6 15 18 3 49 4 70 2 33 -4 35 -3 14 5 -22 8 -20 9 11 5 30 -5 153 16
164 27 2 2 -24 4 -58 4 -41 1 -137 -15 -280 -46z m253 30 c-14 -4 -34 -8 -45
-8 -16 0 -15 2 5 8 14 4 34 8 45 8 16 0 15 -2 -5 -8z m-353 -76 c-3 -3 -12 -4
-19 -1 -8 3 -5 6 6 6 11 1 17 -2 13 -5z"/>
<path d="M3230 4110 c-41 -10 -144 -32 -228 -50 -96 -21 -148 -36 -140 -41 9
-6 8 -9 -7 -10 -11 0 -14 -3 -7 -6 7 -3 19 0 27 7 8 6 27 9 42 6 17 -3 124 16
268 49 132 30 218 53 190 50 -35 -3 -44 -2 -30 4 35 16 -31 11 -115 -9z m87
-6 c-3 -3 -12 -4 -19 -1 -8 3 -5 6 6 6 11 1 17 -2 13 -5z m-44 -11 c-7 -2 -19
-2 -25 0 -7 3 -2 5 12 5 14 0 19 -2 13 -5z m-63 -13 c-14 -4 -34 -8 -45 -8
-16 0 -15 2 5 8 14 4 34 8 45 8 16 0 15 -2 -5 -8z m-90 -20 c-14 -4 -34 -8
-45 -8 -16 0 -15 2 5 8 14 4 34 8 45 8 16 0 15 -2 -5 -8z m-77 -17 c-7 -2 -19
-2 -25 0 -7 3 -2 5 12 5 14 0 19 -2 13 -5z m-63 -13 c-14 -4 -34 -8 -45 -8
-16 0 -15 2 5 8 14 4 34 8 45 8 16 0 15 -2 -5 -8z"/>
<path d="M2925 4110 c-16 -4 -79 -18 -140 -30 -60 -13 -117 -27 -125 -32 -11
-7 -10 -8 5 -4 11 2 67 15 125 27 137 28 210 47 185 47 -11 0 -33 -3 -50 -8z"/>
<path d="M3221 4060 c-237 -53 -289 -70 -201 -64 40 3 49 2 35 -5 -11 -5 -15
-10 -8 -10 7 -1 24 4 38 11 20 9 31 8 50 -2 30 -16 207 -9 213 9 2 6 7 9 12 6
7 -4 317 60 350 73 38 14 -118 19 -179 6 -35 -8 -68 -13 -75 -11 -6 2 9 7 34
12 73 12 77 22 9 23 -41 0 -142 -18 -278 -48z m216 4 c-3 -3 -12 -4 -19 -1 -8
3 -5 6 6 6 11 1 17 -2 13 -5z m-44 -11 c-7 -2 -19 -2 -25 0 -7 3 -2 5 12 5 14
0 19 -2 13 -5z m-46 -9 c-3 -3 -12 -4 -19 -1 -8 3 -5 6 6 6 11 1 17 -2 13 -5z
m-44 -11 c-7 -2 -19 -2 -25 0 -7 3 -2 5 12 5 14 0 19 -2 13 -5z m-63 -13 c-14
-4 -34 -8 -45 -8 -16 0 -15 2 5 8 14 4 34 8 45 8 16 0 15 -2 -5 -8z m-73 -16
c-3 -3 -12 -4 -19 -1 -8 3 -5 6 6 6 11 1 17 -2 13 -5z"/>
<path d="M3028 4083 c6 -2 18 -2 25 0 6 3 1 5 -13 5 -14 0 -19 -2 -12 -5z"/>
<path d="M3585 4029 c-263 -59 -256 -57 -231 -71 12 -6 21 -7 25 -1 3 6 103
32 221 58 118 26 224 52 235 56 52 20 -45 4 -250 -42z"/>
<path d="M3850 4061 c-14 -5 -110 -28 -215 -52 -104 -23 -192 -44 -195 -46 -7
-6 23 -23 40 -23 10 0 11 3 3 8 -6 4 12 8 40 9 33 1 45 -2 36 -8 -11 -7 -11
-9 -1 -9 7 0 10 -5 6 -11 -3 -6 4 -4 17 4 13 8 119 36 234 62 226 51 268 65
195 63 -25 0 -65 2 -90 6 -25 3 -56 1 -70 -3z m113 -18 c-7 -2 -19 -2 -25 0
-7 3 -2 5 12 5 14 0 19 -2 13 -5z m-63 -13 c-14 -4 -34 -8 -45 -8 -16 0 -15 2
5 8 14 4 34 8 45 8 16 0 15 -2 -5 -8z m-73 -16 c-3 -3 -12 -4 -19 -1 -8 3 -5
6 6 6 11 1 17 -2 13 -5z m-57 -14 c-14 -4 -34 -8 -45 -8 -16 0 -15 2 5 8 14 4
34 8 45 8 16 0 15 -2 -5 -8z m-115 -26 c-27 -7 -57 -13 -65 -13 -21 1 70 27
95 27 11 0 -2 -6 -30 -14z"/>
<path d="M2478 4053 c6 -2 18 -2 25 0 6 3 1 5 -13 5 -14 0 -19 -2 -12 -5z"/>
<path d="M4035 4035 c-27 -7 -116 -28 -197 -46 -82 -19 -148 -37 -148 -41 0
-3 16 -2 36 3 19 6 112 28 205 49 94 21 173 41 176 44 9 9 -16 6 -72 -9z"/>
<path d="M4707 4019 c-17 -10 -23 -29 -9 -29 5 0 16 6 27 13 22 17 7 29 -18
16z"/>
<path d="M2738 4013 c7 -3 16 -2 19 1 4 3 -2 6 -13 5 -11 0 -14 -3 -6 -6z"/>
<path d="M4280 4011 c-14 -5 -47 -13 -75 -19 -128 -28 -321 -73 -334 -78 -8
-2 -12 -7 -9 -9 3 -3 74 11 159 31 240 57 336 82 309 82 -14 0 -36 -3 -50 -7z"/>
<path d="M2890 3990 c-9 -6 -10 -10 -3 -10 6 0 15 5 18 10 8 12 4 12 -15 0z"/>
<path d="M3273 3954 c0 -16 13 -19 21 -5 3 5 0 11 -7 14 -8 3 -14 -1 -14 -9z"/>
<path d="M3658 3943 c7 -3 16 -2 19 1 4 3 -2 6 -13 5 -11 0 -14 -3 -6 -6z"/>
<path d="M3658 3923 c6 -2 18 -2 25 0 6 3 1 5 -13 5 -14 0 -19 -2 -12 -5z"/>
<path d="M3748 3903 c7 -3 16 -2 19 1 4 3 -2 6 -13 5 -11 0 -14 -3 -6 -6z"/>
<path d="M1412 3533 l3 -198 28 -3 27 -3 0 79 0 79 41 6 c23 3 51 14 61 25 27
26 34 89 15 134 -18 43 -52 63 -125 73 l-52 7 2 -199z m106 101 c35 -24 26
-58 -15 -62 -32 -3 -33 -2 -33 37 0 45 11 51 48 25z"/>
<path d="M4230 3657 c0 -4 9 -25 20 -47 26 -50 25 -62 -4 -89 -21 -20 -24 -21
-30 -5 -5 12 -10 14 -17 7 -17 -17 -2 -46 34 -68 18 -11 41 -37 52 -57 26 -50
10 -71 -52 -66 -35 3 -43 0 -43 -14 0 -9 8 -19 18 -22 27 -9 81 -65 88 -91 9
-38 -3 -48 -52 -41 -39 5 -44 3 -44 -14 0 -11 6 -20 14 -20 19 0 86 -76 86
-99 0 -35 -25 -44 -108 -38 l-77 6 0 -49 c0 -26 3 -46 8 -43 4 2 7 16 7 30 l0
26 71 -7 c60 -5 75 -4 90 10 26 24 24 74 -5 117 -23 33 -23 35 -5 40 47 12 43
86 -8 139 l-25 26 29 14 c47 22 41 98 -12 148 -22 21 -23 24 -8 46 18 29 33
31 33 6 0 -22 26 -60 35 -51 3 4 7 22 9 40 2 19 1 24 -1 12 -6 -30 -21 -29
-33 3 -13 34 -13 34 10 34 11 0 20 4 20 8 0 15 -22 30 -36 25 -8 -3 -17 3 -21
13 -9 26 -43 81 -43 71z"/>
<path d="M4445 3632 c-11 -2 -26 -9 -32 -14 -16 -12 -17 -84 -3 -93 7 -4 8 8
4 34 -4 27 -3 41 4 41 6 0 12 -17 14 -37 2 -20 8 -38 15 -40 15 -5 25 33 21
78 -2 28 -7 34 -23 31z m15 -58 c0 -13 -4 -24 -10 -24 -5 0 -10 14 -10 31 0
17 4 28 10 24 6 -3 10 -17 10 -31z"/>
<path d="M2108 3623 c6 -2 18 -2 25 0 6 3 1 5 -13 5 -14 0 -19 -2 -12 -5z"/>
<path d="M2170 3620 c0 -5 13 -16 29 -24 16 -9 40 -29 55 -46 22 -26 26 -28
26 -12 0 17 -36 60 -46 55 -10 -6 -33 10 -27 20 3 6 1 7 -5 3 -7 -4 -12 -2
-12 3 0 6 -4 11 -10 11 -5 0 -10 -4 -10 -10z m91 -57 c13 -16 12 -17 -3 -4
-10 7 -18 15 -18 17 0 8 8 3 21 -13z"/>
<path d="M2350 3611 c0 -28 24 -45 39 -27 15 18 3 46 -20 46 -12 0 -19 -7 -19
-19z"/>
<path d="M1618 3456 c3 -143 3 -144 27 -148 14 -3 27 -3 30 0 3 3 5 47 5 98 0
105 5 124 30 124 11 0 20 10 24 26 9 36 -6 51 -39 36 -15 -7 -25 -8 -25 -2 0
6 -12 10 -27 10 l-28 0 3 -144z"/>
<path d="M1779 3549 c-68 -72 -41 -222 48 -264 46 -22 93 -19 127 9 l30 23
-28 18 c-22 14 -32 16 -51 7 -17 -8 -33 -8 -49 -2 -26 10 -63 56 -53 67 4 3
40 0 82 -6 114 -17 108 -19 103 39 -12 119 -137 186 -209 109z m125 -50 c42
-33 33 -43 -31 -35 -31 4 -58 8 -60 10 -8 8 10 35 25 39 32 9 39 7 66 -14z"/>
<path d="M2730 3375 c0 -136 3 -205 10 -205 7 0 10 69 10 205 -1 113 -5 205
-10 205 -5 0 -9 -92 -10 -205z"/>
<path d="M2790 3558 c0 -12 3 -18 7 -14 11 10 12 36 2 36 -5 0 -9 -10 -9 -22z"/>
<path d="M2290 3511 c0 -6 4 -13 10 -16 6 -3 7 1 4 9 -7 18 -14 21 -14 7z"/>
<path d="M2855 3494 c-32 -17 -45 -31 -45 -53 0 -11 6 -9 23 6 53 48 131 59
167 23 50 -50 1 -150 -73 -150 l-34 0 8 43 c13 69 11 87 -10 87 -15 0 -20 -10
-25 -60 -7 -61 -13 -69 -34 -48 -6 6 -15 8 -19 4 -4 -4 3 -15 16 -25 23 -17
23 -20 12 -83 -14 -82 -14 -78 9 -78 13 0 20 7 20 20 0 10 5 42 11 70 10 48
12 50 45 50 47 0 91 24 114 63 33 53 20 114 -27 136 -35 16 -123 13 -158 -5z"/>
<path d="M2469 3459 c-17 -16 -28 -33 -24 -39 3 -5 1 -10 -4 -10 -12 0 -14
-45 -5 -102 7 -39 43 -88 65 -88 7 0 3 8 -8 18 -28 24 -40 50 -48 104 -6 41
-4 51 18 80 53 67 117 63 168 -10 27 -40 29 -120 4 -158 -16 -25 -9 -39 12
-22 12 10 13 7 8 -15 -4 -16 -3 -27 3 -27 15 0 16 266 1 275 -8 5 -9 1 -5 -13
9 -28 -10 -38 -24 -12 -6 11 -18 20 -26 20 -9 0 -12 5 -8 12 5 8 2 9 -9 5 -10
-3 -17 -2 -17 3 0 21 -72 6 -101 -21z"/>
<path d="M3072 3473 c2 -10 13 -19 25 -21 18 -3 21 -8 17 -30 -2 -15 -11 -63
-19 -107 -20 -109 -19 -158 3 -178 28 -26 46 -21 86 23 l36 40 0 -28 c0 -35
26 -72 50 -72 17 0 90 74 90 92 0 4 5 8 10 8 6 0 10 -18 10 -39 0 -39 20 -71
43 -71 20 1 56 33 85 78 l28 42 16 -34 17 -34 -37 -23 c-45 -30 -49 -42 -23
-68 26 -26 42 -26 75 0 19 15 26 30 26 54 0 24 7 37 25 49 30 20 76 68 70 74
-2 3 -23 -12 -45 -32 -22 -20 -46 -36 -54 -36 -7 0 -20 18 -29 40 -13 33 -13
41 -1 51 18 15 18 45 0 52 -18 7 -46 -23 -46 -50 0 -22 -42 -90 -68 -110 -9
-7 -25 -13 -35 -13 -18 0 -19 5 -14 73 3 39 7 81 9 92 2 12 -4 21 -14 23 -12
2 -18 -3 -18 -15 0 -54 -94 -184 -121 -168 -11 8 -8 88 7 158 11 49 -21 31
-44 -26 -26 -63 -75 -120 -100 -115 -26 5 -25 46 2 196 l24 134 -24 -6 c-14
-4 -34 -2 -45 5 -18 9 -20 8 -17 -8z m496 -410 c-16 -16 -48 -8 -48 13 0 7 12
20 28 28 25 13 27 13 30 -6 2 -11 -3 -27 -10 -35z"/>
<path d="M4423 3480 c-24 -10 -25 -11 -27 -77 -2 -46 4 -50 48 -33 37 14 33
33 -4 25 -28 -6 -30 -5 -30 23 0 24 6 32 30 41 17 5 30 15 30 20 0 13 -17 13
-47 1z"/>
<path d="M2291 3464 c0 -11 3 -14 6 -6 3 7 2 16 -1 19 -3 4 -6 -2 -5 -13z"/>
<path d="M2361 3350 c0 -71 5 -130 10 -130 5 0 9 59 9 130 0 84 -4 130 -10
130 -7 0 -10 -45 -9 -130z"/>
<path d="M2307 3436 c-4 -9 -9 -38 -13 -66 -4 -27 -10 -47 -15 -44 -5 3 -6 -3
-2 -12 4 -11 2 -15 -4 -11 -5 3 -20 -3 -32 -14 -12 -12 -38 -23 -58 -24 -19
-2 -38 -6 -41 -9 -3 -3 12 -4 34 -2 100 12 113 24 130 125 12 66 12 86 1 57z"/>
<path d="M4408 3313 c-10 -2 -18 -9 -18 -14 0 -5 8 -9 18 -9 28 0 62 12 62 21
0 9 -31 10 -62 2z"/>
<path d="M4360 3284 c0 -8 5 -12 10 -9 6 3 10 10 10 16 0 5 -4 9 -10 9 -5 0
-10 -7 -10 -16z"/>
<path d="M2060 3270 c0 -5 5 -10 11 -10 5 0 7 5 4 10 -3 6 -8 10 -11 10 -2 0
-4 -4 -4 -10z"/>
<path d="M2098 3263 c6 -2 18 -2 25 0 6 3 1 5 -13 5 -14 0 -19 -2 -12 -5z"/>
<path d="M4407 3235 c-19 -19 -23 -195 -4 -195 28 0 57 13 57 26 0 10 -8 12
-30 8 -27 -6 -30 -4 -30 20 0 21 7 29 30 37 17 6 30 16 30 23 0 8 -11 11 -30
8 -27 -4 -30 -1 -30 22 0 20 8 29 35 40 19 8 35 17 35 20 0 12 -49 5 -63 -9z"/>
<path d="M2550 3210 c-30 -4 -50 -8 -45 -9 56 -11 82 -10 100 3 11 9 16 15 10
14 -5 -1 -35 -4 -65 -8z"/>
<path d="M2420 3035 c0 -57 4 -95 10 -95 6 0 10 32 11 73 l1 72 25 -77 c13
-43 28 -78 33 -78 4 0 20 33 33 73 l25 72 1 -72 c1 -39 6 -75 11 -78 7 -5 10
26 8 92 -2 78 -6 98 -18 98 -9 0 -22 -25 -36 -69 -11 -38 -23 -65 -26 -60 -3
5 -13 39 -23 77 -14 52 -22 67 -36 67 -17 0 -19 -9 -19 -95z"/>
<path d="M2837 3073 c-4 -3 -7 -14 -7 -24 0 -10 -5 -21 -10 -24 -16 -10 -50 5
-50 21 0 8 -4 14 -10 14 -5 0 -10 -7 -10 -15 0 -8 -5 -15 -12 -15 -9 0 -9 -3
0 -12 7 -7 12 -33 12 -59 0 -48 19 -77 41 -63 8 5 7 9 -5 16 -21 12 -23 98 -2
98 38 0 46 -12 46 -66 0 -30 5 -54 10 -54 6 0 10 24 10 54 0 34 5 57 13 60 10
5 10 7 0 12 -18 8 -16 44 2 44 8 0 15 5 15 10 0 11 -33 14 -43 3z"/>
<path d="M2638 3039 c-21 -12 -25 -98 -6 -117 17 -17 67 -15 75 3 9 24 -6 31
-21 10 -12 -16 -16 -17 -30 -6 -29 24 -19 41 24 41 22 0 40 4 40 10 0 15 -23
60 -31 60 -4 0 -13 2 -21 5 -7 2 -21 0 -30 -6z m36 -15 c25 -10 19 -34 -9 -34
-24 0 -34 18 -18 33 8 8 8 8 27 1z"/>
<path d="M2902 2998 c-19 -19 -15 -92 6 -111 24 -22 56 -22 77 0 22 21 14 91
-11 110 -22 16 -56 17 -72 1z m67 -30 c10 -28 2 -68 -15 -75 -32 -12 -55 37
-38 81 9 23 43 20 53 -6z"/>
<path d="M3332 2998 c6 -18 28 -21 28 -4 0 9 -7 16 -16 16 -9 0 -14 -5 -12
-12z"/>
<path d="M4391 2978 c-1 -39 4 -43 47 -32 34 10 28 35 -7 28 -25 -5 -30 -3
-34 17 -3 16 -5 12 -6 -13z"/>
<path d="M3030 2923 c0 -35 4 -63 10 -63 6 0 10 12 10 28 0 45 11 70 31 75 32
9 21 25 -16 24 l-35 -1 0 -63z"/>
<path d="M3120 2914 c0 -36 4 -64 10 -64 6 0 10 19 10 43 0 50 12 72 34 64 12
-5 16 -20 16 -62 0 -41 4 -55 14 -55 11 0 16 15 18 53 3 44 6 52 23 52 17 0
20 -8 23 -57 4 -76 22 -75 22 1 0 65 -10 80 -56 80 -16 1 -48 3 -71 5 l-43 5
0 -65z"/>
<path d="M3330 2885 c0 -51 3 -65 15 -65 12 0 15 14 15 65 0 51 -3 65 -15 65
-12 0 -15 -14 -15 -65z"/>
<path d="M3400 2881 c0 -41 4 -71 10 -71 6 0 10 23 10 50 0 36 4 52 15 56 24
10 46 -16 45 -50 -3 -50 -1 -66 10 -66 13 0 13 96 -1 121 -7 14 -19 19 -37 18
-15 -2 -33 0 -40 4 -9 6 -12 -9 -12 -62z"/>
<path d="M3553 2923 c-14 -5 -18 -33 -5 -33 4 0 13 5 20 12 8 8 15 8 26 -2 21
-17 11 -30 -24 -30 -28 0 -40 -15 -40 -50 0 -24 16 -34 62 -36 l38 -2 0 58 c0
49 -4 61 -22 74 -23 16 -34 18 -55 9z m47 -92 c0 -27 -19 -36 -37 -18 -18 18
-9 37 18 37 12 0 19 -7 19 -19z"/>
<path d="M4413 2902 c-14 -9 -33 -56 -33 -81 0 -9 6 -25 13 -35 33 -45 84 43
58 100 -11 25 -19 28 -38 16z m34 -38 c8 -21 -13 -64 -31 -64 -20 0 -29 35
-16 60 13 24 38 26 47 4z"/>
<path d="M4136 2887 c-9 -7 -20 -34 -25 -62 -9 -50 -7 -74 5 -39 15 50 25 64
43 64 22 0 39 -19 51 -57 7 -25 8 -25 9 -5 2 61 -49 124 -83 99z"/>
<path d="M4380 2738 c0 -21 -16 -24 -23 -5 -3 6 -6 0 -6 -15 -1 -18 4 -28 13
-28 8 0 17 -6 19 -12 4 -8 6 -7 6 4 1 10 13 19 31 23 38 8 41 34 4 27 -16 -3
-30 1 -35 9 -7 11 -9 10 -9 -3z"/>
<path d="M4178 2722 c-30 -3 -38 -7 -38 -23 0 -15 7 -19 34 -19 24 0 36 -5 39
-17 4 -16 5 -16 6 1 1 16 7 18 41 13 42 -5 54 1 44 26 -6 16 -61 24 -126 19z"/>
<path d="M4115 2681 c6 -49 20 -81 37 -81 6 0 3 10 -6 25 -9 13 -21 42 -26 62
l-10 38 5 -44z"/>
<path d="M4440 2656 c0 -7 -11 -16 -25 -18 -18 -4 -25 -1 -25 11 0 9 -6 4 -15
-12 -13 -25 -13 -30 0 -44 12 -11 15 -12 15 -1 0 8 14 19 30 25 20 8 30 18 30
32 0 12 -2 21 -5 21 -3 0 -5 -6 -5 -14z"/>
<path d="M2980 2639 c0 -5 11 -11 25 -15 23 -6 25 -10 25 -71 0 -42 4 -62 10
-58 6 4 10 14 9 23 -1 10 -1 36 0 60 1 36 4 42 24 42 17 1 19 2 7 9 -22 12
-100 20 -100 10z"/>
<path d="M3206 2609 c-8 -17 -4 -147 4 -140 3 2 15 -1 27 -7 17 -10 25 -9 37
4 34 34 7 112 -35 101 -14 -4 -19 2 -21 27 -3 23 -6 27 -12 15z m62 -93 c4
-36 -11 -54 -33 -36 -15 13 -20 51 -8 64 15 15 38 0 41 -28z"/>
<path d="M3316 2584 c-10 -26 -7 -134 4 -134 6 0 10 32 10 75 0 76 -3 88 -14
59z"/>
<path d="M3107 2574 c-12 -13 4 -25 18 -14 8 7 19 9 25 5 18 -11 10 -25 -15
-25 -51 0 -42 -64 9 -66 26 -1 27 0 24 50 -3 46 -5 51 -28 54 -14 2 -29 0 -33
-4z m47 -69 c-4 -8 -12 -15 -20 -15 -8 0 -14 7 -14 15 0 8 9 15 20 15 13 0 18
-5 14 -15z"/>
<path d="M4436 2542 c4 -25 2 -42 -5 -46 -7 -5 -11 6 -11 33 0 23 -4 41 -9 41
-19 0 -32 -30 -29 -67 3 -43 32 -58 55 -27 15 21 17 90 3 99 -7 4 -8 -7 -4
-33z m-26 -26 c0 -14 -4 -28 -10 -31 -6 -4 -10 7 -10 24 0 17 5 31 10 31 6 0
10 -11 10 -24z"/>
<path d="M3462 2540 c-7 -11 -8 -20 -3 -20 6 0 11 -21 13 -47 2 -39 7 -49 23
-51 16 -3 18 -1 8 9 -15 15 -17 70 -4 85 5 5 2 16 -8 26 -16 16 -17 16 -29 -2z"/>
<path d="M3377 2538 c-22 -12 -23 -71 -1 -92 19 -20 38 -20 54 -2 10 13 7 15
-16 13 -19 -1 -29 3 -32 14 -2 12 4 15 28 11 24 -3 30 -1 30 14 0 37 -33 59
-63 42z m41 -26 c2 -7 -6 -12 -17 -12 -21 0 -27 11 -14 24 9 9 26 2 31 -12z"/>
<path d="M3530 2504 c0 -13 3 -14 15 -4 8 6 19 9 25 5 17 -10 11 -23 -11 -27
-55 -8 -44 -68 12 -68 27 0 29 2 29 43 0 24 -5 48 -12 55 -18 18 -58 15 -58
-4z m50 -59 c0 -8 -9 -15 -20 -15 -11 0 -20 7 -20 15 0 8 9 15 20 15 11 0 20
-7 20 -15z"/>
<path d="M1898 2430 c-11 -7 -18 -23 -18 -44 0 -26 10 -43 48 -80 63 -62 103
-73 281 -75 79 -1 148 -4 152 -7 13 -7 47 14 59 36 14 25 0 58 -41 99 -68 66
-95 73 -289 78 -116 3 -181 0 -192 -7z"/>
<path d="M4388 2412 c-34 -11 -48 -21 -48 -34 0 -17 8 -22 69 -44 10 -3 3 -17
-27 -47 -50 -51 -56 -82 -14 -74 46 9 82 26 82 38 0 11 -22 8 -67 -7 -10 -4 0
12 25 37 23 25 42 49 42 55 0 6 -21 17 -47 25 l-48 15 44 15 c25 8 46 20 49
27 5 15 0 14 -60 -6z"/>
<path d="M1880 2298 c0 -25 57 -83 105 -107 40 -20 70 -25 208 -33 89 -5 171
-6 183 -4 11 3 26 17 32 31 11 24 10 25 -8 15 -24 -13 -316 -4 -378 12 -27 7
-62 28 -93 55 -27 25 -49 39 -49 31z"/>
<path d="M2882 2269 c2 -8 19 -15 36 -17 18 -2 32 -4 32 -6 0 -1 -11 -31 -25
-66 -25 -65 -26 -76 -2 -67 13 5 65 142 57 151 -3 2 -27 7 -54 11 -39 6 -48 5
-44 -6z"/>
<path d="M3000 2216 c0 -47 12 -65 34 -47 9 7 16 7 24 -1 14 -14 15 -28 2 -48
-7 -12 -12 -12 -29 5 -25 22 -37 15 -21 -14 17 -32 68 -29 80 5 13 34 -7 78
-38 82 -34 5 -28 32 8 32 17 0 30 4 30 9 0 10 -34 21 -67 21 -20 0 -23 -5 -23
-44z"/>
<path d="M3129 2224 c-19 -23 -16 -110 6 -134 23 -25 51 -26 65 -1 16 31 12
117 -6 135 -20 20 -48 20 -65 0z m54 -41 c7 -38 -3 -83 -18 -83 -17 0 -28 49
-19 84 8 34 30 33 37 -1z"/>
<path d="M3300 2109 c0 -58 19 -86 21 -31 2 52 4 57 22 60 14 3 17 -4 17 -47
0 -38 4 -51 14 -51 10 0 16 14 18 42 2 31 8 44 21 46 14 3 17 -4 17 -47 0 -39
4 -51 15 -51 11 0 15 12 15 48 0 26 -4 52 -8 58 -11 16 -41 24 -48 13 -4 -6
-11 -6 -20 2 -8 6 -30 13 -49 15 l-35 2 0 -59z"/>
<path d="M3506 2125 c-33 -34 -8 -105 37 -105 9 0 17 -6 17 -14 0 -24 -19 -29
-37 -10 -13 13 -18 14 -21 4 -5 -15 25 -40 48 -40 31 0 40 23 40 97 0 65 -2
73 -19 73 -11 0 -26 3 -34 6 -8 3 -22 -2 -31 -11z m54 -51 c0 -28 -3 -35 -17
-32 -12 2 -19 14 -21 36 -3 27 0 32 17 32 17 0 21 -6 21 -36z"/>
<path d="M4074 2077 c-3 -9 -4 -24 -2 -34 3 -16 5 -15 17 6 9 16 10 26 2 34
-7 7 -12 6 -17 -6z"/>
<path d="M695 2011 c-21 -5 6 -9 90 -13 132 -7 238 -26 348 -63 39 -13 72 -23
74 -21 7 7 -120 58 -194 77 -83 21 -267 33 -318 20z"/>
<path d="M730 1955 c-11 -13 -9 -21 9 -46 13 -17 20 -37 17 -46 -4 -9 -1 -13
6 -11 21 7 20 43 -2 63 -23 21 -26 41 -7 48 7 4 8 6 1 6 -6 1 -17 -6 -24 -14z"/>
<path d="M853 1895 c-5 -31 -7 -58 -3 -60 4 -3 10 12 14 33 3 20 9 47 12 60 4
12 2 22 -3 22 -5 0 -14 -25 -20 -55z"/>
<path d="M806 1898 c-8 -32 -7 -58 2 -58 4 0 8 18 10 40 3 44 -2 52 -12 18z"/>
<path d="M896 1884 c-3 -9 -6 -28 -5 -42 1 -26 1 -26 8 4 4 17 11 36 15 42 4
7 3 12 -2 12 -6 0 -13 -7 -16 -16z"/>
<path d="M934 1864 c-4 -24 -2 -39 6 -47 7 -7 10 -7 7 -1 -3 5 -2 27 3 47 4
20 4 37 -1 37 -4 0 -11 -16 -15 -36z"/>
<path d="M978 1853 c-5 -36 -3 -51 6 -42 10 10 17 79 8 79 -5 0 -12 -17 -14
-37z"/>
<path d="M1022 1840 c-2 -22 1 -40 5 -40 4 0 9 18 11 40 1 22 -1 40 -6 40 -4
0 -9 -18 -10 -40z"/>
<path d="M1072 1858 c-15 -15 -16 -55 0 -64 6 -4 8 -3 5 3 -4 6 -2 24 3 42 10
35 9 36 -8 19z"/>
<path d="M1107 1853 c-4 -3 -7 -11 -7 -17 0 -6 5 -5 12 2 6 6 9 14 7 17 -3 3
-9 2 -12 -2z"/>
<path d="M1140 1849 c0 -8 7 -23 15 -33 8 -10 12 -23 9 -27 -3 -5 0 -9 5 -9
17 0 13 30 -9 57 -11 14 -20 20 -20 12z"/>
<path d="M729 1799 c103 -51 190 -71 336 -74 120 -3 124 -3 55 6 -196 25 -293
46 -435 93 -11 3 9 -8 44 -25z"/>
<path d="M3276 1815 c-25 -26 -25 -98 0 -127 22 -23 50 -28 73 -11 28 19 30
102 4 125 -29 26 -59 30 -77 13z m58 -18 c13 -10 17 -24 14 -57 -3 -39 -6 -45
-27 -48 -33 -5 -43 10 -43 59 1 54 22 71 56 46z"/>
<path d="M3570 1705 c0 -43 4 -75 10 -75 6 0 10 32 10 75 0 43 -4 75 -10 75
-6 0 -10 -32 -10 -75z"/>
<path d="M3400 1704 c0 -30 5 -54 10 -54 6 0 10 18 10 40 0 27 5 43 15 46 23
9 18 19 -10 20 -24 2 -25 -1 -25 -52z"/>
<path d="M3477 1743 c-15 -14 -6 -23 18 -17 19 5 25 2 25 -10 0 -10 -9 -16
-24 -16 -25 0 -39 -20 -30 -44 3 -8 21 -16 40 -18 l34 -4 0 46 c0 25 -5 51
-12 58 -13 13 -41 16 -51 5z m43 -67 c0 -21 -21 -31 -30 -15 -5 7 -6 17 -4 21
9 14 34 9 34 -6z"/>
<path d="M1208 1733 c7 -3 16 -2 19 1 4 3 -2 6 -13 5 -11 0 -14 -3 -6 -6z"/>
<path d="M1772 1628 l3 -73 34 -3 c21 -2 31 0 26 7 -3 6 -15 11 -26 11 -17 0
-19 7 -19 65 0 38 -4 65 -10 65 -7 0 -10 -27 -8 -72z"/>
<path d="M1860 1676 c0 -9 5 -16 10 -16 6 0 10 4 10 9 0 6 -4 13 -10 16 -5 3
-10 -1 -10 -9z"/>
<path d="M1911 1609 c-1 -76 -1 -77 26 -84 29 -7 53 13 53 45 0 25 -29 60 -50
60 -13 0 -20 9 -23 28 -2 15 -5 -7 -6 -49z m54 -34 c0 -39 -30 -47 -39 -10 -8
31 0 47 22 43 11 -2 17 -13 17 -33z"/>
<path d="M4179 1630 c-41 -40 -59 -90 -59 -167 0 -65 16 -102 49 -110 62 -15
114 59 119 172 4 76 -11 136 -29 118 -6 -6 -10 -28 -9 -49 0 -22 2 -53 2 -70
1 -17 -5 -46 -13 -65 -13 -33 -14 -29 -19 86 l-5 120 -36 -35z m2 -140 c-6
-79 -24 -84 -24 -6 0 35 19 94 27 84 2 -1 0 -37 -3 -78z"/>
<path d="M1860 1590 c0 -27 5 -50 10 -50 6 0 10 23 10 50 0 28 -4 50 -10 50
-5 0 -10 -22 -10 -50z"/>
<path d="M2004 1586 c-13 -54 32 -104 64 -72 9 8 12 19 8 23 -5 5 -11 2 -13
-4 -7 -18 -30 -16 -37 3 -9 25 -8 26 24 19 25 -5 30 -3 30 12 0 45 -65 61 -76
19z m54 -4 c2 -7 -6 -12 -17 -12 -21 0 -27 11 -14 24 9 9 26 2 31 -12z"/>
<path d="M2100 1551 c0 -28 5 -51 10 -51 6 0 10 16 10 35 0 24 5 35 15 35 8 0
15 5 15 10 0 6 -4 10 -9 10 -5 0 -16 3 -25 6 -13 5 -16 -2 -16 -45z"/>
<path d="M2340 1590 c0 -5 7 -10 16 -10 8 0 12 5 9 10 -3 6 -10 10 -16 10 -5
0 -9 -4 -9 -10z"/>
<path d="M2177 1583 c-13 -12 -7 -23 11 -20 9 1 17 -2 17 -8 0 -5 -6 -10 -14
-10 -8 0 -18 -7 -24 -17 -14 -22 7 -48 39 -48 22 0 24 4 24 45 0 34 -5 47 -19
55 -23 12 -26 12 -34 3z m43 -62 c0 -13 -26 -32 -33 -24 -14 13 -6 33 13 33
11 0 20 -4 20 -9z"/>
<path d="M2426 1574 c-4 -10 -1 -14 6 -12 15 5 23 28 10 28 -5 0 -13 -7 -16
-16z"/>
<path d="M2260 1545 c-11 -30 2 -73 26 -82 19 -7 51 21 35 31 -6 4 -11 2 -11
-3 0 -6 -7 -11 -15 -11 -16 0 -31 43 -20 59 8 14 35 14 35 1 0 -5 5 -10 10
-10 7 0 7 6 0 20 -15 28 -48 25 -60 -5z"/>
<path d="M2353 1505 c0 -33 2 -45 4 -27 2 18 2 45 0 60 -2 15 -4 0 -4 -33z"/>
<path d="M2402 1538 c-7 -7 -12 -27 -12 -44 0 -40 33 -69 62 -53 24 13 24 70
0 92 -22 20 -34 21 -50 5z m48 -28 c8 -14 8 -26 0 -41 -14 -25 -34 -20 -38 10
-7 47 18 68 38 31z"/>
<path d="M2650 1476 c0 -44 4 -76 10 -76 6 0 10 14 10 30 0 27 3 30 29 30 21
0 32 6 36 20 7 22 -10 60 -28 60 -7 0 -22 3 -34 6 -22 6 -23 4 -23 -70z m51
44 c28 -15 24 -40 -6 -40 -20 0 -25 5 -25 25 0 28 3 29 31 15z"/>
<path d="M2500 1479 c0 -27 5 -49 10 -49 6 0 10 18 10 41 0 33 3 40 18 37 12
-2 18 -15 20 -46 4 -49 22 -57 22 -9 0 43 -23 75 -55 75 -23 0 -25 -4 -25 -49z"/>
<path d="M2930 1425 c0 -43 4 -75 10 -75 6 0 10 32 10 75 0 43 -4 75 -10 75
-6 0 -10 -32 -10 -75z"/>
<path d="M2760 1434 c0 -30 5 -54 10 -54 6 0 10 18 10 40 0 29 4 40 15 40 25
0 17 17 -10 22 -24 5 -25 3 -25 -48z"/>
<path d="M2832 1458 c-17 -17 -15 -64 4 -83 42 -41 94 18 60 69 -18 28 -44 34
-64 14z m53 -43 c0 -23 -4 -30 -20 -30 -15 0 -21 8 -23 33 -3 30 -1 33 20 30
18 -2 23 -9 23 -33z"/>
<path d="M2980 1415 c-19 -50 29 -105 65 -75 18 15 20 71 3 88 -21 21 -58 14
-68 -13z m58 -28 c2 -28 -1 -37 -12 -37 -24 0 -39 36 -26 61 16 30 35 18 38
-24z"/>
<path d="M3090 1374 c0 -30 5 -54 10 -54 6 0 10 17 10 38 0 43 6 53 26 45 9
-3 14 -21 14 -49 0 -24 5 -44 10 -44 15 0 12 86 -2 97 -7 6 -25 13 -40 15 -28
5 -28 5 -28 -48z"/>
<path d="M3206 1394 c-33 -32 -10 -94 35 -94 21 0 26 -15 8 -25 -5 -4 -19 1
-31 12 -20 18 -20 18 -17 -2 3 -15 12 -20 39 -20 l35 0 3 68 c2 53 0 68 -10
64 -7 -2 -21 0 -30 4 -11 6 -22 4 -32 -7z m44 -19 c17 -20 8 -50 -15 -50 -20
0 -31 25 -21 51 7 18 20 18 36 -1z"/>
<path d="M3470 1386 c0 -19 -4 -23 -20 -19 -28 7 -50 -14 -50 -48 0 -36 24
-59 61 -59 l29 0 0 75 c0 43 -4 75 -10 75 -5 0 -10 -11 -10 -24z m-2 -64 c5
-32 -16 -56 -34 -41 -15 12 -19 51 -7 63 14 13 38 0 41 -22z"/>
<path d="M3317 1383 c-15 -14 -6 -23 18 -17 18 5 25 2 25 -9 0 -10 -7 -13 -18
-10 -24 6 -45 -21 -37 -47 5 -15 15 -20 41 -20 34 0 34 0 34 45 0 34 -5 47
-19 55 -23 12 -35 13 -44 3z m41 -70 c-2 -10 -10 -18 -18 -18 -8 0 -16 8 -18
18 -2 12 3 17 18 17 15 0 20 -5 18 -17z"/>
<path d="M3520 1333 c0 -13 3 -14 11 -6 12 12 39 7 39 -8 0 -5 -11 -9 -24 -9
-16 0 -27 -7 -31 -20 -9 -28 11 -50 46 -50 27 0 29 2 29 43 0 24 -5 48 -12 55
-18 18 -58 15 -58 -5z m48 -55 c-7 -19 -38 -22 -38 -4 0 10 9 16 21 16 12 0
19 -5 17 -12z"/>
<path d="M4116 1305 c-3 -8 -2 -25 3 -38 4 -12 6 -40 3 -61 -3 -30 -2 -38 9
-34 149 59 147 58 151 94 2 19 2 34 -2 34 -3 0 -26 -7 -51 -16 -53 -19 -79
-14 -79 16 0 23 -25 27 -34 5z"/>
<path d="M2106 1154 c-13 -33 -6 -84 14 -104 11 -11 24 -20 28 -20 15 0 47 28
40 36 -4 4 -14 1 -23 -6 -25 -21 -47 5 -43 53 3 45 18 56 42 31 20 -20 34 -11
16 11 -17 20 -66 20 -74 -1z"/>
<path d="M4091 1124 c-11 -14 -23 -40 -25 -58 -10 -65 -16 -163 -10 -168 4 -5
74 21 212 79 6 3 12 20 12 39 0 37 -11 41 -50 19 -14 -8 -28 -14 -31 -15 -4 0
-10 24 -13 52 -4 29 -12 58 -18 65 -17 21 -55 15 -77 -13z m49 -89 c0 -24 -6
-38 -20 -45 -18 -10 -20 -8 -20 20 0 37 17 73 31 65 5 -4 9 -22 9 -40z"/>
<path d="M2295 1130 c3 -5 8 -10 11 -10 2 0 4 5 4 10 0 6 -5 10 -11 10 -5 0
-7 -4 -4 -10z"/>
<path d="M2210 1106 c0 -9 7 -12 20 -9 11 3 20 0 20 -6 0 -6 -9 -11 -19 -11
-25 0 -34 -14 -26 -40 4 -14 15 -20 36 -20 27 0 29 3 29 38 0 21 -5 43 -12 50
-16 16 -48 15 -48 -2z m35 -66 c-5 -8 -11 -8 -17 -2 -6 6 -7 16 -3 22 5 8 11
8 17 2 6 -6 7 -16 3 -22z"/>
<path d="M945 1084 c33 -7 69 -13 80 -13 11 1 -7 7 -40 15 -33 7 -69 13 -80
13 -11 -1 7 -7 40 -15z"/>
<path d="M2288 1040 c-2 -43 1 -60 10 -60 8 0 12 19 12 60 0 78 -17 78 -22 0z"/>
<path d="M4673 1020 c0 -47 2 -66 4 -42 2 23 2 61 0 85 -2 23 -4 4 -4 -43z"/>
<path d="M2340 1080 c0 -5 6 -7 14 -4 8 3 17 1 20 -4 3 -6 -5 -13 -19 -16 -16
-4 -25 -13 -25 -26 0 -22 10 -29 45 -36 23 -4 25 -1 25 30 0 19 -3 41 -6 50
-7 17 -54 23 -54 6z m40 -55 c0 -8 -7 -15 -15 -15 -8 0 -15 7 -15 15 0 8 7 15
15 15 8 0 15 -7 15 -15z"/>
<path d="M1130 1049 c47 -10 94 -18 105 -18 11 1 -18 9 -65 20 -47 10 -94 18
-105 18 -11 -1 18 -9 65 -20z"/>
<path d="M2467 1063 c-12 -11 -8 -68 5 -81 17 -17 45 -15 52 3 4 12 0 14 -19
9 -23 -6 -25 -3 -25 25 0 21 5 31 15 31 8 0 15 -4 15 -10 0 -5 5 -10 10 -10 7
0 7 6 0 20 -10 19 -40 27 -53 13z"/>
<path d="M2547 1044 c-13 -13 -7 -62 9 -79 34 -34 76 3 58 52 -9 27 -50 44
-67 27z m48 -39 c0 -43 -29 -40 -33 3 -3 28 0 33 15 30 13 -2 18 -12 18 -33z"/>
<path d="M2787 1043 c-4 -3 -7 -13 -7 -21 0 -12 3 -12 15 -2 8 6 19 9 25 5 15
-9 12 -35 -5 -35 -8 0 -15 -4 -15 -9 0 -5 7 -11 15 -15 18 -7 20 -36 2 -36 -7
0 -18 5 -25 12 -6 6 -14 9 -17 6 -11 -11 28 -39 49 -36 18 3 21 10 22 56 1 34
-4 59 -13 68 -15 15 -35 18 -46 7z"/>
<path d="M2640 989 c0 -27 5 -49 10 -49 6 0 10 18 10 41 0 50 23 49 28 -2 6
-57 24 -61 20 -4 -3 47 -5 50 -35 56 l-33 6 0 -48z"/>
<path d="M1268 1023 c6 -2 18 -2 25 0 6 3 1 5 -13 5 -14 0 -19 -2 -12 -5z"/>
<path d="M2868 1005 c-14 -32 0 -94 25 -109 24 -15 47 15 47 62 0 68 -48 99
-72 47z m50 -40 c4 -43 -13 -69 -28 -45 -11 17 -13 74 -3 84 15 14 28 -2 31
-39z"/>
<path d="M1365 1004 c33 -7 69 -13 80 -13 11 1 -7 7 -40 15 -33 7 -69 13 -80
13 -11 -1 7 -7 40 -15z"/>
<path d="M1575 964 c61 -12 119 -23 130 -23 11 1 -29 12 -90 25 -60 12 -119
23 -130 23 -11 -1 30 -12 90 -25z"/>
<path d="M3001 976 c-8 -10 -9 -16 -1 -21 5 -3 10 -24 10 -46 0 -28 4 -39 15
-39 8 0 15 5 15 10 0 6 -4 10 -10 10 -15 0 -12 58 2 62 9 3 8 9 -4 21 -13 14
-18 14 -27 3z"/>
<path d="M3150 922 c0 -68 1 -70 27 -77 29 -7 53 13 53 46 0 23 -27 49 -50 49
-13 0 -17 5 -13 19 3 10 0 22 -6 25 -8 5 -11 -15 -11 -62z m58 -36 c-4 -28
-35 -33 -43 -6 -9 29 12 55 32 38 8 -6 13 -21 11 -32z"/>
<path d="M3250 900 c0 -39 4 -69 9 -66 12 8 13 123 1 131 -6 4 -10 -20 -10
-65z"/>
<path d="M3067 953 c-13 -13 -7 -21 12 -16 10 3 22 0 25 -6 5 -7 -2 -11 -18
-11 -49 0 -46 -55 4 -62 30 -4 30 -4 30 43 0 33 -4 49 -16 53 -20 8 -29 8 -37
-1z m37 -52 c3 -5 -1 -14 -8 -20 -16 -13 -32 2 -21 19 8 12 22 13 29 1z"/>
<path d="M1840 914 c63 -13 122 -22 130 -21 16 3 -210 48 -231 46 -8 -1 38
-12 101 -25z"/>
<path d="M4630 920 c-24 -15 -7 -18 20 -3 14 7 18 13 10 13 -8 0 -22 -4 -30
-10z"/>
<path d="M3301 907 c-19 -19 -13 -75 10 -87 22 -13 49 -7 49 10 0 6 -10 8 -24
4 -16 -4 -25 -1 -30 11 -5 15 -1 17 24 13 28 -4 31 -2 28 20 -3 28 -39 47 -57
29z m39 -22 c0 -9 -6 -12 -15 -9 -8 4 -15 10 -15 15 0 5 7 9 15 9 8 0 15 -7
15 -15z"/>
<path d="M3381 906 c-9 -10 -9 -16 -1 -21 6 -4 10 -17 9 -28 -3 -43 1 -57 18
-57 13 0 14 3 5 12 -16 16 -15 65 0 70 9 3 8 9 -4 21 -13 14 -18 14 -27 3z"/>
<path d="M1995 884 c6 -2 260 -51 565 -109 305 -58 695 -133 865 -166 171 -33
324 -61 340 -61 29 -1 190 60 182 68 -2 3 -36 -9 -75 -26 -39 -16 -85 -30
-102 -30 -18 0 -149 23 -293 51 -144 27 -345 66 -447 85 -614 116 -574 108
-579 129 -6 36 -41 48 -41 14 0 -28 -34 -21 -38 9 -4 29 -42 31 -42 1 0 -27
-24 -19 -28 9 -4 28 -42 31 -42 3 0 -17 -5 -17 -122 5 -111 22 -170 29 -143
18z"/>
<path d="M3447 883 c-13 -13 -7 -21 12 -16 10 3 22 0 25 -6 5 -7 -2 -11 -18
-11 -49 0 -46 -55 4 -62 30 -4 30 -4 30 43 0 33 -4 49 -16 53 -20 8 -29 8 -37
-1z m36 -68 c-6 -17 -25 -15 -31 3 -2 7 5 12 17 12 14 0 19 -5 14 -15z"/>
<path d="M3526 855 c-5 -14 13 -40 35 -47 7 -2 10 -10 8 -17 -4 -11 -9 -10
-22 4 -21 21 -36 12 -17 -10 7 -8 23 -15 36 -15 34 0 33 43 -2 58 -14 7 -22
17 -19 23 5 7 11 6 21 -2 16 -13 30 -6 19 10 -9 16 -52 13 -59 -4z"/>
<path d="M4030 655 c-14 -8 -20 -14 -15 -14 6 0 21 6 35 14 14 8 21 14 15 14
-5 0 -21 -6 -35 -14z"/>
<path d="M3970 630 c-8 -5 -10 -10 -5 -10 6 0 17 5 25 10 8 5 11 10 5 10 -5 0
-17 -5 -25 -10z"/>
</g>
</svg>
