<?xml version="1.0" standalone="no"?>
<!DOCTYPE svg PUBLIC "-//W3C//DTD SVG 20010904//EN"
 "http://www.w3.org/TR/2001/REC-SVG-20010904/DTD/svg10.dtd">
<svg version="1.0" xmlns="http://www.w3.org/2000/svg"
 width="529.000000pt" height="600.000000pt" viewBox="0 0 529.000000 600.000000"
 preserveAspectRatio="xMidYMid meet">

<g transform="translate(0.000000,600.000000) scale(0.100000,-0.100000)"
fill="#000000" stroke="none">
<path d="M2358 5663 c6 -2 18 -2 25 0 6 3 1 5 -13 5 -14 0 -19 -2 -12 -5z"/>
<path d="M2088 5643 c6 -2 18 -2 25 0 6 3 1 5 -13 5 -14 0 -19 -2 -12 -5z"/>
<path d="M1865 5520 c-3 -5 1 -10 10 -10 9 0 13 5 10 10 -3 6 -8 10 -10 10 -2
0 -7 -4 -10 -10z"/>
<path d="M1918 5523 c7 -3 16 -2 19 1 4 3 -2 6 -13 5 -11 0 -14 -3 -6 -6z"/>
<path d="M1740 5510 c0 -5 5 -10 10 -10 6 0 10 5 10 10 0 6 -4 10 -10 10 -5 0
-10 -4 -10 -10z"/>
<path d="M1818 5513 c7 -3 16 -2 19 1 4 3 -2 6 -13 5 -11 0 -14 -3 -6 -6z"/>
<path d="M1560 5500 c0 -5 7 -10 16 -10 8 0 12 5 9 10 -3 6 -10 10 -16 10 -5
0 -9 -4 -9 -10z"/>
<path d="M1698 5503 c7 -3 16 -2 19 1 4 3 -2 6 -13 5 -11 0 -14 -3 -6 -6z"/>
<path d="M1910 5500 c0 -12 28 -25 36 -17 3 3 -4 10 -15 17 -15 7 -21 7 -21 0z"/>
<path d="M1960 5498 c0 -4 6 -8 14 -8 8 0 22 -3 32 -7 12 -4 15 -2 12 8 -5 15
-58 21 -58 7z"/>
<path d="M2090 5500 c0 -5 7 -10 15 -10 8 0 15 5 15 10 0 6 -7 10 -15 10 -8 0
-15 -4 -15 -10z"/>
<path d="M1618 5493 c7 -3 16 -2 19 1 4 3 -2 6 -13 5 -11 0 -14 -3 -6 -6z"/>
<path d="M1870 5490 c0 -5 5 -10 10 -10 6 0 10 5 10 10 0 6 -4 10 -10 10 -5 0
-10 -4 -10 -10z"/>
<path d="M2673 5493 c-12 -2 -27 -11 -33 -19 -23 -27 30 -66 107 -79 44 -7
120 1 143 15 22 14 -5 59 -45 76 -32 13 -121 17 -172 7z m134 -40 c20 -26 16
-33 -19 -33 -37 1 -83 33 -72 51 10 16 76 3 91 -18z"/>
<path d="M1825 5480 c27 -12 35 -12 35 0 0 6 -12 10 -27 9 -25 0 -26 -1 -8 -9z"/>
<path d="M1699 5467 c6 -6 20 -5 38 1 28 10 28 10 -10 9 -24 0 -34 -4 -28 -10z"/>
<path d="M2442 5472 c-23 -3 -23 -4 -6 -23 14 -16 15 -19 2 -19 -8 0 -23 9
-33 20 -18 20 -69 27 -79 11 -4 -5 8 -21 26 -36 30 -25 35 -26 107 -19 42 4
92 8 111 9 19 1 41 3 49 4 10 1 6 10 -14 31 -21 22 -38 30 -63 30 -35 0 -35 0
-17 -20 25 -27 10 -38 -18 -13 -29 26 -38 30 -65 25z"/>
<path d="M1623 5463 c9 -2 25 -2 35 0 9 3 1 5 -18 5 -19 0 -27 -2 -17 -5z"/>
<path d="M1578 5453 c7 -3 16 -2 19 1 4 3 -2 6 -13 5 -11 0 -14 -3 -6 -6z"/>
<path d="M2000 5450 c0 -5 -16 -12 -35 -16 -46 -8 -51 -18 -19 -43 22 -17 41
-21 100 -21 42 0 76 5 80 11 3 6 -9 26 -27 45 -24 25 -41 34 -66 34 -18 0 -33
-4 -33 -10z m40 -45 c8 -9 8 -15 2 -15 -18 0 -42 12 -42 21 0 14 26 10 40 -6z"/>
<path d="M2171 5452 c-44 -9 -49 -26 -16 -48 42 -27 175 -20 175 9 0 30 -91
52 -159 39z m89 -36 c0 -2 -7 -7 -16 -10 -8 -3 -12 -2 -9 4 6 10 25 14 25 6z"/>
<path d="M1820 5412 c0 -4 5 -13 12 -20 9 -9 7 -13 -5 -18 -36 -14 -14 -24 40
-19 31 3 58 7 60 9 3 2 -6 16 -18 30 -16 18 -33 26 -56 26 -18 0 -33 -4 -33
-8z"/>
<path d="M1613 5403 c-24 -2 -43 -8 -43 -12 0 -4 13 -19 28 -34 26 -25 32 -27
93 -21 92 10 114 31 59 59 -28 15 -48 16 -137 8z m77 -23 c8 -5 11 -12 8 -16
-10 -9 -38 3 -38 16 0 12 10 13 30 0z"/>
<path d="M1415 5381 c-21 -4 -26 -9 -17 -15 7 -4 24 -5 38 -2 27 7 29 4 14
-25 -10 -18 -7 -19 37 -19 26 0 58 3 71 6 34 9 27 27 -8 19 -29 -6 -42 6 -20
20 36 22 -39 33 -115 16z"/>
<path d="M1223 5360 c-33 -14 -28 -29 14 -47 42 -17 134 -13 159 8 13 11 13
14 -1 28 -18 18 -138 26 -172 11z m112 -19 c3 -5 0 -13 -5 -16 -15 -9 -60 3
-60 15 0 13 57 13 65 1z"/>
<path d="M1090 5343 c0 -5 19 -29 43 -54 36 -40 46 -45 70 -40 l28 6 -37 48
c-31 39 -42 47 -70 47 -19 0 -34 -3 -34 -7z"/>
<path d="M3192 4943 c0 -178 2 -323 6 -323 7 0 5 468 -1 590 -2 30 -4 -90 -5
-267z"/>
<path d="M2997 4663 c-9 -16 -19 -133 -10 -133 4 0 20 10 35 23 21 17 28 32
30 67 3 42 1 45 -24 48 -14 2 -28 0 -31 -5z"/>
<path d="M2821 4508 c-39 -21 -63 -63 -69 -117 -10 -109 33 -156 112 -119 57
25 89 169 49 216 -23 27 -62 35 -92 20z m49 -102 c0 -47 -28 -95 -48 -82 -15
9 -16 81 -2 107 6 10 20 19 30 19 17 0 20 -7 20 -44z"/>
<path d="M1358 4484 c-37 -19 -65 -77 -80 -161 -13 -81 -6 -133 26 -170 20
-23 32 -28 66 -27 54 2 89 27 120 90 21 41 25 63 25 141 0 83 -2 94 -24 117
-29 30 -88 35 -133 10z m82 -69 c23 -28 -3 -188 -33 -207 -22 -14 -46 -8 -57
13 -14 25 4 153 26 186 17 26 46 30 64 8z"/>
<path d="M2650 4491 c-40 -5 -45 -9 -48 -33 -3 -24 0 -28 23 -28 32 0 30 -10
-22 -114 -19 -37 -32 -70 -30 -72 2 -2 35 -1 73 3 66 8 69 9 72 36 3 24 0 27
-27 27 l-30 0 40 85 c21 47 39 90 39 95 0 11 -17 11 -90 1z"/>
<path d="M2437 4460 c-15 -12 -31 -38 -37 -58 -15 -54 -12 -145 4 -168 12 -16
18 -17 44 -8 17 6 41 10 54 7 35 -7 43 11 56 113 17 133 17 134 -18 134 -17 0
-30 -5 -30 -12 0 -9 -3 -9 -12 0 -17 17 -32 15 -61 -8z m63 -72 c0 -34 -20
-98 -30 -98 -16 0 -21 39 -10 80 12 43 40 56 40 18z"/>
<path d="M2347 4453 c-11 -11 -17 -13 -17 -5 0 14 -46 16 -55 3 -5 -9 -34
-200 -35 -228 0 -8 12 -13 29 -13 32 0 33 3 47 105 5 37 14 56 35 74 19 17 29
35 29 53 0 32 -9 35 -33 11z"/>
<path d="M423 4438 c0 -16 3 -28 8 -28 5 0 8 -3 8 -7 -3 -20 2 -33 12 -33 8 0
8 5 -1 15 -9 10 -9 15 -1 15 6 0 11 5 11 11 0 5 -5 7 -11 3 -8 -4 -9 1 -4 16
5 14 3 20 -3 16 -6 -3 -12 0 -15 6 -2 7 -4 1 -4 -14z"/>
<path d="M2146 4443 c-4 -5 -24 -8 -44 -8 l-37 0 -20 -169 c-22 -176 -21 -182
22 -174 13 2 20 18 28 60 9 51 12 56 28 47 25 -14 65 13 83 56 17 42 19 166 2
183 -13 13 -51 16 -62 5z m7 -118 c-2 -50 -14 -72 -33 -60 -11 7 -6 87 7 108
13 22 28 -4 26 -48z"/>
<path d="M4839 4370 l-3 -85 -5 70 c-5 62 -7 66 -14 37 -5 -18 -6 -55 -2 -82
5 -36 4 -50 -5 -50 -7 0 -10 -7 -7 -15 4 -8 2 -17 -3 -20 -12 -8 -13 -25 -1
-25 5 0 12 12 16 28 4 15 9 22 12 15 2 -7 -1 -22 -8 -35 -12 -21 -15 -27 -18
-45 0 -4 -6 -2 -13 5 -16 16 -25 15 -31 -2 -3 -8 1 -17 9 -20 10 -4 13 -2 8 7
-5 9 -4 9 6 0 14 -13 5 -33 -16 -33 -8 0 -14 -6 -14 -12 0 -9 -4 -8 -10 2 -5
8 -10 11 -10 5 1 -21 28 -45 51 -44 16 1 18 3 7 6 -25 7 -29 29 -4 30 11 0 15
-1 8 -4 -10 -4 -8 -9 5 -19 17 -13 17 -15 -1 -29 -10 -8 -42 -22 -70 -31 -68
-22 -79 -34 -21 -23 26 5 66 7 88 4 35 -5 38 -3 27 10 -11 13 -10 14 5 9 14
-6 16 -14 10 -48 -4 -23 -7 -51 -7 -64 0 -13 -2 -21 -5 -18 -6 5 -103 -41
-103 -49 0 -2 14 1 31 7 16 6 33 8 36 5 3 -4 14 -2 24 4 14 7 19 6 19 -3 0
-10 3 -9 9 1 7 10 9 7 8 -12 -2 -24 -3 -25 -20 -9 -17 16 -18 15 -14 -8 2 -14
2 -20 0 -14 -5 13 -73 24 -73 12 0 -4 10 -8 23 -8 17 0 19 -2 7 -10 -13 -8
-13 -9 0 -14 8 -2 22 -6 31 -9 9 -3 22 0 28 6 20 20 12 -3 -9 -25 -11 -12 -23
-18 -27 -15 -3 4 -1 7 5 7 7 0 12 5 12 10 0 6 -6 10 -14 10 -8 0 -13 -6 -12
-12 9 -49 20 -85 29 -96 8 -10 7 -16 -4 -23 -9 -6 -18 -3 -28 9 -13 16 -13 16
-7 -1 3 -10 6 -21 6 -23 0 -2 5 -4 10 -4 18 0 50 40 50 62 0 12 7 29 16 39 13
14 16 54 19 228 3 127 0 213 -5 216 -6 4 -11 54 -11 113 -2 142 -16 200 -20
82z m31 -290 c0 -5 -5 -10 -11 -10 -5 0 -7 5 -4 10 3 6 8 10 11 10 2 0 4 -4 4
-10z m-13 -72 c-3 -7 -5 -2 -5 12 0 14 2 19 5 13 2 -7 2 -19 0 -25z m-7 -84
c0 -8 -5 -12 -10 -9 -6 4 -8 11 -5 16 9 14 15 11 15 -7z m-27 -191 c-5 -11 -3
-14 6 -8 10 6 11 3 3 -11 -5 -11 -7 -25 -4 -33 3 -9 0 -11 -7 -7 -7 4 -9 16
-6 27 4 11 2 19 -6 19 -9 0 -8 4 1 15 16 20 21 19 13 -2z"/>
<path d="M1891 4414 c-32 -23 -51 -74 -51 -139 0 -47 4 -60 26 -82 20 -20 32
-24 57 -19 34 6 87 56 87 81 0 22 -40 18 -66 -6 -25 -23 -44 -18 -44 11 0 15
10 20 48 25 71 10 72 10 72 58 0 76 -68 113 -129 71z m69 -64 c0 -15 -7 -20
-25 -20 -27 0 -28 1 -19 24 9 24 44 20 44 -4z"/>
<path d="M1670 4402 c-8 -2 -23 -11 -32 -20 -16 -14 -18 -13 -18 2 0 13 -6 15
-27 10 -16 -4 -29 -7 -30 -8 -5 -4 -29 -232 -24 -238 3 -3 18 -4 33 -1 25 5
27 9 33 76 8 77 20 111 36 101 9 -5 8 -29 -7 -136 -5 -35 -4 -38 20 -38 32 0
42 19 50 102 4 37 13 72 21 78 20 16 23 2 14 -65 -13 -101 -12 -105 16 -105
35 0 44 29 47 148 3 95 2 97 -20 100 -13 2 -32 -4 -43 -14 -17 -15 -21 -16
-36 -2 -10 9 -25 13 -33 10z"/>
<path d="M510 4382 c0 -11 9 -27 19 -36 18 -17 19 -16 17 8 -1 30 -36 57 -36
28z"/>
<path d="M611 4341 c-13 -23 4 -39 77 -77 22 -11 42 4 41 33 l-1 28 -10 -28
c-11 -30 -25 -31 -42 -3 -8 14 -8 20 2 23 6 3 12 9 12 15 0 6 -6 8 -14 5 -7
-3 -19 0 -25 6 -8 8 -11 8 -11 -1 0 -7 -4 -12 -10 -12 -5 0 -7 7 -4 15 9 22
-3 19 -15 -4z"/>
<path d="M695 4310 c-3 -5 -1 -10 4 -10 6 0 11 5 11 10 0 6 -2 10 -4 10 -3 0
-8 -4 -11 -10z"/>
<path d="M737 4249 c7 -7 15 -10 18 -7 3 3 -2 9 -12 12 -14 6 -15 5 -6 -5z"/>
<path d="M785 4230 c-3 -5 -1 -10 4 -10 6 0 11 5 11 10 0 6 -2 10 -4 10 -3 0
-8 -4 -11 -10z"/>
<path d="M820 4220 c-12 -8 -11 -10 8 -10 12 0 22 5 22 10 0 13 -11 13 -30 0z"/>
<path d="M881 4204 c0 -11 3 -14 6 -6 3 7 2 16 -1 19 -3 4 -6 -2 -5 -13z"/>
<path d="M455 4170 c-8 -13 3 -30 18 -30 7 0 6 4 -3 10 -13 9 -13 11 0 20 9 6
10 10 3 10 -6 0 -15 -4 -18 -10z"/>
<path d="M520 4120 c0 -5 5 -10 11 -10 5 0 7 5 4 10 -3 6 -8 10 -11 10 -2 0
-4 -4 -4 -10z"/>
<path d="M395 4080 c3 -5 11 -10 16 -10 6 0 7 5 4 10 -3 6 -11 10 -16 10 -6 0
-7 -4 -4 -10z"/>
<path d="M665 4080 c-3 -5 -1 -10 4 -10 6 0 11 5 11 10 0 6 -2 10 -4 10 -3 0
-8 -4 -11 -10z"/>
<path d="M350 4051 c0 -5 7 -11 14 -14 10 -4 13 -1 9 9 -6 15 -23 19 -23 5z"/>
<path d="M410 4039 c0 -5 5 -7 10 -4 6 3 10 8 10 11 0 2 -4 4 -10 4 -5 0 -10
-5 -10 -11z"/>
<path d="M430 4020 c0 -5 5 -10 10 -10 6 0 10 5 10 10 0 6 -4 10 -10 10 -5 0
-10 -4 -10 -10z"/>
<path d="M491 4013 c0 -13 -6 -23 -12 -23 -5 0 -7 -5 -4 -10 4 -7 12 -7 25 0
11 6 21 6 24 1 4 -5 0 -12 -6 -14 -8 -3 -6 -6 5 -6 9 -1 17 5 17 13 0 8 2 20
3 28 2 7 2 10 0 6 -9 -15 -42 -8 -46 10 -4 13 -5 11 -6 -5z"/>
<path d="M2307 4012 c-9 -13 5 -122 14 -116 8 5 4 113 -5 121 -2 3 -6 0 -9 -5z"/>
<path d="M805 3990 c-3 -5 -1 -10 4 -10 6 0 11 5 11 10 0 6 -2 10 -4 10 -3 0
-8 -4 -11 -10z"/>
<path d="M2433 3993 c-18 -6 -16 -42 2 -49 8 -4 15 -10 15 -15 0 -5 -7 -9 -15
-9 -8 0 -15 -4 -15 -10 0 -15 26 -12 40 5 10 13 9 19 -6 36 -14 16 -16 22 -5
28 15 10 2 20 -16 14z"/>
<path d="M2027 3983 c-4 -3 -7 -11 -7 -17 0 -6 5 -5 12 2 6 6 9 14 7 17 -3 3
-9 2 -12 -2z"/>
<path d="M2355 3980 c-3 -5 2 -10 12 -11 16 0 15 -2 -4 -16 -34 -23 -30 -53 7
-53 28 0 30 2 30 39 0 26 -5 41 -16 45 -21 8 -22 8 -29 -4z m17 -62 c-7 -7
-12 -8 -12 -2 0 14 12 26 19 19 2 -3 -1 -11 -7 -17z"/>
<path d="M556 3964 c-9 -22 -8 -24 9 -18 8 4 15 12 15 20 0 19 -16 18 -24 -2z"/>
<path d="M598 3955 c-3 -14 -1 -25 3 -25 5 0 9 11 9 25 0 14 -2 25 -4 25 -2 0
-6 -11 -8 -25z"/>
<path d="M625 3970 c3 -5 8 -10 11 -10 2 0 4 5 4 10 0 6 -5 10 -11 10 -5 0 -7
-4 -4 -10z"/>
<path d="M1920 3960 c-25 -25 -26 -64 -1 -89 20 -20 61 -19 61 1 0 6 -7 7 -16
4 -22 -8 -44 11 -44 38 0 27 18 46 42 46 10 0 18 5 18 10 0 17 -39 11 -60 -10z"/>
<path d="M855 3960 c3 -5 8 -10 11 -10 2 0 4 5 4 10 0 6 -5 10 -11 10 -5 0 -7
-4 -4 -10z"/>
<path d="M2167 3963 c-13 -13 -7 -41 11 -48 16 -6 16 -7 -2 -21 -19 -14 -19
-14 1 -14 28 0 36 25 15 46 -12 13 -13 19 -4 22 6 2 12 8 12 13 0 10 -23 12
-33 2z"/>
<path d="M2220 3937 c0 -41 14 -55 46 -49 20 4 24 10 24 43 0 47 -17 52 -22 7
-2 -18 -7 -33 -13 -33 -5 0 -11 15 -13 33 -4 42 -22 42 -22 -1z"/>
<path d="M2088 3953 c-14 -4 -18 -15 -18 -59 0 -30 5 -54 10 -54 6 0 10 6 10
13 0 7 10 17 23 22 17 8 22 18 22 45 0 36 -11 43 -47 33z m32 -38 c0 -16 -6
-25 -15 -25 -15 0 -21 31 -8 43 13 14 23 6 23 -18z"/>
<path d="M2000 3941 c0 -6 3 -10 8 -10 22 4 24 -3 4 -17 -37 -26 -26 -58 17
-47 18 5 22 11 19 42 -2 29 -8 37 -25 39 -13 2 -23 -1 -23 -7z m30 -51 c0 -5
-4 -10 -10 -10 -5 0 -10 5 -10 10 0 6 5 10 10 10 6 0 10 -4 10 -10z"/>
<path d="M710 3930 c0 -5 5 -10 11 -10 5 0 7 5 4 10 -3 6 -8 10 -11 10 -2 0
-4 -4 -4 -10z"/>
<path d="M661 3914 c-18 -21 -7 -29 18 -12 12 8 18 18 14 21 -9 10 -16 8 -32
-9z"/>
<path d="M740 3900 c0 -11 4 -20 9 -20 5 0 7 9 4 20 -3 11 -7 20 -9 20 -2 0
-4 -9 -4 -20z"/>
<path d="M828 3850 c-3 -16 -1 -30 4 -30 4 0 8 14 8 30 0 17 -2 30 -4 30 -2 0
-6 -13 -8 -30z"/>
<path d="M905 3840 c3 -5 8 -10 11 -10 2 0 4 5 4 10 0 6 -5 10 -11 10 -5 0 -7
-4 -4 -10z"/>
<path d="M940 3820 c0 -5 5 -10 10 -10 6 0 10 5 10 10 0 6 -4 10 -10 10 -5 0
-10 -4 -10 -10z"/>
<path d="M890 3803 c-13 -15 -12 -16 4 -10 10 4 20 7 22 7 2 0 4 5 4 10 0 15
-13 12 -30 -7z"/>
<path d="M2082 3798 c-7 -7 -12 -29 -12 -49 0 -73 62 -78 68 -5 5 54 -26 84
-56 54z m38 -48 c0 -29 -4 -40 -15 -40 -11 0 -15 11 -15 40 0 29 4 40 15 40
11 0 15 -11 15 -40z"/>
<path d="M1995 3791 c-3 -7 2 -11 14 -11 31 0 33 -15 6 -54 -14 -20 -25 -39
-25 -41 0 -10 59 -5 65 5 3 6 -3 10 -15 10 -19 0 -20 1 -4 24 21 33 15 70 -13
74 -11 2 -24 -2 -28 -7z"/>
<path d="M2255 3790 c-4 -6 -11 -8 -16 -5 -5 4 -18 3 -29 0 -16 -5 -20 -15
-20 -46 0 -24 4 -38 10 -34 6 3 10 19 10 36 0 16 5 29 10 29 6 0 10 -13 10
-30 0 -40 18 -38 22 3 2 17 8 32 13 32 6 0 11 -15 13 -32 4 -43 22 -43 22 0 0
44 -29 73 -45 47z"/>
<path d="M2320 3785 c-18 -21 -4 -65 20 -65 11 0 20 -4 20 -10 0 -5 -9 -10
-20 -10 -11 0 -20 -4 -20 -10 0 -14 33 -13 48 2 7 7 12 34 12 60 0 44 -2 48
-24 48 -13 0 -29 -7 -36 -15z m40 -19 c0 -14 -5 -28 -10 -31 -13 -8 -24 20
-16 40 9 24 26 17 26 -9z"/>
<path d="M991 3764 c0 -11 3 -14 6 -6 3 7 2 16 -1 19 -3 4 -6 -2 -5 -13z"/>
<path d="M4726 3732 c-2 -4 4 -8 14 -8 10 0 16 4 14 8 -3 4 -9 8 -14 8 -5 0
-11 -4 -14 -8z"/>
<path d="M4760 3613 c0 -17 17 -31 58 -52 45 -23 56 -37 20 -25 -20 6 -21 5
-9 -10 9 -11 10 -16 2 -16 -6 0 -17 12 -23 28 -8 20 -12 23 -15 10 -3 -10 -10
-15 -19 -11 -8 3 -14 0 -14 -7 0 -16 26 -40 35 -32 5 4 5 1 1 -6 -4 -7 -11
-10 -16 -7 -5 3 -12 0 -16 -6 -4 -8 -3 -9 4 -5 7 4 12 4 12 -1 0 -4 16 -19 35
-32 19 -13 35 -30 35 -38 0 -7 6 -16 14 -19 12 -5 18 -20 32 -92 3 -18 24 -42
36 -42 5 0 7 9 3 19 -11 36 25 35 38 -1 3 -10 11 -18 18 -18 6 0 9 7 5 15 -3
8 -1 25 4 37 6 17 9 0 11 -62 1 -47 5 -98 9 -115 9 -36 3 166 -6 210 -18 86
-111 201 -191 237 -24 10 -43 25 -43 33 0 8 -4 15 -10 15 -5 0 -10 -3 -10 -7z"/>
<path d="M4694 3575 c-26 -22 -23 -31 8 -26 13 2 29 -37 18 -44 -5 -3 -10 1
-10 9 0 9 -4 16 -10 16 -5 0 -7 -7 -4 -15 4 -10 -3 -18 -20 -25 -32 -12 -33
-15 -1 -15 14 0 25 6 25 14 0 10 6 9 28 -5 21 -14 24 -14 14 -2 -10 12 -10 17
-1 20 9 3 7 13 -6 36 -21 34 -15 53 10 32 10 -8 15 -9 15 -2 0 6 -8 16 -18 21
-14 7 -25 4 -48 -14z"/>
<path d="M924 3525 c11 -8 25 -15 30 -15 6 0 2 7 -8 15 -11 8 -25 15 -30 15
-6 0 -2 -7 8 -15z"/>
<path d="M2760 3476 c0 -2 6 -9 14 -15 10 -9 16 -8 26 4 11 13 8 15 -14 15
-14 0 -26 -2 -26 -4z"/>
<path d="M2600 3460 c-14 -4 -19 -8 -12 -9 7 -1 12 -15 12 -36 0 -19 5 -35 10
-35 6 0 10 16 10 35 0 19 5 35 10 35 6 0 10 5 10 10 0 11 -5 11 -40 0z"/>
<path d="M2654 3456 c-3 -8 -4 -29 -1 -48 4 -30 5 -31 12 -10 8 25 23 29 31 7
4 -8 10 -15 15 -15 6 0 5 8 -1 19 -6 13 -7 22 0 26 5 3 7 12 3 20 -7 19 -52
20 -59 1z m46 -5 c0 -14 -18 -23 -30 -16 -6 4 -8 11 -5 16 8 12 35 12 35 0z"/>
<path d="M2730 3436 c0 -19 5 -38 10 -41 6 -4 10 10 10 34 0 23 -4 41 -10 41
-5 0 -10 -15 -10 -34z"/>
<path d="M2519 3444 c-11 -14 -10 -18 6 -30 10 -8 23 -14 28 -14 4 0 6 -4 2
-9 -3 -5 -17 -8 -31 -7 -19 2 -30 12 -40 34 -7 18 -15 32 -18 32 -2 0 -11 -20
-19 -45 -17 -48 -15 -54 11 -29 14 15 17 15 28 0 7 -10 15 -13 18 -8 3 6 15 8
26 5 28 -7 54 15 39 33 -6 8 -18 14 -25 14 -8 0 -14 5 -14 11 0 6 9 9 20 6 24
-6 27 8 4 17 -21 8 -20 8 -35 -10z m-44 -34 c3 -5 1 -10 -4 -10 -6 0 -11 5
-11 10 0 6 2 10 4 10 3 0 8 -4 11 -10z"/>
<path d="M2366 3424 c-29 -29 -13 -74 26 -74 18 0 42 33 31 44 -12 11 -22 6
-17 -8 8 -20 -15 -31 -31 -15 -21 22 -1 62 26 54 15 -5 19 -4 15 4 -10 16 -32
14 -50 -5z"/>
<path d="M2158 3413 c-14 -3 -18 -14 -17 -46 1 -23 3 -34 6 -24 6 21 21 22 44
2 15 -14 18 -14 32 0 18 18 47 20 47 3 0 -6 3 -9 6 -5 8 8 -15 77 -26 77 -5 0
-14 -16 -21 -35 -7 -19 -16 -35 -20 -35 -14 0 -18 16 -9 30 5 9 5 19 -2 27
-11 13 -12 14 -40 6z m32 -23 c0 -5 -9 -10 -20 -10 -11 0 -20 5 -20 10 0 6 9
10 20 10 11 0 20 -4 20 -10z m70 -4 c0 -3 -4 -8 -10 -11 -5 -3 -10 -1 -10 4 0
6 5 11 10 11 6 0 10 -2 10 -4z"/>
<path d="M2078 3398 c7 -7 13 -26 13 -42 l2 -31 4 30 c3 17 9 36 15 43 8 9 4
12 -18 12 -22 0 -25 -3 -16 -12z"/>
<path d="M1992 3355 c0 -28 3 -38 5 -22 5 32 14 34 31 7 19 -31 32 -24 27 16
-6 46 -15 57 -15 18 l0 -29 -25 30 -24 30 1 -50z"/>
<path d="M1912 3378 c-16 -16 -15 -53 3 -68 20 -17 54 -3 61 26 11 42 -34 72
-64 42z m43 -34 c0 -32 -21 -39 -38 -12 -8 12 -7 21 3 32 19 24 35 14 35 -20z"/>
<path d="M1833 3373 c-18 -7 -16 -58 1 -72 11 -10 20 -10 36 -1 12 6 19 14 16
17 -3 3 -12 1 -19 -6 -11 -9 -17 -8 -26 3 -19 23 -9 51 17 50 12 0 22 3 22 8
0 9 -27 10 -47 1z"/>
<path d="M1712 3358 c-16 -16 -15 -53 3 -68 20 -17 54 -3 61 26 11 42 -34 72
-64 42z m43 -34 c0 -32 -21 -39 -38 -12 -8 12 -7 21 3 32 19 24 35 14 35 -20z"/>
<path d="M1670 3322 c0 -23 4 -42 9 -42 6 0 7 17 4 38 -8 51 -13 53 -13 4z"/>
<path d="M1561 3328 c0 -13 4 -32 9 -43 7 -16 9 -13 9 17 1 20 -3 40 -9 43 -6
3 -10 -4 -9 -17z"/>
<path d="M1590 3346 c0 -2 7 -20 16 -41 17 -43 31 -37 39 15 l6 35 -14 -30
-15 -30 -11 28 c-9 23 -21 36 -21 23z"/>
<path d="M1442 3323 c-5 -10 -12 -31 -16 -48 -7 -28 -7 -29 8 -10 13 17 18 18
36 7 20 -12 21 -12 15 10 -4 13 -13 31 -20 41 -13 18 -14 18 -23 0z m18 -23
c0 -5 -4 -10 -10 -10 -5 0 -10 5 -10 10 0 6 5 10 10 10 6 0 10 -4 10 -10z"/>
<path d="M1501 3303 c-1 -40 1 -43 26 -43 14 0 23 3 19 8 -4 4 -13 7 -19 7 -7
0 -15 16 -18 35 l-6 35 -2 -42z"/>
<path d="M2606 3284 c-29 -28 -16 -74 20 -74 14 0 28 9 35 22 12 22 12 22 20
3 8 -20 8 -20 9 0 1 19 1 19 14 3 17 -24 26 -23 26 3 0 11 -4 17 -10 14 -5 -3
-12 6 -16 20 -8 31 -24 33 -24 3 l0 -22 -16 22 c-18 26 -37 28 -58 6z m44 -28
c0 -31 -18 -43 -36 -24 -19 18 -8 48 17 48 13 0 19 -7 19 -24z"/>
<path d="M2530 3280 c0 -5 5 -10 10 -10 6 0 11 -15 11 -32 l2 -33 4 30 c3 17
9 36 15 43 8 9 4 12 -16 12 -14 0 -26 -4 -26 -10z"/>
<path d="M2464 3265 c-7 -18 3 -35 22 -35 8 0 14 -5 14 -11 0 -7 -10 -9 -27
-4 -27 6 -27 6 -10 -12 13 -13 21 -15 34 -7 27 17 26 33 -1 45 -30 14 -35 33
-6 24 11 -4 20 -2 20 4 0 16 -40 13 -46 -4z"/>
<path d="M2387 3263 c-4 -3 -7 -21 -7 -40 0 -37 18 -51 47 -34 16 9 16 10 -4
11 -13 0 -23 4 -23 9 0 5 10 12 23 16 l22 8 -22 4 c-13 2 -23 8 -23 13 0 5 10
11 23 13 20 4 20 4 -4 6 -14 0 -29 -2 -32 -6z"/>
<path d="M2233 3253 c-19 -4 -23 -11 -23 -43 0 -45 9 -54 42 -41 23 10 23 10
-4 10 -32 1 -39 21 -8 21 27 0 25 18 -2 23 l-23 4 23 8 c12 4 22 11 22 16 0 5
-1 8 -2 8 -2 -1 -13 -4 -25 -6z"/>
<path d="M2302 3252 c16 -7 16 -9 -2 -37 -11 -17 -20 -33 -20 -37 0 -13 48 -9
56 4 5 7 2 9 -8 5 -26 -9 -29 4 -8 33 26 37 25 40 -7 39 -21 0 -24 -2 -11 -7z"/>
<path d="M2148 3243 c-13 -3 -18 -14 -18 -43 0 -47 13 -57 45 -36 45 30 23 90
-27 79z m35 -33 c5 -20 -18 -48 -30 -36 -9 9 -13 38 -7 48 10 15 32 8 37 -12z"/>
<path d="M2037 3228 c-21 -11 -22 -61 -3 -77 16 -14 56 1 56 21 0 7 -5 6 -15
-2 -21 -18 -47 -5 -43 22 2 17 9 23 26 22 12 0 22 3 22 7 0 12 -26 17 -43 7z"/>
<path d="M2100 3195 c0 -19 4 -35 8 -35 4 0 6 16 4 35 -2 19 -6 35 -8 35 -2 0
-4 -16 -4 -35z"/>
<path d="M1956 3196 c-3 -13 -9 -32 -13 -43 -6 -16 -5 -16 11 -4 9 8 15 20 12
27 -3 7 -1 16 4 19 6 4 10 -3 10 -13 0 -11 7 -25 15 -32 19 -16 19 -9 1 35
-17 41 -31 45 -40 11z"/>
<path d="M1746 3194 c-22 -22 -20 -61 4 -74 15 -8 24 -6 40 10 25 25 25 42 2
63 -23 21 -27 21 -46 1z m42 -27 c5 -27 -17 -50 -34 -36 -15 12 -19 41 -7 53
12 12 38 1 41 -17z"/>
<path d="M1853 3187 c8 -13 17 -32 20 -42 4 -17 5 -18 6 -2 0 10 9 30 18 45
l17 27 -22 -19 c-19 -17 -22 -17 -28 -2 -3 9 -11 16 -16 16 -6 0 -4 -10 5 -23z"/>
<path d="M1700 3154 c0 -28 -3 -35 -15 -30 -8 3 -15 1 -15 -5 0 -6 10 -9 23
-7 18 2 22 10 23 41 0 20 -3 37 -8 37 -4 0 -8 -16 -8 -36z"/>
<path d="M1483 3173 c-20 -4 -23 -11 -22 -46 0 -35 2 -38 9 -19 5 12 7 29 4
37 -4 10 0 15 15 15 12 0 21 5 21 10 0 6 -1 9 -2 9 -2 -1 -13 -4 -25 -6z"/>
<path d="M1590 3156 c0 -52 28 -74 58 -44 14 14 16 68 2 68 -5 0 -10 -16 -10
-35 0 -24 -5 -35 -15 -35 -10 0 -15 10 -15 29 0 17 -4 33 -10 36 -6 3 -10 -5
-10 -19z"/>
<path d="M1392 3161 c-8 -5 -12 -22 -10 -42 3 -30 7 -34 33 -36 25 -2 26 -1 7
5 -13 4 -23 12 -23 17 0 6 10 13 23 17 l23 6 -22 1 c-25 1 -32 21 -9 21 8 0
18 5 21 10 7 12 -25 13 -43 1z"/>
<path d="M1532 3133 c-2 -36 1 -43 17 -43 11 0 23 5 26 10 3 6 -3 10 -14 10
-15 0 -21 8 -24 33 -3 28 -4 26 -5 -10z"/>
<path d="M1307 3153 c-4 -3 -7 -25 -6 -47 0 -35 2 -38 9 -18 12 28 17 28 39 0
20 -23 19 -28 12 65 -1 9 -45 9 -54 0z m43 -18 c0 -8 -9 -15 -20 -15 -20 0
-26 11 -13 23 12 13 33 7 33 -8z"/>
<path d="M1490 3129 c0 -5 5 -7 10 -4 6 3 10 8 10 11 0 2 -4 4 -10 4 -5 0 -10
-5 -10 -11z"/>
<path d="M5016 2951 c4 -101 2 -141 -5 -136 -6 3 -11 2 -11 -4 0 -5 -3 -18 -6
-28 -5 -15 -4 -15 5 -3 9 13 11 13 10 0 -2 -26 -17 -67 -18 -47 -1 23 -28 22
-40 -2 -6 -10 -24 -24 -40 -31 -29 -11 -30 -14 -30 -76 0 -49 4 -64 15 -64 8
0 14 4 14 8 0 4 10 8 23 9 12 1 29 10 37 20 9 10 25 23 35 29 19 11 20 24 20
215 0 112 -3 215 -7 229 -4 14 -5 -40 -2 -119z m-16 -271 c0 -5 -7 -10 -16
-10 -9 0 -12 -5 -8 -12 4 -7 3 -8 -4 -4 -6 4 -23 -1 -37 -10 -19 -12 -24 -22
-20 -38 5 -18 4 -18 -5 -4 -15 24 -4 42 43 66 51 25 47 24 47 12z"/>
<path d="M1060 2770 c0 -80 9 -90 85 -90 38 0 48 -4 52 -20 5 -20 37 -28 47
-12 3 5 2 48 -1 96 l-6 88 -61 -7 c-36 -3 -73 -2 -89 4 l-27 11 0 -70z"/>
<path d="M4900 2720 c-13 -8 -12 -10 3 -10 9 0 17 5 17 10 0 12 -1 12 -20 0z"/>
<path d="M4783 2658 c-53 -18 -63 -26 -63 -45 0 -28 2 -28 81 -3 56 17 64 23
65 45 2 30 -3 30 -83 3z"/>
<path d="M4641 2622 c-8 -13 -12 -14 -25 -3 -13 11 -17 11 -22 -4 -5 -13 -9
-14 -15 -4 -10 17 -16 11 -24 -22 -6 -23 -4 -26 22 -24 15 1 39 6 53 10 14 5
33 8 43 6 12 -2 17 5 17 22 0 30 -35 44 -49 19z"/>
<path d="M3053 2622 c-25 -16 -43 -82 -43 -157 0 -67 3 -79 25 -100 30 -31 49
-31 80 -1 47 47 59 183 22 240 -18 26 -58 35 -84 18z m52 -53 c11 -17 7 -110
-6 -141 -19 -46 -43 -32 -47 27 -6 84 28 156 53 114z"/>
<path d="M4998 2607 c-35 -28 -40 -83 -8 -74 13 3 20 0 20 -9 0 -8 -3 -13 -7
-13 -21 3 -33 -3 -33 -17 0 -10 -6 -14 -14 -11 -24 9 -45 -24 -34 -53 l9 -25
17 21 c10 11 23 19 30 16 6 -2 12 1 12 7 0 6 5 11 10 11 26 0 -13 -40 -55 -55
-41 -16 -45 -21 -45 -51 0 -19 3 -34 8 -34 9 0 51 28 70 47 16 16 32 17 32 3
0 -6 -11 -16 -25 -22 -17 -8 -25 -19 -25 -37 0 -16 -3 -21 -8 -14 -18 28 -88
-4 -105 -47 -4 -12 -6 -12 -6 2 -1 14 -7 16 -33 11 -18 -3 -37 -6 -43 -7 -5 0
-16 -7 -23 -13 -7 -7 -20 -13 -28 -13 -8 0 -14 -4 -14 -8 0 -4 -25 -8 -56 -7
-31 0 -58 -3 -61 -8 -3 -5 -11 -6 -18 -3 -15 5 -28 -31 -14 -40 5 -3 9 1 9 8
0 9 2 10 8 1 13 -21 40 -19 99 9 11 6 25 8 31 4 5 -3 24 -1 43 5 19 5 50 12
69 15 19 3 37 9 40 13 10 13 62 31 72 25 6 -4 14 0 19 7 6 10 9 11 9 1 0 -7
-15 -21 -32 -32 -36 -22 -53 -26 -43 -10 3 6 -1 7 -9 4 -9 -3 -16 -10 -16 -14
0 -4 -13 -13 -29 -18 -21 -8 -30 -18 -33 -41 -5 -34 3 -39 23 -15 7 8 21 13
31 11 10 -3 18 -2 18 2 0 4 25 18 55 31 30 13 55 30 55 37 0 8 4 12 10 8 15
-9 1 -33 -23 -39 -13 -3 -32 -13 -43 -23 -32 -29 -57 -40 -117 -54 -32 -8 -57
-18 -57 -22 0 -5 -7 -4 -16 4 -14 11 -15 9 -12 -22 2 -26 8 -34 23 -34 11 0
25 3 30 6 6 3 39 16 75 28 36 12 90 37 120 57 49 32 52 33 30 9 -26 -29 -92
-61 -196 -97 -38 -13 -61 -26 -57 -32 4 -6 0 -5 -9 2 -13 11 -17 9 -22 -13 -4
-14 -11 -25 -17 -25 -8 0 -7 5 1 15 7 9 11 17 9 20 -3 2 -38 -4 -79 -13 -69
-16 -75 -20 -78 -45 -4 -31 5 -35 24 -9 8 10 13 12 14 5 0 -14 92 -8 122 8 9
5 28 9 42 9 14 0 26 3 26 8 0 4 12 8 26 9 25 1 40 7 104 37 15 7 27 24 31 41
5 24 7 25 8 8 1 -32 19 -29 24 5 4 26 4 25 6 -5 1 -24 -4 -33 -21 -39 -12 -3
-32 -17 -44 -29 -13 -13 -32 -26 -43 -30 -15 -4 -21 -17 -23 -48 -2 -23 -7
-42 -13 -43 -5 0 -23 -6 -38 -12 -16 -7 -34 -12 -41 -12 -7 0 -16 -3 -20 -7
-3 -4 -13 -8 -20 -9 -96 -14 -166 -39 -166 -59 0 -20 24 -19 44 1 9 8 16 11
16 5 0 -12 25 -9 138 16 60 13 76 21 87 42 11 20 14 22 15 8 0 -14 5 -17 23
-11 12 4 25 11 28 17 4 5 11 7 17 3 6 -3 12 -3 14 2 1 4 20 18 40 31 29 17 37
19 32 7 -3 -9 -10 -16 -16 -16 -5 0 -6 -4 -3 -10 3 -5 -1 -10 -10 -10 -8 0
-18 -6 -21 -14 -3 -8 -12 -12 -20 -9 -9 3 -14 -2 -14 -13 0 -12 -3 -15 -8 -8
-8 13 -42 10 -51 -5 -4 -5 -29 -18 -56 -28 -37 -14 -51 -24 -53 -41 -3 -18 1
-22 22 -20 14 1 26 6 26 10 0 4 8 8 19 8 34 0 91 30 91 47 0 13 3 14 11 6 9
-9 18 -7 38 5 14 9 29 21 33 27 4 5 8 6 8 1 0 -6 -11 -22 -25 -36 -28 -30 -25
-60 6 -60 10 0 19 -5 19 -11 0 -6 -6 -9 -14 -6 -8 3 -17 -1 -20 -8 -3 -8 -23
-23 -44 -34 -33 -17 -39 -24 -35 -45 5 -22 7 -24 27 -13 11 7 24 17 28 22 4 6
8 6 8 1 0 -5 8 -2 18 6 43 37 42 26 -2 -15 -28 -26 -54 -43 -63 -40 -7 3 -22
-2 -32 -11 -10 -9 -21 -13 -24 -9 -4 3 -24 -1 -44 -10 -71 -29 -74 -30 -125
-40 -21 -4 -42 -15 -47 -25 -6 -10 -11 -12 -11 -4 0 22 -20 13 -32 -15 -11
-27 -12 -27 -15 -5 -6 29 -23 29 -23 -1 0 -34 7 -37 48 -23 21 6 43 11 51 11
8 0 16 6 19 13 2 6 -4 12 -15 12 -15 0 -16 2 -3 10 11 7 17 4 24 -10 7 -15 15
-18 40 -13 17 3 39 10 49 15 9 5 22 6 27 3 6 -3 10 -1 10 4 0 6 3 10 8 9 4 -1
24 6 46 15 21 9 45 17 52 17 8 0 14 5 14 11 0 5 5 7 11 4 5 -4 18 3 28 14 20
23 31 27 31 11 0 -14 -42 -50 -52 -44 -4 3 -8 0 -8 -6 0 -7 -7 -10 -15 -6 -8
3 -18 -1 -23 -10 -4 -8 -28 -18 -52 -22 -37 -6 -46 -12 -48 -31 -7 -43 13 -46
81 -13 36 18 67 32 71 32 4 0 18 11 32 25 14 14 27 25 29 25 28 0 -69 -86
-104 -93 -26 -6 -31 -11 -31 -37 0 -36 7 -37 57 -8 l38 23 -16 -25 c-9 -14
-23 -25 -30 -25 -8 0 -23 -8 -34 -18 -10 -10 -26 -15 -33 -12 -8 3 -20 -2 -27
-12 -11 -15 -30 -21 -80 -25 -11 -1 -23 -6 -26 -10 -3 -5 -16 -11 -30 -13 -20
-4 -50 -11 -91 -21 -5 -1 -17 -2 -28 -3 -14 -1 -20 -8 -20 -27 0 -22 3 -24 22
-18 12 3 34 8 48 9 14 1 32 5 40 9 8 3 26 7 40 10 14 2 32 6 40 9 8 3 28 8 43
12 21 4 27 10 23 22 -5 13 -4 14 8 4 11 -9 26 -6 72 14 32 14 74 37 93 51 l36
25 -38 -34 c-20 -19 -66 -47 -101 -63 -57 -26 -64 -32 -64 -56 1 -16 4 -28 8
-28 17 0 107 44 138 67 17 13 32 20 32 15 0 -20 -140 -97 -167 -93 -7 1 -13
-5 -13 -13 0 -10 -6 -13 -15 -10 -10 4 -15 0 -15 -15 0 -12 -4 -21 -10 -21 -5
0 -7 7 -4 15 4 8 1 15 -4 15 -17 0 -24 -19 -18 -45 4 -17 11 -22 26 -18 11 3
20 10 20 15 0 5 4 7 10 3 10 -6 101 33 112 49 4 6 8 7 8 3 0 -5 15 2 33 14 28
20 30 21 17 4 -27 -35 -35 -42 -48 -37 -7 2 -12 -5 -12 -16 0 -11 -8 -26 -17
-33 -15 -11 -16 -11 -5 1 16 19 15 30 -3 30 -10 0 -15 -10 -15 -30 0 -16 -4
-30 -10 -30 -5 0 -10 9 -10 20 0 11 -3 20 -7 20 -7 0 -57 -16 -113 -36 -8 -3
-17 -5 -20 -6 -3 0 -14 -5 -25 -11 -11 -6 -28 -10 -37 -8 -10 1 -28 -3 -40
-10 -13 -7 -31 -13 -40 -13 -10 -1 -18 -4 -18 -8 -1 -41 2 -48 16 -48 10 0 14
6 10 15 -4 12 -2 13 13 3 11 -7 26 -8 37 -3 11 4 24 7 31 6 6 -1 14 3 18 8 3
6 12 8 19 5 8 -3 17 -1 20 5 4 6 13 8 21 4 8 -3 15 0 15 7 0 8 9 10 25 6 18
-5 27 -2 31 8 3 8 12 12 19 10 8 -3 37 5 65 18 45 20 50 26 45 48 -5 22 -4 22
6 7 15 -26 7 -39 -42 -65 -139 -75 -385 -130 -674 -153 -196 -15 -264 -16
-480 -8 -193 7 -239 14 -231 34 3 9 -17 14 -70 19 -41 4 -81 9 -89 13 -9 3
-15 -1 -15 -11 0 -23 -17 -20 -23 4 -7 26 -23 26 -30 -1 -11 -42 -28 -8 -22
44 6 49 5 50 -13 34 -21 -19 -45 -22 -73 -7 -18 10 -116 146 -131 183 -11 26
-25 20 -32 -14 -8 -42 -8 -49 4 -49 6 0 10 7 10 15 0 8 5 15 10 15 6 0 10 -23
10 -51 0 -49 -1 -51 -25 -47 -20 4 -25 1 -25 -15 0 -20 -9 -20 -54 -1 -18 7
-19 4 -12 -36 9 -58 40 -110 79 -136 41 -27 158 -58 317 -83 200 -32 350 -43
585 -44 501 -2 915 77 1060 204 l35 31 0 -26 c0 -14 -4 -26 -10 -26 -5 0 -6
-7 -3 -17 5 -12 3 -14 -8 -8 -9 5 -8 1 3 -11 14 -16 16 -31 11 -79 -3 -33 -10
-66 -16 -72 -6 -9 -6 -13 1 -13 6 0 7 -13 2 -35 -4 -19 -4 -35 1 -35 7 0 11
16 24 103 4 32 17 987 19 1475 1 138 -3 252 -7 252 -4 0 -3 8 2 18 8 14 15
143 8 142 -1 -1 -14 -11 -29 -23z m3 -330 c-8 -8 -11 -7 -11 4 0 20 13 34 18
19 3 -7 -1 -17 -7 -23z m-21 -6 c0 -6 -4 -13 -10 -16 -5 -3 -10 1 -10 9 0 9 5
16 10 16 6 0 10 -4 10 -9z m27 -63 c-3 -8 -6 -5 -6 6 -1 11 2 17 5 13 3 -3 4
-12 1 -19z m3 -222 c0 -10 -48 -56 -59 -56 -6 0 -11 -4 -11 -10 0 -5 -7 -6
-17 -3 -9 4 -14 2 -11 -3 7 -11 -11 -28 -34 -32 -41 -7 -22 18 38 49 37 18 68
39 71 46 5 12 23 19 23 9z m-22 -581 c-6 -13 -15 -22 -20 -19 -5 3 -2 15 8 25
23 25 26 24 12 -6z m4 -227 c-7 -7 -12 -8 -12 -2 0 14 12 26 19 19 2 -3 -1
-11 -7 -17z m-7 -88 c-20 -22 -35 -26 -35 -9 0 5 4 8 8 5 5 -3 15 4 22 14 8
11 16 17 19 15 2 -3 -4 -14 -14 -25z m-1570 -190 c15 -7 9 -9 -22 -7 -24 1
-43 5 -43 10 0 9 40 8 65 -3z"/>
<path d="M4376 2573 c-6 -31 -46 -279 -46 -288 0 -4 12 -5 27 -3 27 3 28 5 50
133 29 174 29 185 -1 185 -19 0 -26 -7 -30 -27z"/>
<path d="M4830 2591 c-20 -5 -26 -14 -28 -44 -2 -20 -9 -38 -15 -38 -22 -2
-32 -5 -60 -17 -16 -7 -35 -12 -43 -12 -8 0 -14 -6 -14 -12 0 -9 -2 -10 -8 -2
-11 18 -114 -5 -107 -24 3 -7 5 -20 5 -28 0 -23 18 -16 23 9 4 22 4 22 6 -2 1
-19 5 -22 24 -16 12 3 31 8 42 10 11 2 22 4 25 5 3 1 13 2 23 1 9 -1 17 4 17
13 0 9 5 16 10 16 6 0 10 -5 10 -10 0 -10 50 -3 60 9 3 3 10 7 15 7 6 1 20 5
33 9 16 5 22 2 22 -9 0 -10 -9 -16 -25 -16 -22 0 -25 -4 -25 -35 0 -33 12 -46
24 -26 3 4 19 11 36 14 23 5 30 12 30 31 0 13 -7 26 -15 30 -21 8 -19 26 3 26
13 0 17 8 17 33 -1 23 -5 31 -15 29 -34 -8 -46 -12 -69 -18 -17 -5 -22 -4 -17
4 4 7 14 12 22 12 8 0 19 12 24 26 15 38 16 38 -30 25z"/>
<path d="M1226 2583 c-27 -4 -28 -7 -23 -45 3 -22 8 -42 11 -45 2 -3 32 -2 65
2 l61 7 0 44 0 44 -42 -1 c-24 -1 -56 -4 -72 -6z"/>
<path d="M4711 2557 c-5 -5 -42 -14 -82 -21 -64 -11 -74 -15 -77 -34 -4 -27 0
-27 123 -2 111 23 115 25 115 50 0 14 -7 18 -35 17 -19 -1 -39 -5 -44 -10z"/>
<path d="M4930 2535 c0 -24 5 -35 15 -35 10 0 15 11 15 35 0 24 -5 35 -15 35
-10 0 -15 -11 -15 -35z"/>
<path d="M481 2384 c1 -98 5 -260 9 -359 5 -118 6 -58 2 175 -2 195 -6 357 -8
359 -2 2 -3 -76 -3 -175z"/>
<path d="M538 2235 c2 -170 8 -337 12 -370 10 -74 0 490 -10 600 -4 44 -5 -59
-2 -230z"/>
<path d="M3185 2498 c-9 -30 -23 -162 -19 -170 3 -5 13 -8 22 -6 12 2 19 22
27 68 6 37 14 63 20 60 6 -3 9 -14 9 -25 -1 -11 -4 -40 -5 -65 -4 -39 -1 -45
17 -48 19 -3 22 4 30 59 5 38 14 64 23 67 13 4 12 -33 -2 -123 -3 -17 40 -17
47 0 3 8 9 51 12 95 l7 80 -26 0 c-14 0 -29 -5 -32 -11 -5 -6 -11 -4 -19 7 -9
12 -20 15 -39 10 -16 -4 -27 -2 -27 4 0 14 -40 12 -45 -2z"/>
<path d="M594 2418 c3 -40 8 -199 11 -353 4 -161 10 -284 16 -290 6 -6 8 23 4
85 -3 52 -8 215 -11 363 -4 153 -10 267 -16 267 -5 0 -7 -31 -4 -72z"/>
<path d="M1493 2483 c-32 -4 -33 -6 -33 -49 0 -43 1 -44 33 -44 48 0 58 11 54
55 -4 42 -6 44 -54 38z"/>
<path d="M1357 2473 c-4 -3 -7 -17 -7 -30 0 -18 5 -23 25 -23 21 0 25 5 25 30
0 22 -5 30 -18 30 -10 0 -22 -3 -25 -7z"/>
<path d="M3437 2469 c-24 -14 -47 -69 -47 -114 0 -38 28 -75 58 -75 24 0 62
28 62 46 0 16 -36 19 -45 4 -9 -15 -25 -2 -25 21 0 17 6 19 43 17 42 -3 42 -3
45 34 5 60 -43 95 -91 67z m47 -45 c9 -23 8 -24 -14 -24 -19 0 -27 20 -13 33
11 11 20 8 27 -9z"/>
<path d="M4241 2467 c-36 -17 -62 -68 -63 -121 -1 -54 14 -76 52 -76 76 0 134
136 80 190 -23 23 -36 24 -69 7z m29 -80 c0 -18 -6 -42 -14 -53 -13 -17 -15
-18 -21 -2 -8 20 12 88 26 88 5 0 9 -15 9 -33z"/>
<path d="M3569 2468 c0 -2 -10 -65 -23 -141 -18 -113 -20 -140 -9 -144 22 -9
43 5 43 29 0 51 10 66 42 64 42 -2 70 38 76 106 3 44 1 56 -16 71 -16 15 -25
16 -41 8 -13 -7 -22 -8 -26 -1 -5 9 -44 15 -46 8z m74 -62 c3 -8 1 -31 -4 -50
-12 -45 -39 -49 -39 -5 0 51 30 90 43 55z"/>
<path d="M3732 2412 c-6 -26 -13 -68 -17 -93 -6 -41 -5 -47 14 -52 26 -6 32 3
46 72 9 45 16 58 38 69 15 7 27 21 27 30 0 13 -10 17 -49 19 l-50 2 -9 -47z"/>
<path d="M3892 2453 c-32 -12 -60 -120 -43 -165 9 -24 14 -26 70 -26 34 0 61
1 61 2 7 27 30 166 30 178 0 13 -10 16 -52 16 -29 -1 -59 -3 -66 -5z m51 -57
c9 -22 -12 -88 -26 -83 -16 5 -20 38 -8 70 12 30 26 35 34 13z"/>
<path d="M4040 2435 c0 -20 5 -25 25 -25 l25 0 -40 -65 c-22 -36 -40 -70 -40
-75 0 -11 72 -13 108 -4 28 8 28 51 0 46 -24 -4 -23 2 17 74 19 34 35 65 35
68 0 3 -29 6 -65 6 -63 0 -65 -1 -65 -25z"/>
<path d="M4789 2416 c-3 -3 -19 -8 -35 -10 -16 -2 -42 -9 -59 -16 -16 -7 -55
-14 -85 -15 -51 -2 -55 -4 -58 -29 -3 -25 -2 -26 40 -21 24 3 54 8 68 10 14 3
47 10 75 15 58 12 68 20 63 50 -1 12 -6 19 -9 16z"/>
<path d="M767 2051 c2 -195 8 -364 13 -375 10 -26 1 514 -10 639 -5 55 -7 -49
-3 -264z"/>
<path d="M1258 2383 c-12 -3 -18 -14 -18 -35 0 -23 4 -29 16 -24 9 3 20 6 25
6 5 0 9 14 9 30 0 17 -3 29 -7 29 -5 -1 -16 -3 -25 -6z"/>
<path d="M793 2373 c3 -5 7 -138 11 -298 3 -159 9 -323 12 -362 10 -122 19
-81 12 54 -3 71 -6 209 -7 309 -1 200 -9 304 -23 304 -5 0 -7 -3 -5 -7z"/>
<path d="M2050 2348 l-1 -33 -15 28 c-19 35 -34 35 -34 -2 0 -16 -3 -36 -6
-45 -3 -9 -1 -16 4 -16 6 0 12 12 14 28 l4 27 12 -27 c18 -43 32 -33 32 22 0
28 -2 50 -5 50 -3 0 -5 -15 -5 -32z"/>
<path d="M1965 2324 c-8 -55 -31 -55 -27 0 2 20 -2 36 -8 36 -16 0 -12 -87 5
-94 20 -7 45 20 45 49 0 13 3 30 6 39 3 9 2 16 -4 16 -5 0 -13 -21 -17 -46z"/>
<path d="M2150 2361 c-20 -5 -26 -14 -28 -44 l-3 -37 40 0 c77 0 104 24 85 74
-6 17 -48 20 -94 7z"/>
<path d="M2693 2363 c-7 -2 -13 -16 -13 -30 0 -20 4 -24 23 -21 16 2 22 10 22
27 0 25 -11 33 -32 24z"/>
<path d="M1872 2338 c-2 -33 -18 -37 -27 -8 -7 22 -25 27 -25 8 0 -7 -3 -31
-7 -52 -4 -28 -3 -37 5 -32 7 4 12 19 12 34 l1 27 16 -29 c13 -25 17 -27 25
-12 5 9 7 33 5 54 -3 27 -4 30 -5 10z"/>
<path d="M4820 2349 c0 -6 -8 -9 -19 -6 -10 2 -40 -6 -66 -18 -26 -13 -57 -21
-70 -19 -13 2 -35 -3 -51 -11 -22 -11 -30 -12 -36 -2 -10 15 -28 -9 -28 -39 0
-30 11 -36 29 -16 17 18 71 23 83 8 4 -6 12 -5 21 2 16 14 121 43 140 39 7 -1
13 12 15 36 2 21 -1 37 -7 37 -6 0 -11 -5 -11 -11z"/>
<path d="M4856 2344 c-9 -22 14 -50 25 -32 13 20 10 48 -5 48 -8 0 -17 -7 -20
-16z"/>
<path d="M1746 2328 c-20 -28 -20 -62 -1 -78 25 -21 57 15 53 59 -4 43 -29 52
-52 19z m40 -12 c6 -16 -12 -56 -25 -56 -14 0 -19 23 -10 48 9 25 27 29 35 8z"/>
<path d="M1676 2318 c-9 -12 -16 -33 -16 -45 0 -25 35 -50 45 -33 3 5 -1 10
-9 10 -25 0 -20 55 7 73 18 13 19 16 5 16 -9 1 -24 -9 -32 -21z"/>
<path d="M1500 2323 c0 -5 5 -15 10 -23 8 -12 10 -11 10 8 0 12 -4 22 -10 22
-5 0 -10 -3 -10 -7z"/>
<path d="M1582 2303 c-6 -15 -14 -41 -17 -58 -5 -25 -4 -27 5 -12 13 20 36 22
44 5 3 -7 4 7 2 31 -6 56 -20 71 -34 34z"/>
<path d="M1630 2309 c0 -11 5 -17 10 -14 6 3 10 13 10 21 0 8 -4 14 -10 14 -5
0 -10 -9 -10 -21z"/>
<path d="M916 2109 c9 -385 16 -539 25 -539 6 0 7 21 5 48 -3 26 -8 191 -11
367 -4 176 -11 324 -15 329 -6 6 -8 -77 -4 -205z"/>
<path d="M1534 2278 c-12 -55 -30 -59 -39 -9 -4 23 -10 41 -15 41 -8 0 -40
-72 -40 -92 0 -7 7 -3 15 8 14 17 16 17 28 3 14 -18 46 -17 58 3 8 12 13 88 6
88 -2 0 -7 -19 -13 -42z m-54 -18 c0 -5 -2 -10 -4 -10 -3 0 -8 5 -11 10 -3 6
-1 10 4 10 6 0 11 -4 11 -10z"/>
<path d="M2485 2309 c-33 -5 -64 -11 -70 -13 -6 -2 -8 -28 -7 -61 l4 -57 66 7
c121 12 120 11 106 98 -7 41 -4 40 -99 26z"/>
<path d="M1390 2290 c-37 -37 -15 -103 27 -84 16 7 16 8 -4 11 -12 2 -23 10
-26 16 -7 19 11 57 28 57 8 0 15 5 15 10 0 16 -18 12 -40 -10z"/>
<path d="M1298 2263 c-15 -4 -18 -16 -18 -64 l0 -59 35 0 c21 0 43 8 54 19 18
18 18 19 0 35 -11 9 -19 29 -19 46 0 31 -9 34 -52 23z"/>
<path d="M1406 2254 c-4 -10 -1 -14 6 -12 15 5 23 28 10 28 -5 0 -13 -7 -16
-16z"/>
<path d="M1887 2250 c-3 -13 0 -20 8 -20 21 0 27 16 11 29 -11 9 -15 7 -19 -9z"/>
<path d="M1965 2250 c-3 -5 -1 -10 4 -10 6 0 11 5 11 10 0 6 -2 10 -4 10 -3 0
-8 -4 -11 -10z"/>
<path d="M2297 2253 c-4 -3 -7 -17 -7 -30 0 -18 5 -23 25 -23 21 0 25 5 25 30
0 22 -5 30 -18 30 -10 0 -22 -3 -25 -7z"/>
<path d="M2020 2205 c0 -30 -16 -33 -25 -5 -9 29 -25 24 -25 -7 0 -16 -3 -39
-7 -52 -4 -17 -3 -22 5 -17 7 4 12 19 13 34 l1 27 11 -28 c6 -15 16 -26 21
-24 11 4 22 97 12 97 -3 0 -6 -11 -6 -25z"/>
<path d="M2657 2223 c-4 -3 -7 -19 -7 -35 0 -21 -5 -28 -20 -28 -15 0 -20 -7
-20 -25 0 -20 5 -25 25 -25 21 0 25 5 25 29 0 20 6 30 20 34 27 7 28 57 2 57
-10 0 -22 -3 -25 -7z"/>
<path d="M1897 2202 c-21 -23 -22 -66 -2 -82 31 -25 75 45 53 84 -12 21 -31
20 -51 -2z m39 -16 c6 -17 -12 -56 -26 -56 -11 0 -14 53 -3 63 11 11 23 8 29
-7z"/>
<path d="M1824 2185 c-24 -37 -12 -75 24 -74 26 0 26 1 5 9 -33 14 -31 55 5
74 25 14 26 15 5 16 -13 0 -29 -10 -39 -25z"/>
<path d="M1726 2185 c-22 -22 -28 -52 -16 -75 13 -25 25 -25 50 0 22 22 26 60
8 78 -16 16 -23 15 -42 -3z m34 -34 c0 -33 -16 -49 -32 -33 -14 14 -1 62 17
62 10 0 15 -10 15 -29z"/>
<path d="M2720 2160 c0 -22 2 -40 4 -40 2 0 6 18 8 40 2 22 0 40 -4 40 -5 0
-8 -18 -8 -40z"/>
<path d="M1480 2186 c0 -9 30 -14 35 -6 4 6 -3 10 -14 10 -12 0 -21 -2 -21 -4z"/>
<path d="M1651 2164 c-25 -32 -15 -68 20 -71 l24 -3 -22 10 c-13 5 -23 16 -23
24 0 25 12 46 25 46 8 0 17 5 20 10 14 22 -25 8 -44 -16z"/>
<path d="M1593 2173 c-18 -7 -16 -40 2 -47 22 -8 18 -25 -7 -35 -16 -6 -18
-10 -8 -16 9 -5 20 0 32 15 18 22 18 24 1 42 -17 19 -17 20 2 34 19 14 5 19
-22 7z"/>
<path d="M2050 2150 c0 -25 4 -30 25 -30 22 0 25 -4 25 -35 0 -32 3 -35 28
-35 43 0 54 13 50 56 -3 39 -3 39 -40 36 -33 -3 -38 -1 -38 17 0 16 -6 21 -25
21 -21 0 -25 -5 -25 -30z"/>
<path d="M4725 2156 c-18 -27 -10 -60 12 -52 8 3 18 6 23 6 17 0 17 38 -1 54
-17 14 -20 14 -34 -8z"/>
<path d="M1516 2130 c-20 -50 -21 -70 -2 -45 12 16 16 17 30 6 18 -16 20 -6
10 48 -9 41 -19 39 -38 -9z m24 -10 c0 -5 -2 -10 -4 -10 -3 0 -8 5 -11 10 -3
6 -1 10 4 10 6 0 11 -4 11 -10z"/>
<path d="M1385 2148 c-12 -39 -15 -88 -5 -88 5 0 10 9 10 20 0 12 7 20 18 20
15 1 15 2 -2 12 -18 10 -18 11 5 29 l24 19 -23 0 c-12 0 -24 -6 -27 -12z"/>
<path d="M1440 2141 c0 -10 -3 -33 -6 -50 -4 -20 -3 -31 5 -31 6 0 11 9 11 20
0 11 5 20 10 20 6 0 10 -7 10 -15 0 -8 3 -15 8 -15 4 0 8 20 9 45 1 41 0 45
-23 45 -17 0 -24 -6 -24 -19z m40 0 c0 -12 -20 -25 -27 -18 -7 7 6 27 18 27 5
0 9 -4 9 -9z"/>
<path d="M4265 2140 c-55 -27 -95 -90 -95 -150 0 -154 189 -193 267 -55 43 76
20 173 -48 207 -44 23 -75 23 -124 -2z m119 -21 c6 -6 2 -19 -10 -36 -29 -39
-45 -41 -38 -5 4 17 1 32 -5 36 -6 4 -11 12 -11 17 0 11 50 1 64 -12z m-111
-58 c-2 -3 -12 5 -23 17 -19 20 -19 22 -2 31 14 8 18 5 23 -17 3 -15 4 -29 2
-31z m43 14 c-5 -25 -3 -35 6 -35 9 0 9 -3 1 -11 -16 -16 -33 -2 -31 24 0 12
-3 30 -7 40 -6 13 -2 17 15 17 20 0 22 -4 16 -35z m114 -4 c20 -39 2 -147 -24
-138 -6 3 -10 9 -9 16 2 6 -7 29 -18 51 l-22 41 23 25 c28 29 36 30 50 5z
m-183 -13 c32 -30 31 -86 -2 -124 -25 -28 -26 -28 -40 -10 -18 24 -20 95 -3
131 14 30 16 31 45 3z m118 -68 c27 -30 12 -34 -15 -5 -13 14 -19 25 -13 25 5
0 18 -9 28 -20z m-15 -34 c27 -29 22 -51 -14 -58 -25 -5 -26 -3 -26 38 0 50 7
54 40 20z m-50 -21 c0 -14 -4 -25 -10 -25 -11 0 -14 33 -3 43 11 11 13 8 13
-18z m-21 -63 c-4 -2 -18 2 -29 8 -21 11 -21 12 -4 31 17 19 18 19 29 -8 7
-15 8 -29 4 -31z"/>
<path d="M1200 2119 c0 -26 3 -30 23 -27 16 2 23 11 25 31 3 23 0 27 -22 27
-22 0 -26 -4 -26 -31z"/>
<path d="M4626 2128 c-12 -16 -13 -25 -4 -35 7 -9 15 -10 21 -4 5 5 15 7 22 5
6 -3 18 3 26 12 11 14 11 18 -6 30 -26 20 -41 17 -59 -8z"/>
<path d="M3462 2128 c-26 -26 -3 -89 31 -87 7 0 2 7 -10 16 -29 20 -29 47 -1
67 16 11 18 16 7 16 -8 0 -20 -5 -27 -12z"/>
<path d="M4569 2123 c-18 -4 -32 -40 -19 -48 16 -10 38 6 43 31 2 13 1 23 -2
23 -3 -1 -13 -3 -22 -6z"/>
<path d="M3748 2079 c-2 -22 -1 -42 2 -44 4 -2 7 16 9 41 3 55 -6 58 -11 3z"/>
<path d="M3530 2101 c13 -9 12 -12 -4 -24 -20 -15 -14 -37 10 -37 20 0 15 62
-6 67 -13 4 -13 3 0 -6z"/>
<path d="M363 2035 c0 -38 2 -53 4 -32 2 20 2 52 0 70 -2 17 -4 1 -4 -38z"/>
<path d="M1884 2084 c3 -8 6 -28 6 -42 0 -21 2 -24 10 -12 15 23 12 57 -6 64
-12 5 -15 2 -10 -10z"/>
<path d="M2247 2093 c-4 -3 -7 -17 -7 -30 0 -20 5 -24 23 -21 30 4 39 58 9 58
-10 0 -22 -3 -25 -7z"/>
<path d="M2352 2091 c-23 -14 -10 -46 18 -46 20 0 26 6 28 28 3 21 -1 27 -15
27 -10 0 -24 -4 -31 -9z"/>
<path d="M3570 2053 c1 -37 3 -44 11 -30 5 9 17 17 25 17 26 0 14 54 -13 58
-21 3 -23 0 -23 -45z m40 17 c0 -11 -4 -20 -9 -20 -14 0 -23 18 -16 30 10 17
25 11 25 -10z"/>
<path d="M3643 2065 c2 -35 10 -44 22 -25 4 6 1 17 -5 25 -6 8 -9 19 -5 25 3
5 1 10 -4 10 -6 0 -10 -15 -8 -35z"/>
<path d="M3786 2092 c-4 -7 -3 -12 1 -12 5 0 9 -9 10 -20 1 -11 -3 -20 -8 -20
-6 0 -7 5 -4 10 3 6 1 10 -4 10 -13 0 -15 -27 -2 -34 15 -10 41 5 41 23 0 25
-25 57 -34 43z"/>
<path d="M1775 2080 c3 -5 15 -10 25 -10 10 0 22 5 25 10 4 6 -7 10 -25 10
-18 0 -29 -4 -25 -10z"/>
<path d="M1995 2070 c-17 -19 -17 -21 1 -41 18 -20 18 -21 -1 -35 -18 -14 -18
-14 2 -14 29 0 40 36 18 60 -15 17 -15 19 1 28 9 5 12 12 7 15 -6 4 -18 -2
-28 -13z"/>
<path d="M3682 2063 c2 -20 9 -29 26 -31 19 -3 22 1 21 30 0 18 -3 26 -6 18
-2 -8 -7 -22 -9 -30 -5 -13 -7 -12 -15 3 -6 9 -7 22 -4 27 3 6 1 10 -5 10 -6
0 -10 -12 -8 -27z"/>
<path d="M3830 2076 c0 -8 5 -18 10 -21 8 -5 7 -11 -1 -21 -9 -11 -8 -14 4
-14 22 0 31 18 17 35 -6 8 -9 19 -5 25 3 5 -1 10 -9 10 -9 0 -16 -6 -16 -14z"/>
<path d="M1920 2028 c-9 -25 -22 -44 -32 -46 -15 -3 -18 4 -19 40 0 33 -2 38
-9 23 -5 -11 -9 -35 -9 -53 -1 -33 0 -33 31 -26 18 3 38 14 45 23 11 14 14 14
22 1 15 -22 20 -9 14 38 -7 54 -25 54 -43 0z m25 2 c3 -5 1 -10 -4 -10 -6 0
-11 5 -11 10 0 6 2 10 4 10 3 0 8 -4 11 -10z"/>
<path d="M2680 2040 c0 -16 4 -30 9 -30 25 0 41 14 41 36 0 19 -5 24 -25 24
-21 0 -25 -5 -25 -30z"/>
<path d="M1827 2050 c-3 -8 -7 -28 -9 -44 -5 -49 -28 -44 -29 6 -1 40 -1 41
-9 15 -10 -34 4 -81 23 -75 19 7 39 55 35 86 -3 19 -6 22 -11 12z"/>
<path d="M2047 2054 c-4 -4 -4 -17 -1 -29 9 -35 -24 -64 -76 -69 -44 -3 -45
-5 -48 -40 -3 -30 0 -36 17 -36 40 0 74 19 68 40 -6 23 8 37 43 42 22 3 25 8
25 47 0 41 -12 61 -28 45z"/>
<path d="M4613 2046 c-31 -10 -43 -11 -46 -2 -8 20 -27 -8 -21 -31 5 -19 11
-21 38 -16 17 3 32 9 34 13 1 4 14 5 27 2 21 -4 25 -1 25 22 0 29 0 29 -57 12z"/>
<path d="M1243 2042 c-18 -3 -23 -10 -23 -33 0 -29 12 -35 44 -23 16 6 23 50
9 56 -5 2 -18 2 -30 0z"/>
<path d="M1476 2043 c-28 -5 -28 -5 -7 -19 19 -14 24 -13 47 5 29 22 25 23
-40 14z"/>
<path d="M1596 2023 c-7 -16 -17 -44 -21 -63 -6 -33 -6 -34 8 -15 13 17 17 18
33 5 16 -14 17 -12 10 30 -5 25 -8 51 -9 58 -1 18 -5 15 -21 -15z"/>
<path d="M1723 2034 c-3 -9 -1 -25 5 -35 16 -26 15 -39 -4 -39 -8 0 -12 -5 -9
-10 10 -16 45 8 45 30 0 10 -8 24 -17 29 -17 10 -17 12 1 26 18 13 18 15 3 15
-10 0 -20 -7 -24 -16z"/>
<path d="M1395 2030 c-3 -5 1 -10 9 -10 8 0 18 5 21 10 3 6 -1 10 -9 10 -8 0
-18 -4 -21 -10z"/>
<path d="M1655 2028 c-12 -39 -15 -88 -5 -88 5 0 10 5 10 11 0 7 11 22 25 35
15 14 22 29 19 38 -7 19 -43 21 -49 4z m27 -30 c-9 -9 -12 -7 -12 12 0 19 3
21 12 12 9 -9 9 -15 0 -24z"/>
<path d="M2453 2033 c-8 -2 -13 -22 -13 -44 l0 -40 38 3 c36 3 37 4 40 46 3
40 2 42 -25 41 -15 0 -34 -3 -40 -6z"/>
<path d="M1520 2010 c-22 -22 -26 -60 -8 -78 15 -15 38 -16 38 -2 0 6 -6 10
-14 10 -8 0 -16 6 -19 13 -7 19 11 57 28 57 8 0 15 5 15 10 0 16 -18 12 -40
-10z"/>
<path d="M1359 1999 c-9 -6 -10 -12 -4 -16 17 -14 18 -63 0 -63 -8 0 -15 -4
-15 -10 0 -12 20 -13 36 -2 6 4 13 26 16 49 6 44 -6 59 -33 42z"/>
<path d="M1422 1998 c-15 -15 -16 -74 0 -84 17 -11 49 35 46 65 -3 29 -27 38
-46 19z m28 -25 c0 -10 -5 -25 -10 -33 -7 -11 -10 -7 -10 18 0 17 5 32 10 32
6 0 10 -8 10 -17z"/>
<path d="M1536 1974 c-4 -10 -1 -14 6 -12 15 5 23 28 10 28 -5 0 -13 -7 -16
-16z"/>
<path d="M2683 1983 c-13 -5 -20 -153 -8 -153 15 0 55 58 61 87 11 58 -10 84
-53 66z"/>
<path d="M3505 1980 c-4 -6 1 -10 9 -10 20 0 20 -19 1 -44 -21 -27 -19 -36 8
-36 17 0 19 2 7 10 -12 7 -12 12 -2 22 17 17 15 55 -3 61 -8 4 -17 2 -20 -3z"/>
<path d="M3560 1960 c-16 -30 -4 -72 18 -68 13 2 17 13 17 42 0 45 -18 58 -35
26z m30 -25 c0 -34 -12 -46 -25 -24 -9 14 3 59 15 59 6 0 10 -16 10 -35z"/>
<path d="M2240 1946 l-85 -11 -3 -104 c-1 -57 1 -108 5 -112 7 -7 211 15 241
26 13 5 16 90 6 169 -7 45 -7 46 -43 45 -20 -1 -74 -7 -121 -13z"/>
<path d="M3641 1918 c1 -21 3 -26 6 -13 8 34 23 41 23 12 0 -15 5 -27 11 -27
6 0 9 6 6 13 -3 8 -1 20 3 28 10 14 13 10 24 -36 2 -11 4 -4 3 15 -2 33 -4 35
-39 38 -37 2 -38 1 -37 -30z"/>
<path d="M3742 1938 c-19 -19 -14 -49 9 -55 21 -6 21 -7 4 -20 -18 -12 -18
-13 4 -13 20 0 22 4 19 47 -3 48 -15 62 -36 41z m28 -28 c0 -11 -4 -20 -10
-20 -5 0 -10 9 -10 20 0 11 5 20 10 20 6 0 10 -9 10 -20z"/>
<path d="M4788 1945 c-2 -3 -3 -18 0 -34 3 -22 8 -28 23 -24 24 7 25 39 0 52
-10 6 -20 8 -23 6z"/>
<path d="M1465 1910 c-10 -11 -30 -20 -45 -20 -24 0 -26 -3 -22 -30 3 -22 9
-29 21 -26 9 2 48 7 86 11 39 3 82 8 98 11 25 5 27 3 27 -26 0 -37 18 -46 69
-34 30 8 36 13 35 34 -1 14 -2 35 -3 48 -1 18 -7 22 -31 22 -16 0 -30 4 -30 8
0 9 -63 7 -121 -3 -26 -5 -40 -3 -51 9 -14 14 -17 13 -33 -4z"/>
<path d="M4745 1923 c-11 -2 -29 -9 -40 -14 -12 -6 -27 -11 -35 -12 -8 -2 -19
-5 -25 -9 -5 -3 -26 -5 -46 -4 -27 2 -39 -2 -48 -17 -20 -31 -1 -36 79 -21 41
8 84 16 96 18 30 4 41 13 47 36 6 23 0 28 -28 23z"/>
<path d="M1257 1874 c-4 -4 -7 -27 -7 -51 0 -30 -5 -45 -15 -49 -12 -5 -15
-30 -15 -143 0 -75 3 -147 7 -160 6 -23 8 -23 72 -17 36 4 83 9 104 13 l37 6
0 132 c0 73 -3 146 -6 163 -6 28 -9 30 -39 25 -34 -5 -34 -5 -37 38 l-3 44
-45 3 c-25 2 -49 0 -53 -4z"/>
<path d="M2715 1859 c-4 -6 -5 -13 -2 -16 7 -7 27 6 27 18 0 12 -17 12 -25 -2z"/>
<path d="M2575 1851 c-27 -6 -30 -10 -30 -46 0 -35 3 -40 23 -39 20 1 22 -4
22 -43 0 -30 5 -45 15 -49 23 -9 18 -24 -9 -24 -13 0 -37 -3 -54 -6 -29 -6
-31 -9 -34 -58 l-3 -51 -95 -12 c-52 -7 -101 -15 -107 -18 -9 -3 -13 -31 -13
-89 l0 -85 -35 -6 c-19 -3 -51 -7 -70 -10 l-35 -6 0 145 c0 81 -4 147 -10 151
-5 3 -49 0 -99 -6 l-90 -11 20 -37 c23 -44 24 -72 3 -117 -23 -48 -63 -74
-114 -74 -52 0 -68 8 -160 89 -54 47 -76 61 -78 49 -2 -11 -24 -19 -77 -27
l-74 -12 -3 -47 -3 -47 -152 -20 -153 -19 0 -67 c0 -36 -3 -68 -6 -72 -3 -3
-18 0 -32 6 -36 16 -636 412 -688 454 -23 18 -46 33 -53 33 -7 0 -11 -18 -11
-47 0 -45 3 -51 50 -93 27 -25 87 -68 132 -95 46 -26 177 -112 291 -189 115
-78 216 -145 225 -151 9 -5 37 -27 62 -49 35 -29 46 -34 48 -22 2 11 10 14 25
11 12 -3 64 1 115 9 52 7 108 11 125 7 38 -8 77 -3 77 9 0 10 75 26 165 35 88
9 778 103 924 125 69 11 129 20 134 20 9 0 9 66 1 109 l-7 32 -61 -6 c-71 -7
-58 9 17 19 l47 7 0 76 c0 69 -2 78 -30 110 -16 18 -30 38 -30 43 0 5 -6 7
-14 4 -24 -9 -29 17 -7 32 17 12 21 26 21 65 0 57 -23 66 -28 11 -2 -18 -9
-32 -15 -32 -7 0 -6 -4 3 -10 18 -11 7 -25 -15 -17 -16 7 -22 72 -7 81 9 5 3
87 -7 85 -3 -1 -19 -4 -36 -8z"/>
<path d="M2036 1808 c-9 -17 -16 -41 -16 -53 0 -18 4 -21 25 -17 15 3 25 11
25 22 0 10 7 20 15 24 8 3 15 17 15 31 0 39 -44 35 -64 -7z"/>
<path d="M3156 1815 c-9 -26 -7 -32 5 -12 6 10 9 21 6 23 -2 3 -7 -2 -11 -11z"/>
<path d="M2694 1787 c-10 -28 1 -90 18 -101 21 -13 36 0 20 16 -7 7 -12 29
-12 49 0 39 -16 61 -26 36z"/>
<path d="M3575 1770 c3 -5 8 -10 11 -10 2 0 4 5 4 10 0 6 -5 10 -11 10 -5 0
-7 -4 -4 -10z"/>
<path d="M4087 1773 c-2 -5 -1 -19 4 -33 4 -15 7 -18 8 -8 1 9 4 23 7 32 6 16
-11 23 -19 9z"/>
<path d="M4150 1767 c0 -7 5 -18 12 -25 9 -9 9 -12 -1 -12 -7 0 -9 -5 -5 -11
4 -7 11 -6 22 5 15 14 14 17 -3 32 -18 14 -18 15 -2 10 11 -3 16 -2 12 4 -9
15 -35 12 -35 -3z"/>
<path d="M1517 1751 c-8 -34 8 -41 25 -10 16 28 16 29 -1 29 -10 0 -21 -9 -24
-19z"/>
<path d="M1870 1764 c-8 -1 -37 -6 -63 -9 -41 -5 -46 -9 -36 -21 14 -17 127
-104 135 -104 9 0 -1 133 -11 135 -5 2 -17 1 -25 -1z"/>
<path d="M3611 1754 c0 -11 3 -14 6 -6 3 7 2 16 -1 19 -3 4 -6 -2 -5 -13z"/>
<path d="M3675 1750 c-7 -21 -25 -28 -25 -10 0 6 -5 10 -12 10 -8 0 -7 -6 4
-16 12 -12 20 -14 36 -5 10 6 22 7 26 4 8 -8 8 1 0 21 -8 22 -21 20 -29 -4z"/>
<path d="M3774 1755 c-3 -8 -4 -20 -2 -27 3 -7 7 -1 10 15 6 29 1 36 -8 12z"/>
<path d="M3845 1750 c-4 -13 -12 -19 -21 -16 -8 3 -14 1 -14 -3 0 -5 15 -9 34
-8 32 1 34 3 24 21 -15 30 -15 30 -23 6z"/>
<path d="M3900 1760 c-13 -8 -12 -11 5 -24 11 -8 22 -12 25 -10 2 3 -2 9 -9
13 -7 5 -10 14 -7 20 9 13 6 14 -14 1z"/>
<path d="M3950 1760 c0 -5 4 -10 9 -10 6 0 13 5 16 10 3 6 -1 10 -9 10 -9 0
-16 -4 -16 -10z"/>
<path d="M3990 1745 c0 -18 4 -23 16 -18 9 3 19 0 23 -6 5 -7 8 1 9 18 0 17
-4 31 -9 31 -6 0 -8 -4 -4 -9 3 -5 1 -12 -5 -16 -5 -3 -10 1 -10 9 0 9 -4 16
-10 16 -5 0 -10 -11 -10 -25z"/>
<path d="M4120 1744 c0 -14 4 -23 9 -20 5 3 7 15 4 26 -7 28 -13 25 -13 -6z"/>
<path d="M3535 1740 c3 -5 8 -10 11 -10 2 0 4 5 4 10 0 6 -5 10 -11 10 -5 0
-7 -4 -4 -10z"/>
<path d="M4618 1728 c-29 -29 -23 -51 12 -44 17 3 44 9 60 12 28 5 43 24 20
24 -5 0 -9 5 -7 11 4 19 -66 16 -85 -3z"/>
<path d="M4885 1732 c-16 -9 -37 -16 -45 -17 -29 -2 -60 -30 -60 -52 0 -13 2
-23 4 -23 6 0 150 52 154 55 5 5 -10 55 -17 54 -3 -1 -19 -8 -36 -17z"/>
<path d="M4550 1698 c0 -25 3 -29 10 -18 13 20 13 50 0 50 -5 0 -10 -15 -10
-32z"/>
<path d="M1973 1693 c-8 -3 -13 -23 -13 -50 0 -37 3 -44 16 -39 9 3 27 6 40 6
22 0 24 4 24 45 0 43 -1 45 -27 44 -16 0 -34 -3 -40 -6z"/>
<path d="M2304 1683 c-12 -2 -24 -13 -27 -24 -3 -13 -14 -19 -31 -19 -24 0
-26 -4 -26 -39 0 -22 4 -42 9 -45 17 -11 69 6 74 24 3 11 16 20 33 22 24 2 29
7 28 31 -2 62 -2 61 -60 50z"/>
<path d="M1487 1673 c-14 -13 -7 -84 8 -89 33 -13 42 2 31 50 -10 43 -23 56
-39 39z"/>
<path d="M4241 1660 c-2 -24 -2 -25 -17 -5 -15 20 -23 16 -36 -17 -2 -3 -12
-8 -22 -10 -28 -5 -31 20 -4 31 l23 10 -23 0 c-14 1 -26 -7 -32 -21 l-9 -23
-7 23 c-7 24 -24 30 -24 8 0 -7 -7 -19 -16 -27 -13 -11 -14 -9 -8 16 5 20 4
26 -5 21 -6 -4 -11 -14 -11 -22 0 -8 -4 -14 -10 -14 -5 0 -10 -4 -10 -8 0 -9
45 -10 55 0 3 3 21 2 40 -3 19 -6 43 -6 56 0 13 4 40 6 59 4 20 -2 30 -1 24 4
-7 4 -14 19 -17 33 l-4 25 -2 -25z"/>
<path d="M4705 1670 c-2 -4 -41 -16 -85 -26 -66 -15 -80 -21 -80 -37 0 -17 5
-19 38 -14 96 15 134 26 128 36 -3 4 8 6 23 3 25 -3 29 -1 29 21 0 19 -6 25
-24 25 -14 0 -26 -4 -29 -8z"/>
<path d="M3728 1663 c10 -4 10 -10 -3 -29 -8 -13 -12 -24 -7 -24 8 0 32 43 32
55 0 3 -8 5 -17 4 -12 0 -13 -2 -5 -6z"/>
<path d="M3797 1663 c-4 -3 -7 -18 -7 -32 0 -20 3 -22 9 -11 6 8 7 18 4 23 -3
5 1 13 8 18 8 5 9 9 3 9 -6 0 -14 -3 -17 -7z"/>
<path d="M3963 1663 c-7 -3 -13 -9 -13 -15 0 -7 5 -6 14 1 10 8 16 8 24 -2 16
-19 -6 -41 -25 -26 -8 7 -13 8 -13 1 0 -14 28 -23 36 -11 3 6 12 8 19 5 7 -2
16 2 19 10 10 26 7 36 -10 30 -9 -4 -22 -2 -28 2 -6 5 -17 7 -23 5z"/>
<path d="M2713 1653 c-22 -8 -15 -32 7 -26 11 3 20 12 20 19 0 14 -6 16 -27 7z"/>
<path d="M3910 1635 c0 -14 2 -25 4 -25 2 0 6 11 8 25 3 14 1 25 -3 25 -5 0
-9 -11 -9 -25z"/>
<path d="M3858 1639 c17 -19 15 -29 -5 -23 -14 5 -15 4 -4 -4 14 -10 41 -6 41
7 0 3 -10 12 -22 20 -18 10 -20 11 -10 0z"/>
<path d="M755 1630 c3 -5 8 -10 11 -10 2 0 4 5 4 10 0 6 -5 10 -11 10 -5 0 -7
-4 -4 -10z"/>
<path d="M3660 1631 c0 -6 4 -13 10 -16 6 -3 7 1 4 9 -7 18 -14 21 -14 7z"/>
<path d="M4840 1630 c0 -6 -4 -9 -9 -6 -12 8 -21 -28 -11 -44 12 -20 52 7 48
32 -3 22 -28 38 -28 18z"/>
<path d="M4790 1620 c0 -14 -139 -53 -195 -54 -47 -1 -50 -3 -53 -30 -4 -28
-3 -28 40 -20 24 4 54 8 68 8 14 1 31 5 39 10 12 8 32 12 88 18 7 1 17 15 23
31 13 37 13 47 0 47 -5 0 -10 -4 -10 -10z m-220 -80 c0 -5 -5 -10 -11 -10 -5
0 -7 5 -4 10 3 6 8 10 11 10 2 0 4 -4 4 -10z"/>
<path d="M2720 1605 c0 -8 5 -15 10 -15 6 0 10 7 10 15 0 8 -4 15 -10 15 -5 0
-10 -7 -10 -15z"/>
<path d="M2910 1601 c0 -12 29 -35 36 -28 11 10 -5 37 -21 37 -8 0 -15 -4 -15
-9z"/>
<path d="M3070 1599 c0 -5 5 -7 10 -4 6 3 10 8 10 11 0 2 -4 4 -10 4 -5 0 -10
-5 -10 -11z"/>
<path d="M3110 1591 c0 -5 7 -12 16 -15 14 -5 15 -4 4 9 -14 17 -20 19 -20 6z"/>
<path d="M860 1570 c0 -5 5 -10 11 -10 5 0 7 5 4 10 -3 6 -8 10 -11 10 -2 0
-4 -4 -4 -10z"/>
<path d="M3205 1570 c-3 -5 -1 -10 4 -10 6 0 11 5 11 10 0 6 -2 10 -4 10 -3 0
-8 -4 -11 -10z"/>
<path d="M3250 1555 c-7 -9 -11 -17 -9 -20 3 -2 10 5 17 15 14 24 10 26 -8 5z"/>
<path d="M3297 1554 c-11 -11 -8 -49 4 -61 13 -13 39 -6 39 9 0 7 -5 6 -13 -1
-16 -13 -27 -5 -27 20 0 24 20 35 32 18 8 -12 9 -11 5 1 -4 16 -29 25 -40 14z"/>
<path d="M4230 1510 c-24 -28 -40 -54 -36 -57 3 -4 22 12 42 35 19 23 39 42
42 42 4 0 30 -22 58 -48 50 -47 58 -71 32 -97 -7 -7 -9 -2 -4 16 8 36 -12 51
-60 45 -22 -2 -49 -5 -61 -5 -26 -1 -32 -31 -7 -31 10 0 14 -6 10 -15 -7 -19
3 -47 15 -39 5 3 9 18 9 35 0 16 5 29 10 29 6 0 10 -13 10 -30 0 -32 30 -45
30 -12 1 16 1 16 14 0 15 -20 56 -25 56 -7 0 7 10 9 25 5 18 -5 25 -2 25 8 0
21 -22 66 -32 66 -4 0 -34 25 -65 55 -32 30 -61 55 -65 55 -3 0 -25 -23 -48
-50z"/>
<path d="M3147 1536 c-4 -10 0 -12 14 -9 10 3 16 9 13 14 -8 13 -21 11 -27 -5z"/>
<path d="M3207 1540 c9 -10 10 -17 2 -27 -7 -8 -8 -13 -1 -13 18 0 21 28 4 41
-14 11 -15 11 -5 -1z"/>
<path d="M3382 1538 c-22 -22 -7 -69 23 -68 5 0 2 5 -7 11 -22 13 -23 27 -1
51 18 20 4 25 -15 6z"/>
<path d="M4445 1534 c-21 -21 -16 -68 8 -72 42 -8 66 57 28 78 -15 7 -24 6
-36 -6z m45 -28 c0 -19 -31 -29 -44 -16 -8 8 -6 9 7 5 12 -5 17 -2 17 9 0 9 5
16 10 16 6 0 10 -6 10 -14z"/>
<path d="M3437 1533 c-10 -9 -9 -51 1 -57 4 -2 8 8 7 22 0 20 5 27 17 26 10
-1 15 2 12 7 -6 11 -28 12 -37 2z"/>
<path d="M2997 1524 c-6 -10 9 -42 16 -34 3 3 1 14 -3 24 -3 11 -9 15 -13 10z"/>
<path d="M3500 1521 c0 -5 7 -14 15 -21 8 -7 15 -19 15 -27 0 -8 5 -11 10 -8
6 3 10 21 9 38 -1 31 -1 31 -9 7 l-8 -25 -7 23 c-7 21 -25 31 -25 13z"/>
<path d="M3240 1516 c0 -2 8 -10 18 -17 15 -13 16 -12 3 4 -13 16 -21 21 -21
13z"/>
<path d="M835 1470 c3 -5 8 -10 11 -10 2 0 4 5 4 10 0 6 -5 10 -11 10 -5 0 -7
-4 -4 -10z"/>
<path d="M2184 1466 c-3 -8 -4 -29 -2 -48 3 -31 5 -33 38 -29 42 4 47 10 42
56 -4 32 -7 35 -38 35 -21 0 -37 -6 -40 -14z"/>
<path d="M3165 1460 c-3 -6 1 -7 9 -4 18 7 21 14 7 14 -6 0 -13 -4 -16 -10z"/>
<path d="M3221 1444 c0 -11 3 -14 6 -6 3 7 2 16 -1 19 -3 4 -6 -2 -5 -13z"/>
<path d="M2942 1423 c2 -17 10 -29 21 -31 15 -3 18 2 15 25 -2 17 -10 29 -21
31 -15 3 -18 -2 -15 -25z"/>
<path d="M3260 1440 c0 -5 7 -7 15 -4 8 4 15 1 15 -5 0 -6 -7 -11 -15 -11 -8
0 -15 -4 -15 -10 0 -5 4 -10 9 -10 14 0 33 28 26 40 -8 13 -35 13 -35 0z"/>
<path d="M4150 1431 c-5 -11 -10 -31 -10 -46 0 -15 -4 -24 -10 -20 -5 3 -10
20 -10 36 0 18 -4 28 -10 24 -16 -10 -12 -61 6 -76 26 -21 48 2 54 55 6 48 -2
59 -20 27z"/>
<path d="M3310 1427 c0 -7 6 -19 12 -25 10 -10 10 -15 -2 -22 -9 -6 -10 -10
-3 -10 19 0 26 19 13 35 -6 8 -9 19 -5 25 3 5 1 10 -4 10 -6 0 -11 -6 -11 -13z"/>
<path d="M4188 1434 c-15 -14 -8 -73 9 -82 15 -9 14 -11 -4 -20 -11 -6 -23 -8
-27 -5 -3 3 -6 1 -6 -5 0 -7 8 -12 18 -13 9 0 33 -20 52 -44 19 -24 38 -44 42
-44 13 -1 77 73 77 89 0 9 -14 0 -35 -23 -36 -39 -42 -39 -81 -4 -29 26 -21
37 26 37 61 0 131 12 131 22 0 10 -146 2 -162 -9 -5 -2 -6 7 -2 21 5 21 3 25
-9 20 -12 -4 -16 3 -19 31 -2 20 -6 33 -10 29z"/>
<path d="M4725 1431 c-11 -5 -23 -6 -28 -4 -15 9 -67 -22 -67 -39 0 -21 8 -22
84 -7 43 9 56 16 52 26 -4 8 -6 19 -6 24 0 11 -8 11 -35 0z"/>
<path d="M3030 1410 c0 -5 5 -10 11 -10 5 0 7 5 4 10 -3 6 -8 10 -11 10 -2 0
-4 -4 -4 -10z"/>
<path d="M3207 1413 c-13 -13 -7 -21 13 -16 11 3 20 9 20 14 0 10 -24 12 -33
2z"/>
<path d="M3389 1400 c-3 -15 -10 -24 -19 -22 -12 3 -13 1 -2 -9 17 -18 35 2
30 32 l-4 24 -5 -25z"/>
<path d="M3420 1392 c0 -17 4 -34 10 -37 6 -4 7 6 3 27 -8 44 -13 48 -13 10z"/>
<path d="M3485 1399 c5 -13 3 -19 -3 -15 -5 3 -12 -1 -15 -9 -4 -9 -1 -12 10
-8 8 3 19 0 25 -8 7 -10 8 -7 4 11 -3 14 -6 31 -6 38 0 6 -5 12 -11 12 -6 0
-8 -9 -4 -21z"/>
<path d="M3533 1404 c-3 -9 0 -20 8 -25 12 -8 12 -10 -1 -18 -8 -6 -11 -13 -7
-17 4 -4 13 -2 19 4 10 10 10 17 -1 34 -11 17 -11 22 1 29 10 7 10 9 0 9 -7 0
-15 -7 -19 -16z"/>
<path d="M4540 1373 c0 -20 4 -23 35 -20 28 1 35 6 35 23 0 16 -6 20 -35 20
-30 0 -35 -3 -35 -23z"/>
<path d="M3130 1371 c0 -14 9 -20 35 -23 19 -2 35 0 35 4 0 4 -6 8 -14 8 -7 0
-19 7 -26 15 -17 21 -30 19 -30 -4z"/>
<path d="M4801 1370 c-16 -11 -22 -23 -18 -34 7 -18 23 -21 32 -6 4 6 11 8 16
5 5 -4 9 5 9 19 0 33 -11 38 -39 16z"/>
<path d="M3025 1350 c3 -5 8 -10 11 -10 2 0 4 5 4 10 0 6 -5 10 -11 10 -5 0
-7 -4 -4 -10z"/>
<path d="M4708 1345 c-25 -9 -38 -10 -40 -3 -3 7 -9 6 -18 -3 -8 -8 -24 -15
-35 -17 -11 -2 -25 -10 -31 -18 -6 -8 -17 -14 -25 -14 -10 1 -9 4 3 14 20 14
14 28 -8 19 -16 -6 -19 -49 -4 -58 6 -3 16 -3 23 2 6 4 17 8 22 9 6 0 16 2 23
2 7 1 10 7 6 13 -5 8 -2 9 11 1 12 -6 29 -6 49 0 17 6 40 11 51 12 21 3 33 33
18 46 -4 4 -25 2 -45 -5z"/>
<path d="M3268 1343 c6 -2 18 -2 25 0 6 3 1 5 -13 5 -14 0 -19 -2 -12 -5z"/>
<path d="M2970 1286 c0 -25 2 -46 4 -46 2 0 11 -3 20 -6 12 -5 16 1 16 23 0
16 5 34 12 41 14 14 11 18 -25 27 -27 7 -27 6 -27 -39z"/>
<path d="M3165 1310 c-3 -5 -1 -10 4 -10 6 0 11 5 11 10 0 6 -2 10 -4 10 -3 0
-8 -4 -11 -10z"/>
<path d="M3105 1289 c16 -27 38 -48 45 -44 10 6 1 45 -10 45 -5 0 -16 3 -26 7
-13 5 -15 3 -9 -8z"/>
<path d="M3233 1272 c10 -10 17 -24 17 -30 0 -7 5 -12 10 -12 17 0 11 25 -10
43 -27 23 -37 22 -17 -1z"/>
<path d="M2922 1247 c-7 -18 -12 -61 -12 -94 0 -59 1 -61 30 -72 l30 -10 0 74
c0 41 -4 77 -10 80 -5 3 -10 17 -10 31 0 34 -14 30 -28 -9z"/>
<path d="M3190 1231 c0 -6 -7 -11 -15 -11 -13 0 -13 -4 2 -27 14 -22 19 -24
21 -10 2 9 10 17 18 17 21 0 13 34 -9 38 -9 2 -17 -1 -17 -7z"/>
<path d="M3310 1220 c0 -5 5 -10 11 -10 5 0 7 5 4 10 -3 6 -8 10 -11 10 -2 0
-4 -4 -4 -10z"/>
<path d="M4774 1195 c3 -8 1 -15 -4 -15 -6 0 -10 4 -10 9 0 5 -16 8 -35 8 -32
-1 -35 -4 -35 -30 0 -28 2 -29 33 -22 17 3 39 8 47 9 18 3 27 56 10 56 -7 0
-10 -7 -6 -15z"/>
<path d="M4585 1169 c-3 -4 -12 -6 -20 -3 -15 6 -22 -4 -27 -41 -3 -17 2 -20
27 -17 17 1 49 7 71 13 39 10 41 12 30 34 -8 17 -19 23 -43 23 -18 0 -35 -4
-38 -9z"/>
<path d="M3265 1160 c-4 -6 -4 -10 -1 -10 3 0 1 -11 -4 -24 -12 -32 -2 -66 20
-66 23 0 28 15 22 62 -4 36 -25 57 -37 38z"/>
<path d="M3330 1134 c0 -8 5 -12 10 -9 6 3 10 10 10 16 0 5 -4 9 -10 9 -5 0
-10 -7 -10 -16z"/>
<path d="M3420 1126 c0 -8 5 -18 10 -21 6 -3 10 3 10 14 0 12 -4 21 -10 21 -5
0 -10 -6 -10 -14z"/>
<path d="M3457 1114 c3 -8 15 -14 27 -12 30 4 26 20 -6 24 -20 2 -25 -1 -21
-12z"/>
<path d="M3602 1103 c-9 -15 -7 -19 9 -19 21 0 23 4 10 25 -7 11 -11 10 -19
-6z"/>
<path d="M4195 1111 c-3 -2 -22 -5 -43 -6 -43 -2 -65 -12 -57 -25 8 -13 67 -3
77 12 6 10 10 10 16 0 5 -8 21 -10 43 -6 19 3 46 6 61 7 16 1 29 7 30 12 3 10
-118 16 -127 6z"/>
<path d="M4690 1098 c-7 -19 -9 -20 -9 -4 -1 14 -6 17 -23 12 -13 -3 -29 -6
-36 -6 -9 0 -11 -7 -7 -19 3 -11 1 -22 -5 -26 -6 -3 -10 3 -10 15 0 17 -4 20
-17 15 -10 -4 -26 -7 -35 -7 -19 1 -24 -24 -9 -47 7 -12 13 -12 24 -3 7 7 17
9 20 6 4 -4 20 -1 37 6 28 12 44 15 91 19 11 1 14 9 11 31 -5 36 -19 39 -32 8z"/>
<path d="M3892 1090 c-10 -16 -10 -20 2 -20 19 0 27 13 17 28 -4 8 -11 5 -19
-8z"/>
<path d="M4019 1092 c-14 -17 -13 -18 18 -19 23 -1 33 4 33 14 0 10 -6 12 -21
8 -15 -5 -19 -4 -15 4 11 17 2 13 -15 -7z"/>
<path d="M3732 1091 c2 -7 7 -12 11 -12 12 1 9 15 -3 20 -7 2 -11 -2 -8 -8z"/>
<path d="M3810 1086 c0 -9 5 -16 10 -16 6 0 10 4 10 9 0 6 -4 13 -10 16 -5 3
-10 -1 -10 -9z"/>
<path d="M3956 1091 c-3 -5 1 -12 10 -15 20 -8 29 -1 19 13 -8 13 -22 14 -29
2z"/>
<path d="M3920 1070 c0 -5 5 -10 10 -10 6 0 10 5 10 10 0 6 -4 10 -10 10 -5 0
-10 -4 -10 -10z"/>
<path d="M3425 1040 c-3 -5 -1 -10 4 -10 6 0 11 5 11 10 0 6 -2 10 -4 10 -3 0
-8 -4 -11 -10z"/>
<path d="M4186 1038 c3 -5 0 -15 -6 -23 -8 -9 -8 -15 -2 -15 6 0 12 6 15 13 3
9 7 9 20 -2 11 -9 17 -10 17 -2 0 6 -4 11 -10 11 -5 0 -10 4 -10 10 0 5 7 6
17 3 10 -4 14 -2 10 4 -4 6 -18 11 -32 11 -13 0 -22 -5 -19 -10z"/>
<path d="M4270 1042 c-5 -2 -10 -8 -10 -14 0 -6 7 -8 15 -4 8 3 21 -2 30 -10
17 -18 35 -10 35 15 0 14 -7 18 -30 17 -16 -1 -34 -2 -40 -4z"/>
<path d="M3520 1024 c0 -8 5 -12 10 -9 6 3 10 10 10 16 0 5 -4 9 -10 9 -5 0
-10 -7 -10 -16z"/>
<path d="M3708 983 c7 -3 16 -2 19 1 4 3 -2 6 -13 5 -11 0 -14 -3 -6 -6z"/>
<path d="M4294 970 c-10 -16 -104 -22 -104 -7 0 5 -6 5 -12 0 -7 -4 -20 -8
-28 -8 -8 0 -15 -7 -15 -15 0 -11 12 -15 43 -16 32 -1 42 3 38 13 -4 10 -1 11
12 4 9 -5 28 -8 42 -6 14 1 35 3 48 4 13 0 22 7 22 17 0 10 -6 14 -14 11 -8
-3 -16 -1 -19 6 -2 8 -6 7 -13 -3z m-134 -30 c0 -5 -2 -10 -4 -10 -3 0 -8 5
-11 10 -3 6 -1 10 4 10 6 0 11 -4 11 -10z"/>
<path d="M3495 960 c-3 -5 -1 -10 4 -10 6 0 11 5 11 10 0 6 -2 10 -4 10 -3 0
-8 -4 -11 -10z"/>
<path d="M3585 951 c-3 -5 -1 -12 5 -16 5 -3 10 1 10 9 0 18 -6 21 -15 7z"/>
<path d="M4090 951 c0 -6 5 -13 10 -16 6 -3 10 1 10 9 0 9 -4 16 -10 16 -5 0
-10 -4 -10 -9z"/>
<path d="M3694 937 c3 -10 6 -21 6 -24 0 -3 7 0 15 7 8 7 15 18 15 24 0 6 -5
4 -10 -4 -9 -13 -11 -13 -21 0 -9 13 -10 12 -5 -3z"/>
<path d="M4971 784 c0 -11 3 -14 6 -6 3 7 2 16 -1 19 -3 4 -6 -2 -5 -13z"/>
<path d="M4939 583 c-13 -16 -12 -17 4 -4 16 13 21 21 13 21 -2 0 -10 -8 -17
-17z"/>
</g>
</svg>
