<?xml version="1.0" standalone="no"?>
<!DOCTYPE svg PUBLIC "-//W3C//DTD SVG 20010904//EN"
 "http://www.w3.org/TR/2001/REC-SVG-20010904/DTD/svg10.dtd">
<svg version="1.0" xmlns="http://www.w3.org/2000/svg"
 width="445.000000pt" height="445.000000pt" viewBox="0 0 445.000000 445.000000"
 preserveAspectRatio="xMidYMid meet">

<g transform="translate(0.000000,445.000000) scale(0.100000,-0.100000)"
fill="#000000" stroke="none">
<path d="M2865 3075 c22 -8 49 -13 60 -13 11 0 2 6 -20 13 -22 8 -49 13 -60
13 -11 0 -2 -6 20 -13z"/>
<path d="M2723 3073 c15 -2 37 -2 50 0 12 2 0 4 -28 4 -27 0 -38 -2 -22 -4z"/>
<path d="M2612 3063 c-20 -8 -3 -23 26 -23 20 0 23 3 13 9 -11 7 -10 10 5 14
14 3 13 5 -6 5 -14 0 -31 -2 -38 -5z"/>
<path d="M2805 3060 c3 -6 -4 -10 -16 -10 -12 0 -20 -3 -16 -6 10 -10 78 6 72
17 -4 5 -15 9 -26 9 -11 0 -17 -4 -14 -10z"/>
<path d="M2993 3063 c9 -2 23 -2 30 0 6 3 -1 5 -18 5 -16 0 -22 -2 -12 -5z"/>
<path d="M2495 3040 c-21 -23 0 -39 22 -17 12 12 22 13 44 5 16 -5 34 -8 40
-6 6 2 -12 11 -40 20 -47 15 -51 15 -66 -2z"/>
<path d="M2326 3029 c6 -10 94 -32 101 -25 3 3 0 6 -8 7 -8 1 -3 4 11 9 19 5
8 8 -42 11 -36 2 -64 1 -62 -2z"/>
<path d="M2162 3003 c5 -26 44 -29 51 -4 4 18 0 21 -25 21 -23 0 -29 -4 -26
-17z"/>
<path d="M2002 3002 c-8 -5 6 -14 38 -24 27 -9 52 -12 55 -8 3 5 -9 12 -27 16
-29 6 -30 8 -13 15 17 6 15 8 -10 8 -16 0 -36 -3 -43 -7z"/>
<path d="M2234 3003 c4 -4 33 -8 64 -9 43 -1 50 0 27 6 -40 10 -100 12 -91 3z"/>
<path d="M1928 2993 c6 -2 18 -2 25 0 6 3 1 5 -13 5 -14 0 -19 -2 -12 -5z"/>
<path d="M1828 2983 c7 -3 16 -2 19 1 4 3 -2 6 -13 5 -11 0 -14 -3 -6 -6z"/>
<path d="M1775 2959 c22 -10 60 -18 85 -18 l45 1 -49 9 c-27 4 -54 13 -59 18
-6 6 -22 11 -36 10 -23 -1 -22 -3 14 -20z"/>
<path d="M1633 2963 c9 -2 23 -2 30 0 6 3 -1 5 -18 5 -16 0 -22 -2 -12 -5z"/>
<path d="M1848 2963 c7 -3 16 -2 19 1 4 3 -2 6 -13 5 -11 0 -14 -3 -6 -6z"/>
<path d="M1548 2953 c-10 -2 -18 -8 -18 -13 0 -13 42 -20 120 -18 l75 2 -65 3
c-80 4 -104 12 -75 23 l20 9 -20 -1 c-11 0 -28 -2 -37 -5z"/>
<path d="M1355 2919 c-9 -28 -2 -32 37 -24 28 7 30 9 13 15 -11 5 16 6 60 4
l80 -3 -80 14 c-106 18 -103 18 -110 -6z"/>
<path d="M1738 2933 c7 -3 16 -2 19 1 4 3 -2 6 -13 5 -11 0 -14 -3 -6 -6z"/>
<path d="M1175 2911 c30 -5 36 -8 22 -14 -27 -10 -87 -9 -87 3 0 6 -14 10 -32
10 -38 0 -30 -9 31 -35 33 -15 46 -16 49 -7 2 7 26 12 65 13 50 1 56 3 32 9
-16 4 -25 8 -20 10 21 4 -32 19 -65 18 l-35 -1 40 -6z"/>
<path d="M872 2866 c-10 -23 -9 -26 6 -25 9 1 28 5 42 9 19 6 21 8 6 9 -11 1
-17 3 -14 6 3 3 37 2 77 -3 39 -5 71 -5 71 -2 0 4 -24 10 -52 14 -29 3 -69 9
-88 12 -32 5 -37 3 -48 -20z"/>
<path d="M636 2863 l-29 -5 29 -19 c31 -20 74 -26 74 -9 0 6 -9 10 -19 10 -11
0 -23 5 -26 10 -4 6 14 10 47 9 42 -1 48 -3 28 -9 -21 -7 -21 -8 -5 -9 29 -1
65 10 65 20 0 9 -108 10 -164 2z"/>
<path d="M3065 2735 c-4 -69 -5 -128 -2 -132 3 -3 32 -1 64 3 45 7 59 13 61
28 4 17 -1 18 -42 12 l-46 -7 0 110 c0 89 -3 111 -14 111 -11 0 -16 -28 -21
-125z"/>
<path d="M2883 2824 c-60 -30 -94 -115 -73 -179 24 -72 103 -88 165 -34 108
95 30 275 -92 213z m92 -57 c39 -56 -5 -147 -70 -147 -62 0 -87 79 -44 134 38
48 86 53 114 13z"/>
<path d="M2743 2788 c-11 -18 -35 -59 -52 -91 -18 -31 -36 -55 -41 -52 -4 2
-26 37 -50 76 -23 39 -43 69 -45 67 -1 -2 -5 -60 -8 -130 -5 -121 -5 -128 13
-128 17 0 19 9 22 67 l3 68 34 -53 c37 -59 35 -59 77 21 13 26 27 47 30 47 3
0 4 -28 2 -62 -2 -51 0 -63 13 -66 14 -2 17 16 22 129 4 73 5 134 3 136 -2 2
-13 -11 -23 -29z"/>
<path d="M2406 2770 c-20 -50 -96 -265 -96 -271 0 -19 40 7 49 32 6 17 17 29
28 29 10 0 28 3 40 6 17 5 25 0 34 -20 7 -14 20 -26 31 -26 10 0 18 2 18 4 0
3 -70 189 -90 241 -6 16 -9 17 -14 5z m24 -163 c-4 -5 -16 -7 -27 -5 -18 3
-19 5 -5 38 l14 35 13 -30 c7 -17 9 -34 5 -38z"/>
<path d="M2200 2751 c-32 -4 -46 -11 -48 -23 -3 -15 4 -18 32 -18 l36 0 0
-116 c0 -105 2 -115 18 -112 15 3 17 18 20 121 l3 117 29 0 c23 0 30 4 30 20
0 22 -24 24 -120 11z"/>
<path d="M2050 2733 c-86 -9 -80 3 -80 -149 l0 -136 68 7 c79 9 82 10 82 36 0
15 -5 19 -17 16 -10 -3 -35 -8 -56 -12 l-38 -6 3 43 c3 42 4 43 43 48 30 4 41
10 43 25 2 18 -2 20 -43 17 l-45 -4 0 36 c0 31 3 36 24 36 52 0 86 12 86 31 0
12 -6 18 -17 17 -10 0 -34 -3 -53 -5z"/>
<path d="M1812 2693 c-95 -47 -113 -192 -30 -243 59 -36 148 -15 148 35 0 28
-12 32 -29 11 -29 -34 -109 -22 -125 19 -15 41 -6 87 24 117 26 25 37 29 71
26 38 -3 40 -2 37 22 -2 20 -9 26 -33 28 -16 1 -45 -5 -63 -15z"/>
<path d="M1592 2663 c-21 -43 -95 -273 -89 -279 12 -13 38 6 48 35 7 21 19 30
41 35 53 10 66 7 72 -19 5 -18 13 -25 31 -25 14 0 25 1 25 3 0 5 -110 260
-114 264 -2 3 -9 -4 -14 -14z m20 -165 c-34 -10 -36 -6 -22 38 l13 37 17 -34
18 -34 -26 -7z"/>
<path d="M1308 2643 l-28 -4 0 -139 c0 -76 4 -141 9 -144 23 -15 41 7 41 49 0
24 4 46 9 50 10 6 42 -24 68 -62 15 -23 47 -31 57 -14 3 4 -10 26 -28 47 l-34
39 21 23 c17 18 22 36 22 74 0 77 -34 97 -137 81z m86 -49 c36 -36 9 -94 -45
-94 -28 0 -29 1 -29 49 0 39 4 51 18 54 32 8 40 7 56 -9z"/>
<path d="M386 2598 c4 -13 8 -45 9 -73 2 -27 4 -54 5 -60 2 -5 0 -18 -5 -28
-11 -25 2 -34 22 -14 16 16 16 19 0 52 -20 41 -21 49 -7 40 6 -3 10 3 10 14 0
11 -4 23 -10 26 -5 3 -10 11 -10 16 0 6 5 7 10 4 14 -9 12 19 -2 33 -19 19
-30 14 -22 -10z"/>
<path d="M1062 2469 c-29 -84 -51 -153 -49 -155 11 -11 47 13 56 37 11 31 16
35 73 42 33 5 37 3 48 -24 12 -27 42 -40 54 -21 5 9 -114 272 -124 272 -3 0
-29 -68 -58 -151z m85 -31 c-16 -10 -47 -10 -47 1 0 4 5 23 11 41 l12 33 18
-34 c12 -25 14 -36 6 -41z"/>
<path d="M875 2591 l-50 -6 3 -105 c4 -154 10 -190 33 -190 15 0 18 9 21 52 2
44 6 53 23 56 68 11 105 50 105 111 0 33 -34 77 -65 83 -11 3 -42 2 -70 -1z
m85 -60 c5 -11 10 -27 10 -35 0 -24 -37 -56 -64 -56 -20 0 -24 6 -30 46 -7 57
-3 64 39 64 24 0 38 -6 45 -19z"/>
<path d="M396 2381 c-4 -5 -2 -13 4 -16 6 -4 8 -21 4 -43 -6 -36 8 -37 19 -2
2 8 3 3 1 -12 -2 -16 1 -28 6 -28 19 0 11 76 -9 94 -11 10 -21 13 -25 7z"/>
<path d="M3847 2363 c-13 -13 -7 -63 7 -63 8 0 18 5 21 10 3 6 -2 10 -12 10
-15 0 -16 2 -3 10 13 9 13 10 0 10 -11 1 -10 4 4 15 15 12 16 15 5 15 -9 0
-19 -3 -22 -7z"/>
<path d="M3891 2343 c-1 -23 3 -33 14 -33 8 0 15 5 15 11 0 5 -4 8 -9 4 -5 -3
-12 7 -14 22 -4 26 -4 26 -6 -4z"/>
<path d="M3790 2325 c0 -37 8 -43 28 -23 20 20 15 58 -8 58 -16 0 -20 -7 -20
-35z m30 6 c0 -11 -4 -23 -10 -26 -6 -4 -10 5 -10 19 0 14 5 26 10 26 6 0 10
-9 10 -19z"/>
<path d="M3717 2336 c-8 -9 -17 -12 -20 -8 -2 4 -2 2 -1 -5 2 -7 -1 -15 -6
-18 -13 -8 -13 -25 1 -25 5 0 8 4 4 9 -3 5 -1 12 5 16 5 3 10 -1 10 -9 0 -20
24 -21 40 -1 14 16 10 47 -6 52 -7 2 -19 -3 -27 -11z m27 -29 c-3 -9 -10 -17
-15 -17 -11 0 -12 34 -2 44 11 11 24 -9 17 -27z"/>
<path d="M3664 2315 l-7 -28 -14 24 c-8 14 -12 16 -9 6 3 -10 6 -25 6 -33 0
-25 18 -15 29 18 6 17 9 33 7 36 -3 2 -8 -8 -12 -23z"/>
<path d="M3612 2300 c0 -19 2 -27 5 -17 2 9 2 25 0 35 -3 9 -5 1 -5 -18z"/>
<path d="M3572 2300 c0 -14 2 -19 5 -12 2 6 2 18 0 25 -3 6 -5 1 -5 -13z"/>
<path d="M3526 2302 c-3 -6 0 -13 6 -15 8 -3 6 -6 -4 -6 -10 -1 -18 -8 -18
-17 0 -13 3 -14 13 -5 8 6 17 8 20 4 10 -9 8 20 -2 36 -5 8 -11 9 -15 3z"/>
<path d="M407 2245 c4 -17 7 -45 6 -63 -2 -32 -1 -33 17 -17 18 16 18 18 1 56
-23 50 -35 62 -24 24z"/>
<path d="M3578 2263 c7 -3 16 -2 19 1 4 3 -2 6 -13 5 -11 0 -14 -3 -6 -6z"/>
<path d="M3887 2263 c-4 -3 -7 -19 -7 -35 0 -29 13 -37 26 -16 4 7 3 8 -4 4
-7 -4 -12 -3 -12 3 0 5 6 12 13 14 10 4 10 6 0 6 -19 1 -16 19 5 24 14 4 14 5
1 6 -9 0 -19 -2 -22 -6z"/>
<path d="M3830 2228 c0 -25 3 -29 10 -18 6 10 10 11 10 3 0 -27 15 -12 17 17
2 24 -2 30 -17 30 -16 0 -20 -7 -20 -32z m30 12 c0 -5 -4 -10 -10 -10 -5 0
-10 5 -10 10 0 6 5 10 10 10 6 0 10 -4 10 -10z"/>
<path d="M3780 2215 c0 -32 2 -35 19 -26 11 6 19 21 19 36 0 18 -6 25 -19 25
-15 0 -19 -7 -19 -35z m30 21 c0 -3 -4 -8 -10 -11 -5 -3 -10 -1 -10 4 0 6 5
11 10 11 6 0 10 -2 10 -4z"/>
<path d="M3730 2210 c0 -25 4 -30 23 -29 17 1 18 2 4 6 -14 4 -16 8 -6 19 9
11 8 14 -2 15 -8 0 -5 4 6 9 19 8 19 9 -2 9 -19 1 -23 -4 -23 -29z"/>
<path d="M3667 2223 c-4 -3 -7 -17 -7 -30 0 -20 2 -22 14 -11 9 8 10 15 4 19
-6 4 -3 11 8 18 15 8 16 10 3 11 -9 0 -19 -3 -22 -7z"/>
<path d="M3712 2200 c0 -19 2 -27 5 -17 2 9 2 25 0 35 -3 9 -5 1 -5 -18z"/>
<path d="M3599 2193 c-16 -38 -45 -44 -52 -10 -3 16 -5 13 -6 -10 -1 -37 3
-39 43 -18 15 8 32 12 37 9 11 -6 11 14 -1 41 -8 18 -10 17 -21 -12z"/>
<path d="M3500 2191 c0 -7 -6 -11 -13 -8 -10 4 -13 -2 -9 -19 2 -13 9 -24 15
-24 6 0 7 3 4 6 -3 4 -2 15 4 26 6 11 8 22 5 26 -3 3 -6 0 -6 -7z"/>
<path d="M3414 2182 c-6 -4 -13 -20 -16 -35 -4 -20 -2 -25 5 -18 7 7 15 7 22
1 9 -7 12 -2 13 20 1 32 -8 43 -24 32z m16 -16 c0 -3 -4 -8 -10 -11 -5 -3 -10
-1 -10 4 0 6 5 11 10 11 6 0 10 -2 10 -4z"/>
<path d="M3340 2165 c-16 -19 -9 -49 12 -53 23 -4 43 35 27 54 -15 18 -23 18
-39 -1z m34 -28 c-7 -19 -20 -22 -29 -7 -9 15 16 43 27 32 5 -5 6 -16 2 -25z"/>
<path d="M3230 2140 c-11 -20 -13 -20 -24 -5 -12 16 -13 16 -29 0 -24 -23 -22
-55 3 -55 10 0 24 8 29 18 9 15 12 15 21 2 14 -21 45 0 45 31 0 31 -30 37 -45
9z m40 -15 c0 -19 -20 -29 -32 -17 -8 8 -7 16 2 26 14 17 30 12 30 -9z m-66
-4 c6 -10 -22 -37 -29 -29 -8 7 5 38 15 38 5 0 11 -4 14 -9z"/>
<path d="M3291 2133 c-1 -25 3 -33 17 -33 11 0 13 3 6 8 -7 4 -14 18 -17 32
-4 21 -4 20 -6 -7z"/>
<path d="M3867 2154 c-9 -9 -9 -48 -1 -57 13 -13 45 14 42 36 -3 22 -28 34
-41 21z m25 -36 c-15 -15 -26 -4 -18 18 5 13 9 15 18 6 9 -9 9 -15 0 -24z"/>
<path d="M3812 2138 c-16 -16 -15 -33 1 -47 10 -8 17 -7 25 1 15 15 15 28 2
28 -5 0 -9 -4 -7 -9 1 -5 -2 -10 -8 -11 -21 -3 -15 30 7 39 14 6 17 10 8 10
-9 1 -21 -4 -28 -11z"/>
<path d="M3762 2115 c-7 -14 -12 -27 -12 -28 0 -1 11 -2 24 -2 21 0 22 3 14
28 -6 15 -11 27 -12 27 -2 0 -8 -11 -14 -25z"/>
<path d="M419 2123 c-6 -34 -5 -61 2 -78 9 -20 9 -20 8 0 -1 11 0 29 1 40 2
17 3 17 10 -5 7 -23 8 -23 9 -3 1 12 -2 28 -5 37 -6 16 -23 22 -25 9z"/>
<path d="M2630 2121 c-14 -4 -34 -21 -46 -39 -20 -29 -22 -43 -20 -152 2 -100
6 -123 21 -140 38 -43 96 -14 114 57 16 63 21 239 8 256 -16 19 -46 27 -77 18z
m-3 -248 c-3 -10 -5 -2 -5 17 0 19 2 27 5 18 2 -10 2 -26 0 -35z"/>
<path d="M3726 2121 c-4 -5 -2 -20 3 -33 9 -21 10 -21 10 10 1 32 -3 39 -13
23z"/>
<path d="M3642 2108 c-15 -15 -16 -45 -2 -53 16 -10 41 16 38 38 -4 25 -20 31
-36 15z m24 -34 c-5 -13 -10 -14 -18 -6 -6 6 -8 18 -4 28 5 13 10 14 18 6 6
-6 8 -18 4 -28z"/>
<path d="M3691 2088 c1 -24 3 -27 6 -10 2 12 9 20 14 17 5 -3 6 1 3 9 -11 27
-24 17 -23 -16z"/>
<path d="M3596 2083 c9 -38 11 -39 16 -3 3 21 0 30 -9 30 -10 0 -11 -8 -7 -27z"/>
<path d="M3508 2093 c-12 -3 -18 -14 -18 -34 0 -24 4 -29 23 -28 21 0 21 1 2
9 -20 8 -20 8 -1 16 19 7 19 8 0 15 -17 7 -17 8 -1 8 9 1 17 6 17 11 0 6 -1 9
-2 9 -2 -1 -11 -3 -20 -6z"/>
<path d="M3544 2088 c-4 -6 1 -17 11 -25 17 -12 18 -13 1 -13 -10 0 -14 -5
-10 -11 4 -7 12 -6 23 6 15 15 15 17 -4 27 -19 11 -19 11 0 19 16 6 17 8 3 8
-9 1 -20 -4 -24 -11z"/>
<path d="M3431 2048 c-1 -30 2 -36 15 -31 9 3 11 8 6 12 -6 3 -12 17 -15 31
-3 19 -5 16 -6 -12z"/>
<path d="M3380 2040 c0 -25 4 -30 23 -29 17 1 18 2 4 6 -15 4 -16 7 -5 21 10
12 10 14 1 8 -7 -4 -13 -3 -13 3 0 5 6 12 13 14 7 3 5 6 -5 6 -13 1 -18 -7
-18 -29z"/>
<path d="M3307 2053 c-4 -3 -7 -17 -7 -31 0 -21 2 -22 15 -12 10 9 15 9 15 1
0 -25 15 -9 17 19 2 23 -2 30 -16 30 -10 0 -21 -3 -24 -7z m33 -13 c0 -5 -7
-10 -16 -10 -8 0 -12 5 -9 10 3 6 10 10 16 10 5 0 9 -4 9 -10z"/>
<path d="M447 2035 c-4 -8 -2 -17 3 -20 6 -4 10 3 10 14 0 25 -6 27 -13 6z"/>
<path d="M3260 2042 c0 -4 6 -14 13 -21 10 -11 9 -13 -5 -8 -10 3 -19 0 -22
-9 -9 -24 -7 -27 9 -14 8 6 19 9 25 5 11 -7 12 0 4 33 -6 21 -24 32 -24 14z"/>
<path d="M3210 2025 c7 -8 10 -22 6 -30 -3 -8 -2 -15 3 -15 5 0 11 14 13 30 4
25 1 30 -15 30 -16 0 -17 -3 -7 -15z"/>
<path d="M3130 2020 c0 -5 7 -7 16 -3 11 4 15 2 13 -6 -3 -7 -8 -12 -13 -11
-10 2 -26 -20 -26 -34 0 -6 5 -5 11 1 6 6 17 9 23 7 6 -2 12 8 13 26 2 24 -2
30 -17 30 -11 0 -20 -4 -20 -10z"/>
<path d="M3182 2000 c0 -19 2 -27 5 -17 2 9 2 25 0 35 -3 9 -5 1 -5 -18z"/>
<path d="M3077 2013 c-4 -3 -7 -20 -7 -37 0 -22 3 -27 9 -17 5 7 13 11 19 7
11 -6 24 32 16 46 -6 10 -28 11 -37 1z m22 -24 c-16 -10 -23 -4 -14 10 3 6 11
8 17 5 6 -4 5 -9 -3 -15z"/>
<path d="M420 1977 c0 -25 6 -39 19 -46 10 -6 21 -8 23 -5 10 9 -5 53 -23 70
-18 16 -19 16 -19 -19z m24 -22 c3 -8 1 -15 -4 -15 -6 0 -10 7 -10 15 0 8 2
15 4 15 2 0 6 -7 10 -15z"/>
<path d="M3052 1980 c0 -19 2 -27 5 -17 2 9 2 25 0 35 -3 9 -5 1 -5 -18z"/>
<path d="M3000 1983 c0 -13 -3 -14 -12 -5 -19 19 -24 15 -25 -20 0 -22 1 -25
4 -10 4 23 5 23 24 6 18 -17 19 -16 19 14 0 18 -2 32 -5 32 -3 0 -5 -8 -5 -17z"/>
<path d="M2903 1983 c-19 -7 -16 -30 5 -38 16 -7 15 -8 -3 -15 -16 -7 -17 -9
-3 -9 25 -1 34 20 14 35 -16 12 -16 12 1 16 10 2 14 6 8 9 -5 4 -16 4 -22 2z"/>
<path d="M2942 1960 c0 -19 2 -27 5 -17 2 9 2 25 0 35 -3 9 -5 1 -5 -18z"/>
<path d="M2742 1925 c0 -16 2 -22 5 -12 2 9 2 23 0 30 -3 6 -5 -1 -5 -18z"/>
<path d="M2520 1886 c0 -22 11 -46 21 -46 5 0 4 11 -1 24 -5 13 -6 27 -3 30 4
3 1 6 -5 6 -7 0 -12 -6 -12 -14z"/>
<path d="M430 1859 c0 -9 6 -22 14 -29 8 -6 17 -21 19 -33 2 -12 5 1 5 28 1
36 -1 46 -8 35 -9 -13 -11 -13 -20 0 -8 13 -10 13 -10 -1z"/>
<path d="M524 1712 c-1 -66 2 -97 5 -72 3 25 11 44 16 43 13 -2 4 104 -10 129
-7 11 -10 -20 -11 -100z"/>
<path d="M436 1790 c5 -14 9 -38 10 -55 3 -46 3 -47 18 -33 12 11 11 19 -2 53
-17 46 -39 75 -26 35z"/>
<path d="M3423 1788 c-19 -24 -44 -78 -35 -78 9 0 55 81 49 87 -2 2 -9 -2 -14
-9z"/>
<path d="M2682 1773 c-13 -9 -43 -17 -67 -17 -39 -1 -45 -4 -45 -23 0 -12 -5
-34 -11 -50 -7 -20 -12 -24 -18 -14 -7 11 -13 11 -32 -3 -13 -9 -19 -17 -14
-18 6 0 15 -2 20 -3 6 -2 24 -3 40 -4 27 -1 28 -3 11 -13 -11 -6 -39 -8 -66
-5 -41 5 -54 2 -93 -22 -58 -38 -87 -96 -87 -179 0 -33 -4 -63 -9 -66 -5 -3
-11 -19 -13 -35 -4 -28 -3 -30 26 -24 76 15 80 18 89 59 5 21 6 59 4 84 -3 25
-3 51 0 58 8 20 23 13 23 -11 0 -12 9 -40 20 -62 24 -47 25 -55 5 -55 -8 0
-15 -9 -15 -20 0 -24 -3 -24 111 -1 215 45 239 52 239 71 0 10 -5 20 -12 22
-9 3 -6 19 10 56 12 28 22 60 22 71 0 12 4 21 9 21 5 0 11 -38 12 -84 2 -46 6
-87 9 -90 9 -8 90 16 84 25 -3 5 -6 52 -7 104 -2 82 -6 98 -24 116 -24 24
-111 39 -122 21 -4 -7 -23 -15 -41 -18 -28 -5 -33 -4 -23 6 9 10 8 18 -4 36
-10 16 -13 35 -9 54 3 17 4 30 3 29 -1 0 -12 -7 -25 -16z"/>
<path d="M3365 1771 c-3 -11 -12 -18 -18 -15 -8 3 -22 -14 -35 -41 -12 -25
-17 -45 -12 -45 6 0 13 7 16 15 4 8 12 15 18 15 7 0 22 20 34 45 12 25 18 45
13 45 -6 0 -12 -9 -16 -19z"/>
<path d="M3825 1770 c-4 -6 -13 -9 -20 -8 -15 3 -15 3 -15 -42 0 -40 18 -39
22 2 2 17 9 34 17 36 10 3 12 -3 9 -27 -2 -17 -1 -31 4 -31 11 0 10 67 -1 75
-5 3 -13 1 -16 -5z"/>
<path d="M3649 1753 c0 -10 -1 -35 -2 -56 -1 -20 1 -37 5 -37 3 0 8 25 10 55
1 30 0 55 -4 55 -5 0 -8 -8 -9 -17z"/>
<path d="M3693 1742 c-6 -4 -14 -25 -18 -46 -6 -28 -5 -37 4 -32 6 4 11 20 11
36 0 15 7 30 15 34 11 4 15 -2 15 -24 0 -17 5 -30 10 -30 6 0 10 15 10 33 0
33 -20 45 -47 29z"/>
<path d="M3751 1713 c1 -34 2 -35 9 -13 11 36 11 50 0 50 -5 0 -10 -17 -9 -37z"/>
<path d="M3502 1710 c0 -14 2 -19 5 -12 2 6 2 18 0 25 -3 6 -5 1 -5 -13z"/>
<path d="M3610 1716 c-15 -19 -9 -58 10 -64 13 -5 13 -3 1 12 -11 13 -11 22
-3 41 13 28 10 32 -8 11z"/>
<path d="M2730 1705 c0 -10 7 -15 18 -13 21 4 19 22 -2 26 -10 2 -16 -3 -16
-13z"/>
<path d="M3536 1705 c-21 -21 -21 -61 0 -69 24 -9 56 23 52 53 -4 31 -29 38
-52 16z m32 -27 c-2 -17 -8 -33 -14 -35 -16 -5 -26 38 -12 54 18 22 29 14 26
-19z"/>
<path d="M3430 1706 c0 -3 16 -22 35 -43 19 -21 35 -33 35 -26 0 6 3 20 6 30
4 12 3 14 -3 5 -7 -9 -15 -6 -33 13 -21 23 -40 32 -40 21z"/>
<path d="M3432 1650 c0 -19 2 -27 5 -17 2 9 2 25 0 35 -3 9 -5 1 -5 -18z"/>
<path d="M440 1661 c0 -6 4 -12 9 -15 5 -3 7 -27 6 -54 -1 -29 3 -56 11 -67
19 -26 26 -14 13 24 -6 18 -9 44 -6 59 3 15 0 35 -7 45 -14 19 -26 22 -26 8z"/>
<path d="M527 1573 c-11 -10 -8 -53 3 -53 6 0 10 14 10 30 0 31 -2 35 -13 23z"/>
<path d="M2047 1564 c-14 -14 -7 -35 11 -32 9 2 17 10 17 17 0 16 -18 25 -28
15z m23 -14 c0 -5 -4 -10 -10 -10 -5 0 -10 5 -10 10 0 6 5 10 10 10 6 0 10 -4
10 -10z"/>
<path d="M2093 1556 c5 -16 27 -19 27 -3 0 7 -7 14 -15 14 -9 0 -14 -5 -12
-11z"/>
<path d="M1991 1546 c-9 -10 -9 -16 -1 -21 6 -4 14 -4 17 -1 4 3 1 6 -7 6 -10
0 -10 3 0 15 7 8 10 15 7 15 -2 0 -10 -6 -16 -14z"/>
<path d="M1957 1543 c-12 -11 -8 -30 7 -30 8 0 11 8 8 19 -5 20 -6 21 -15 11z"/>
<path d="M1910 1519 c0 -18 2 -19 15 -9 8 7 15 16 15 21 0 5 -7 9 -15 9 -9 0
-15 -9 -15 -21z"/>
<path d="M1846 1522 c-2 -4 -1 -14 5 -22 7 -12 9 -10 9 8 0 23 -5 28 -14 14z"/>
<path d="M1877 1510 c3 -11 7 -20 9 -20 2 0 4 9 4 20 0 11 -4 20 -9 20 -5 0
-7 -9 -4 -20z"/>
<path d="M1822 1500 c0 -14 2 -19 5 -12 2 6 2 18 0 25 -3 6 -5 1 -5 -13z"/>
<path d="M1762 1490 c0 -14 2 -19 5 -12 2 6 2 18 0 25 -3 6 -5 1 -5 -13z"/>
<path d="M1780 1495 c0 -6 7 -12 15 -12 8 0 15 6 15 12 0 6 -7 12 -15 12 -8 0
-15 -6 -15 -12z"/>
<path d="M459 1478 c-3 -70 13 -124 33 -112 10 6 5 85 -8 119 -9 23 -24 18
-25 -7z m30 -71 c1 -10 -3 -15 -9 -12 -5 3 -10 23 -9 43 1 33 2 34 9 12 4 -14
8 -33 9 -43z"/>
<path d="M530 1475 c0 -15 4 -24 10 -20 6 3 10 12 10 20 0 8 -4 17 -10 20 -6
4 -10 -5 -10 -20z"/>
<path d="M1710 1490 c0 -4 -9 -6 -20 -3 -14 4 -20 0 -20 -10 0 -23 16 -29 30
-13 6 8 20 13 31 11 10 -2 19 2 19 8 0 7 -9 13 -20 14 -11 1 -20 -2 -20 -7z
m-10 -14 c0 -3 -4 -8 -10 -11 -5 -3 -10 -1 -10 4 0 6 5 11 10 11 6 0 10 -2 10
-4z"/>
<path d="M1636 1475 c-8 -22 -8 -22 9 -22 17 0 18 6 6 25 -7 11 -10 10 -15 -3z"/>
<path d="M1587 1473 c-4 -3 -7 -15 -7 -26 0 -25 9 -17 15 12 4 22 2 25 -8 14z"/>
<path d="M1553 1458 c7 -20 -9 -25 -16 -5 -3 7 -6 5 -6 -5 -1 -10 5 -18 13
-18 21 0 30 20 16 33 -10 9 -12 8 -7 -5z"/>
<path d="M1452 1430 c0 -14 2 -19 5 -12 2 6 2 18 0 25 -3 6 -5 1 -5 -13z"/>
<path d="M1476 1435 c-4 -10 1 -15 14 -15 13 0 18 5 14 15 -4 8 -10 15 -14 15
-4 0 -10 -7 -14 -15z"/>
<path d="M535 1420 c-3 -11 -2 -28 4 -37 8 -14 10 -11 9 20 -1 42 -4 46 -13
17z"/>
<path d="M1410 1435 c0 -5 4 -16 9 -23 6 -11 10 -10 15 4 3 9 4 19 1 22 -3 3
-5 -1 -5 -9 0 -11 -2 -11 -10 1 -5 8 -10 11 -10 5z"/>
<path d="M2104 1399 c-4 -7 1 -16 12 -22 17 -10 17 -11 -1 -18 -16 -6 -17 -8
-3 -8 25 -1 34 20 14 35 -16 12 -16 13 1 17 15 4 16 5 1 6 -9 0 -20 -4 -24
-10z"/>
<path d="M2053 1373 c-10 -28 -10 -30 13 -25 28 5 29 11 11 37 -13 17 -15 16
-24 -12z"/>
<path d="M2006 1363 c9 -38 14 -41 14 -10 0 14 6 28 13 30 6 3 2 6 -11 6 -19
1 -22 -3 -16 -26z"/>
<path d="M1947 1373 c-9 -8 -9 -48 -1 -56 3 -3 13 -3 22 0 13 6 13 8 -4 14
-17 7 -17 8 -1 8 9 1 17 5 17 11 0 5 -8 7 -17 4 -15 -5 -15 -3 1 10 16 13 16
16 5 16 -9 0 -19 -3 -22 -7z"/>
<path d="M530 1351 c0 -6 5 -13 10 -16 6 -3 10 1 10 9 0 9 -4 16 -10 16 -5 0
-10 -4 -10 -9z"/>
<path d="M1843 1353 c-7 -2 -13 -18 -13 -34 0 -29 13 -36 38 -21 14 9 11 55
-4 58 -5 1 -15 0 -21 -3z m17 -13 c0 -5 -5 -10 -11 -10 -5 0 -7 5 -4 10 3 6 8
10 11 10 2 0 4 -4 4 -10z"/>
<path d="M1891 1338 c-1 -31 9 -41 29 -27 13 7 12 9 -2 9 -9 0 -19 10 -21 23
-4 19 -4 19 -6 -5z"/>
<path d="M460 1335 c0 -8 9 -19 20 -25 15 -8 20 -8 20 3 0 14 -19 37 -32 37
-4 0 -8 -7 -8 -15z"/>
<path d="M1739 1333 c-11 -3 -15 -11 -11 -28 6 -33 18 -32 25 3 6 31 7 29 -14
25z"/>
<path d="M1776 1318 c-9 -35 -7 -42 9 -28 8 6 19 9 24 5 7 -4 8 2 2 16 -11 31
-27 34 -35 7z"/>
<path d="M540 1294 c0 -8 5 -12 10 -9 6 4 8 11 5 16 -9 14 -15 11 -15 -7z"/>
<path d="M1501 1268 c0 -9 -5 -18 -11 -20 -6 -2 -6 -9 0 -18 13 -21 22 -7 17
27 -2 15 -5 21 -6 11z"/>
<path d="M1398 1259 c-22 -12 -23 -48 -3 -55 21 -8 47 15 43 39 -4 25 -17 30
-40 16z m32 -23 c0 -20 -19 -31 -32 -18 -6 6 -7 15 -4 21 10 16 36 13 36 -3z"/>
<path d="M1450 1258 c0 -17 20 -47 20 -31 0 6 3 18 6 27 4 11 1 16 -10 16 -9
0 -16 -6 -16 -12z"/>
<path d="M1327 1243 c-4 -3 -7 -17 -7 -30 0 -18 5 -23 25 -23 14 0 25 4 25 9
0 5 -9 7 -20 4 -29 -8 -26 25 3 37 21 8 21 9 1 9 -11 1 -24 -2 -27 -6z"/>
<path d="M1231 1199 c-14 -41 -14 -44 4 -29 8 7 22 10 30 6 18 -7 18 -4 3 29
-15 33 -24 32 -37 -6z"/>
<path d="M1201 1198 c-1 -19 -6 -28 -18 -28 -13 0 -14 -3 -5 -12 18 -18 34 4
29 38 l-4 29 -2 -27z"/>
<path d="M1111 1178 c-12 -33 -6 -52 9 -29 4 8 15 11 24 8 19 -8 19 -5 4 28
-15 33 -24 32 -37 -7z"/>
<path d="M1045 1184 c-9 -9 -15 -24 -13 -33 4 -18 58 -29 58 -11 0 7 -8 9 -20
5 -16 -5 -20 -2 -20 14 0 15 6 21 21 21 11 0 17 5 14 10 -9 14 -21 12 -40 -6z"/>
</g>
</svg>
